M48
METRIC,LZ,000.000
;FILE_FORMAT=3:3
;TYPE=PLATED
;Layer: PTH_Through_Via
;EasyEDA v6.5.54, 2026-02-09 07:30:50
;5af00af584fd4601be098027c279b521,a7a8ca7e30f1466fbda1f9f7b9e91330,10
;Gerber Generator version 0.2
;Holesize 1 = 0.301 mm
T01C0.301
;Holesize 2 = 0.306 mm
T02C0.306
;Holesize 3 = 0.310 mm
T03C0.310
%
G05
G90
T01
X018923Y080772
X020193Y076454
X018923Y077724
T02
X021424Y074149
X020191Y080618
X039728Y058939
X046973Y045436
X027857Y026642
X032137Y060147
X022975Y064975
X038739Y097356
X046355Y082423
X062881Y049302
X050068Y059437
X060687Y079516
X069219Y083018
X052068Y036486
X015144Y055648
X060979Y030016
X041015Y028161
X054887Y055889
X020942Y099932
X016819Y079402
X052800Y063003
X031071Y042997
X039212Y096425
X014333Y127643
X025091Y062383
X024637Y056454
X025841Y082824
X018923Y088646
X015200Y099932
X031484Y050757
X016431Y099930
X016053Y044083
X015188Y079294
X031540Y026686
X032503Y044487
X028179Y072622
X028179Y069868
X011001Y042377
X011001Y075928
X048582Y067196
X047821Y052063
X047904Y068072
X047356Y052814
X022380Y045368
X031753Y041476
X022323Y056117
X022323Y072374
X023567Y024511
X020114Y040166
X013535Y045281
X017527Y109068
X054271Y116658
X045720Y050800
X044776Y100030
X026342Y053829
X032028Y071827
X017681Y095908
X017700Y093824
X017700Y049771
X019646Y095764
X019442Y050620
X059610Y030243
X060079Y032753
X016683Y038921
X016683Y054268
X020206Y043792
X050534Y050011
X031256Y056803
X031444Y065322
X042238Y075275
X042119Y054840
X033287Y054102
X041190Y054407
X041190Y055870
X052706Y059951
X014236Y051242
X013605Y052296
T03
X047244Y095504
X025938Y023241
X021590Y023749
X060198Y023749
X055499Y023495
X052578Y113284
X016383Y094361
X026417Y047752
X015748Y082931
M30
