M48
METRIC,LZ,000.000
;FILE_FORMAT=3:3
;TYPE=PLATED
;Layer: PTH_Through
;EasyEDA v6.5.54, 2026-02-09 07:30:50
;5af00af584fd4601be098027c279b521,a7a8ca7e30f1466fbda1f9f7b9e91330,10
;Gerber Generator version 0.2
;Holesize 1 = 0.301 mm
T01C0.301
;Holesize 2 = 0.306 mm
T02C0.306
;Holesize 3 = 0.310 mm
T03C0.310
;Holesize 4 = 0.600 mm
T04C0.600
;Holesize 5 = 0.800 mm
T05C0.800
;Holesize 6 = 0.901 mm
T06C0.901
;Holesize 7 = 0.914 mm
T07C0.914
;Holesize 8 = 0.915 mm
T08C0.915
;Holesize 9 = 1.000 mm
T09C1.000
;Holesize 10 = 1.101 mm
T10C1.101
%
G05
G90
T01
X018923Y080772
X020193Y076454
X018923Y077724
T02
X021424Y074149
X020191Y080618
X039728Y058939
X046973Y045436
X027857Y026642
X032137Y060147
X022975Y064975
X038739Y097356
X046355Y082423
X062881Y049302
X050068Y059437
X060687Y079516
X069219Y083018
X052068Y036486
X015144Y055648
X060979Y030016
X041015Y028161
X054887Y055889
X020942Y099932
X016819Y079402
X052800Y063003
X031071Y042997
X039212Y096425
X014333Y127643
X025091Y062383
X024637Y056454
X025841Y082824
X018923Y088646
X015200Y099932
X031484Y050757
X016431Y099930
X016053Y044083
X015188Y079294
X031540Y026686
X032503Y044487
X028179Y072622
X028179Y069868
X011001Y042377
X011001Y075928
X048582Y067196
X047821Y052063
X047904Y068072
X047356Y052814
X022380Y045368
X031753Y041476
X022323Y056117
X022323Y072374
X023567Y024511
X020114Y040166
X013535Y045281
X017527Y109068
X054271Y116658
X045720Y050800
X044776Y100030
X026342Y053829
X032028Y071827
X017681Y095908
X017700Y093824
X017700Y049771
X019646Y095764
X019442Y050620
X059610Y030243
X060079Y032753
X016683Y038921
X016683Y054268
X020206Y043792
X050534Y050011
X031256Y056803
X031444Y065322
X042238Y075275
X042119Y054840
X033287Y054102
X041190Y054407
X041190Y055870
X052706Y059951
X014236Y051242
X013605Y052296
T03
X047244Y095504
X025938Y023241
X021590Y023749
X060198Y023749
X055499Y023495
X052578Y113284
X016383Y094361
X026417Y047752
X015748Y082931
T04
X062147Y016774G85X062147Y017574
X053507Y016774G85X053507Y017574
X053507Y020824G85X053507Y021924
X062147Y020824G85X062147Y021924
X027857Y017028G85X027857Y017828
X019217Y017028G85X019217Y017828
X019217Y021078G85X019217Y022178
X027857Y021078G85X027857Y022178
T05
X054271Y127000
X056811Y127000
X022267Y127254
X024807Y127254
T06
X013885Y027924
X013885Y025924
T07
X047361Y093161
X044861Y093161
X042361Y093161
X039761Y093161
T08
X060325Y121539
X062865Y121539
X065405Y121539
T09
X040894Y125959G85X040894Y126009
X038354Y125959G85X038354Y126009
X035814Y125959G85X035814Y126009
X043434Y125959G85X043434Y126009
X044831Y089687G85X044831Y089637
X042291Y089687G85X042291Y089637
X039751Y089687G85X039751Y089637
X047371Y089687G85X047371Y089637
T10
X060113Y115824
X060113Y092964
X060113Y095504
X060113Y098044
X060113Y100584
X060113Y103124
X060113Y105664
X060113Y108204
X060113Y110744
X060113Y113284
X035814Y122047
X038354Y122047
X040894Y122047
X043434Y122047
M30
