G04 Layer: BottomSolderMaskLayer*
G04 EasyEDA v6.5.54, 2026-02-09 07:30:50*
G04 5af00af584fd4601be098027c279b521,a7a8ca7e30f1466fbda1f9f7b9e91330,10*
G04 Gerber Generator version 0.2*
G04 Scale: 100 percent, Rotated: No, Reflected: No *
G04 Dimensions in millimeters *
G04 leading zeros omitted , absolute positions ,4 integer and 5 decimal *
%FSLAX45Y45*%
%MOMM*%

%AMMACRO1*4,1,8,-0.9211,-0.9508,-0.9508,-0.921,-0.9508,0.9211,-0.9211,0.9508,0.921,0.9508,0.9508,0.9211,0.9508,-0.921,0.921,-0.9508,-0.9211,-0.9508,0*%
%AMMACRO2*4,1,8,-1.0211,-0.5508,-1.0508,-0.521,-1.0508,0.5211,-1.0211,0.5508,1.021,0.5508,1.0508,0.5211,1.0508,-0.521,1.021,-0.5508,-1.0211,-0.5508,0*%
%AMMACRO3*4,1,8,-0.2711,-0.6208,-0.3008,-0.591,-0.3008,0.5911,-0.2711,0.6208,0.271,0.6208,0.3008,0.5911,0.3008,-0.591,0.271,-0.6208,-0.2711,-0.6208,0*%
%AMMACRO4*4,1,8,-0.1711,-0.6208,-0.2008,-0.591,-0.2008,0.5911,-0.1711,0.6208,0.171,0.6208,0.2008,0.5911,0.2008,-0.591,0.171,-0.6208,-0.1711,-0.6208,0*%
%AMMACRO5*4,1,8,-0.6561,-1.9008,-0.6858,-1.871,-0.6858,1.8711,-0.6561,1.9008,0.656,1.9008,0.6858,1.8711,0.6858,-1.871,0.656,-1.9008,-0.6561,-1.9008,0*%
%AMMACRO6*4,1,8,-0.6961,-2.1508,-0.7258,-2.121,-0.7258,2.1211,-0.6961,2.1508,0.696,2.1508,0.7258,2.1211,0.7258,-2.121,0.696,-2.1508,-0.6961,-2.1508,0*%
%AMMACRO7*4,1,8,-0.6961,-0.7558,-0.7258,-0.726,-0.7258,0.7261,-0.6961,0.7558,0.696,0.7558,0.7258,0.7261,0.7258,-0.726,0.696,-0.7558,-0.6961,-0.7558,0*%
%AMMACRO8*4,1,8,-0.6415,-1.6016,-0.701,-1.5421,-0.701,1.5421,-0.6415,1.6016,0.6415,1.6016,0.701,1.5421,0.701,-1.5421,0.6415,-1.6016,-0.6415,-1.6016,0*%
%AMMACRO9*4,1,8,-0.4421,-1.6016,-0.5016,-1.5421,-0.5016,1.5421,-0.4421,1.6016,0.4421,1.6016,0.5016,1.5421,0.5016,-1.5421,0.4421,-1.6016,-0.4421,-1.6016,0*%
%AMMACRO10*4,1,8,-0.7261,-0.7258,-0.7558,-0.696,-0.7558,0.6961,-0.7261,0.7258,0.726,0.7258,0.7558,0.6961,0.7558,-0.696,0.726,-0.7258,-0.7261,-0.7258,0*%
%AMMACRO11*4,1,8,-1.1641,-0.6858,-1.1938,-0.656,-1.1938,0.6561,-1.1641,0.6858,1.164,0.6858,1.1938,0.6561,1.1938,-0.656,1.164,-0.6858,-1.1641,-0.6858,0*%
%AMMACRO12*4,1,8,-0.7711,-0.9398,-0.8008,-0.91,-0.8008,0.9101,-0.7711,0.9398,0.771,0.9398,0.8008,0.9101,0.8008,-0.91,0.771,-0.9398,-0.7711,-0.9398,0*%
%AMMACRO13*4,1,8,-0.7711,-0.6858,-0.8008,-0.656,-0.8008,0.6561,-0.7711,0.6858,0.771,0.6858,0.8008,0.6561,0.8008,-0.656,0.771,-0.6858,-0.7711,-0.6858,0*%
%AMMACRO14*4,1,8,-1.0211,-0.4008,-1.0508,-0.371,-1.0508,0.3711,-1.0211,0.4008,1.021,0.4008,1.0508,0.3711,1.0508,-0.371,1.021,-0.4008,-1.0211,-0.4008,0*%
%AMMACRO15*4,1,8,-1.0211,-0.4007,-1.0508,-0.3709,-1.0508,0.3709,-1.0211,0.4007,1.021,0.4007,1.0508,0.3709,1.0508,-0.3709,1.021,-0.4007,-1.0211,-0.4007,0*%
%AMMACRO16*4,1,8,-0.5211,-0.7506,-0.5508,-0.7208,-0.5508,0.7208,-0.5211,0.7506,0.521,0.7506,0.5508,0.7208,0.5508,-0.7208,0.521,-0.7506,-0.5211,-0.7506,0*%
%AMMACRO17*4,1,8,-0.5211,-1.0508,-0.5508,-1.021,-0.5508,1.0211,-0.5211,1.0508,0.521,1.0508,0.5508,1.0211,0.5508,-1.021,0.521,-1.0508,-0.5211,-1.0508,0*%
%AMMACRO18*4,1,8,-0.5873,-0.7393,-0.6171,-0.7095,-0.6171,0.7095,-0.5873,0.7393,0.5873,0.7393,0.6171,0.7095,0.6171,-0.7095,0.5873,-0.7393,-0.5873,-0.7393,0*%
%AMMACRO19*4,1,8,-0.7095,-0.6171,-0.7393,-0.5873,-0.7393,0.5873,-0.7095,0.6171,0.7095,0.6171,0.7393,0.5873,0.7393,-0.5873,0.7095,-0.6171,-0.7095,-0.6171,0*%
%AMMACRO20*4,1,8,-0.8716,-0.6546,-0.9013,-0.6248,-0.9013,0.6248,-0.8716,0.6546,0.8715,0.6546,0.9013,0.6248,0.9013,-0.6248,0.8715,-0.6546,-0.8716,-0.6546,0*%
%AMMACRO21*4,1,8,-0.5711,-1.1508,-0.6008,-1.121,-0.6008,1.1211,-0.5711,1.1508,0.571,1.1508,0.6008,1.1211,0.6008,-1.121,0.571,-1.1508,-0.5711,-1.1508,0*%
%AMMACRO22*4,1,8,-0.5211,-0.5758,-0.5508,-0.546,-0.5508,0.546,-0.5211,0.5758,0.521,0.5758,0.5508,0.546,0.5508,-0.546,0.521,-0.5758,-0.5211,-0.5758,0*%
%AMMACRO23*4,1,8,-0.7831,-0.3508,-0.8128,-0.321,-0.8128,0.3211,-0.7831,0.3508,0.783,0.3508,0.8128,0.3211,0.8128,-0.321,0.783,-0.3508,-0.7831,-0.3508,0*%
%AMMACRO24*4,1,8,-0.3711,-0.6508,-0.4008,-0.621,-0.4008,0.6211,-0.3711,0.6508,0.371,0.6508,0.4008,0.6211,0.4008,-0.621,0.371,-0.6508,-0.3711,-0.6508,0*%
%AMMACRO25*4,1,8,-0.8851,-0.7933,-0.9148,-0.7635,-0.9148,0.7635,-0.8851,0.7933,0.885,0.7933,0.9148,0.7635,0.9148,-0.7635,0.885,-0.7933,-0.8851,-0.7933,0*%
%AMMACRO26*4,1,8,-1.8211,-1.2208,-1.8508,-1.191,-1.8508,1.1911,-1.8211,1.2208,1.821,1.2208,1.8508,1.1911,1.8508,-1.191,1.821,-1.2208,-1.8211,-1.2208,0*%
%AMMACRO27*4,1,8,-0.5111,-1.2208,-0.5408,-1.191,-0.5408,1.1911,-0.5111,1.2208,0.511,1.2208,0.5408,1.1911,0.5408,-1.191,0.511,-1.2208,-0.5111,-1.2208,0*%
%AMMACRO28*4,1,8,-0.511,-1.2208,-0.5408,-1.191,-0.5408,1.1911,-0.511,1.2208,0.511,1.2208,0.5408,1.1911,0.5408,-1.191,0.511,-1.2208,-0.511,-1.2208,0*%
%AMMACRO29*4,1,8,-0.5561,-0.3508,-0.5858,-0.321,-0.5858,0.3211,-0.5561,0.3508,0.556,0.3508,0.5858,0.3211,0.5858,-0.321,0.556,-0.3508,-0.5561,-0.3508,0*%
%AMMACRO30*4,1,8,-1.5211,-1.8008,-1.5508,-1.771,-1.5508,1.7711,-1.5211,1.8008,1.521,1.8008,1.5508,1.7711,1.5508,-1.771,1.521,-1.8008,-1.5211,-1.8008,0*%
%ADD10O,1.801597X2.601595*%
%ADD11C,1.9016*%
%ADD12MACRO1*%
%ADD13C,1.6240*%
%ADD14C,1.7500*%
%ADD15C,1.7272*%
%ADD16MACRO2*%
%ADD17C,0.0188*%
%ADD18O,2.101596X1.101598*%
%ADD19C,1.3016*%
%ADD20MACRO3*%
%ADD21MACRO4*%
%ADD22O,1.101598X1.901596*%
%ADD23O,1.101598X2.201596*%
%ADD24MACRO5*%
%ADD25MACRO6*%
%ADD26MACRO7*%
%ADD27MACRO8*%
%ADD28MACRO9*%
%ADD29C,1.7016*%
%ADD30MACRO10*%
%ADD31MACRO11*%
%ADD32MACRO12*%
%ADD33MACRO13*%
%ADD34MACRO14*%
%ADD35MACRO15*%
%ADD36O,0.661594X1.846605*%
%ADD37MACRO16*%
%ADD38MACRO17*%
%ADD39MACRO18*%
%ADD40MACRO19*%
%ADD41MACRO20*%
%ADD42MACRO21*%
%ADD43MACRO22*%
%ADD44MACRO23*%
%ADD45MACRO24*%
%ADD46MACRO25*%
%ADD47MACRO26*%
%ADD48MACRO27*%
%ADD49MACRO28*%
%ADD50MACRO29*%
%ADD51O,1.701597X0.701599*%
%ADD52MACRO30*%

%LPD*%
D10*
G01*
X4089400Y12598400D03*
G01*
X3835400Y12598400D03*
G01*
X3581400Y12598400D03*
G01*
X4343400Y12598400D03*
D11*
G01*
X6011341Y11582400D03*
D12*
G01*
X6011334Y9296400D03*
D11*
G01*
X6011341Y9550400D03*
G01*
X6011341Y9804400D03*
G01*
X6011341Y10058400D03*
G01*
X6011341Y10312400D03*
G01*
X6011341Y10566400D03*
G01*
X6011341Y10820400D03*
G01*
X6011341Y11074400D03*
G01*
X6011341Y11328400D03*
D13*
G01*
X6032500Y12153900D03*
G01*
X6286500Y12153900D03*
G01*
X6540500Y12153900D03*
D14*
G01*
X3581400Y12204700D03*
G01*
X3835400Y12204700D03*
G01*
X4089400Y12204700D03*
G01*
X4343400Y12204700D03*
D15*
G01*
X4736084Y9316110D03*
G01*
X4486071Y9316110D03*
G01*
X4236084Y9316110D03*
G01*
X3976090Y9316110D03*
D10*
G01*
X4483100Y8966200D03*
G01*
X4229100Y8966200D03*
G01*
X3975100Y8966200D03*
G01*
X4737100Y8966200D03*
D16*
G01*
X5211213Y4762487D03*
D18*
G01*
X5211216Y4889474D03*
G01*
X5211216Y5016474D03*
G01*
X5211216Y5143474D03*
G01*
X5211216Y5270474D03*
G01*
X5211216Y5397474D03*
G01*
X5211216Y5524474D03*
G01*
X5211216Y5651474D03*
D19*
G01*
X6351727Y4481982D03*
G01*
X6351727Y5931966D03*
D16*
G01*
X5211213Y6400787D03*
D18*
G01*
X5211216Y6527774D03*
G01*
X5211216Y6654774D03*
G01*
X5211216Y6781774D03*
G01*
X5211216Y6908774D03*
G01*
X5211216Y7035774D03*
G01*
X5211216Y7162774D03*
G01*
X5211216Y7289774D03*
D19*
G01*
X6351727Y6120282D03*
G01*
X6351727Y7570266D03*
D20*
G01*
X6102734Y2194128D03*
G01*
X6022733Y2194128D03*
D21*
G01*
X5957738Y2194217D03*
G01*
X5907726Y2194115D03*
G01*
X5857739Y2194115D03*
G01*
X5807726Y2194115D03*
G01*
X5757739Y2194115D03*
G01*
X5707726Y2194115D03*
G01*
X5657764Y2194217D03*
G01*
X5607726Y2194115D03*
D20*
G01*
X5542734Y2194128D03*
G01*
X5462734Y2194128D03*
D22*
G01*
X6214745Y1717395D03*
G01*
X5350738Y1717395D03*
D23*
G01*
X5350738Y2137410D03*
G01*
X6214745Y2137384D03*
D20*
G01*
X2673734Y2219528D03*
G01*
X2593733Y2219528D03*
D21*
G01*
X2528738Y2219617D03*
G01*
X2478726Y2219515D03*
G01*
X2428739Y2219515D03*
G01*
X2378726Y2219515D03*
G01*
X2328739Y2219515D03*
G01*
X2278726Y2219515D03*
G01*
X2228764Y2219617D03*
G01*
X2178726Y2219515D03*
D20*
G01*
X2113734Y2219528D03*
G01*
X2033734Y2219528D03*
D22*
G01*
X2785745Y1742795D03*
G01*
X1921738Y1742795D03*
D23*
G01*
X1921738Y2162810D03*
G01*
X2785745Y2162784D03*
D24*
G01*
X6362700Y13245900D03*
D25*
G01*
X6639699Y13220903D03*
G01*
X6085700Y13220903D03*
D24*
G01*
X4752621Y13233200D03*
D25*
G01*
X5029621Y13208203D03*
G01*
X4475622Y13208203D03*
D24*
G01*
X3176409Y13233200D03*
D25*
G01*
X3453409Y13208203D03*
G01*
X2899409Y13208203D03*
D24*
G01*
X1600200Y13233200D03*
D25*
G01*
X1877199Y13208203D03*
G01*
X1323200Y13208203D03*
D26*
G01*
X6553200Y3798897D03*
G01*
X6553200Y3998902D03*
D27*
G01*
X2137834Y11912600D03*
D28*
G01*
X1269024Y9791750D03*
G01*
X1394068Y9791700D03*
G01*
X1519036Y9791700D03*
G01*
X1644004Y9791700D03*
G01*
X1768972Y9791700D03*
G01*
X1893940Y9791700D03*
G01*
X2018908Y9791700D03*
G01*
X2144130Y9791700D03*
D29*
G01*
X1388541Y2792399D03*
G01*
X1388541Y2592400D03*
D30*
G01*
X4511136Y2641600D03*
G01*
X4311131Y2641600D03*
G01*
X3834881Y2641600D03*
G01*
X4034886Y2641600D03*
D26*
G01*
X6608234Y2643197D03*
G01*
X6608234Y2843202D03*
D30*
G01*
X3379797Y5854700D03*
G01*
X3579802Y5854700D03*
G01*
X3041131Y2782694D03*
G01*
X3241136Y2782694D03*
G01*
X2758536Y2782694D03*
G01*
X2558531Y2782694D03*
G01*
X3152236Y8089900D03*
G01*
X2952231Y8089900D03*
D26*
G01*
X6553200Y3554402D03*
G01*
X6553200Y3354397D03*
D30*
G01*
X4511136Y3009900D03*
G01*
X4311131Y3009900D03*
G01*
X3834881Y3009900D03*
G01*
X4034886Y3009900D03*
G01*
X3152236Y8331200D03*
G01*
X2952231Y8331200D03*
D31*
G01*
X1572519Y6959600D03*
G01*
X1572519Y8509000D03*
D32*
G01*
X2537719Y8432800D03*
D33*
G01*
X2537719Y6959600D03*
D34*
G01*
X2601549Y7083564D03*
G01*
X2601549Y7193554D03*
G01*
X2601549Y7303556D03*
G01*
X2601549Y7413508D03*
G01*
X2601549Y7523538D03*
D35*
G01*
X2601549Y7633507D03*
D34*
G01*
X2601549Y7743550D03*
G01*
X2601371Y7853502D03*
G01*
X2601549Y7963458D03*
D36*
G01*
X6341541Y2824251D03*
G01*
X6214541Y2824251D03*
G01*
X6087541Y2824251D03*
G01*
X5960541Y2824251D03*
G01*
X5833541Y2824251D03*
G01*
X5706541Y2824251D03*
G01*
X5579541Y2824251D03*
G01*
X5452541Y2824251D03*
G01*
X6341541Y3398748D03*
G01*
X6214541Y3398748D03*
G01*
X6087541Y3398748D03*
G01*
X5960541Y3398748D03*
G01*
X5833541Y3398748D03*
G01*
X5706541Y3398748D03*
G01*
X5579541Y3398748D03*
G01*
X5452541Y3398748D03*
D37*
G01*
X2039155Y3733800D03*
G01*
X2249213Y3733800D03*
G01*
X4509305Y1625600D03*
G01*
X4719363Y1625600D03*
G01*
X2039155Y2781300D03*
G01*
X2249213Y2781300D03*
D38*
G01*
X1371650Y4220527D03*
G01*
X1498650Y4220527D03*
G01*
X2768650Y4220527D03*
G01*
X2641650Y4220527D03*
G01*
X2514650Y4220527D03*
G01*
X2387650Y4220527D03*
G01*
X2260650Y4220527D03*
G01*
X2133650Y4220527D03*
G01*
X2006650Y4220527D03*
G01*
X1879650Y4220527D03*
G01*
X1752650Y4220527D03*
G01*
X1625650Y4220527D03*
D16*
G01*
X2940100Y5990292D03*
G01*
X2940100Y5863292D03*
G01*
X2940100Y5736292D03*
G01*
X2940100Y5609292D03*
G01*
X2940100Y5482292D03*
G01*
X2940100Y5355292D03*
G01*
X2940100Y5228292D03*
G01*
X2940100Y5101292D03*
G01*
X2940100Y4974292D03*
G01*
X2940100Y4847292D03*
G01*
X2940100Y4720292D03*
G01*
X2940100Y4593292D03*
G01*
X2940100Y4466292D03*
G01*
X2955102Y4339292D03*
G01*
X1200099Y5863292D03*
G01*
X1200099Y5990292D03*
G01*
X1185100Y4339292D03*
G01*
X1200099Y4466292D03*
G01*
X1200099Y4593292D03*
G01*
X1200099Y4720292D03*
G01*
X1200099Y4847292D03*
G01*
X1200099Y4974292D03*
G01*
X1200099Y5101292D03*
G01*
X1200099Y5228292D03*
G01*
X1200099Y5355292D03*
G01*
X1200099Y5482292D03*
G01*
X1200099Y5609292D03*
G01*
X1200099Y5736292D03*
D13*
G01*
X5427141Y12700000D03*
G01*
X5681141Y12700000D03*
G01*
X2226741Y12725400D03*
G01*
X2480741Y12725400D03*
D39*
G01*
X4815939Y3467100D03*
G01*
X4615929Y3467100D03*
G01*
X4815939Y3759200D03*
G01*
X4615929Y3759200D03*
G01*
X3574529Y3416300D03*
G01*
X3774539Y3416300D03*
G01*
X3139539Y7543800D03*
G01*
X2939529Y7543800D03*
D40*
G01*
X4690534Y2046295D03*
G01*
X4690534Y2246304D03*
D39*
G01*
X2263239Y3149600D03*
G01*
X2063229Y3149600D03*
G01*
X2263239Y3416300D03*
G01*
X2063229Y3416300D03*
G01*
X3139539Y7061200D03*
G01*
X2939529Y7061200D03*
G01*
X3139539Y7315200D03*
G01*
X2939529Y7315200D03*
G01*
X3139539Y7785100D03*
G01*
X2939529Y7785100D03*
D41*
G01*
X6405034Y1630123D03*
G01*
X6405034Y1925876D03*
G01*
X1718734Y1630123D03*
G01*
X1718734Y1925876D03*
G01*
X2988734Y1630123D03*
G01*
X2988734Y1925876D03*
G01*
X5135034Y1630123D03*
G01*
X5135034Y1925876D03*
D42*
G01*
X4616733Y12669456D03*
D43*
G01*
X4766734Y12819456D03*
D42*
G01*
X4916735Y12669456D03*
G01*
X5984099Y12536106D03*
D43*
G01*
X6134100Y12686106D03*
D42*
G01*
X6284100Y12536106D03*
G01*
X1543333Y12669456D03*
D43*
G01*
X1693334Y12819456D03*
D42*
G01*
X1843335Y12669456D03*
G01*
X3054633Y12669456D03*
D43*
G01*
X3204634Y12819456D03*
D42*
G01*
X3354635Y12669456D03*
D44*
G01*
X1406133Y3381804D03*
G01*
X1406133Y3681806D03*
G01*
X1406133Y3831805D03*
D45*
G01*
X1296136Y3246805D03*
G01*
X1066134Y3246805D03*
G01*
X1066134Y3966801D03*
G01*
X1296136Y3966801D03*
D46*
G01*
X4836584Y6306050D03*
G01*
X4836584Y5987549D03*
G01*
X4836584Y4845550D03*
G01*
X4836584Y4527049D03*
D47*
G01*
X4068234Y1681500D03*
D48*
G01*
X4298234Y2255499D03*
D49*
G01*
X4068234Y2255499D03*
D48*
G01*
X3838233Y2255499D03*
D50*
G01*
X5075034Y3524504D03*
G01*
X5075034Y3714496D03*
G01*
X5322034Y3619500D03*
G01*
X4356834Y3714496D03*
G01*
X4356834Y3524504D03*
G01*
X4109834Y3619500D03*
D51*
G01*
X2637942Y3149600D03*
G01*
X2637942Y3276600D03*
G01*
X2637942Y3403600D03*
G01*
X2637942Y3530600D03*
G01*
X3237941Y3149600D03*
G01*
X3237941Y3276600D03*
G01*
X3237941Y3403600D03*
G01*
X3237941Y3530600D03*
D52*
G01*
X2937934Y3340100D03*
M02*
