G04 Layer: TopSilkscreenLayer*
G04 EasyEDA v6.5.54, 2026-02-09 07:30:50*
G04 5af00af584fd4601be098027c279b521,a7a8ca7e30f1466fbda1f9f7b9e91330,10*
G04 Gerber Generator version 0.2*
G04 Scale: 100 percent, Rotated: No, Reflected: No *
G04 Dimensions in millimeters *
G04 leading zeros omitted , absolute positions ,4 integer and 5 decimal *
%FSLAX45Y45*%
%MOMM*%

%ADD10C,0.2032*%
%ADD11C,0.1524*%
%ADD12C,0.1199*%
%ADD13C,0.1200*%
%ADD14C,0.2540*%
%ADD15C,0.1999*%
%ADD16C,0.0167*%

%LPD*%
G36*
X5949645Y5368594D02*
G01*
X5941872Y5365851D01*
X5936792Y5363413D01*
X5932932Y5361025D01*
X5927750Y5356707D01*
X5923838Y5352034D01*
X5920994Y5347614D01*
X5918555Y5342534D01*
X5915812Y5334762D01*
X5915812Y5239512D01*
X5912002Y5234686D01*
X5906719Y5229402D01*
X5901893Y5225592D01*
X5853480Y5225592D01*
X5848654Y5229402D01*
X5843371Y5234686D01*
X5839561Y5239512D01*
X5839561Y5287060D01*
X5836818Y5294884D01*
X5834380Y5299964D01*
X5831535Y5304383D01*
X5827623Y5309006D01*
X5822442Y5313375D01*
X5818530Y5315762D01*
X5813501Y5318201D01*
X5807659Y5320487D01*
X5804712Y5320487D01*
X5798870Y5318201D01*
X5793841Y5315762D01*
X5788812Y5312460D01*
X5784748Y5309006D01*
X5780887Y5304383D01*
X5777992Y5299964D01*
X5775553Y5294884D01*
X5773115Y5287619D01*
X5769051Y5282336D01*
X5763717Y5277053D01*
X5758484Y5272989D01*
X5756910Y5272633D01*
X5751220Y5270500D01*
X5746191Y5268061D01*
X5742279Y5265674D01*
X5737098Y5261356D01*
X5733643Y5257241D01*
X5730341Y5252262D01*
X5727903Y5247182D01*
X5725820Y5241544D01*
X5725464Y5239969D01*
X5721350Y5234686D01*
X5716066Y5229402D01*
X5710783Y5225288D01*
X5703570Y5222849D01*
X5698490Y5220411D01*
X5694629Y5218023D01*
X5689447Y5213654D01*
X5685078Y5208473D01*
X5682691Y5204561D01*
X5680252Y5199532D01*
X5677814Y5192268D01*
X5673699Y5186984D01*
X5668416Y5181701D01*
X5663133Y5177586D01*
X5661558Y5177282D01*
X5655919Y5175148D01*
X5650839Y5172710D01*
X5646978Y5170322D01*
X5641797Y5166004D01*
X5638342Y5161889D01*
X5635040Y5156911D01*
X5632602Y5151831D01*
X5630722Y5146903D01*
X5630214Y5144109D01*
X5630468Y5142890D01*
X5632602Y5137251D01*
X5635040Y5132171D01*
X5637428Y5128310D01*
X5641797Y5123129D01*
X5646978Y5118760D01*
X5650839Y5116372D01*
X5655919Y5113934D01*
X5663133Y5111496D01*
X5668416Y5107381D01*
X5673699Y5102098D01*
X5677814Y5096814D01*
X5680252Y5089550D01*
X5682691Y5084521D01*
X5685078Y5080609D01*
X5689447Y5075428D01*
X5694629Y5071059D01*
X5698490Y5068671D01*
X5703570Y5066233D01*
X5710783Y5063794D01*
X5716066Y5059680D01*
X5721350Y5054396D01*
X5725464Y5049113D01*
X5727903Y5041900D01*
X5730341Y5036820D01*
X5732729Y5032959D01*
X5737098Y5027777D01*
X5742279Y5023408D01*
X5746191Y5021021D01*
X5751220Y5018582D01*
X5756910Y5016449D01*
X5758484Y5016144D01*
X5763717Y5012029D01*
X5769051Y5006746D01*
X5773115Y5001463D01*
X5775553Y4994198D01*
X5777992Y4989169D01*
X5781294Y4984140D01*
X5784748Y4980076D01*
X5789371Y4976164D01*
X5793841Y4973320D01*
X5798870Y4970881D01*
X5804712Y4968595D01*
X5807659Y4968595D01*
X5813501Y4970881D01*
X5818530Y4973320D01*
X5822442Y4975707D01*
X5827623Y4980076D01*
X5831535Y4984699D01*
X5833160Y4987188D01*
X5836818Y4994198D01*
X5839561Y5002022D01*
X5839561Y5049570D01*
X5843371Y5054396D01*
X5848654Y5059680D01*
X5853480Y5063490D01*
X5996330Y5063490D01*
X6004153Y5066233D01*
X6009182Y5068671D01*
X6013094Y5071059D01*
X6018276Y5075428D01*
X6022136Y5080050D01*
X6023813Y5082540D01*
X6027470Y5089550D01*
X6030214Y5097373D01*
X6030214Y5334762D01*
X6027470Y5342534D01*
X6025032Y5347614D01*
X6022136Y5352034D01*
X6018276Y5356707D01*
X6014212Y5360111D01*
X6011113Y5362244D01*
X6004153Y5365851D01*
X5996330Y5368594D01*
G37*
G36*
X5822746Y2023567D02*
G01*
X5815533Y2023516D01*
X5806592Y2021332D01*
X5801410Y2019452D01*
X5794603Y2015794D01*
X5789472Y2011832D01*
X5784240Y2006600D01*
X5779516Y2000250D01*
X5776772Y1995017D01*
X5661964Y1994814D01*
X5655106Y1991309D01*
X5534202Y1863598D01*
X5533440Y1863293D01*
X5524906Y1872335D01*
X5518607Y1877212D01*
X5513476Y1880362D01*
X5507482Y1883206D01*
X5499354Y1886000D01*
X5486958Y1887880D01*
X5475833Y1886356D01*
X5471972Y1885645D01*
X5462270Y1882292D01*
X5456986Y1879092D01*
X5455259Y1878279D01*
X5450586Y1874926D01*
X5449265Y1873554D01*
X5443829Y1869033D01*
X5436362Y1859381D01*
X5432450Y1851812D01*
X5430621Y1847748D01*
X5428894Y1841855D01*
X5427726Y1836470D01*
X5426811Y1836166D01*
X5426811Y1812696D01*
X5427675Y1812696D01*
X5428183Y1809292D01*
X5430316Y1801622D01*
X5431739Y1798421D01*
X5436768Y1788922D01*
X5442864Y1781251D01*
X5444591Y1779422D01*
X5452465Y1772615D01*
X5463184Y1766671D01*
X5474970Y1763014D01*
X5480862Y1762404D01*
X5493816Y1762506D01*
X5504078Y1765096D01*
X5511342Y1768398D01*
X5512612Y1769262D01*
X5514390Y1770075D01*
X5521604Y1775256D01*
X5526278Y1779422D01*
X5532729Y1786686D01*
X5538368Y1795729D01*
X5540451Y1800250D01*
X5541975Y1802739D01*
X5621426Y1802739D01*
X5758637Y1656638D01*
X5767222Y1652727D01*
X5847232Y1652270D01*
X5847689Y1629206D01*
X5849467Y1625244D01*
X5851906Y1623568D01*
X5939282Y1623568D01*
X5941364Y1625904D01*
X5941568Y1725574D01*
X5940602Y1728063D01*
X5937351Y1728978D01*
X5851499Y1728774D01*
X5849569Y1727606D01*
X5847638Y1723796D01*
X5847384Y1700022D01*
X5778957Y1700022D01*
X5684316Y1801926D01*
X5685485Y1802739D01*
X5967425Y1802485D01*
X5967882Y1761185D01*
X5970524Y1757730D01*
X5974994Y1756105D01*
X5978550Y1757070D01*
X5984544Y1759407D01*
X6006795Y1768906D01*
X6007608Y1769719D01*
X6008979Y1769719D01*
X6011519Y1771142D01*
X6015532Y1772462D01*
X6016040Y1773326D01*
X6017514Y1773377D01*
X6021781Y1775561D01*
X6023102Y1775561D01*
X6023914Y1776374D01*
X6053074Y1788668D01*
X6055614Y1790039D01*
X6056579Y1790039D01*
X6064250Y1793697D01*
X6065418Y1793697D01*
X6067094Y1795018D01*
X6068415Y1795068D01*
X6071006Y1796440D01*
X6087262Y1803298D01*
X6088075Y1804111D01*
X6089396Y1804111D01*
X6092596Y1805889D01*
X6093561Y1805889D01*
X6097117Y1807616D01*
X6103518Y1810156D01*
X6105194Y1811324D01*
X6106515Y1811324D01*
X6109055Y1812747D01*
X6121044Y1817776D01*
X6124905Y1819910D01*
X6126835Y1821637D01*
X6126784Y1827834D01*
X6124498Y1829765D01*
X6120231Y1832152D01*
X6119164Y1832152D01*
X6111544Y1835759D01*
X6110325Y1835759D01*
X6109512Y1836572D01*
X6092799Y1843532D01*
X6091986Y1844344D01*
X6090666Y1844344D01*
X6087313Y1846173D01*
X6086500Y1846173D01*
X6077762Y1850237D01*
X6076492Y1850237D01*
X6075680Y1851050D01*
X6046165Y1863445D01*
X6045352Y1864258D01*
X6044031Y1864258D01*
X6041491Y1865680D01*
X6012789Y1877771D01*
X6010249Y1879193D01*
X6008928Y1879193D01*
X6008116Y1880006D01*
X5996533Y1884730D01*
X5995212Y1885442D01*
X5978550Y1892452D01*
X5974740Y1892858D01*
X5970879Y1891030D01*
X5969558Y1889810D01*
X5967882Y1887118D01*
X5967425Y1850491D01*
X5582158Y1850237D01*
X5582158Y1850999D01*
X5605475Y1874926D01*
X5676341Y1946859D01*
X5677763Y1947468D01*
X5774588Y1947519D01*
X5777077Y1947011D01*
X5779211Y1942795D01*
X5784646Y1935530D01*
X5789015Y1931212D01*
X5794603Y1927250D01*
X5799632Y1924405D01*
X5804916Y1922272D01*
X5812586Y1920138D01*
X5827979Y1920189D01*
X5839917Y1924202D01*
X5848045Y1929130D01*
X5855208Y1935530D01*
X5861558Y1943811D01*
X5861558Y1944370D01*
X5865063Y1950923D01*
X5868517Y1962251D01*
X5868924Y1977186D01*
X5868060Y1983028D01*
X5865876Y1990699D01*
X5861405Y1999945D01*
X5854395Y2008936D01*
X5847740Y2014626D01*
X5838190Y2019909D01*
X5835243Y2020519D01*
X5833008Y2021687D01*
G37*
G36*
X2451201Y2110282D02*
G01*
X2179574Y2110232D01*
X2176221Y2109165D01*
X2175459Y2108403D01*
X2174240Y2108403D01*
X2169363Y2106422D01*
X2162962Y2103221D01*
X2158746Y2100478D01*
X2157831Y2100478D01*
X2157831Y2099818D01*
X2156155Y2099005D01*
X2153107Y2096516D01*
X2147062Y2090420D01*
X2144522Y2087422D01*
X2143760Y2085695D01*
X2143099Y2085695D01*
X2143099Y2084832D01*
X2142032Y2083612D01*
X2137156Y2074214D01*
X2135174Y2069338D01*
X2135174Y2068322D01*
X2134158Y2066645D01*
X2133142Y2062835D01*
X2132685Y2062480D01*
X2127808Y2056028D01*
X2119884Y2048103D01*
X2113432Y2043226D01*
X2113076Y2042769D01*
X2109266Y2041753D01*
X2107590Y2040737D01*
X2106574Y2040737D01*
X2101748Y2038756D01*
X2092299Y2033879D01*
X2091080Y2032812D01*
X2090216Y2032812D01*
X2090216Y2032152D01*
X2088489Y2031390D01*
X2085492Y2028850D01*
X2079396Y2022805D01*
X2076907Y2019757D01*
X2076094Y2018080D01*
X2075484Y2018080D01*
X2075484Y2017166D01*
X2074418Y2015998D01*
X2071065Y2009749D01*
X2067509Y2001672D01*
X2067509Y2000351D01*
X2066798Y1999894D01*
X2065629Y1995830D01*
X2065629Y1859737D01*
X2159762Y1859737D01*
X2159762Y1928520D01*
X2160320Y1928520D01*
X2165197Y1935124D01*
X2173173Y1943049D01*
X2176983Y1946097D01*
X2179777Y1947976D01*
X2179777Y1948535D01*
X2180894Y1948535D01*
X2180894Y1947976D01*
X2183688Y1946097D01*
X2187498Y1943049D01*
X2195474Y1935124D01*
X2200351Y1928672D01*
X2200808Y1928317D01*
X2201773Y1924507D01*
X2202840Y1922830D01*
X2202840Y1921814D01*
X2204770Y1916988D01*
X2207971Y1910537D01*
X2209698Y1907539D01*
X2210765Y1906320D01*
X2210765Y1905457D01*
X2211374Y1905457D01*
X2212187Y1903730D01*
X2214676Y1900732D01*
X2220772Y1894636D01*
X2223820Y1892147D01*
X2225497Y1891334D01*
X2225497Y1890725D01*
X2226360Y1890725D01*
X2227580Y1889658D01*
X2230577Y1887931D01*
X2237028Y1884730D01*
X2241854Y1882749D01*
X2242921Y1882749D01*
X2244598Y1881733D01*
X2248357Y1880768D01*
X2255164Y1875434D01*
X2263140Y1867458D01*
X2266137Y1863648D01*
X2268016Y1860854D01*
X2268575Y1860854D01*
X2268575Y1859737D01*
X2362708Y1859737D01*
X2362708Y1860854D01*
X2363266Y1860854D01*
X2365146Y1863648D01*
X2368143Y1867458D01*
X2376119Y1875434D01*
X2382520Y1880260D01*
X2382926Y1880768D01*
X2386685Y1881733D01*
X2388362Y1882749D01*
X2389378Y1882749D01*
X2394254Y1884730D01*
X2403703Y1889658D01*
X2404872Y1890725D01*
X2405786Y1890725D01*
X2405786Y1891334D01*
X2407462Y1892147D01*
X2410510Y1894636D01*
X2416556Y1900732D01*
X2419096Y1903730D01*
X2419858Y1905457D01*
X2420518Y1905457D01*
X2420518Y1906320D01*
X2421585Y1907539D01*
X2426462Y1916988D01*
X2428443Y1921814D01*
X2428443Y1922830D01*
X2429459Y1924507D01*
X2430475Y1928317D01*
X2430932Y1928672D01*
X2435809Y1935124D01*
X2443734Y1943049D01*
X2447594Y1946097D01*
X2450338Y1947976D01*
X2450338Y1948535D01*
X2451506Y1948535D01*
X2451506Y1947976D01*
X2454300Y1946097D01*
X2458110Y1943049D01*
X2466086Y1935124D01*
X2470962Y1928520D01*
X2471521Y1928520D01*
X2471521Y1859737D01*
X2470962Y1859737D01*
X2469083Y1856943D01*
X2466086Y1853082D01*
X2458110Y1845157D01*
X2451506Y1840230D01*
X2451506Y1839671D01*
X2382723Y1839671D01*
X2382723Y1840230D01*
X2376119Y1845157D01*
X2368143Y1853082D01*
X2363266Y1859737D01*
X2268016Y1859737D01*
X2266137Y1856943D01*
X2263140Y1853082D01*
X2255164Y1845157D01*
X2248560Y1840230D01*
X2248560Y1839671D01*
X2179777Y1839671D01*
X2179777Y1840230D01*
X2173173Y1845157D01*
X2165197Y1853082D01*
X2160320Y1859737D01*
X2065629Y1859737D01*
X2065629Y1724710D01*
X2066798Y1720646D01*
X2067509Y1720240D01*
X2067509Y1718868D01*
X2069490Y1714042D01*
X2072690Y1707591D01*
X2074418Y1704593D01*
X2075484Y1703374D01*
X2075484Y1702511D01*
X2076094Y1702511D01*
X2076907Y1700784D01*
X2079396Y1697786D01*
X2086965Y1690420D01*
X2088489Y1689201D01*
X2090216Y1688388D01*
X2090216Y1687779D01*
X2091080Y1687779D01*
X2092299Y1686712D01*
X2095296Y1684985D01*
X2101748Y1681784D01*
X2106574Y1679803D01*
X2107590Y1679803D01*
X2109266Y1678787D01*
X2113076Y1677822D01*
X2113432Y1677314D01*
X2119884Y1672488D01*
X2127808Y1664512D01*
X2132736Y1657908D01*
X2133295Y1657908D01*
X2133295Y1623517D01*
X2227376Y1623517D01*
X2227376Y1657908D01*
X2227935Y1657908D01*
X2232863Y1664512D01*
X2240788Y1672488D01*
X2247392Y1677365D01*
X2247392Y1677924D01*
X2248560Y1677924D01*
X2248560Y1677365D01*
X2251354Y1675485D01*
X2255164Y1672488D01*
X2263140Y1664512D01*
X2266137Y1660702D01*
X2268016Y1657908D01*
X2268575Y1657908D01*
X2268575Y1623517D01*
X2362708Y1623517D01*
X2362708Y1657908D01*
X2363266Y1657908D01*
X2365146Y1660702D01*
X2368143Y1664512D01*
X2376119Y1672488D01*
X2379929Y1675485D01*
X2382723Y1677365D01*
X2382723Y1677924D01*
X2383840Y1677924D01*
X2383840Y1677365D01*
X2386634Y1675485D01*
X2390444Y1672488D01*
X2398420Y1664512D01*
X2401417Y1660702D01*
X2403297Y1657908D01*
X2403856Y1657908D01*
X2403856Y1623517D01*
X2497988Y1623517D01*
X2497988Y1657908D01*
X2498547Y1657908D01*
X2500426Y1660702D01*
X2503424Y1664512D01*
X2511399Y1672488D01*
X2518206Y1677822D01*
X2521966Y1678787D01*
X2523642Y1679803D01*
X2524709Y1679803D01*
X2529535Y1681784D01*
X2535986Y1684985D01*
X2538984Y1686712D01*
X2540203Y1687779D01*
X2541066Y1687779D01*
X2541066Y1688388D01*
X2542794Y1689201D01*
X2545791Y1691690D01*
X2551887Y1697786D01*
X2554376Y1700784D01*
X2555189Y1702511D01*
X2555798Y1702511D01*
X2555798Y1703374D01*
X2556865Y1704593D01*
X2558592Y1707591D01*
X2561793Y1714042D01*
X2563723Y1718868D01*
X2563723Y1720240D01*
X2564434Y1720646D01*
X2565654Y1724710D01*
X2565654Y1995830D01*
X2564434Y1999894D01*
X2563723Y2000351D01*
X2563723Y2001672D01*
X2561793Y2006549D01*
X2558592Y2012950D01*
X2556357Y2016607D01*
X2555798Y2017166D01*
X2555798Y2018080D01*
X2555189Y2018080D01*
X2554376Y2019757D01*
X2551887Y2022805D01*
X2545791Y2028850D01*
X2542794Y2031390D01*
X2541066Y2032152D01*
X2541066Y2032812D01*
X2540203Y2032812D01*
X2538984Y2033879D01*
X2529535Y2038756D01*
X2524709Y2040737D01*
X2523642Y2040737D01*
X2521966Y2041753D01*
X2518206Y2042769D01*
X2511399Y2048103D01*
X2503424Y2056028D01*
X2498090Y2062835D01*
X2497124Y2066645D01*
X2496108Y2068322D01*
X2496108Y2069338D01*
X2494127Y2074214D01*
X2490927Y2080615D01*
X2489200Y2083612D01*
X2488133Y2084832D01*
X2488133Y2085695D01*
X2487523Y2085695D01*
X2486710Y2087422D01*
X2484221Y2090420D01*
X2476652Y2097786D01*
X2475128Y2099005D01*
X2473401Y2099818D01*
X2473401Y2100478D01*
X2472537Y2100478D01*
X2471318Y2101494D01*
X2468321Y2103221D01*
X2461869Y2106422D01*
X2457043Y2108403D01*
X2455722Y2108403D01*
X2455265Y2109114D01*
G37*
G36*
X5261813Y6548983D02*
G01*
X5258308Y6547612D01*
X5254396Y6546799D01*
X5252974Y6545580D01*
X5250230Y6544157D01*
X5243068Y6536994D01*
X5242509Y6534454D01*
X5240782Y6532219D01*
X5239105Y6524650D01*
X5238597Y6523126D01*
X5238597Y6074714D01*
X5239867Y6070904D01*
X5240731Y6066028D01*
X5243169Y6061151D01*
X5247792Y6055868D01*
X5254650Y6051143D01*
X5263184Y6049416D01*
X5264912Y6049416D01*
X5273700Y6051194D01*
X5275122Y6052464D01*
X5278221Y6053734D01*
X5284470Y6059424D01*
X5293918Y6067196D01*
X5293918Y6067907D01*
X5300675Y6073140D01*
X5304332Y6076645D01*
X5307634Y6079134D01*
X5310530Y6082030D01*
X5321046Y6090818D01*
X5336743Y6104788D01*
X5341975Y6109055D01*
X5349798Y6116015D01*
X5354218Y6119571D01*
X5364124Y6128410D01*
X5367020Y6130645D01*
X5370677Y6134201D01*
X5372608Y6135522D01*
X5380380Y6142888D01*
X5382564Y6144310D01*
X5386273Y6147917D01*
X5391454Y6151930D01*
X5399786Y6159398D01*
X5405120Y6163818D01*
X5414416Y6172250D01*
X5420868Y6177788D01*
X5424779Y6180836D01*
X5432755Y6188151D01*
X5438343Y6192570D01*
X5451500Y6204508D01*
X5455970Y6208064D01*
X5465876Y6216904D01*
X5468823Y6219139D01*
X5472480Y6222695D01*
X5475630Y6225082D01*
X5485841Y6234176D01*
X5489194Y6236817D01*
X5503519Y6249670D01*
X5506872Y6252311D01*
X5521960Y6265519D01*
X5530291Y6273139D01*
X5533847Y6279743D01*
X5535523Y6281877D01*
X5535523Y6283858D01*
X5537301Y6286093D01*
X5539282Y6297726D01*
X5539486Y6297980D01*
X5539079Y6298336D01*
X5537708Y6306972D01*
X5537708Y6309868D01*
X5535980Y6313322D01*
X5534914Y6316472D01*
X5533288Y6318605D01*
X5533288Y6319672D01*
X5528665Y6325666D01*
X5524042Y6330188D01*
X5519369Y6334404D01*
X5515813Y6337096D01*
X5514949Y6338214D01*
X5509107Y6343446D01*
X5503418Y6348069D01*
X5495442Y6355283D01*
X5492394Y6357620D01*
X5486146Y6363360D01*
X5475935Y6372250D01*
X5472531Y6374892D01*
X5468112Y6379108D01*
X5467604Y6379108D01*
X5458206Y6387744D01*
X5452821Y6392214D01*
X5444591Y6399580D01*
X5441492Y6401866D01*
X5437835Y6405422D01*
X5434939Y6407607D01*
X5425897Y6415887D01*
X5423763Y6417360D01*
X5417566Y6423050D01*
X5412282Y6427470D01*
X5409387Y6430365D01*
X5406085Y6432804D01*
X5401767Y6436410D01*
X5392521Y6444742D01*
X5390591Y6446113D01*
X5381853Y6454292D01*
X5381294Y6454292D01*
X5371947Y6462928D01*
X5368544Y6465570D01*
X5367121Y6466941D01*
X5364886Y6468364D01*
X5357114Y6475780D01*
X5355183Y6477101D01*
X5351526Y6480657D01*
X5348630Y6482842D01*
X5338724Y6491681D01*
X5335371Y6494373D01*
X5330952Y6498539D01*
X5330444Y6498539D01*
X5319369Y6508496D01*
X5310530Y6515963D01*
X5307634Y6518859D01*
X5304332Y6521348D01*
X5300675Y6524904D01*
X5297779Y6527088D01*
X5280202Y6542582D01*
X5274208Y6546596D01*
X5266029Y6548983D01*
G37*
G36*
X3942435Y7960918D02*
G01*
X3942079Y7960563D01*
X3933494Y7959191D01*
X3930548Y7959191D01*
X3927144Y7957413D01*
X3923944Y7956397D01*
X3921861Y7954772D01*
X3920744Y7954772D01*
X3914749Y7950098D01*
X3910228Y7945526D01*
X3906062Y7940802D01*
X3903319Y7937296D01*
X3902252Y7936382D01*
X3896969Y7930540D01*
X3891229Y7923580D01*
X3883964Y7915402D01*
X3882796Y7913827D01*
X3879240Y7910169D01*
X3863441Y7891780D01*
X3861358Y7889595D01*
X3861358Y7889036D01*
X3852722Y7879689D01*
X3850081Y7876286D01*
X3840886Y7866024D01*
X3838549Y7862976D01*
X3834993Y7859318D01*
X3832809Y7856423D01*
X3824528Y7847380D01*
X3823055Y7845247D01*
X3817365Y7839049D01*
X3812946Y7833715D01*
X3810050Y7830870D01*
X3804056Y7823250D01*
X3794963Y7813040D01*
X3794302Y7812074D01*
X3786124Y7803337D01*
X3786124Y7802778D01*
X3777487Y7793380D01*
X3774846Y7789976D01*
X3773525Y7788605D01*
X3772052Y7786370D01*
X3764686Y7778546D01*
X3763314Y7776667D01*
X3759809Y7773009D01*
X3757574Y7770114D01*
X3748735Y7760208D01*
X3746093Y7756804D01*
X3741877Y7752435D01*
X3741877Y7751876D01*
X3733241Y7742529D01*
X3730599Y7739125D01*
X3728821Y7737297D01*
X3724452Y7731963D01*
X3721557Y7729118D01*
X3719068Y7725816D01*
X3715562Y7722108D01*
X3713327Y7719212D01*
X3704488Y7709306D01*
X3701846Y7705953D01*
X3697833Y7701686D01*
X3693820Y7695692D01*
X3691432Y7687462D01*
X3691483Y7683296D01*
X3692804Y7679740D01*
X3693668Y7675829D01*
X3694887Y7674457D01*
X3696258Y7671714D01*
X3703472Y7664551D01*
X3706012Y7663992D01*
X3708196Y7662265D01*
X3714242Y7661046D01*
X3717290Y7660081D01*
X4165752Y7660081D01*
X4169511Y7661351D01*
X4174388Y7662214D01*
X4179265Y7664602D01*
X4184548Y7669275D01*
X4189272Y7676083D01*
X4191050Y7684617D01*
X4191050Y7686395D01*
X4189222Y7695184D01*
X4188002Y7696555D01*
X4186682Y7699654D01*
X4181906Y7704886D01*
X4173270Y7715402D01*
X4172508Y7715402D01*
X4167327Y7722108D01*
X4163771Y7725816D01*
X4161282Y7729118D01*
X4158386Y7731963D01*
X4133799Y7760563D01*
X4132630Y7762189D01*
X4124401Y7771231D01*
X4120845Y7775702D01*
X4105605Y7793075D01*
X4104944Y7794040D01*
X4097528Y7801813D01*
X4096105Y7804048D01*
X4091635Y7808772D01*
X4088485Y7812938D01*
X4081018Y7821218D01*
X4076598Y7826603D01*
X4065524Y7838694D01*
X4063339Y7841589D01*
X4061968Y7843012D01*
X4059580Y7846263D01*
X4052265Y7854238D01*
X4047845Y7859775D01*
X4036771Y7871866D01*
X4032351Y7877454D01*
X4023512Y7887360D01*
X4021277Y7890256D01*
X4017772Y7893913D01*
X4015384Y7897114D01*
X3990746Y7924952D01*
X3988104Y7928356D01*
X3979265Y7938262D01*
X3974947Y7943443D01*
X3967327Y7951774D01*
X3960672Y7955330D01*
X3958590Y7956956D01*
X3956608Y7956956D01*
X3954322Y7958734D01*
X3942994Y7960614D01*
G37*
G36*
X2615387Y6560667D02*
G01*
X2606598Y6558838D01*
X2605227Y6557619D01*
X2602128Y6556298D01*
X2596896Y6551574D01*
X2586380Y6542887D01*
X2586380Y6542176D01*
X2580944Y6537959D01*
X2574340Y6532168D01*
X2572664Y6530949D01*
X2569819Y6528054D01*
X2564485Y6523685D01*
X2562656Y6521907D01*
X2559304Y6519265D01*
X2544318Y6506006D01*
X2539593Y6502247D01*
X2531618Y6494932D01*
X2526080Y6490512D01*
X2516174Y6481673D01*
X2513279Y6479438D01*
X2509621Y6475882D01*
X2507742Y6474561D01*
X2499969Y6467195D01*
X2497734Y6465722D01*
X2493010Y6461302D01*
X2485694Y6455257D01*
X2480564Y6450685D01*
X2475179Y6446266D01*
X2458770Y6431635D01*
X2455519Y6429248D01*
X2447544Y6421932D01*
X2442006Y6417513D01*
X2429916Y6406438D01*
X2424328Y6402019D01*
X2414422Y6393129D01*
X2411526Y6390944D01*
X2407869Y6387388D01*
X2404668Y6385001D01*
X2378862Y6362242D01*
X2358339Y6344564D01*
X2350008Y6336944D01*
X2346452Y6330340D01*
X2344826Y6328206D01*
X2344826Y6326225D01*
X2343048Y6323990D01*
X2341168Y6312611D01*
X2340864Y6312103D01*
X2341219Y6311696D01*
X2342591Y6303111D01*
X2342591Y6300216D01*
X2344369Y6296761D01*
X2345385Y6293612D01*
X2347010Y6291478D01*
X2347010Y6290411D01*
X2351684Y6284417D01*
X2356256Y6279896D01*
X2360980Y6275679D01*
X2364486Y6272987D01*
X2365400Y6271869D01*
X2371242Y6266586D01*
X2375763Y6262979D01*
X2384856Y6254750D01*
X2387955Y6252464D01*
X2392883Y6247841D01*
X2399436Y6242354D01*
X2404364Y6237833D01*
X2407767Y6235192D01*
X2412187Y6230975D01*
X2412746Y6230975D01*
X2422093Y6222339D01*
X2425496Y6219698D01*
X2437282Y6209334D01*
X2438806Y6208217D01*
X2442464Y6204661D01*
X2445359Y6202426D01*
X2454402Y6194196D01*
X2456535Y6192723D01*
X2462733Y6186982D01*
X2468067Y6182614D01*
X2470912Y6179718D01*
X2474214Y6177280D01*
X2478532Y6173673D01*
X2487777Y6165291D01*
X2489708Y6163970D01*
X2498445Y6155740D01*
X2499004Y6155740D01*
X2510078Y6145784D01*
X2515463Y6141669D01*
X2523236Y6134303D01*
X2525115Y6132982D01*
X2528773Y6129426D01*
X2531668Y6127242D01*
X2541574Y6118352D01*
X2544978Y6115710D01*
X2549347Y6111494D01*
X2549906Y6111494D01*
X2560980Y6101537D01*
X2569819Y6094120D01*
X2572664Y6091224D01*
X2575966Y6088735D01*
X2579674Y6085179D01*
X2582570Y6082995D01*
X2592476Y6074105D01*
X2595829Y6071463D01*
X2600096Y6067501D01*
X2606090Y6063488D01*
X2614320Y6061049D01*
X2618486Y6061100D01*
X2622042Y6062472D01*
X2625953Y6063284D01*
X2627325Y6064504D01*
X2630068Y6065875D01*
X2637231Y6073089D01*
X2637790Y6075629D01*
X2639517Y6077864D01*
X2640736Y6083858D01*
X2641701Y6086957D01*
X2641701Y6535369D01*
X2640431Y6539179D01*
X2639568Y6544056D01*
X2637180Y6548881D01*
X2632506Y6554216D01*
X2625648Y6558889D01*
X2617165Y6560667D01*
G37*
G36*
X3705047Y4898085D02*
G01*
X3701287Y4896815D01*
X3696411Y4895951D01*
X3691534Y4893513D01*
X3686200Y4888890D01*
X3681526Y4882032D01*
X3679748Y4873498D01*
X3679748Y4871770D01*
X3681577Y4862982D01*
X3682796Y4861560D01*
X3684117Y4858461D01*
X3688892Y4853228D01*
X3697528Y4842764D01*
X3698290Y4842764D01*
X3703472Y4836007D01*
X3707028Y4832350D01*
X3709517Y4829048D01*
X3712413Y4826152D01*
X3716731Y4820869D01*
X3718509Y4819040D01*
X3721150Y4815636D01*
X3735832Y4799177D01*
X3738168Y4795977D01*
X3745534Y4788001D01*
X3749954Y4782464D01*
X3758793Y4772558D01*
X3760978Y4769662D01*
X3764534Y4766005D01*
X3765854Y4764074D01*
X3773271Y4756302D01*
X3774694Y4754118D01*
X3780028Y4748276D01*
X3782314Y4745177D01*
X3791508Y4734915D01*
X3794201Y4731562D01*
X3805224Y4719421D01*
X3811168Y4711903D01*
X3819398Y4702860D01*
X3825392Y4695698D01*
X3834028Y4686300D01*
X3837127Y4682388D01*
X3848404Y4669332D01*
X3849471Y4667859D01*
X3853027Y4664202D01*
X3855415Y4661052D01*
X3862781Y4652873D01*
X3867200Y4647488D01*
X3880002Y4633163D01*
X3882694Y4629810D01*
X3895851Y4614722D01*
X3903472Y4606391D01*
X3910126Y4602835D01*
X3912209Y4601159D01*
X3914190Y4601159D01*
X3916476Y4599381D01*
X3928059Y4597400D01*
X3928364Y4597196D01*
X3928719Y4597603D01*
X3937304Y4598974D01*
X3940251Y4598974D01*
X3943654Y4600702D01*
X3946855Y4601768D01*
X3948937Y4603394D01*
X3950055Y4603394D01*
X3956050Y4608017D01*
X3960571Y4612640D01*
X3964736Y4617313D01*
X3967987Y4621326D01*
X3975150Y4629251D01*
X3979570Y4634585D01*
X3985666Y4641240D01*
X3988003Y4644288D01*
X3993692Y4650536D01*
X3998112Y4655820D01*
X4002582Y4660747D01*
X4005224Y4664151D01*
X4009440Y4668570D01*
X4009440Y4669078D01*
X4018076Y4678476D01*
X4020718Y4681829D01*
X4029913Y4692091D01*
X4032250Y4695190D01*
X4035755Y4698847D01*
X4037990Y4701743D01*
X4046270Y4710785D01*
X4047744Y4712919D01*
X4053433Y4719116D01*
X4057853Y4724400D01*
X4060748Y4727295D01*
X4066743Y4734915D01*
X4080459Y4750358D01*
X4084675Y4754829D01*
X4084675Y4755388D01*
X4093311Y4764735D01*
X4097274Y4769561D01*
X4098747Y4771796D01*
X4106113Y4779568D01*
X4107484Y4781499D01*
X4110990Y4785156D01*
X4113225Y4788052D01*
X4122064Y4797958D01*
X4124706Y4801311D01*
X4128922Y4805730D01*
X4128922Y4806238D01*
X4137558Y4815636D01*
X4140200Y4819040D01*
X4147769Y4827625D01*
X4149242Y4829048D01*
X4151731Y4832350D01*
X4155236Y4836007D01*
X4157472Y4838903D01*
X4166311Y4848860D01*
X4168952Y4852212D01*
X4172965Y4856480D01*
X4176979Y4862474D01*
X4179366Y4870653D01*
X4179315Y4874869D01*
X4177944Y4878374D01*
X4177131Y4882286D01*
X4175912Y4883708D01*
X4174540Y4886452D01*
X4167327Y4893614D01*
X4164787Y4894173D01*
X4162602Y4895900D01*
X4156557Y4897120D01*
X4153458Y4898085D01*
G37*
G36*
X6692900Y12196724D02*
G01*
X6692900Y12161875D01*
X6691528Y12161875D01*
X6691528Y12160554D01*
X6690156Y12160554D01*
X6690156Y12159284D01*
X6688785Y12159284D01*
X6688785Y12157964D01*
X6685991Y12157964D01*
X6685991Y12156490D01*
X6681673Y12156490D01*
X6681673Y12155170D01*
X6680301Y12155170D01*
X6680301Y12153849D01*
X6677355Y12153849D01*
X6677355Y12152579D01*
X6675983Y12152579D01*
X6675983Y12151258D01*
X6674612Y12151258D01*
X6674612Y12148464D01*
X6673240Y12148464D01*
X6673240Y12147143D01*
X6671818Y12147143D01*
X6671818Y12143232D01*
X6670243Y12143232D01*
X6670243Y12077446D01*
X6671818Y12077446D01*
X6671818Y12073534D01*
X6673240Y12073534D01*
X6673240Y12072264D01*
X6674612Y12072264D01*
X6674612Y12069470D01*
X6675983Y12069470D01*
X6675983Y12068149D01*
X6677355Y12068149D01*
X6677355Y12066828D01*
X6680301Y12066828D01*
X6680301Y12065558D01*
X6681673Y12065558D01*
X6681673Y12064034D01*
X6685991Y12064034D01*
X6685991Y12062764D01*
X6688785Y12062764D01*
X6688785Y12061444D01*
X6690156Y12061444D01*
X6690156Y12060123D01*
X6691528Y12060123D01*
X6691528Y12058853D01*
X6692900Y12058853D01*
X6692900Y12013184D01*
X6694474Y12013184D01*
X6694474Y12009272D01*
X6695846Y12009272D01*
X6695846Y12007951D01*
X6697218Y12007951D01*
X6697218Y12005157D01*
X6698589Y12005157D01*
X6698589Y12003887D01*
X6700012Y12003887D01*
X6700012Y12002566D01*
X6702958Y12002566D01*
X6702958Y12001246D01*
X6704330Y12001246D01*
X6704330Y11999772D01*
X6708648Y11999772D01*
X6708648Y11998452D01*
X6710019Y11998452D01*
X6710019Y11999772D01*
X6714185Y11999772D01*
X6714185Y12001246D01*
X6715556Y12001246D01*
X6715556Y12002566D01*
X6718503Y12002566D01*
X6718503Y12003887D01*
X6719874Y12003887D01*
X6719874Y12005157D01*
X6721246Y12005157D01*
X6721246Y12007951D01*
X6722618Y12007951D01*
X6722618Y12009272D01*
X6724192Y12009272D01*
X6724192Y12013184D01*
X6725564Y12013184D01*
X6725564Y12058853D01*
X6726936Y12058853D01*
X6726936Y12060123D01*
X6728358Y12060123D01*
X6728358Y12061444D01*
X6729730Y12061444D01*
X6729730Y12062764D01*
X6732676Y12062764D01*
X6732676Y12064034D01*
X6736791Y12064034D01*
X6736791Y12065558D01*
X6738162Y12065558D01*
X6738162Y12066828D01*
X6741109Y12066828D01*
X6741109Y12068149D01*
X6742531Y12068149D01*
X6742531Y12069470D01*
X6743903Y12069470D01*
X6743903Y12072264D01*
X6745274Y12072264D01*
X6745274Y12073534D01*
X6746849Y12073534D01*
X6746849Y12077446D01*
X6748221Y12077446D01*
X6748221Y12143232D01*
X6746849Y12143232D01*
X6746849Y12147143D01*
X6745274Y12147143D01*
X6745274Y12148464D01*
X6743903Y12148464D01*
X6743903Y12151258D01*
X6742531Y12151258D01*
X6742531Y12152579D01*
X6741109Y12152579D01*
X6741109Y12153849D01*
X6738162Y12153849D01*
X6738162Y12155170D01*
X6736791Y12155170D01*
X6736791Y12156490D01*
X6732676Y12156490D01*
X6732676Y12157964D01*
X6729730Y12157964D01*
X6729730Y12159284D01*
X6728358Y12159284D01*
X6728358Y12160554D01*
X6726936Y12160554D01*
X6726936Y12161875D01*
X6725564Y12161875D01*
X6725564Y12196724D01*
G37*
G36*
X6783425Y12196724D02*
G01*
X6783425Y12161875D01*
X6782053Y12161875D01*
X6782053Y12160554D01*
X6780682Y12160554D01*
X6780682Y12159284D01*
X6779310Y12159284D01*
X6779310Y12157964D01*
X6776567Y12157964D01*
X6776567Y12156490D01*
X6772249Y12156490D01*
X6772249Y12155170D01*
X6770878Y12155170D01*
X6770878Y12153849D01*
X6767880Y12153849D01*
X6767880Y12152579D01*
X6766509Y12152579D01*
X6766509Y12151258D01*
X6765137Y12151258D01*
X6765137Y12148464D01*
X6763766Y12148464D01*
X6763766Y12147143D01*
X6762394Y12147143D01*
X6762394Y12143232D01*
X6760819Y12143232D01*
X6760819Y12077446D01*
X6762394Y12077446D01*
X6762394Y12073534D01*
X6763766Y12073534D01*
X6763766Y12072264D01*
X6765137Y12072264D01*
X6765137Y12069470D01*
X6766509Y12069470D01*
X6766509Y12068149D01*
X6767880Y12068149D01*
X6767880Y12066828D01*
X6770878Y12066828D01*
X6770878Y12065558D01*
X6772249Y12065558D01*
X6772249Y12064034D01*
X6776567Y12064034D01*
X6776567Y12062764D01*
X6779310Y12062764D01*
X6779310Y12061444D01*
X6780682Y12061444D01*
X6780682Y12060123D01*
X6782053Y12060123D01*
X6782053Y12058853D01*
X6783425Y12058853D01*
X6783425Y12013184D01*
X6785051Y12013184D01*
X6785051Y12009272D01*
X6786422Y12009272D01*
X6786422Y12007951D01*
X6787794Y12007951D01*
X6787794Y12005157D01*
X6789166Y12005157D01*
X6789166Y12003887D01*
X6790537Y12003887D01*
X6790537Y12002566D01*
X6793484Y12002566D01*
X6793484Y12001246D01*
X6794855Y12001246D01*
X6794855Y11999772D01*
X6799224Y11999772D01*
X6799224Y11998452D01*
X6800596Y11998452D01*
X6800596Y11999772D01*
X6804710Y11999772D01*
X6804710Y12001246D01*
X6806082Y12001246D01*
X6806082Y12002566D01*
X6809028Y12002566D01*
X6809028Y12003887D01*
X6810400Y12003887D01*
X6810400Y12005157D01*
X6811772Y12005157D01*
X6811772Y12007951D01*
X6813194Y12007951D01*
X6813194Y12009272D01*
X6814769Y12009272D01*
X6814769Y12013184D01*
X6816140Y12013184D01*
X6816140Y12058853D01*
X6817512Y12058853D01*
X6817512Y12060123D01*
X6818884Y12060123D01*
X6818884Y12061444D01*
X6820255Y12061444D01*
X6820255Y12062764D01*
X6823202Y12062764D01*
X6823202Y12064034D01*
X6827367Y12064034D01*
X6827367Y12065558D01*
X6828739Y12065558D01*
X6828739Y12066828D01*
X6831685Y12066828D01*
X6831685Y12068149D01*
X6833057Y12068149D01*
X6833057Y12069470D01*
X6834428Y12069470D01*
X6834428Y12072264D01*
X6835800Y12072264D01*
X6835800Y12073534D01*
X6837375Y12073534D01*
X6837375Y12077446D01*
X6838746Y12077446D01*
X6838746Y12143232D01*
X6837375Y12143232D01*
X6837375Y12147143D01*
X6835800Y12147143D01*
X6835800Y12148464D01*
X6834428Y12148464D01*
X6834428Y12151258D01*
X6833057Y12151258D01*
X6833057Y12152579D01*
X6831685Y12152579D01*
X6831685Y12153849D01*
X6828739Y12153849D01*
X6828739Y12155170D01*
X6827367Y12155170D01*
X6827367Y12156490D01*
X6823202Y12156490D01*
X6823202Y12157964D01*
X6820255Y12157964D01*
X6820255Y12159284D01*
X6818884Y12159284D01*
X6818884Y12160554D01*
X6817512Y12160554D01*
X6817512Y12161875D01*
X6816140Y12161875D01*
X6816140Y12196724D01*
G37*
G36*
X6874002Y12196724D02*
G01*
X6874002Y12161875D01*
X6872630Y12161875D01*
X6872630Y12160554D01*
X6871258Y12160554D01*
X6871258Y12159284D01*
X6869887Y12159284D01*
X6869887Y12157964D01*
X6867093Y12157964D01*
X6867093Y12156490D01*
X6862775Y12156490D01*
X6862775Y12155170D01*
X6861403Y12155170D01*
X6861403Y12153849D01*
X6858457Y12153849D01*
X6858457Y12152579D01*
X6857085Y12152579D01*
X6857085Y12151258D01*
X6855714Y12151258D01*
X6855714Y12148464D01*
X6854291Y12148464D01*
X6854291Y12147143D01*
X6852920Y12147143D01*
X6852920Y12143232D01*
X6851345Y12143232D01*
X6851345Y12077446D01*
X6852920Y12077446D01*
X6852920Y12073534D01*
X6854291Y12073534D01*
X6854291Y12072264D01*
X6855714Y12072264D01*
X6855714Y12069470D01*
X6857085Y12069470D01*
X6857085Y12068149D01*
X6858457Y12068149D01*
X6858457Y12066828D01*
X6861403Y12066828D01*
X6861403Y12065558D01*
X6862775Y12065558D01*
X6862775Y12064034D01*
X6867093Y12064034D01*
X6867093Y12062764D01*
X6869887Y12062764D01*
X6869887Y12061444D01*
X6871258Y12061444D01*
X6871258Y12060123D01*
X6872630Y12060123D01*
X6872630Y12058853D01*
X6874002Y12058853D01*
X6874002Y12013184D01*
X6875576Y12013184D01*
X6875576Y12009272D01*
X6876948Y12009272D01*
X6876948Y12007951D01*
X6878320Y12007951D01*
X6878320Y12005157D01*
X6879691Y12005157D01*
X6879691Y12003887D01*
X6881063Y12003887D01*
X6881063Y12002566D01*
X6884060Y12002566D01*
X6884060Y12001246D01*
X6885431Y12001246D01*
X6885431Y11999772D01*
X6889750Y11999772D01*
X6889750Y11998452D01*
X6891121Y11998452D01*
X6891121Y11999772D01*
X6895236Y11999772D01*
X6895236Y12001246D01*
X6896658Y12001246D01*
X6896658Y12002566D01*
X6899605Y12002566D01*
X6899605Y12003887D01*
X6900976Y12003887D01*
X6900976Y12005157D01*
X6902348Y12005157D01*
X6902348Y12007951D01*
X6903720Y12007951D01*
X6903720Y12009272D01*
X6905294Y12009272D01*
X6905294Y12013184D01*
X6906666Y12013184D01*
X6906666Y12058853D01*
X6908038Y12058853D01*
X6908038Y12060123D01*
X6909409Y12060123D01*
X6909409Y12061444D01*
X6910831Y12061444D01*
X6910831Y12062764D01*
X6913778Y12062764D01*
X6913778Y12064034D01*
X6917893Y12064034D01*
X6917893Y12065558D01*
X6919264Y12065558D01*
X6919264Y12066828D01*
X6922211Y12066828D01*
X6922211Y12068149D01*
X6923582Y12068149D01*
X6923582Y12069470D01*
X6925005Y12069470D01*
X6925005Y12072264D01*
X6926376Y12072264D01*
X6926376Y12073534D01*
X6927951Y12073534D01*
X6927951Y12077446D01*
X6929323Y12077446D01*
X6929323Y12143232D01*
X6927951Y12143232D01*
X6927951Y12147143D01*
X6926376Y12147143D01*
X6926376Y12148464D01*
X6925005Y12148464D01*
X6925005Y12151258D01*
X6923582Y12151258D01*
X6923582Y12152579D01*
X6922211Y12152579D01*
X6922211Y12153849D01*
X6919264Y12153849D01*
X6919264Y12155170D01*
X6917893Y12155170D01*
X6917893Y12156490D01*
X6913778Y12156490D01*
X6913778Y12157964D01*
X6910831Y12157964D01*
X6910831Y12159284D01*
X6909409Y12159284D01*
X6909409Y12160554D01*
X6908038Y12160554D01*
X6908038Y12161875D01*
X6906666Y12161875D01*
X6906666Y12196724D01*
G37*
G36*
X6651955Y11986564D02*
G01*
X6651955Y11896750D01*
X6680301Y11896750D01*
X6680301Y11951716D01*
X6681673Y11951716D01*
X6681673Y11952986D01*
X6683044Y11952986D01*
X6683044Y11954306D01*
X6684416Y11954306D01*
X6684416Y11955627D01*
X6734048Y11955627D01*
X6734048Y11954306D01*
X6735419Y11954306D01*
X6735419Y11952986D01*
X6736791Y11952986D01*
X6736791Y11951716D01*
X6738162Y11951716D01*
X6738162Y11896750D01*
X6770878Y11896750D01*
X6770878Y11951716D01*
X6772249Y11951716D01*
X6772249Y11952986D01*
X6773621Y11952986D01*
X6773621Y11954306D01*
X6774992Y11954306D01*
X6774992Y11955627D01*
X6824573Y11955627D01*
X6824573Y11954306D01*
X6825945Y11954306D01*
X6825945Y11952986D01*
X6827367Y11952986D01*
X6827367Y11951716D01*
X6828739Y11951716D01*
X6828739Y11896750D01*
X6861403Y11896750D01*
X6861403Y11951716D01*
X6862775Y11951716D01*
X6862775Y11952986D01*
X6864146Y11952986D01*
X6864146Y11954306D01*
X6865518Y11954306D01*
X6865518Y11955627D01*
X6915150Y11955627D01*
X6915150Y11954306D01*
X6916521Y11954306D01*
X6916521Y11952986D01*
X6917893Y11952986D01*
X6917893Y11951716D01*
X6919264Y11951716D01*
X6919264Y11896750D01*
X6951929Y11896750D01*
X6951929Y11971629D01*
X6950557Y11971629D01*
X6950557Y11975744D01*
X6948982Y11975744D01*
X6948982Y11977014D01*
X6947611Y11977014D01*
X6947611Y11979808D01*
X6946239Y11979808D01*
X6946239Y11981129D01*
X6944868Y11981129D01*
X6944868Y11982450D01*
X6941921Y11982450D01*
X6941921Y11983720D01*
X6940550Y11983720D01*
X6940550Y11985040D01*
X6936384Y11985040D01*
X6936384Y11986564D01*
G37*
G36*
X6708648Y11943689D02*
G01*
X6708648Y11942165D01*
X6704330Y11942165D01*
X6704330Y11940895D01*
X6702958Y11940895D01*
X6702958Y11939574D01*
X6700012Y11939574D01*
X6700012Y11938254D01*
X6698589Y11938254D01*
X6698589Y11936984D01*
X6697218Y11936984D01*
X6697218Y11934190D01*
X6695846Y11934190D01*
X6695846Y11932869D01*
X6694474Y11932869D01*
X6694474Y11928754D01*
X6692900Y11928754D01*
X6692900Y11927484D01*
X6694474Y11927484D01*
X6694474Y11923572D01*
X6695846Y11923572D01*
X6695846Y11922252D01*
X6697218Y11922252D01*
X6697218Y11919458D01*
X6698589Y11919458D01*
X6698589Y11918137D01*
X6700012Y11918137D01*
X6700012Y11916867D01*
X6702958Y11916867D01*
X6702958Y11915546D01*
X6704330Y11915546D01*
X6704330Y11914073D01*
X6708648Y11914073D01*
X6708648Y11912752D01*
X6710019Y11912752D01*
X6710019Y11914073D01*
X6714185Y11914073D01*
X6714185Y11915546D01*
X6715556Y11915546D01*
X6715556Y11916867D01*
X6718503Y11916867D01*
X6718503Y11918137D01*
X6719874Y11918137D01*
X6719874Y11919458D01*
X6721246Y11919458D01*
X6721246Y11922252D01*
X6722618Y11922252D01*
X6722618Y11923572D01*
X6724192Y11923572D01*
X6724192Y11927484D01*
X6725564Y11927484D01*
X6725564Y11928754D01*
X6724192Y11928754D01*
X6724192Y11932869D01*
X6722618Y11932869D01*
X6722618Y11934190D01*
X6721246Y11934190D01*
X6721246Y11936984D01*
X6719874Y11936984D01*
X6719874Y11938254D01*
X6718503Y11938254D01*
X6718503Y11939574D01*
X6715556Y11939574D01*
X6715556Y11940895D01*
X6714185Y11940895D01*
X6714185Y11942165D01*
X6710019Y11942165D01*
X6710019Y11943689D01*
G37*
G36*
X6799224Y11943689D02*
G01*
X6799224Y11942165D01*
X6794855Y11942165D01*
X6794855Y11940895D01*
X6793484Y11940895D01*
X6793484Y11939574D01*
X6790537Y11939574D01*
X6790537Y11938254D01*
X6789166Y11938254D01*
X6789166Y11936984D01*
X6787794Y11936984D01*
X6787794Y11934190D01*
X6786422Y11934190D01*
X6786422Y11932869D01*
X6785051Y11932869D01*
X6785051Y11928754D01*
X6783425Y11928754D01*
X6783425Y11927484D01*
X6785051Y11927484D01*
X6785051Y11923572D01*
X6786422Y11923572D01*
X6786422Y11922252D01*
X6787794Y11922252D01*
X6787794Y11919458D01*
X6789166Y11919458D01*
X6789166Y11918137D01*
X6790537Y11918137D01*
X6790537Y11916867D01*
X6793484Y11916867D01*
X6793484Y11915546D01*
X6794855Y11915546D01*
X6794855Y11914073D01*
X6799224Y11914073D01*
X6799224Y11912752D01*
X6800596Y11912752D01*
X6800596Y11914073D01*
X6804710Y11914073D01*
X6804710Y11915546D01*
X6806082Y11915546D01*
X6806082Y11916867D01*
X6809028Y11916867D01*
X6809028Y11918137D01*
X6810400Y11918137D01*
X6810400Y11919458D01*
X6811772Y11919458D01*
X6811772Y11922252D01*
X6813194Y11922252D01*
X6813194Y11923572D01*
X6814769Y11923572D01*
X6814769Y11927484D01*
X6816140Y11927484D01*
X6816140Y11928754D01*
X6814769Y11928754D01*
X6814769Y11932869D01*
X6813194Y11932869D01*
X6813194Y11934190D01*
X6811772Y11934190D01*
X6811772Y11936984D01*
X6810400Y11936984D01*
X6810400Y11938254D01*
X6809028Y11938254D01*
X6809028Y11939574D01*
X6806082Y11939574D01*
X6806082Y11940895D01*
X6804710Y11940895D01*
X6804710Y11942165D01*
X6800596Y11942165D01*
X6800596Y11943689D01*
G37*
G36*
X6889750Y11943689D02*
G01*
X6889750Y11942165D01*
X6885431Y11942165D01*
X6885431Y11940895D01*
X6884060Y11940895D01*
X6884060Y11939574D01*
X6881063Y11939574D01*
X6881063Y11938254D01*
X6879691Y11938254D01*
X6879691Y11936984D01*
X6878320Y11936984D01*
X6878320Y11934190D01*
X6876948Y11934190D01*
X6876948Y11932869D01*
X6875576Y11932869D01*
X6875576Y11928754D01*
X6874002Y11928754D01*
X6874002Y11927484D01*
X6875576Y11927484D01*
X6875576Y11923572D01*
X6876948Y11923572D01*
X6876948Y11922252D01*
X6878320Y11922252D01*
X6878320Y11919458D01*
X6879691Y11919458D01*
X6879691Y11918137D01*
X6881063Y11918137D01*
X6881063Y11916867D01*
X6884060Y11916867D01*
X6884060Y11915546D01*
X6885431Y11915546D01*
X6885431Y11914073D01*
X6889750Y11914073D01*
X6889750Y11912752D01*
X6891121Y11912752D01*
X6891121Y11914073D01*
X6895236Y11914073D01*
X6895236Y11915546D01*
X6896658Y11915546D01*
X6896658Y11916867D01*
X6899605Y11916867D01*
X6899605Y11918137D01*
X6900976Y11918137D01*
X6900976Y11919458D01*
X6902348Y11919458D01*
X6902348Y11922252D01*
X6903720Y11922252D01*
X6903720Y11923572D01*
X6905294Y11923572D01*
X6905294Y11927484D01*
X6906666Y11927484D01*
X6906666Y11928754D01*
X6905294Y11928754D01*
X6905294Y11932869D01*
X6903720Y11932869D01*
X6903720Y11934190D01*
X6902348Y11934190D01*
X6902348Y11936984D01*
X6900976Y11936984D01*
X6900976Y11938254D01*
X6899605Y11938254D01*
X6899605Y11939574D01*
X6896658Y11939574D01*
X6896658Y11940895D01*
X6895236Y11940895D01*
X6895236Y11942165D01*
X6891121Y11942165D01*
X6891121Y11943689D01*
G37*
G36*
X2113381Y4191711D02*
G01*
X2106625Y4189222D01*
X2096414Y4184142D01*
X2087270Y4169156D01*
X2090064Y4160265D01*
X2105456Y4146550D01*
X2122474Y4141876D01*
X2130856Y4135678D01*
X2099919Y4127449D01*
X2066289Y4111955D01*
X2052878Y4104589D01*
X2025243Y4090162D01*
X2013051Y4080408D01*
X2008733Y4080408D01*
X1974392Y4052315D01*
X1947519Y4026255D01*
X1933752Y4013352D01*
X1916531Y3991254D01*
X1904949Y3978351D01*
X1893722Y3956558D01*
X1881784Y3940454D01*
X1874824Y3924706D01*
X1863039Y3892905D01*
X1849628Y3858818D01*
X1843074Y3820160D01*
X1840433Y3747414D01*
X1847951Y3679240D01*
X1854606Y3655415D01*
X1866239Y3647643D01*
X1887728Y3644849D01*
X1922881Y3652164D01*
X1936292Y3659682D01*
X1965706Y3666744D01*
X1974392Y3666744D01*
X1987854Y3674008D01*
X2009597Y3680714D01*
X2034438Y3684778D01*
X2041652Y3690975D01*
X2073656Y3698544D01*
X2082139Y3698544D01*
X2091943Y3705504D01*
X2126437Y3714445D01*
X2135784Y3714496D01*
X2149398Y3722928D01*
X2194052Y3732885D01*
X2203704Y3739286D01*
X2247087Y3748278D01*
X2257145Y3754983D01*
X2300782Y3764534D01*
X2310587Y3770934D01*
X2355443Y3780637D01*
X2364384Y3786428D01*
X2394458Y3794048D01*
X2402586Y3794048D01*
X2418994Y3802938D01*
X2462174Y3811930D01*
X2468168Y3816959D01*
X2483154Y3821328D01*
X2516733Y3828389D01*
X2523540Y3834282D01*
X2570581Y3844239D01*
X2579928Y3850487D01*
X2617673Y3858463D01*
X2633370Y3866184D01*
X2669235Y3873957D01*
X2687116Y3882034D01*
X2714040Y3889959D01*
X2722168Y3897325D01*
X2719324Y3913378D01*
X2702763Y3931564D01*
X2694228Y3947464D01*
X2668066Y3978401D01*
X2668066Y3981805D01*
X2659735Y3990644D01*
X2600401Y4047490D01*
X2592984Y4051452D01*
X2579573Y4063796D01*
X2561640Y4074515D01*
X2559405Y4077411D01*
X2532481Y4094784D01*
X2467508Y4127754D01*
X2451811Y4131005D01*
X2427173Y4142282D01*
X2391308Y4148785D01*
X2355443Y4159504D01*
X2286355Y4164329D01*
X2211984Y4159453D01*
X2173884Y4148836D01*
X2153158Y4145889D01*
X2140254Y4153001D01*
X2145334Y4153154D01*
X2150770Y4166463D01*
X2144928Y4182821D01*
X2134463Y4189780D01*
G37*
G36*
X2733344Y3871315D02*
G01*
X2730652Y3866896D01*
X2700121Y3857650D01*
X2690825Y3857650D01*
X2658008Y3844391D01*
X2635605Y3841140D01*
X2611729Y3830523D01*
X2584043Y3825443D01*
X2561640Y3816096D01*
X2521915Y3807510D01*
X2505354Y3798925D01*
X2476449Y3793540D01*
X2441752Y3780282D01*
X2420416Y3777437D01*
X2388819Y3764686D01*
X2364384Y3760266D01*
X2327097Y3746296D01*
X2313736Y3746296D01*
X2292654Y3736543D01*
X2270252Y3730447D01*
X2259076Y3730345D01*
X2235403Y3719169D01*
X2201316Y3712006D01*
X2180793Y3702558D01*
X2149246Y3696766D01*
X2127808Y3686911D01*
X2090978Y3679901D01*
X2085593Y3675481D01*
X2057349Y3666744D01*
X2044750Y3666744D01*
X2019249Y3654856D01*
X1984502Y3648659D01*
X1967433Y3639820D01*
X1938528Y3634384D01*
X1904390Y3621430D01*
X1884781Y3618331D01*
X1850847Y3601212D01*
X1833321Y3579215D01*
X1816404Y3561994D01*
X1816404Y3557676D01*
X1787855Y3529228D01*
X1780743Y3515563D01*
X1753666Y3488486D01*
X1753666Y3483356D01*
X1724710Y3457244D01*
X1722018Y3448761D01*
X1728978Y3435146D01*
X1745792Y3433724D01*
X1781251Y3444951D01*
X1788363Y3452317D01*
X1816252Y3462680D01*
X1820824Y3468217D01*
X1846681Y3476751D01*
X1855622Y3483965D01*
X1880260Y3492296D01*
X1894738Y3500577D01*
X1924913Y3510026D01*
X1931822Y3516223D01*
X1956460Y3524250D01*
X1983384Y3536797D01*
X2001316Y3540099D01*
X2012492Y3547973D01*
X2039416Y3555746D01*
X2057349Y3564280D01*
X2092807Y3573526D01*
X2099919Y3579876D01*
X2135835Y3588969D01*
X2153716Y3598113D01*
X2178354Y3603498D01*
X2196287Y3611981D01*
X2227681Y3619449D01*
X2245614Y3627831D01*
X2269947Y3634892D01*
X2281478Y3634943D01*
X2295956Y3643884D01*
X2338984Y3652824D01*
X2349398Y3659733D01*
X2395067Y3669182D01*
X2404719Y3675329D01*
X2453690Y3685133D01*
X2465273Y3691636D01*
X2499817Y3698544D01*
X2507996Y3698544D01*
X2525268Y3707485D01*
X2578506Y3716629D01*
X2590749Y3722979D01*
X2633370Y3730498D01*
X2653538Y3737508D01*
X2696108Y3746296D01*
X2708554Y3746296D01*
X2725216Y3753662D01*
X2743149Y3757523D01*
X2786735Y3764432D01*
X2803702Y3770934D01*
X2855214Y3778504D01*
X2875381Y3785311D01*
X2929178Y3793845D01*
X2943910Y3794048D01*
X2971088Y3803345D01*
X2984093Y3813048D01*
X2984093Y3818940D01*
X2974035Y3825443D01*
X2938170Y3833215D01*
X2922473Y3839768D01*
X2884373Y3844036D01*
X2830576Y3857345D01*
X2803702Y3859784D01*
X2759913Y3871315D01*
G37*
G36*
X3121964Y3780028D02*
G01*
X3086100Y3776573D01*
X3059176Y3767226D01*
X3025597Y3761435D01*
X3014370Y3753764D01*
X2984449Y3743756D01*
X2979470Y3737711D01*
X2956712Y3727754D01*
X2938627Y3714445D01*
X2933700Y3714343D01*
X2896920Y3681526D01*
X2868574Y3649675D01*
X2851099Y3620160D01*
X2841447Y3608222D01*
X2836418Y3595115D01*
X2831133Y3561232D01*
X2873603Y3561232D01*
X2880715Y3572408D01*
X2890164Y3596944D01*
X2898495Y3607714D01*
X2906776Y3631234D01*
X2952445Y3676954D01*
X2969564Y3692194D01*
X2987497Y3701338D01*
X2994609Y3707688D01*
X3023057Y3719017D01*
X3025648Y3723233D01*
X3059988Y3732326D01*
X3070402Y3738930D01*
X3106267Y3744163D01*
X3121964Y3745890D01*
X3209340Y3744315D01*
X3238500Y3739235D01*
X3250590Y3732529D01*
X3285236Y3723538D01*
X3292297Y3717137D01*
X3318814Y3707739D01*
X3328162Y3699205D01*
X3343859Y3690620D01*
X3375202Y3662375D01*
X3383229Y3654247D01*
X3406749Y3624681D01*
X3416655Y3610356D01*
X3416655Y3602736D01*
X3430676Y3570427D01*
X3439109Y3534613D01*
X3439109Y3499256D01*
X3430422Y3464814D01*
X3420414Y3445103D01*
X3413302Y3421126D01*
X3386429Y3386226D01*
X3372561Y3372358D01*
X3348075Y3348532D01*
X3343401Y3348532D01*
X3333038Y3339388D01*
X3296767Y3319424D01*
X3279444Y3314649D01*
X3271875Y3307689D01*
X3240735Y3300425D01*
X3195929Y3289350D01*
X3142132Y3286607D01*
X3099816Y3291890D01*
X3072638Y3300526D01*
X3045866Y3305301D01*
X3023311Y3316020D01*
X2998673Y3328060D01*
X2971139Y3343503D01*
X2958338Y3355035D01*
X2944876Y3366719D01*
X2937256Y3369208D01*
X2934512Y3378047D01*
X2907588Y3406495D01*
X2894380Y3433724D01*
X2890164Y3440582D01*
X2874518Y3473348D01*
X2873603Y3561232D01*
X2831133Y3561232D01*
X2828645Y3545128D01*
X2826918Y3497834D01*
X2833827Y3465576D01*
X2836773Y3440582D01*
X2843428Y3427272D01*
X2858160Y3405987D01*
X2867964Y3386023D01*
X2904693Y3347364D01*
X2942285Y3317849D01*
X2962808Y3305556D01*
X2986074Y3293973D01*
X2990291Y3293973D01*
X2995828Y3287166D01*
X3027832Y3277870D01*
X3043529Y3269538D01*
X3097276Y3261918D01*
X3128670Y3254197D01*
X3180232Y3254197D01*
X3213862Y3262071D01*
X3265373Y3269183D01*
X3281070Y3277158D01*
X3310229Y3285693D01*
X3321405Y3293211D01*
X3341573Y3301339D01*
X3361537Y3300729D01*
X3372967Y3293110D01*
X3413302Y3261258D01*
X3414420Y3260648D01*
X3417012Y3229254D01*
X3463747Y3229254D01*
X3463950Y3245104D01*
X3472027Y3260547D01*
X3487267Y3268776D01*
X3517798Y3268979D01*
X3537712Y3259734D01*
X3537712Y3256279D01*
X3552291Y3247745D01*
X3566007Y3233724D01*
X3585870Y3220212D01*
X3597097Y3209239D01*
X3614928Y3197352D01*
X3627831Y3182569D01*
X3632606Y3182569D01*
X3639667Y3176270D01*
X3666490Y3149600D01*
X3673652Y3133699D01*
X3666185Y3116732D01*
X3646627Y3102356D01*
X3630066Y3098546D01*
X3615029Y3104286D01*
X3599789Y3113278D01*
X3585311Y3125774D01*
X3581908Y3125774D01*
X3571036Y3137662D01*
X3551580Y3151886D01*
X3506927Y3189376D01*
X3502863Y3189376D01*
X3463747Y3229254D01*
X3417012Y3229254D01*
X3418332Y3213557D01*
X3458159Y3176524D01*
X3476904Y3164535D01*
X3480562Y3158490D01*
X3497326Y3148126D01*
X3500729Y3142335D01*
X3536594Y3113989D01*
X3557879Y3098038D01*
X3557879Y3094736D01*
X3590391Y3075990D01*
X3629964Y3065983D01*
X3662121Y3071672D01*
X3684371Y3078683D01*
X3712667Y3101289D01*
X3719982Y3115513D01*
X3722014Y3147669D01*
X3714292Y3163265D01*
X3693464Y3182772D01*
X3671062Y3200552D01*
X3648659Y3221177D01*
X3643376Y3221228D01*
X3632962Y3234232D01*
X3612794Y3246272D01*
X3594862Y3264763D01*
X3581400Y3271824D01*
X3564585Y3287115D01*
X3558743Y3287115D01*
X3537458Y3300831D01*
X3491737Y3305708D01*
X3469233Y3316325D01*
X3453637Y3330498D01*
X3440226Y3337712D01*
X3423462Y3354171D01*
X3423412Y3359454D01*
X3433419Y3378504D01*
X3452215Y3398113D01*
X3459175Y3411778D01*
X3468573Y3437229D01*
X3478885Y3449675D01*
X3486150Y3485387D01*
X3486150Y3550412D01*
X3479647Y3584905D01*
X3466084Y3604869D01*
X3459276Y3625189D01*
X3447643Y3646322D01*
X3439007Y3651046D01*
X3428339Y3668166D01*
X3413506Y3681526D01*
X3397097Y3698138D01*
X3356051Y3726434D01*
X3353663Y3730396D01*
X3346551Y3730396D01*
X3324453Y3744163D01*
X3294887Y3755491D01*
X3289757Y3759809D01*
X3245205Y3768699D01*
X3218688Y3778148D01*
G37*
G36*
X3186938Y3718864D02*
G01*
X3117443Y3718458D01*
X3077108Y3713124D01*
X3059023Y3703472D01*
X3033674Y3696766D01*
X3020415Y3687165D01*
X3016199Y3687165D01*
X2985211Y3666845D01*
X2981756Y3666744D01*
X2945993Y3634333D01*
X2945993Y3628999D01*
X2929788Y3613302D01*
X2914650Y3581603D01*
X2914650Y3576421D01*
X2900527Y3545128D01*
X2899140Y3516731D01*
X2947314Y3516731D01*
X2952496Y3551936D01*
X2961690Y3569970D01*
X2961792Y3579215D01*
X2970276Y3597401D01*
X2992729Y3621684D01*
X2995117Y3627882D01*
X3012135Y3639261D01*
X3039008Y3658260D01*
X3069996Y3671315D01*
X3074873Y3675075D01*
X3101390Y3680866D01*
X3151073Y3686657D01*
X3154019Y3687165D01*
X3213862Y3680307D01*
X3238500Y3675075D01*
X3245307Y3669233D01*
X3272129Y3658971D01*
X3276600Y3653688D01*
X3295904Y3643020D01*
X3329279Y3610813D01*
X3329279Y3607714D01*
X3344926Y3583787D01*
X3351733Y3574287D01*
X3358591Y3549650D01*
X3361232Y3496767D01*
X3351377Y3463950D01*
X3320237Y3414420D01*
X3316681Y3414420D01*
X3288385Y3387496D01*
X3248761Y3366922D01*
X3231794Y3363823D01*
X3207105Y3353511D01*
X3164535Y3348278D01*
X3119729Y3351123D01*
X3093364Y3355644D01*
X3077210Y3364433D01*
X3069386Y3364433D01*
X3050235Y3372053D01*
X3039516Y3380333D01*
X3031947Y3380333D01*
X3021330Y3391763D01*
X2999790Y3405835D01*
X2999790Y3408883D01*
X2966415Y3446068D01*
X2961741Y3463290D01*
X2961690Y3470097D01*
X2952699Y3485083D01*
X2947314Y3516731D01*
X2899140Y3516731D01*
X2898394Y3501440D01*
X2906217Y3476955D01*
X2923997Y3434130D01*
X2934208Y3417773D01*
X2942234Y3411016D01*
X2949346Y3399332D01*
X2987192Y3366363D01*
X3004007Y3357626D01*
X3019145Y3347262D01*
X3039008Y3340658D01*
X3047187Y3333089D01*
X3088335Y3325114D01*
X3101797Y3317849D01*
X3209544Y3317849D01*
X3221532Y3325774D01*
X3229508Y3325825D01*
X3264763Y3334613D01*
X3272129Y3340760D01*
X3296767Y3349142D01*
X3305708Y3357067D01*
X3323640Y3366871D01*
X3338322Y3377692D01*
X3367938Y3405327D01*
X3376828Y3422396D01*
X3384600Y3431489D01*
X3399332Y3454146D01*
X3404362Y3488283D01*
X3404311Y3549650D01*
X3400501Y3576929D01*
X3391306Y3597401D01*
X3377031Y3615588D01*
X3371087Y3626916D01*
X3334867Y3662273D01*
X3314700Y3674160D01*
X3305708Y3682034D01*
X3294176Y3684778D01*
X3276600Y3696919D01*
X3249472Y3704793D01*
X3234080Y3712870D01*
G37*
G36*
X2653538Y3714496D02*
G01*
X2613202Y3700475D01*
X2590749Y3698087D01*
X2552649Y3685235D01*
X2517190Y3680307D01*
X2512212Y3676142D01*
X2478786Y3666744D01*
X2465273Y3666642D01*
X2438349Y3655263D01*
X2406954Y3650284D01*
X2382316Y3639972D01*
X2368854Y3636772D01*
X2344826Y3632809D01*
X2326284Y3623818D01*
X2292451Y3616858D01*
X2272487Y3607917D01*
X2239365Y3600297D01*
X2220518Y3581196D01*
X2217369Y3538321D01*
X2214676Y3518560D01*
X2204059Y3513683D01*
X2185111Y3523081D01*
X2145080Y3528364D01*
X2113381Y3522979D01*
X2083816Y3505250D01*
X2071725Y3481070D01*
X2069134Y3464814D01*
X2081377Y3424936D01*
X2104390Y3400247D01*
X2131314Y3380943D01*
X2160422Y3375964D01*
X2190953Y3373120D01*
X2195830Y3361029D01*
X2195169Y3338271D01*
X2190597Y3272383D01*
X2184603Y3244189D01*
X2196287Y3233470D01*
X2214473Y3221228D01*
X2221280Y3221228D01*
X2243378Y3213658D01*
X2254554Y3205937D01*
X2283714Y3197555D01*
X2294890Y3190036D01*
X2324049Y3181604D01*
X2329484Y3176270D01*
X2362149Y3166262D01*
X2369362Y3159760D01*
X2401824Y3150616D01*
X2407920Y3144418D01*
X2440076Y3134512D01*
X2452674Y3125063D01*
X2486456Y3122879D01*
X2498191Y3130702D01*
X2496616Y3167583D01*
X2511298Y3171901D01*
X2530246Y3165754D01*
X2540101Y3159506D01*
X2577338Y3148736D01*
X2597505Y3141268D01*
X2644546Y3142843D01*
X2662478Y3151632D01*
X2679242Y3162147D01*
X2690876Y3180842D01*
X2690317Y3404768D01*
X2700578Y3407562D01*
X2753055Y3407613D01*
X2775508Y3412490D01*
X2787396Y3421989D01*
X2792933Y3435400D01*
X2786684Y3465576D01*
X2778302Y3492855D01*
X2772308Y3506470D01*
X2764840Y3517849D01*
X2752598Y3554222D01*
X2739339Y3579215D01*
X2733700Y3586022D01*
X2721762Y3618229D01*
X2706370Y3642868D01*
X2696921Y3663289D01*
X2692908Y3681526D01*
X2687777Y3706774D01*
X2675940Y3711956D01*
G37*
G36*
X3032048Y3618992D02*
G01*
X3011373Y3605682D01*
X3004058Y3590086D01*
X2982366Y3562756D01*
X2977388Y3539236D01*
X2977388Y3498646D01*
X2984347Y3480968D01*
X2995523Y3475786D01*
X3017723Y3475786D01*
X3027273Y3485489D01*
X3023870Y3511042D01*
X3024581Y3532327D01*
X3030524Y3552444D01*
X3045764Y3573678D01*
X3062579Y3595065D01*
X3062579Y3600958D01*
X3069437Y3611626D01*
X3051251Y3618992D01*
G37*
G36*
X2164943Y3573322D02*
G01*
X2151481Y3569563D01*
X2137003Y3563112D01*
X2151430Y3554425D01*
X2187346Y3554476D01*
X2199487Y3562553D01*
X2190699Y3572103D01*
G37*
G36*
X2064918Y3532632D02*
G01*
X2052878Y3532276D01*
X2010257Y3522268D01*
X1996846Y3512312D01*
X1972157Y3505911D01*
X1931822Y3485743D01*
X1930450Y3466439D01*
X1940204Y3445916D01*
X1949907Y3433724D01*
X1957019Y3417824D01*
X1967687Y3396945D01*
X1987854Y3368649D01*
X2022500Y3329889D01*
X2043480Y3313277D01*
X2053793Y3303422D01*
X2073046Y3292805D01*
X2074570Y3289249D01*
X2097684Y3277565D01*
X2106625Y3269335D01*
X2129078Y3262172D01*
X2155444Y3258210D01*
X2168906Y3270453D01*
X2168093Y3303981D01*
X2173630Y3325825D01*
X2168296Y3331210D01*
X2168296Y3340709D01*
X2155952Y3348075D01*
X2138019Y3351479D01*
X2120087Y3359962D01*
X2097989Y3372256D01*
X2073046Y3397808D01*
X2058924Y3414369D01*
X2051761Y3435705D01*
X2051761Y3498596D01*
X2062225Y3515563D01*
G37*
G36*
X2012492Y3274618D02*
G01*
X1998472Y3273247D01*
X1988464Y3262426D01*
X1996135Y3204159D01*
X2004568Y3149600D01*
X2005380Y3131413D01*
X1979777Y3095396D01*
X1973935Y3090519D01*
X1962505Y3074619D01*
X1950415Y3052470D01*
X1935073Y3032048D01*
X1926234Y3012338D01*
X1926234Y3008223D01*
X1911654Y2988106D01*
X1905812Y2977692D01*
X1892452Y2940862D01*
X1879142Y2922574D01*
X1879092Y2917799D01*
X1861667Y2869793D01*
X1849628Y2845054D01*
X1838604Y2804109D01*
X1818690Y2753563D01*
X1807870Y2702814D01*
X1818538Y2695702D01*
X1835454Y2691739D01*
X2563876Y2691688D01*
X2595270Y2696311D01*
X2602992Y2704185D01*
X2603601Y2724556D01*
X2596032Y2745028D01*
X2572359Y2814675D01*
X2562758Y2826867D01*
X2555900Y2843022D01*
X2547315Y2858668D01*
X2537968Y2878632D01*
X2539238Y2879293D01*
X2559405Y2895498D01*
X2575052Y2903677D01*
X2592984Y2917799D01*
X2600147Y2922320D01*
X2623261Y2939796D01*
X2623261Y2943910D01*
X2629255Y2943910D01*
X2644546Y2958896D01*
X2678988Y2987852D01*
X2681732Y2999587D01*
X2683916Y3007055D01*
X2635605Y3029762D01*
X2617673Y3035452D01*
X2597505Y3045510D01*
X2582519Y3048457D01*
X2559405Y3060344D01*
X2536952Y3067151D01*
X2519476Y3076194D01*
X2496616Y3083052D01*
X2480614Y3091332D01*
X2451811Y3101136D01*
X2438349Y3109315D01*
X2420416Y3112465D01*
X2396947Y3125774D01*
X2388565Y3125774D01*
X2362149Y3139440D01*
X2335276Y3146552D01*
X2317343Y3156864D01*
X2294890Y3162960D01*
X2279243Y3173018D01*
X2261311Y3176117D01*
X2242261Y3186785D01*
X2216556Y3194354D01*
X2205278Y3202381D01*
X2172106Y3212439D01*
X2162302Y3218942D01*
X2138019Y3226257D01*
X2120087Y3236569D01*
X2104948Y3239414D01*
X2077516Y3252673D01*
X2059939Y3258210D01*
X2044649Y3267354D01*
G37*
G36*
X6439001Y3403854D02*
G01*
X6438798Y3403346D01*
X6433667Y3402685D01*
X6428384Y3401669D01*
X6427825Y3401314D01*
X6421221Y3399536D01*
X6416446Y3397961D01*
X6409994Y3395268D01*
X6403136Y3391865D01*
X6393383Y3385718D01*
X6384544Y3378708D01*
X6375704Y3369767D01*
X6370624Y3363315D01*
X6364833Y3354628D01*
X6362242Y3349701D01*
X6358432Y3341319D01*
X6355334Y3332581D01*
X6353251Y3323894D01*
X6351930Y3315817D01*
X6351219Y3310077D01*
X6351219Y3298088D01*
X6351879Y3293465D01*
X6352235Y3289198D01*
X6352895Y3286607D01*
X6352895Y3285185D01*
X6355130Y3276092D01*
X6355842Y3274415D01*
X6356451Y3271926D01*
X6358839Y3265576D01*
X6364325Y3254502D01*
X6363817Y3253994D01*
X6354724Y3254298D01*
X6342786Y3253232D01*
X6339586Y3252520D01*
X6335420Y3251911D01*
X6326327Y3249676D01*
X6317081Y3246577D01*
X6308547Y3242767D01*
X6301943Y3239262D01*
X6293307Y3233724D01*
X6284620Y3226765D01*
X6276035Y3218230D01*
X6270599Y3211423D01*
X6264706Y3202736D01*
X6258052Y3189478D01*
X6258052Y3188817D01*
X6257594Y3188309D01*
X6254597Y3179267D01*
X6252464Y3169564D01*
X6252006Y3164890D01*
X6251498Y3164687D01*
X6251498Y3142538D01*
X6252057Y3142335D01*
X6252413Y3137458D01*
X6253429Y3132328D01*
X6254394Y3129178D01*
X6254394Y3128264D01*
X6255054Y3126943D01*
X6255410Y3125012D01*
X6255816Y3124504D01*
X6257544Y3119120D01*
X6258306Y3117646D01*
X6258306Y3116884D01*
X6259068Y3116275D01*
X6259068Y3115513D01*
X6262928Y3107893D01*
X6265418Y3103473D01*
X6270802Y3095650D01*
X6276695Y3088640D01*
X6280454Y3084677D01*
X6284214Y3081121D01*
X6292291Y3074568D01*
X6299504Y3069691D01*
X6302654Y3067812D01*
X6313779Y3062274D01*
X6314236Y3062274D01*
X6318300Y3060496D01*
X6324447Y3058363D01*
X6325412Y3058363D01*
X6326378Y3057702D01*
X6328613Y3057347D01*
X6329578Y3056839D01*
X6341364Y3054451D01*
X6344716Y3054451D01*
X6347155Y3053638D01*
X6368897Y3053638D01*
X6371386Y3054451D01*
X6374282Y3054451D01*
X6376263Y3054959D01*
X6380734Y3055670D01*
X6393230Y3059125D01*
X6397802Y3060598D01*
X6398717Y3061309D01*
X6399377Y3061309D01*
X6406286Y3064510D01*
X6412534Y3067812D01*
X6418427Y3071418D01*
X6429654Y3079902D01*
X6435090Y3085033D01*
X6435547Y3085033D01*
X6435547Y3085744D01*
X6436004Y3085744D01*
X6435394Y3083560D01*
X6434074Y3080207D01*
X6434074Y3079292D01*
X6433362Y3078327D01*
X6433007Y3076600D01*
X6432600Y3076041D01*
X6426962Y3059430D01*
X6426250Y3058007D01*
X6426250Y3056991D01*
X6425793Y3056534D01*
X6422339Y3046933D01*
X6422339Y3046018D01*
X6421628Y3045053D01*
X6421272Y3043326D01*
X6420916Y3042869D01*
X6410350Y3012186D01*
X6409893Y3011932D01*
X6409588Y3010103D01*
X6408877Y3009138D01*
X6408877Y3008223D01*
X6407708Y3005429D01*
X6407454Y3003854D01*
X6495440Y3003854D01*
X6495084Y3005429D01*
X6493916Y3008223D01*
X6493916Y3009138D01*
X6493256Y3010103D01*
X6492900Y3011779D01*
X6492240Y3012744D01*
X6492240Y3013659D01*
X6491528Y3015234D01*
X6481165Y3045053D01*
X6480505Y3046018D01*
X6480505Y3046933D01*
X6479794Y3048457D01*
X6470904Y3073654D01*
X6470243Y3076041D01*
X6469786Y3076600D01*
X6469430Y3078429D01*
X6469024Y3078683D01*
X6468516Y3080766D01*
X6466789Y3085744D01*
X6467297Y3085744D01*
X6467297Y3085033D01*
X6467703Y3085033D01*
X6472783Y3080207D01*
X6479438Y3074873D01*
X6486245Y3070250D01*
X6490309Y3067812D01*
X6496507Y3064510D01*
X6503466Y3061309D01*
X6503974Y3061309D01*
X6505041Y3060700D01*
X6517538Y3056686D01*
X6528612Y3054451D01*
X6531457Y3054451D01*
X6533896Y3053638D01*
X6555638Y3053638D01*
X6558076Y3054451D01*
X6561429Y3054451D01*
X6573469Y3056940D01*
X6573977Y3057347D01*
X6576415Y3057702D01*
X6577380Y3058363D01*
X6578295Y3058363D01*
X6586067Y3061106D01*
X6588556Y3062274D01*
X6589064Y3062274D01*
X6598208Y3066745D01*
X6602222Y3069031D01*
X6610502Y3074568D01*
X6618528Y3081020D01*
X6626555Y3089046D01*
X6632752Y3096615D01*
X6637781Y3104184D01*
X6640118Y3108248D01*
X6643776Y3115513D01*
X6643776Y3115919D01*
X6645300Y3119069D01*
X6647738Y3126943D01*
X6648399Y3128264D01*
X6648399Y3129178D01*
X6649364Y3132328D01*
X6650634Y3138728D01*
X6650634Y3141472D01*
X6651447Y3143808D01*
X6651447Y3163163D01*
X6650634Y3165805D01*
X6650634Y3168497D01*
X6649364Y3175101D01*
X6646925Y3183432D01*
X6644995Y3188817D01*
X6644741Y3189020D01*
X6644741Y3189681D01*
X6642506Y3194710D01*
X6638493Y3202381D01*
X6637883Y3202990D01*
X6637883Y3203448D01*
X6632651Y3211322D01*
X6626047Y3219399D01*
X6617766Y3227476D01*
X6609842Y3233826D01*
X6606133Y3236315D01*
X6598564Y3240786D01*
X6598158Y3240786D01*
X6589166Y3245256D01*
X6583934Y3247288D01*
X6579260Y3248812D01*
X6571894Y3250844D01*
X6560058Y3253232D01*
X6548120Y3254298D01*
X6538976Y3253994D01*
X6538468Y3254502D01*
X6539890Y3256940D01*
X6543954Y3265576D01*
X6546342Y3271926D01*
X6549644Y3284169D01*
X6550152Y3287877D01*
X6550609Y3289096D01*
X6550964Y3293465D01*
X6551625Y3298088D01*
X6551625Y3310077D01*
X6550964Y3314496D01*
X6550659Y3318408D01*
X6548628Y3328415D01*
X6546697Y3335020D01*
X6543548Y3343503D01*
X6541820Y3347262D01*
X6538112Y3354273D01*
X6532168Y3363315D01*
X6526834Y3369970D01*
X6522161Y3375101D01*
X6517030Y3379774D01*
X6509816Y3385413D01*
X6505549Y3388461D01*
X6505194Y3388461D01*
X6502654Y3390239D01*
X6493510Y3395065D01*
X6484264Y3398723D01*
X6477457Y3400856D01*
X6471208Y3402279D01*
X6463995Y3403295D01*
X6463842Y3403854D01*
G37*
G36*
X6413347Y6650786D02*
G01*
X6412534Y6650736D01*
X6408978Y6649161D01*
X6407302Y6647738D01*
X6404965Y6644386D01*
X6393586Y6614871D01*
X6381750Y6587185D01*
X6377533Y6578244D01*
X6377533Y6577838D01*
X6375603Y6574180D01*
X6375603Y6573723D01*
X6374282Y6571437D01*
X6374079Y6570725D01*
X6361582Y6546138D01*
X6350711Y6526377D01*
X6335369Y6500876D01*
X6321907Y6480200D01*
X6313424Y6468059D01*
X6297726Y6447180D01*
X6282131Y6428130D01*
X6270244Y6414566D01*
X6265214Y6408420D01*
X6263487Y6403644D01*
X6263487Y6398056D01*
X6264706Y6394399D01*
X6266637Y6391198D01*
X6276848Y6379819D01*
X6295491Y6357416D01*
X6308445Y6340449D01*
X6321907Y6321450D01*
X6334404Y6302451D01*
X6339789Y6293815D01*
X6357620Y6263132D01*
X6368237Y6242659D01*
X6376466Y6225997D01*
X6384239Y6208928D01*
X6391503Y6192062D01*
X6396939Y6178550D01*
X6405372Y6156299D01*
X6408166Y6152743D01*
X6411061Y6150813D01*
X6415887Y6150813D01*
X6418783Y6152743D01*
X6421628Y6156350D01*
X6430010Y6178550D01*
X6434378Y6189522D01*
X6448094Y6220815D01*
X6457696Y6240678D01*
X6466890Y6258458D01*
X6473494Y6270498D01*
X6480810Y6283198D01*
X6489954Y6298387D01*
X6502349Y6317386D01*
X6512864Y6332626D01*
X6521043Y6343802D01*
X6534454Y6361074D01*
X6542989Y6371386D01*
X6557060Y6387490D01*
X6562039Y6393789D01*
X6563461Y6398056D01*
X6563512Y6403644D01*
X6561785Y6408521D01*
X6558076Y6413093D01*
X6539687Y6434226D01*
X6528714Y6447891D01*
X6514693Y6466636D01*
X6503365Y6482740D01*
X6492189Y6499961D01*
X6482943Y6515100D01*
X6471970Y6533997D01*
X6462115Y6552387D01*
X6452362Y6571894D01*
X6447536Y6582054D01*
X6447180Y6583172D01*
X6440525Y6597853D01*
X6436156Y6608114D01*
X6421983Y6644386D01*
X6419646Y6647688D01*
X6418021Y6649212D01*
X6414211Y6650786D01*
G37*
G36*
X1521917Y9348419D02*
G01*
X1515211Y9348368D01*
X1508099Y9345269D01*
X1502410Y9336836D01*
X1506524Y9331045D01*
X1510690Y9327286D01*
X1523593Y9322511D01*
X1523593Y9320428D01*
X1517446Y9319107D01*
X1505102Y9315704D01*
X1501749Y9312910D01*
X1493875Y9309963D01*
X1472590Y9298686D01*
X1460296Y9290862D01*
X1444752Y9278366D01*
X1423263Y9256928D01*
X1413002Y9244736D01*
X1405077Y9231122D01*
X1398016Y9221368D01*
X1394764Y9211106D01*
X1385468Y9187586D01*
X1382268Y9177477D01*
X1379829Y9149435D01*
X1381150Y9110218D01*
X1384554Y9089694D01*
X1386789Y9083852D01*
X1394104Y9079382D01*
X1406448Y9079433D01*
X1421892Y9082684D01*
X1426616Y9085732D01*
X1436725Y9088221D01*
X1448968Y9090914D01*
X1458010Y9094876D01*
X1475943Y9098534D01*
X1480413Y9101480D01*
X1492758Y9104274D01*
X1506220Y9108643D01*
X1528622Y9114282D01*
X1537614Y9118447D01*
X1552143Y9121038D01*
X1564538Y9126220D01*
X1581912Y9129776D01*
X1588770Y9133332D01*
X1609039Y9137751D01*
X1615592Y9141155D01*
X1635607Y9145422D01*
X1642567Y9149029D01*
X1663192Y9153499D01*
X1667814Y9156496D01*
X1689862Y9161221D01*
X1694738Y9164370D01*
X1716989Y9169196D01*
X1722018Y9172498D01*
X1742744Y9176766D01*
X1753158Y9181388D01*
X1770532Y9184690D01*
X1775358Y9187840D01*
X1797710Y9192920D01*
X1803298Y9195917D01*
X1815439Y9199321D01*
X1820773Y9202826D01*
X1819300Y9211106D01*
X1811883Y9218930D01*
X1806651Y9227972D01*
X1794357Y9243618D01*
X1759559Y9277807D01*
X1757883Y9277807D01*
X1749501Y9285274D01*
X1724812Y9301073D01*
X1707997Y9309963D01*
X1700174Y9312910D01*
X1696821Y9315704D01*
X1680006Y9320784D01*
X1675231Y9323832D01*
X1650847Y9328454D01*
X1638503Y9332518D01*
X1602181Y9335262D01*
X1564538Y9332468D01*
X1553311Y9329267D01*
X1544574Y9327032D01*
X1532991Y9326727D01*
X1530197Y9328454D01*
X1533398Y9332163D01*
X1534922Y9337090D01*
X1530350Y9346082D01*
G37*
G36*
X1841957Y9190380D02*
G01*
X1826869Y9190278D01*
X1820875Y9187027D01*
X1801469Y9182506D01*
X1795475Y9179458D01*
X1774647Y9174683D01*
X1768144Y9171330D01*
X1746148Y9166606D01*
X1740865Y9163253D01*
X1719783Y9159036D01*
X1714601Y9155633D01*
X1692300Y9151010D01*
X1687779Y9148013D01*
X1671015Y9144254D01*
X1657350Y9138970D01*
X1643024Y9136380D01*
X1630680Y9131198D01*
X1613255Y9127642D01*
X1606397Y9124086D01*
X1586077Y9119666D01*
X1576832Y9115501D01*
X1559458Y9111945D01*
X1552651Y9108440D01*
X1532178Y9104020D01*
X1527352Y9100870D01*
X1505458Y9096146D01*
X1498803Y9092692D01*
X1478483Y9088272D01*
X1471879Y9084868D01*
X1452321Y9080601D01*
X1442313Y9076232D01*
X1423263Y9072473D01*
X1418285Y9069273D01*
X1399336Y9064853D01*
X1383487Y9056674D01*
X1379118Y9049664D01*
X1369822Y9040723D01*
X1363065Y9031020D01*
X1353007Y9021775D01*
X1349552Y9015069D01*
X1338732Y9004554D01*
X1334719Y8997899D01*
X1320698Y8984945D01*
X1320698Y8981744D01*
X1324102Y8975140D01*
X1332433Y8975140D01*
X1343660Y8978188D01*
X1351534Y8981897D01*
X1357122Y8985148D01*
X1378407Y8995054D01*
X1384046Y8996680D01*
X1387398Y8999524D01*
X1401978Y9004706D01*
X1408684Y9008567D01*
X1418793Y9011158D01*
X1427734Y9016339D01*
X1438960Y9019743D01*
X1450187Y9025331D01*
X1459636Y9026855D01*
X1464970Y9031071D01*
X1480667Y9035389D01*
X1487830Y9039148D01*
X1504950Y9043517D01*
X1509928Y9046768D01*
X1526692Y9051188D01*
X1535379Y9055506D01*
X1550822Y9059316D01*
X1557121Y9062567D01*
X1574596Y9066834D01*
X1584960Y9071508D01*
X1601012Y9074861D01*
X1607769Y9078366D01*
X1628139Y9082735D01*
X1635150Y9086240D01*
X1656334Y9090609D01*
X1661160Y9093809D01*
X1684477Y9098280D01*
X1694586Y9102750D01*
X1712518Y9105341D01*
X1722577Y9109811D01*
X1748231Y9114180D01*
X1754987Y9117533D01*
X1780590Y9122054D01*
X1788668Y9125407D01*
X1815693Y9129826D01*
X1827987Y9134094D01*
X1851863Y9137650D01*
X1861972Y9141053D01*
X1891538Y9145574D01*
X1899361Y9148876D01*
X1935124Y9153448D01*
X1947011Y9157868D01*
X1952396Y9163659D01*
X1947316Y9167774D01*
X1934464Y9170365D01*
X1920443Y9174784D01*
X1891893Y9179153D01*
X1881784Y9182506D01*
X1850389Y9187078D01*
G37*
G36*
X2012950Y9145371D02*
G01*
X2000859Y9143492D01*
X1992782Y9139986D01*
X1972564Y9136380D01*
X1965858Y9132316D01*
X1956866Y9129572D01*
X1946808Y9123730D01*
X1936699Y9118498D01*
X1923948Y9111284D01*
X1911045Y9100108D01*
X1905304Y9094368D01*
X1893976Y9082176D01*
X1886559Y9068714D01*
X1879295Y9058656D01*
X1876856Y9050782D01*
X1874164Y9030614D01*
X1873097Y9008211D01*
X1875351Y8994749D01*
X1896364Y8994749D01*
X1896364Y9037421D01*
X1899920Y9042958D01*
X1904085Y9054134D01*
X1908962Y9060891D01*
X1912823Y9071305D01*
X1924862Y9084411D01*
X1934464Y9094114D01*
X1940560Y9097314D01*
X1942896Y9101683D01*
X1952396Y9106001D01*
X1957781Y9110776D01*
X1966975Y9113164D01*
X1972665Y9117228D01*
X1990547Y9122918D01*
X2000300Y9126524D01*
X2019655Y9128404D01*
X2049932Y9128709D01*
X2074164Y9126423D01*
X2083562Y9122918D01*
X2102612Y9117330D01*
X2106015Y9114434D01*
X2119426Y9109506D01*
X2123948Y9105442D01*
X2131771Y9101480D01*
X2147468Y9087307D01*
X2151532Y9083294D01*
X2166010Y9065056D01*
X2170328Y9053017D01*
X2175865Y9039606D01*
X2179421Y9022283D01*
X2179421Y9008872D01*
X2175205Y8991244D01*
X2170633Y8982252D01*
X2165908Y8968282D01*
X2152345Y8951010D01*
X2135479Y8934754D01*
X2125370Y8927947D01*
X2114550Y8922461D01*
X2113229Y8920378D01*
X2101494Y8916568D01*
X2092553Y8911437D01*
X2073097Y8907830D01*
X2065629Y8904681D01*
X2039467Y8901988D01*
X2008733Y8904579D01*
X2002840Y8907627D01*
X1982673Y8911336D01*
X1972005Y8916873D01*
X1961388Y8920429D01*
X1956866Y8924442D01*
X1948383Y8927947D01*
X1932025Y8941206D01*
X1927199Y8943797D01*
X1927199Y8946845D01*
X1914042Y8960459D01*
X1896364Y8994749D01*
X1875351Y8994749D01*
X1876856Y8985758D01*
X1878888Y8975293D01*
X1892452Y8954719D01*
X1892503Y8952128D01*
X1909825Y8933738D01*
X1934718Y8915146D01*
X1942338Y8910929D01*
X1961388Y8901023D01*
X1971446Y8898585D01*
X1982673Y8893454D01*
X2008479Y8889847D01*
X2023465Y8886545D01*
X2051050Y8886596D01*
X2064562Y8889746D01*
X2091232Y8893251D01*
X2100376Y8897620D01*
X2113838Y8901430D01*
X2123033Y8906764D01*
X2134006Y8910015D01*
X2142490Y8908084D01*
X2167077Y8888526D01*
X2167077Y8875217D01*
X2167478Y8873642D01*
X2191766Y8873642D01*
X2191766Y8882380D01*
X2196439Y8889949D01*
X2202383Y8893200D01*
X2219248Y8893251D01*
X2228748Y8888882D01*
X2228748Y8886799D01*
X2236622Y8883091D01*
X2240026Y8877858D01*
X2252573Y8869527D01*
X2261819Y8861094D01*
X2267407Y8858148D01*
X2270201Y8854236D01*
X2281986Y8845804D01*
X2293569Y8833916D01*
X2296109Y8826195D01*
X2292858Y8818321D01*
X2286508Y8814409D01*
X2281834Y8810294D01*
X2270760Y8810040D01*
X2257348Y8818829D01*
X2246680Y8826449D01*
X2246680Y8828074D01*
X2238400Y8833205D01*
X2227681Y8842756D01*
X2215032Y8852357D01*
X2209139Y8856218D01*
X2191766Y8873642D01*
X2167478Y8873642D01*
X2169617Y8865209D01*
X2189530Y8847328D01*
X2198471Y8841689D01*
X2198471Y8839860D01*
X2206904Y8835034D01*
X2212492Y8828989D01*
X2235504Y8811615D01*
X2243226Y8804859D01*
X2252878Y8799220D01*
X2274062Y8793175D01*
X2294178Y8796985D01*
X2302662Y8799931D01*
X2317242Y8811768D01*
X2319985Y8819845D01*
X2319985Y8835542D01*
X2316378Y8842248D01*
X2286508Y8867800D01*
X2277973Y8873185D01*
X2276805Y8876182D01*
X2266289Y8882024D01*
X2257348Y8891219D01*
X2249474Y8895892D01*
X2243886Y8900922D01*
X2232660Y8906662D01*
X2225598Y8910015D01*
X2203450Y8912098D01*
X2191207Y8919311D01*
X2182774Y8926931D01*
X2180183Y8926931D01*
X2170734Y8936431D01*
X2176272Y8947404D01*
X2186127Y8957919D01*
X2194153Y8975699D01*
X2199538Y8983573D01*
X2202942Y9001455D01*
X2202942Y9029954D01*
X2200452Y9046921D01*
X2192629Y9059773D01*
X2189734Y9067749D01*
X2183892Y9079280D01*
X2179370Y9081719D01*
X2174087Y9090050D01*
X2166721Y9096756D01*
X2158034Y9105341D01*
X2133600Y9121394D01*
X2121103Y9128556D01*
X2109368Y9132417D01*
X2104491Y9135567D01*
X2079091Y9140850D01*
X2068982Y9144762D01*
G37*
G36*
X2015185Y9115094D02*
G01*
X1999894Y9113012D01*
X1988261Y9107576D01*
X1980438Y9106103D01*
X1972564Y9101886D01*
X1963470Y9097365D01*
X1958035Y9093149D01*
X1950161Y9089136D01*
X1941728Y9081617D01*
X1939798Y9081617D01*
X1930146Y9068714D01*
X1925218Y9064244D01*
X1919427Y9053626D01*
X1910080Y9029496D01*
X1909259Y9011361D01*
X1933600Y9011361D01*
X1934921Y9029903D01*
X1939493Y9040012D01*
X1939493Y9042298D01*
X1943150Y9053017D01*
X1956663Y9068714D01*
X1961642Y9073235D01*
X1968093Y9078163D01*
X1979828Y9086088D01*
X1993900Y9091472D01*
X2000605Y9094927D01*
X2030882Y9099245D01*
X2040636Y9099550D01*
X2075738Y9094927D01*
X2081326Y9091828D01*
X2095906Y9084919D01*
X2106625Y9078620D01*
X2123592Y9063126D01*
X2128875Y9052814D01*
X2134311Y9046311D01*
X2138984Y9031224D01*
X2139543Y9001455D01*
X2133295Y8985199D01*
X2131263Y8983980D01*
X2121865Y8967825D01*
X2117191Y8964574D01*
X2103729Y8951722D01*
X2092553Y8946946D01*
X2088794Y8943543D01*
X2071268Y8939072D01*
X2066289Y8935872D01*
X2051050Y8933688D01*
X2022348Y8933637D01*
X2006346Y8936126D01*
X2001723Y8939123D01*
X1988870Y8942476D01*
X1970887Y8951823D01*
X1970887Y8953601D01*
X1958593Y8961780D01*
X1958593Y8963355D01*
X1943049Y8980576D01*
X1939340Y8994749D01*
X1936496Y8999220D01*
X1933600Y9011361D01*
X1909259Y9011361D01*
X1909064Y9007043D01*
X1914601Y8990228D01*
X1923542Y8970975D01*
X1931263Y8962237D01*
X1934464Y8957513D01*
X1953514Y8941104D01*
X1962759Y8937040D01*
X1965502Y8933738D01*
X1975967Y8929878D01*
X1985213Y8924594D01*
X2002840Y8921242D01*
X2012950Y8917381D01*
X2062327Y8917381D01*
X2071268Y8921140D01*
X2089048Y8924899D01*
X2101799Y8931402D01*
X2104440Y8931402D01*
X2119426Y8940241D01*
X2128062Y8946540D01*
X2144572Y8961932D01*
X2147976Y8969197D01*
X2151430Y8972042D01*
X2159101Y8984691D01*
X2162606Y9006484D01*
X2162606Y9028734D01*
X2158339Y9050020D01*
X2144115Y9071305D01*
X2126183Y9088475D01*
X2117191Y9093098D01*
X2112670Y9097264D01*
X2102764Y9100718D01*
X2099208Y9103969D01*
X2079091Y9110878D01*
X2067864Y9114383D01*
G37*
G36*
X1785366Y9112961D02*
G01*
X1777542Y9110573D01*
X1775256Y9108846D01*
X1769008Y9107322D01*
X1749856Y9104020D01*
X1743557Y9100769D01*
X1718716Y9096248D01*
X1711604Y9092590D01*
X1688439Y9088424D01*
X1681530Y9084868D01*
X1658924Y9080550D01*
X1653895Y9077248D01*
X1631188Y9072676D01*
X1624330Y9069171D01*
X1603908Y9064701D01*
X1598168Y9061500D01*
X1580591Y9057132D01*
X1572006Y9051188D01*
X1569720Y9045194D01*
X1568348Y9028379D01*
X1567027Y9017558D01*
X1561744Y9014155D01*
X1551838Y9018930D01*
X1531569Y9021419D01*
X1517446Y9019032D01*
X1511808Y9016542D01*
X1501749Y9010396D01*
X1494332Y8995867D01*
X1495399Y8982710D01*
X1497838Y8980271D01*
X1497838Y8976156D01*
X1502054Y8967825D01*
X1515211Y8955328D01*
X1524711Y8949029D01*
X1537614Y8945981D01*
X1549958Y8945930D01*
X1554988Y8944610D01*
X1557528Y8935974D01*
X1554835Y8898331D01*
X1551889Y8881516D01*
X1555546Y8877300D01*
X1564589Y8871051D01*
X1574596Y8868511D01*
X1581353Y8866022D01*
X1584706Y8863228D01*
X1601520Y8858300D01*
X1605229Y8854998D01*
X1618335Y8851646D01*
X1627276Y8846566D01*
X1638503Y8843619D01*
X1647494Y8838539D01*
X1657553Y8835948D01*
X1665376Y8831376D01*
X1679803Y8826906D01*
X1686001Y8822334D01*
X1702409Y8821318D01*
X1708759Y8826347D01*
X1707235Y8843873D01*
X1713179Y8845346D01*
X1721154Y8844026D01*
X1731568Y8838641D01*
X1743913Y8835796D01*
X1755089Y8831173D01*
X1782013Y8831072D01*
X1798370Y8839809D01*
X1804974Y8849410D01*
X1804974Y8960459D01*
X1812289Y8961577D01*
X1842566Y8962390D01*
X1852015Y8967317D01*
X1856333Y8975699D01*
X1849882Y9001455D01*
X1839925Y9021622D01*
X1835099Y9036659D01*
X1825955Y9050782D01*
X1822094Y9062110D01*
X1817014Y9072067D01*
X1810461Y9081668D01*
X1806092Y9094317D01*
X1806092Y9099702D01*
X1803654Y9109354D01*
X1797710Y9112148D01*
G37*
G36*
X1975967Y9065920D02*
G01*
X1969211Y9062415D01*
X1965045Y9058656D01*
X1961692Y9052102D01*
X1950415Y9037726D01*
X1948586Y9028379D01*
X1948484Y9007043D01*
X1950770Y8998915D01*
X1958898Y8995054D01*
X1969109Y8996172D01*
X1973173Y9001150D01*
X1973173Y9007297D01*
X1970582Y9014612D01*
X1973275Y9029700D01*
X1977948Y9037320D01*
X1989582Y9053017D01*
X1994306Y9062364D01*
X1985416Y9065920D01*
G37*
G36*
X1544320Y9044533D02*
G01*
X1531975Y9040571D01*
X1527860Y9038234D01*
X1536496Y9034068D01*
X1552397Y9034018D01*
X1558340Y9037929D01*
X1558340Y9040114D01*
X1553311Y9043263D01*
G37*
G36*
X1491742Y9023299D02*
G01*
X1486052Y9023146D01*
X1466342Y9019032D01*
X1456893Y9013494D01*
X1441196Y9008516D01*
X1425498Y9000337D01*
X1424838Y8989822D01*
X1429308Y8981033D01*
X1434592Y8974582D01*
X1440789Y8960002D01*
X1453540Y8942476D01*
X1470558Y8923680D01*
X1489405Y8908846D01*
X1497228Y8903462D01*
X1507388Y8898229D01*
X1514348Y8893048D01*
X1529689Y8888780D01*
X1537208Y8888780D01*
X1541475Y8891066D01*
X1544066Y8895943D01*
X1543659Y8913114D01*
X1546352Y8919057D01*
X1543354Y8928201D01*
X1538173Y8932265D01*
X1522476Y8936126D01*
X1521206Y8938158D01*
X1508252Y8944711D01*
X1498396Y8954363D01*
X1487932Y8966708D01*
X1485036Y8976817D01*
X1484934Y9005925D01*
X1490776Y9014968D01*
G37*
G36*
X1463598Y8896299D02*
G01*
X1457401Y8895384D01*
X1453794Y8889847D01*
X1457706Y8860231D01*
X1462582Y8826449D01*
X1455216Y8816492D01*
X1451356Y8810904D01*
X1440891Y8798560D01*
X1435862Y8788450D01*
X1429054Y8780678D01*
X1419809Y8761577D01*
X1412697Y8750554D01*
X1405737Y8732418D01*
X1399082Y8722004D01*
X1393494Y8704834D01*
X1382420Y8679434D01*
X1380032Y8668512D01*
X1367942Y8637016D01*
X1363472Y8614765D01*
X1364538Y8612987D01*
X1371295Y8609533D01*
X1752092Y8609380D01*
X1760728Y8613597D01*
X1761388Y8625230D01*
X1755800Y8639352D01*
X1746504Y8667394D01*
X1740204Y8677452D01*
X1728368Y8700770D01*
X1732686Y8703818D01*
X1741627Y8710625D01*
X1761845Y8723833D01*
X1788515Y8745880D01*
X1799488Y8755938D01*
X1801418Y8764574D01*
X1788718Y8770112D01*
X1774901Y8776665D01*
X1771904Y8776716D01*
X1759559Y8782507D01*
X1745030Y8786977D01*
X1741627Y8789822D01*
X1725930Y8794800D01*
X1721307Y8797798D01*
X1706372Y8802370D01*
X1701292Y8805570D01*
X1686712Y8810345D01*
X1675688Y8815933D01*
X1670812Y8815933D01*
X1659788Y8821775D01*
X1648612Y8825077D01*
X1641398Y8829243D01*
X1626158Y8833815D01*
X1615135Y8839454D01*
X1611579Y8839454D01*
X1596034Y8847328D01*
X1591208Y8847328D01*
X1581353Y8852560D01*
X1565656Y8857691D01*
X1562252Y8860536D01*
X1545945Y8865362D01*
X1538732Y8869527D01*
X1527505Y8872829D01*
X1519682Y8877350D01*
X1511808Y8878925D01*
X1500632Y8884513D01*
X1487170Y8889085D01*
X1483817Y8891981D01*
X1471472Y8895334D01*
G37*
G36*
X5388813Y7220610D02*
G01*
X5388813Y7034784D01*
X5443778Y7034784D01*
X5443982Y7162038D01*
X5445404Y7166254D01*
X5448350Y7167829D01*
X5490819Y7167575D01*
X5496153Y7166559D01*
X5498084Y7165898D01*
X5500166Y7164374D01*
X5510530Y7160209D01*
X5513171Y7157262D01*
X5517540Y7154367D01*
X5519724Y7150049D01*
X5523280Y7144512D01*
X5524703Y7141311D01*
X5525973Y7134656D01*
X5525973Y7121398D01*
X5525058Y7116114D01*
X5523128Y7110679D01*
X5520283Y7107326D01*
X5518251Y7102906D01*
X5513679Y7099503D01*
X5509412Y7093610D01*
X5508193Y7091273D01*
X5509158Y7088581D01*
X5511292Y7084212D01*
X5514187Y7074509D01*
X5516067Y7070801D01*
X5517184Y7069226D01*
X5521350Y7056729D01*
X5523433Y7053275D01*
X5527649Y7040575D01*
X5529580Y7037628D01*
X5530799Y7034987D01*
X5545531Y7034885D01*
X5547868Y7041591D01*
X5549950Y7044232D01*
X5551220Y7046722D01*
X5554218Y7054189D01*
X5556554Y7057186D01*
X5559653Y7065162D01*
X5560060Y7066788D01*
X5562295Y7070090D01*
X5564174Y7074204D01*
X5566562Y7080300D01*
X5568391Y7082637D01*
X5570321Y7086498D01*
X5572607Y7093102D01*
X5575300Y7097268D01*
X5576316Y7103719D01*
X5575096Y7106920D01*
X5572963Y7109510D01*
X5569966Y7118299D01*
X5569153Y7119924D01*
X5566867Y7122922D01*
X5564174Y7129525D01*
X5563463Y7131761D01*
X5560314Y7137298D01*
X5557164Y7145375D01*
X5554370Y7149541D01*
X5553252Y7151725D01*
X5550966Y7157516D01*
X5549341Y7160107D01*
X5547766Y7166254D01*
X5548223Y7166711D01*
X5553354Y7167778D01*
X5573471Y7167829D01*
X5576773Y7166508D01*
X5579465Y7163917D01*
X5581396Y7160158D01*
X5582564Y7155840D01*
X5584698Y7151217D01*
X5585968Y7149642D01*
X5588558Y7141413D01*
X5589727Y7139076D01*
X5591657Y7136892D01*
X5592318Y7136892D01*
X5598109Y7139584D01*
X5600598Y7142988D01*
X5601258Y7144207D01*
X5604154Y7153909D01*
X5605983Y7156653D01*
X5606999Y7159548D01*
X5609793Y7166102D01*
X5610555Y7166914D01*
X5616448Y7167778D01*
X5636006Y7167829D01*
X5639206Y7166457D01*
X5638393Y7160158D01*
X5636006Y7155383D01*
X5633567Y7151878D01*
X5629656Y7141108D01*
X5627573Y7138670D01*
X5623814Y7129678D01*
X5623814Y7129119D01*
X5621172Y7125868D01*
X5616905Y7115454D01*
X5615127Y7113574D01*
X5613755Y7110882D01*
X5611926Y7103821D01*
X5612587Y7096810D01*
X5613857Y7093051D01*
X5615635Y7089444D01*
X5617159Y7087666D01*
X5617870Y7086295D01*
X5619496Y7081723D01*
X5621883Y7076948D01*
X5623560Y7074966D01*
X5625998Y7068769D01*
X5628436Y7063892D01*
X5629706Y7062774D01*
X5633872Y7052005D01*
X5635599Y7049820D01*
X5636615Y7047788D01*
X5638546Y7042353D01*
X5640324Y7038898D01*
X5642305Y7036714D01*
X5643219Y7034936D01*
X5641949Y7033615D01*
X5635853Y7032548D01*
X5616956Y7032498D01*
X5611164Y7034428D01*
X5610453Y7034987D01*
X5606288Y7046772D01*
X5604205Y7049820D01*
X5602579Y7053884D01*
X5601563Y7057847D01*
X5600039Y7061352D01*
X5598464Y7063435D01*
X5591911Y7066330D01*
X5589981Y7064552D01*
X5588863Y7062673D01*
X5585866Y7054545D01*
X5583580Y7051090D01*
X5579770Y7040575D01*
X5577636Y7037324D01*
X5576824Y7035139D01*
X5576163Y7034326D01*
X5573014Y7032498D01*
X5554878Y7032498D01*
X5547868Y7032904D01*
X5545531Y7034885D01*
X5530697Y7034885D01*
X5529580Y7033717D01*
X5525211Y7032701D01*
X5504586Y7032447D01*
X5499912Y7034834D01*
X5497880Y7038390D01*
X5496255Y7044232D01*
X5494121Y7050735D01*
X5491683Y7054850D01*
X5489346Y7062673D01*
X5487517Y7067346D01*
X5485333Y7071309D01*
X5482183Y7080148D01*
X5480913Y7082637D01*
X5479440Y7084669D01*
X5477560Y7083856D01*
X5474766Y7081926D01*
X5472785Y7079234D01*
X5473344Y7064552D01*
X5473344Y7034530D01*
X5468010Y7032650D01*
X5448147Y7032447D01*
X5443778Y7034784D01*
X5388813Y7034784D01*
X5388813Y6993128D01*
X5888786Y6993128D01*
X5888786Y7220610D01*
G37*
G36*
X5479237Y7145629D02*
G01*
X5475325Y7143699D01*
X5473852Y7141413D01*
X5473496Y7139228D01*
X5473242Y7115759D01*
X5474462Y7111796D01*
X5477052Y7109002D01*
X5479491Y7107732D01*
X5483352Y7109155D01*
X5489143Y7111898D01*
X5494020Y7116572D01*
X5495899Y7120128D01*
X5496712Y7123125D01*
X5496356Y7130796D01*
X5495137Y7135266D01*
X5493969Y7137146D01*
X5487314Y7143394D01*
X5485536Y7144308D01*
G37*
G36*
X5388813Y6964375D02*
G01*
X5388813Y6916369D01*
X5444693Y6916369D01*
X5445099Y6917334D01*
X5445353Y6931101D01*
X5445709Y6935216D01*
X5447995Y6937044D01*
X5452719Y6937400D01*
X5511139Y6937502D01*
X5516727Y6936486D01*
X5518099Y6935012D01*
X5518556Y6925157D01*
X5518200Y6923582D01*
X5518658Y6916420D01*
X5517235Y6913473D01*
X5516524Y6913016D01*
X5510530Y6911898D01*
X5504281Y6911898D01*
X5501792Y6910222D01*
X5499404Y6907987D01*
X5497118Y6903923D01*
X5497220Y6809231D01*
X5496153Y6803644D01*
X5533491Y6803542D01*
X5534761Y6810400D01*
X5535472Y6811721D01*
X5536946Y6813550D01*
X5539486Y6818528D01*
X5541619Y6824116D01*
X5543753Y6826707D01*
X5545429Y6830466D01*
X5547918Y6837578D01*
X5549646Y6840169D01*
X5551678Y6844131D01*
X5553811Y6849821D01*
X5556199Y6853275D01*
X5557570Y6855968D01*
X5559501Y6861403D01*
X5562498Y6867042D01*
X5563616Y6872478D01*
X5562549Y6876592D01*
X5558891Y6883958D01*
X5557774Y6887362D01*
X5555945Y6891020D01*
X5553862Y6894017D01*
X5550966Y6901535D01*
X5547918Y6906564D01*
X5545277Y6913880D01*
X5541365Y6920331D01*
X5539384Y6925462D01*
X5537250Y6929577D01*
X5537250Y6929983D01*
X5534964Y6934708D01*
X5535320Y6935622D01*
X5541467Y6937451D01*
X5560669Y6937502D01*
X5565140Y6935927D01*
X5567019Y6934860D01*
X5570575Y6924548D01*
X5573522Y6919163D01*
X5575655Y6912457D01*
X5577890Y6908190D01*
X5579414Y6906768D01*
X5582412Y6907479D01*
X5585866Y6908749D01*
X5588101Y6912660D01*
X5591302Y6922160D01*
X5591302Y6922871D01*
X5595874Y6932980D01*
X5596788Y6935419D01*
X5598312Y6936536D01*
X5604256Y6937502D01*
X5623509Y6937502D01*
X5625846Y6936282D01*
X5627319Y6935063D01*
X5624677Y6927392D01*
X5623407Y6924852D01*
X5620664Y6920788D01*
X5617159Y6911086D01*
X5614822Y6907987D01*
X5613552Y6905447D01*
X5613095Y6903923D01*
X5610860Y6898589D01*
X5608878Y6896100D01*
X5607659Y6893610D01*
X5606846Y6891070D01*
X5604510Y6886092D01*
X5601716Y6881977D01*
X5599785Y6875932D01*
X5598972Y6872173D01*
X5600649Y6864603D01*
X5602681Y6860184D01*
X5604611Y6857644D01*
X5608218Y6848906D01*
X5610656Y6845452D01*
X5612282Y6842048D01*
X5613400Y6838899D01*
X5615127Y6835444D01*
X5617159Y6832549D01*
X5619038Y6828281D01*
X5619496Y6826707D01*
X5621020Y6823049D01*
X5623407Y6819087D01*
X5625388Y6813905D01*
X5630062Y6804202D01*
X5630062Y6803440D01*
X5628640Y6802881D01*
X5623966Y6802170D01*
X5603798Y6802221D01*
X5599582Y6803491D01*
X5598414Y6804507D01*
X5596686Y6808266D01*
X5594705Y6814210D01*
X5591606Y6819696D01*
X5587644Y6831431D01*
X5585968Y6834073D01*
X5583021Y6835343D01*
X5579364Y6836359D01*
X5577281Y6833920D01*
X5575655Y6831025D01*
X5573420Y6824827D01*
X5570423Y6819544D01*
X5567121Y6809841D01*
X5564378Y6806844D01*
X5562854Y6803491D01*
X5560618Y6802170D01*
X5535930Y6802170D01*
X5533491Y6803542D01*
X5495906Y6803542D01*
X5492699Y6802221D01*
X5472633Y6802170D01*
X5468975Y6803440D01*
X5468518Y6803898D01*
X5467502Y6808571D01*
X5467553Y6903720D01*
X5465368Y6908393D01*
X5462371Y6910831D01*
X5460847Y6911797D01*
X5448452Y6912203D01*
X5447538Y6912559D01*
X5444693Y6916369D01*
X5388813Y6916369D01*
X5388813Y6749389D01*
X5888786Y6749389D01*
X5888786Y6964375D01*
G37*
G36*
X6438900Y11818162D02*
G01*
X6438900Y11624106D01*
X6513525Y11624106D01*
X6514134Y11635384D01*
X6516116Y11642496D01*
X6517436Y11651538D01*
X6523075Y11663832D01*
X6527800Y11670995D01*
X6537807Y11681714D01*
X6547459Y11688876D01*
X6553911Y11691213D01*
X6558076Y11693550D01*
X6566052Y11695125D01*
X6592366Y11695226D01*
X6599936Y11694058D01*
X6610756Y11689029D01*
X6614109Y11681968D01*
X6614159Y11675110D01*
X6612229Y11671198D01*
X6608470Y11669522D01*
X6599123Y11674652D01*
X6597751Y11675872D01*
X6583222Y11679224D01*
X6575145Y11679834D01*
X6559905Y11676278D01*
X6550761Y11670842D01*
X6544614Y11665204D01*
X6539230Y11657482D01*
X6535928Y11649608D01*
X6533591Y11642496D01*
X6533591Y11615978D01*
X6535318Y11608866D01*
X6538772Y11600688D01*
X6544259Y11593322D01*
X6551320Y11587022D01*
X6559296Y11583162D01*
X6567881Y11580672D01*
X6579616Y11579910D01*
X6592773Y11582755D01*
X6597294Y11585448D01*
X6599428Y11587378D01*
X6599428Y11613794D01*
X6598158Y11616385D01*
X6594856Y11617706D01*
X6579362Y11617553D01*
X6574281Y11619687D01*
X6571843Y11622938D01*
X6571843Y11629288D01*
X6574790Y11632387D01*
X6578904Y11633200D01*
X6613652Y11632793D01*
X6616598Y11629186D01*
X6616598Y11579402D01*
X6614922Y11575135D01*
X6609346Y11571630D01*
X6639864Y11571630D01*
X6640169Y11691162D01*
X6642049Y11693499D01*
X6645706Y11695176D01*
X6657949Y11695226D01*
X6662623Y11693855D01*
X6668617Y11684558D01*
X6671259Y11679377D01*
X6673392Y11676786D01*
X6676339Y11670995D01*
X6679692Y11666728D01*
X6679692Y11665305D01*
X6683857Y11659311D01*
X6686296Y11654129D01*
X6688886Y11651691D01*
X6688886Y11650472D01*
X6694373Y11641734D01*
X6695186Y11639296D01*
X6697929Y11636044D01*
X6700824Y11630202D01*
X6702856Y11627612D01*
X6710781Y11614099D01*
X6712153Y11612118D01*
X6715353Y11605818D01*
X6718858Y11600688D01*
X6720230Y11596268D01*
X6722059Y11596268D01*
X6724497Y11597589D01*
X6724345Y11690604D01*
X6725920Y11693245D01*
X6729730Y11695379D01*
X6738518Y11694871D01*
X6741922Y11692178D01*
X6742734Y11686489D01*
X6742836Y11572341D01*
X6742308Y11570970D01*
X6771640Y11570970D01*
X6771640Y11691061D01*
X6773570Y11694058D01*
X6776212Y11695176D01*
X6822795Y11695226D01*
X6831075Y11693956D01*
X6845452Y11688013D01*
X6847890Y11685676D01*
X6850786Y11684762D01*
X6859879Y11675618D01*
X6865366Y11666931D01*
X6869175Y11657380D01*
X6871004Y11649608D01*
X6871106Y11615318D01*
X6869633Y11609120D01*
X6865213Y11597335D01*
X6859066Y11587632D01*
X6851954Y11580114D01*
X6847281Y11576862D01*
X6844233Y11574424D01*
X6836867Y11569852D01*
X6829501Y11567668D01*
X6822186Y11564924D01*
X6775500Y11564874D01*
X6773265Y11566804D01*
X6771640Y11570970D01*
X6742308Y11570970D01*
X6740804Y11567058D01*
X6736130Y11564569D01*
X6725208Y11564569D01*
X6719265Y11568836D01*
X6715252Y11574576D01*
X6711645Y11581028D01*
X6704888Y11591391D01*
X6700520Y11599367D01*
X6698691Y11600942D01*
X6698691Y11602618D01*
X6694322Y11608663D01*
X6691731Y11614048D01*
X6688581Y11618061D01*
X6682231Y11628932D01*
X6679590Y11632793D01*
X6675983Y11639296D01*
X6661861Y11661698D01*
X6660083Y11660174D01*
X6658813Y11655044D01*
X6659016Y11570258D01*
X6656628Y11566804D01*
X6652463Y11564569D01*
X6646570Y11564569D01*
X6641896Y11567058D01*
X6639864Y11571630D01*
X6609346Y11571630D01*
X6605422Y11569141D01*
X6601561Y11568328D01*
X6590538Y11564874D01*
X6558686Y11564975D01*
X6545072Y11570157D01*
X6539280Y11573916D01*
X6532321Y11580418D01*
X6527088Y11586210D01*
X6522212Y11592661D01*
X6520840Y11597233D01*
X6517487Y11603685D01*
X6516624Y11610136D01*
X6513525Y11624106D01*
X6438900Y11624106D01*
X6438900Y11524437D01*
X6938924Y11524437D01*
X6938924Y11785803D01*
X6451803Y11785803D01*
X6448856Y11787276D01*
X6447485Y11790426D01*
X6443878Y11792610D01*
X6442557Y11795607D01*
X6442557Y11804497D01*
X6443878Y11807494D01*
X6447485Y11809679D01*
X6448856Y11812828D01*
X6451803Y11814302D01*
X6938924Y11814302D01*
X6938924Y11818162D01*
G37*
G36*
X6793382Y11679682D02*
G01*
X6790944Y11677700D01*
X6789318Y11676684D01*
X6789267Y11582349D01*
X6793382Y11580063D01*
X6810705Y11580063D01*
X6820611Y11582044D01*
X6829501Y11585143D01*
X6835089Y11587683D01*
X6845452Y11598605D01*
X6848957Y11603380D01*
X6851802Y11613134D01*
X6854342Y11618671D01*
X6854291Y11641226D01*
X6853123Y11645747D01*
X6848906Y11659006D01*
X6844842Y11664340D01*
X6838696Y11670893D01*
X6828332Y11676430D01*
X6818477Y11677853D01*
X6811162Y11679682D01*
G37*
G36*
X6438900Y11495989D02*
G01*
X6438900Y11329314D01*
X6653834Y11329314D01*
X6654647Y11344910D01*
X6659727Y11356543D01*
X6662877Y11360962D01*
X6673748Y11372494D01*
X6677710Y11375288D01*
X6693204Y11387074D01*
X6695338Y11388902D01*
X6706971Y11401399D01*
X6709156Y11408308D01*
X6711035Y11416487D01*
X6710273Y11421872D01*
X6709054Y11426393D01*
X6706412Y11432641D01*
X6697776Y11438331D01*
X6691172Y11439804D01*
X6684924Y11439245D01*
X6671868Y11433098D01*
X6668973Y11429847D01*
X6664096Y11427206D01*
X6662166Y11425478D01*
X6659524Y11427409D01*
X6658254Y11432235D01*
X6658254Y11436908D01*
X6659676Y11441277D01*
X6662877Y11444986D01*
X6669582Y11450320D01*
X6678777Y11454638D01*
X6683705Y11455755D01*
X6702704Y11455450D01*
X6712508Y11450472D01*
X6717182Y11446459D01*
X6722668Y11440668D01*
X6726986Y11431574D01*
X6728206Y11420602D01*
X6727393Y11406987D01*
X6721957Y11394694D01*
X6719214Y11390274D01*
X6708038Y11378539D01*
X6697725Y11370767D01*
X6692900Y11366550D01*
X6691528Y11366550D01*
X6689191Y11363807D01*
X6684822Y11360861D01*
X6675424Y11350955D01*
X6672275Y11344046D01*
X6676136Y11339372D01*
X6725005Y11339372D01*
X6728206Y11337848D01*
X6729933Y11334292D01*
X6729933Y11328958D01*
X6726326Y11325098D01*
X6656933Y11325504D01*
X6653834Y11329314D01*
X6438900Y11329314D01*
X6438900Y11281156D01*
X6938924Y11281156D01*
X6938924Y11495989D01*
G37*
G36*
X6438900Y11252708D02*
G01*
X6438900Y11183518D01*
X6662420Y11183518D01*
X6662877Y11195202D01*
X6666128Y11198047D01*
X6671665Y11201654D01*
X6677558Y11203686D01*
X6681520Y11206835D01*
X6686194Y11209020D01*
X6695338Y11216487D01*
X6700215Y11219027D01*
X6701891Y11219027D01*
X6705396Y11216843D01*
X6706666Y11213033D01*
X6706666Y11095482D01*
X6704685Y11090249D01*
X6701231Y11088370D01*
X6695948Y11088370D01*
X6692036Y11090859D01*
X6690004Y11094974D01*
X6690156Y11184128D01*
X6688074Y11188750D01*
X6686397Y11189462D01*
X6683705Y11186871D01*
X6671614Y11180216D01*
X6665569Y11180216D01*
X6662420Y11183518D01*
X6438900Y11183518D01*
X6438900Y11037874D01*
X6938924Y11037874D01*
X6938924Y11252708D01*
G37*
G36*
X6438900Y11009426D02*
G01*
X6438900Y10892180D01*
X6599326Y10892180D01*
X6600748Y10896803D01*
X6613855Y10912805D01*
X6618731Y10919104D01*
X6621170Y10923117D01*
X6627469Y10930788D01*
X6631940Y10937951D01*
X6636816Y10945063D01*
X6644182Y10957052D01*
X6644182Y10958068D01*
X6647383Y10962487D01*
X6650481Y10969498D01*
X6655053Y10976813D01*
X6656984Y10978438D01*
X6660388Y10979556D01*
X6667804Y10979658D01*
X6670649Y10977524D01*
X6672935Y10972241D01*
X6672986Y10898835D01*
X6675729Y10897209D01*
X6684111Y10896396D01*
X6687362Y10893806D01*
X6689039Y10888776D01*
X6687807Y10883900D01*
X6699300Y10883900D01*
X6699300Y10888370D01*
X6701637Y10894568D01*
X6702450Y10899952D01*
X6705853Y10905591D01*
X6711492Y10912144D01*
X6715810Y10915294D01*
X6717842Y10920069D01*
X6709613Y10928807D01*
X6707378Y10933430D01*
X6705295Y10941100D01*
X6705295Y10950854D01*
X6707428Y10958626D01*
X6709765Y10963554D01*
X6719824Y10974019D01*
X6727799Y10977930D01*
X6733336Y10979658D01*
X6751218Y10979251D01*
X6762902Y10973308D01*
X6772097Y10963452D01*
X6776720Y10950397D01*
X6776618Y10941151D01*
X6772351Y10929162D01*
X6767779Y10923676D01*
X6763613Y10919815D01*
X6766407Y10915040D01*
X6771182Y10911078D01*
X6777634Y10901934D01*
X6781088Y10891367D01*
X6781139Y10879074D01*
X6777075Y10865866D01*
X6767017Y10855045D01*
X6758736Y10850219D01*
X6747408Y10848848D01*
X6724903Y10849457D01*
X6714388Y10855096D01*
X6706971Y10863122D01*
X6704888Y10865713D01*
X6703059Y10868710D01*
X6699300Y10883900D01*
X6687807Y10883900D01*
X6687616Y10883138D01*
X6682486Y10880699D01*
X6675983Y10880648D01*
X6672986Y10878566D01*
X6672935Y10854486D01*
X6671411Y10851235D01*
X6667144Y10848949D01*
X6661658Y10848949D01*
X6657086Y10850321D01*
X6654596Y10853674D01*
X6654596Y10878515D01*
X6652412Y10880648D01*
X6602526Y10881004D01*
X6599783Y10883900D01*
X6599326Y10892180D01*
X6438900Y10892180D01*
X6438900Y10799775D01*
X6938924Y10799775D01*
X6938924Y11009426D01*
G37*
G36*
X6742531Y10963452D02*
G01*
X6738823Y10963402D01*
X6733286Y10961827D01*
X6725513Y10956036D01*
X6723227Y10950448D01*
X6723227Y10939221D01*
X6724446Y10934700D01*
X6730238Y10929416D01*
X6740550Y10925048D01*
X6750964Y10928858D01*
X6755993Y10933582D01*
X6759956Y10941862D01*
X6759956Y10946790D01*
X6755739Y10956290D01*
X6747205Y10962284D01*
G37*
G36*
X6652209Y10942980D02*
G01*
X6649974Y10938713D01*
X6646773Y10934700D01*
X6644284Y10929416D01*
X6642252Y10927638D01*
X6639306Y10921542D01*
X6637985Y10920679D01*
X6635089Y10915904D01*
X6622084Y10899495D01*
X6622084Y10898225D01*
X6626707Y10896854D01*
X6652564Y10896854D01*
X6654647Y10899292D01*
X6654292Y10940796D01*
G37*
G36*
X6740042Y10910265D02*
G01*
X6737603Y10909706D01*
X6726580Y10904982D01*
X6720433Y10899140D01*
X6718147Y10893298D01*
X6718147Y10879683D01*
X6720179Y10873892D01*
X6725970Y10868202D01*
X6736994Y10863783D01*
X6742023Y10863072D01*
X6755282Y10867999D01*
X6760514Y10873486D01*
X6762851Y10879124D01*
X6764528Y10885881D01*
X6762953Y10893907D01*
X6760565Y10899190D01*
X6754977Y10905337D01*
X6746341Y10908487D01*
X6744970Y10909604D01*
G37*
G36*
X6438900Y10771327D02*
G01*
X6438900Y10621924D01*
X6608013Y10621924D01*
X6608013Y10625531D01*
X6610502Y10628325D01*
X6613245Y10629036D01*
X6618071Y10626902D01*
X6622034Y10623702D01*
X6628282Y10621975D01*
X6632651Y10619282D01*
X6641388Y10618520D01*
X6657136Y10624362D01*
X6662267Y10630458D01*
X6663690Y10635132D01*
X6663791Y10645190D01*
X6661861Y10650016D01*
X6656730Y10655604D01*
X6653377Y10657484D01*
X6644487Y10659313D01*
X6638950Y10661446D01*
X6622542Y10662412D01*
X6619646Y10665917D01*
X6619646Y10672267D01*
X6622440Y10675620D01*
X6627317Y10676839D01*
X6637528Y10676890D01*
X6639763Y10678109D01*
X6651701Y10681411D01*
X6657340Y10686796D01*
X6659575Y10692688D01*
X6659524Y10704677D01*
X6658254Y10709554D01*
X6655866Y10713669D01*
X6646773Y10718190D01*
X6641033Y10719765D01*
X6633514Y10718901D01*
X6629146Y10716514D01*
X6617563Y10713008D01*
X6614820Y10714329D01*
X6612839Y10717479D01*
X6613702Y10724134D01*
X6617106Y10729112D01*
X6622440Y10731804D01*
X6632854Y10735005D01*
X6650990Y10735106D01*
X6660134Y10731855D01*
X6665315Y10728401D01*
X6673138Y10719866D01*
X6676288Y10712754D01*
X6676237Y10691418D01*
X6673697Y10684662D01*
X6670802Y10680547D01*
X6662115Y10671352D01*
X6668262Y10666171D01*
X6672935Y10662869D01*
X6679031Y10654842D01*
X6682062Y10641584D01*
X6702094Y10641584D01*
X6702094Y10682986D01*
X6704380Y10692079D01*
X6709308Y10705642D01*
X6710832Y10707573D01*
X6714185Y10714685D01*
X6717995Y10719714D01*
X6724548Y10726318D01*
X6729018Y10729214D01*
X6734556Y10732312D01*
X6743141Y10735005D01*
X6761683Y10735106D01*
X6770065Y10732363D01*
X6772859Y10729671D01*
X6774180Y10724489D01*
X6773367Y10718749D01*
X6770319Y10715548D01*
X6764020Y10716412D01*
X6758431Y10719155D01*
X6748018Y10719257D01*
X6741312Y10715853D01*
X6735572Y10713618D01*
X6732524Y10710062D01*
X6730136Y10708233D01*
X6727901Y10703712D01*
X6723989Y10697667D01*
X6723125Y10692688D01*
X6719925Y10685576D01*
X6719824Y10676991D01*
X6720687Y10676077D01*
X6724548Y10679480D01*
X6725513Y10679480D01*
X6734505Y10684967D01*
X6756044Y10684967D01*
X6766407Y10679277D01*
X6771335Y10674756D01*
X6775856Y10668152D01*
X6777634Y10664240D01*
X6781088Y10652607D01*
X6781139Y10639653D01*
X6777685Y10626699D01*
X6775856Y10622838D01*
X6771944Y10616996D01*
X6767626Y10612475D01*
X6762140Y10608310D01*
X6758330Y10606379D01*
X6750456Y10605058D01*
X6732117Y10605058D01*
X6723532Y10606989D01*
X6717995Y10611053D01*
X6714490Y10614406D01*
X6709714Y10621213D01*
X6704177Y10633710D01*
X6702094Y10641584D01*
X6682062Y10641584D01*
X6682231Y10640822D01*
X6679692Y10627715D01*
X6678625Y10624769D01*
X6674103Y10617657D01*
X6668465Y10612475D01*
X6662877Y10608970D01*
X6657949Y10606430D01*
X6647789Y10604906D01*
X6621170Y10605516D01*
X6614871Y10607649D01*
X6609181Y10613136D01*
X6608064Y10618317D01*
X6608013Y10621924D01*
X6438900Y10621924D01*
X6438900Y10556544D01*
X6441998Y10556544D01*
X6444081Y10560354D01*
X6446926Y10561675D01*
X6938924Y10561675D01*
X6938924Y10771327D01*
G37*
G36*
X6738823Y10669117D02*
G01*
X6731152Y10666476D01*
X6724497Y10661192D01*
X6723735Y10658754D01*
X6720789Y10655046D01*
X6719468Y10651286D01*
X6719468Y10639907D01*
X6724548Y10629290D01*
X6729018Y10624312D01*
X6740042Y10618520D01*
X6745782Y10619333D01*
X6755993Y10624362D01*
X6761175Y10630814D01*
X6764375Y10640974D01*
X6763664Y10650677D01*
X6761022Y10659059D01*
X6754926Y10665815D01*
X6748018Y10668558D01*
G37*
G36*
X6438900Y10538409D02*
G01*
X6438900Y10387685D01*
X6607860Y10387685D01*
X6609435Y10391597D01*
X6612636Y10393375D01*
X6620560Y10389260D01*
X6623608Y10386974D01*
X6634073Y10383570D01*
X6642658Y10383672D01*
X6651802Y10385856D01*
X6658152Y10389616D01*
X6662470Y10394696D01*
X6663791Y10399623D01*
X6663791Y10408056D01*
X6662420Y10413187D01*
X6657543Y10418978D01*
X6654292Y10420451D01*
X6646722Y10423296D01*
X6638340Y10425176D01*
X6626707Y10425176D01*
X6622288Y10426496D01*
X6620103Y10429036D01*
X6619595Y10435234D01*
X6621780Y10439755D01*
X6626098Y10441279D01*
X6637477Y10441381D01*
X6646164Y10443464D01*
X6651802Y10446207D01*
X6656171Y10449052D01*
X6659168Y10454640D01*
X6659625Y10469067D01*
X6657594Y10475620D01*
X6653377Y10478312D01*
X6652361Y10480243D01*
X6643319Y10482783D01*
X6635902Y10482732D01*
X6626707Y10480294D01*
X6619341Y10476992D01*
X6617106Y10476941D01*
X6614464Y10478465D01*
X6612940Y10480497D01*
X6612940Y10484561D01*
X6614769Y10490149D01*
X6616903Y10492587D01*
X6626707Y10497769D01*
X6632854Y10498785D01*
X6650736Y10498937D01*
X6656730Y10497718D01*
X6664096Y10493451D01*
X6673697Y10483088D01*
X6675323Y10479786D01*
X6676745Y10468864D01*
X6675932Y10454640D01*
X6673799Y10448798D01*
X6668160Y10440974D01*
X6665214Y10439298D01*
X6662572Y10433608D01*
X6668973Y10430205D01*
X6675120Y10424058D01*
X6679031Y10418927D01*
X6682282Y10405059D01*
X6679133Y10389666D01*
X6673166Y10380472D01*
X6705193Y10380472D01*
X6705193Y10384078D01*
X6706057Y10387634D01*
X6709664Y10389616D01*
X6711899Y10389616D01*
X6716775Y10386974D01*
X6731050Y10383062D01*
X6741922Y10385044D01*
X6746290Y10386364D01*
X6752844Y10391546D01*
X6756196Y10395813D01*
X6760159Y10406684D01*
X6759956Y10411968D01*
X6755688Y10422839D01*
X6749084Y10429087D01*
X6738823Y10431780D01*
X6735927Y10433761D01*
X6723532Y10434320D01*
X6716775Y10432135D01*
X6711340Y10432338D01*
X6709308Y10434269D01*
X6708140Y10438434D01*
X6709105Y10463682D01*
X6710375Y10483748D01*
X6711543Y10493451D01*
X6712203Y10496397D01*
X6716166Y10498937D01*
X6765798Y10498937D01*
X6769608Y10496499D01*
X6771233Y10490352D01*
X6768490Y10484967D01*
X6764985Y10482783D01*
X6730238Y10482783D01*
X6727647Y10480852D01*
X6726834Y10463022D01*
X6725107Y10454284D01*
X6725767Y10452404D01*
X6729882Y10449102D01*
X6739432Y10449102D01*
X6751116Y10447832D01*
X6761530Y10442346D01*
X6769557Y10433913D01*
X6772706Y10429392D01*
X6775348Y10419689D01*
X6776466Y10414508D01*
X6776516Y10402570D01*
X6774129Y10395102D01*
X6772859Y10389768D01*
X6766712Y10380218D01*
X6760311Y10374579D01*
X6749999Y10369550D01*
X6742074Y10368076D01*
X6713118Y10368635D01*
X6708190Y10371175D01*
X6705244Y10376865D01*
X6705193Y10380472D01*
X6673166Y10380472D01*
X6672935Y10380116D01*
X6665315Y10374223D01*
X6655511Y10369448D01*
X6645757Y10368076D01*
X6622237Y10368635D01*
X6610705Y10374528D01*
X6608368Y10379557D01*
X6607860Y10387685D01*
X6438900Y10387685D01*
X6438900Y10318445D01*
X6938924Y10318445D01*
X6938924Y10533227D01*
X6446926Y10533227D01*
X6444081Y10534599D01*
X6441998Y10538409D01*
G37*
G36*
X6438900Y10289946D02*
G01*
X6438900Y10141407D01*
X6538163Y10141407D01*
X6538163Y10149281D01*
X6540042Y10152075D01*
X6544208Y10152938D01*
X6548424Y10151465D01*
X6553860Y10147655D01*
X6564579Y10145014D01*
X6568490Y10142880D01*
X6580124Y10142778D01*
X6586270Y10145572D01*
X6593636Y10148316D01*
X6598259Y10156545D01*
X6598920Y10160863D01*
X6593687Y10170922D01*
X6591604Y10171582D01*
X6588099Y10174986D01*
X6580733Y10178745D01*
X6577685Y10180624D01*
X6570929Y10183926D01*
X6562344Y10188702D01*
X6555130Y10193731D01*
X6544614Y10204958D01*
X6541871Y10208920D01*
X6540652Y10214559D01*
X6540652Y10232034D01*
X6542836Y10238638D01*
X6545834Y10242854D01*
X6551320Y10249001D01*
X6560515Y10254894D01*
X6570929Y10258145D01*
X6573418Y10258755D01*
X6592824Y10258907D01*
X6600139Y10256926D01*
X6606489Y10253878D01*
X6610400Y10249509D01*
X6611670Y10245902D01*
X6611670Y10236809D01*
X6610451Y10234371D01*
X6607962Y10232948D01*
X6602069Y10235031D01*
X6599174Y10238232D01*
X6592366Y10240314D01*
X6587490Y10242956D01*
X6576466Y10243058D01*
X6564833Y10237927D01*
X6559042Y10231628D01*
X6557772Y10226852D01*
X6557772Y10221061D01*
X6559042Y10216286D01*
X6563410Y10211155D01*
X6569709Y10205872D01*
X6576974Y10201960D01*
X6578904Y10200132D01*
X6596075Y10190937D01*
X6602425Y10186771D01*
X6610146Y10179507D01*
X6616293Y10166756D01*
X6616293Y10152989D01*
X6610807Y10141762D01*
X6605270Y10136022D01*
X6600289Y10132872D01*
X6636207Y10132872D01*
X6636207Y10252760D01*
X6638493Y10256367D01*
X6641388Y10258552D01*
X6646925Y10259212D01*
X6690410Y10258399D01*
X6704533Y10254437D01*
X6714490Y10248849D01*
X6721094Y10243566D01*
X6727952Y10235285D01*
X6733590Y10224922D01*
X6735419Y10216540D01*
X6738162Y10208768D01*
X6738670Y10185958D01*
X6737299Y10178999D01*
X6735470Y10175240D01*
X6733743Y10166553D01*
X6727799Y10155580D01*
X6724142Y10150602D01*
X6717182Y10142778D01*
X6712051Y10139527D01*
X6708190Y10136225D01*
X6703720Y10133990D01*
X6746392Y10133990D01*
X6748525Y10140848D01*
X6751218Y10146639D01*
X6753352Y10154412D01*
X6756146Y10159593D01*
X6757568Y10165892D01*
X6760057Y10171023D01*
X6767423Y10191953D01*
X6769963Y10198404D01*
X6773316Y10208920D01*
X6775196Y10212019D01*
X6777837Y10221722D01*
X6779717Y10224820D01*
X6782562Y10234168D01*
X6784949Y10239197D01*
X6787743Y10248239D01*
X6791198Y10255554D01*
X6794652Y10258145D01*
X6798868Y10259466D01*
X6801358Y10258907D01*
X6804710Y10258907D01*
X6809689Y10254132D01*
X6811873Y10249509D01*
X6813499Y10243058D01*
X6816293Y10237876D01*
X6817766Y10231424D01*
X6821881Y10222382D01*
X6821881Y10220756D01*
X6825030Y10213289D01*
X6828434Y10202875D01*
X6830923Y10197744D01*
X6833057Y10190022D01*
X6835851Y10184841D01*
X6837883Y10177119D01*
X6840372Y10171988D01*
X6842201Y10165435D01*
X6844995Y10159593D01*
X6848144Y10149128D01*
X6850583Y10144709D01*
X6853224Y10135006D01*
X6854596Y10133228D01*
X6849922Y10128707D01*
X6839000Y10129266D01*
X6835648Y10131907D01*
X6833666Y10138867D01*
X6831228Y10143439D01*
X6829806Y10149687D01*
X6826859Y10155732D01*
X6825996Y10159593D01*
X6823202Y10163556D01*
X6818375Y10165080D01*
X6779056Y10165080D01*
X6774992Y10161574D01*
X6774078Y10160254D01*
X6772097Y10153142D01*
X6769912Y10147960D01*
X6766001Y10134346D01*
X6764223Y10131399D01*
X6760260Y10128859D01*
X6750710Y10128859D01*
X6747154Y10130840D01*
X6746392Y10133990D01*
X6703720Y10133990D01*
X6698386Y10131348D01*
X6691020Y10129316D01*
X6642811Y10128758D01*
X6639966Y10129520D01*
X6636207Y10132872D01*
X6600289Y10132872D01*
X6597903Y10131348D01*
X6590538Y10129164D01*
X6555638Y10129164D01*
X6546088Y10131552D01*
X6540906Y10135666D01*
X6538163Y10141407D01*
X6438900Y10141407D01*
X6438900Y10090708D01*
X6938924Y10090708D01*
X6938924Y10289946D01*
G37*
G36*
X6659168Y10243312D02*
G01*
X6656171Y10242346D01*
X6655155Y10238232D01*
X6655511Y10144455D01*
X6657035Y10142829D01*
X6675729Y10142321D01*
X6687820Y10146334D01*
X6690512Y10146334D01*
X6696557Y10148468D01*
X6700012Y10151516D01*
X6701739Y10151516D01*
X6712356Y10162743D01*
X6714083Y10167213D01*
X6716471Y10170566D01*
X6719011Y10182860D01*
X6720738Y10189260D01*
X6720738Y10199725D01*
X6718452Y10206177D01*
X6716979Y10217150D01*
X6712203Y10225024D01*
X6712203Y10225938D01*
X6705752Y10232745D01*
X6697065Y10238232D01*
X6685534Y10240822D01*
X6680606Y10242956D01*
G37*
G36*
X6798767Y10228529D02*
G01*
X6794753Y10218470D01*
X6785660Y10191953D01*
X6782409Y10185298D01*
X6783933Y10179964D01*
X6814972Y10179964D01*
X6816547Y10184028D01*
X6815074Y10190022D01*
X6812381Y10195814D01*
X6804253Y10219740D01*
X6800088Y10228072D01*
G37*
G36*
X6438900Y10062210D02*
G01*
X6438900Y9905492D01*
X6560210Y9905492D01*
X6560210Y9911283D01*
X6561581Y9915652D01*
X6563969Y9917836D01*
X6579514Y9910267D01*
X6594551Y9906812D01*
X6602577Y9907676D01*
X6612636Y9910622D01*
X6617309Y9915347D01*
X6618325Y9915347D01*
X6619646Y9921900D01*
X6619646Y9926218D01*
X6617360Y9931857D01*
X6611975Y9937140D01*
X6603441Y9942322D01*
X6585661Y9951618D01*
X6573418Y9960203D01*
X6566916Y9967315D01*
X6561175Y9978440D01*
X6561124Y9994595D01*
X6566255Y10005364D01*
X6571538Y10011410D01*
X6575247Y10013848D01*
X6577888Y10016642D01*
X6584442Y10019131D01*
X6588455Y10021620D01*
X6594856Y10022586D01*
X6614464Y10022738D01*
X6621424Y10021519D01*
X6630111Y10016083D01*
X6631127Y10014661D01*
X6633159Y10008260D01*
X6633159Y10002672D01*
X6631431Y9998405D01*
X6627571Y9996678D01*
X6624878Y9999268D01*
X6616395Y10004094D01*
X6607098Y10006533D01*
X6598513Y10006584D01*
X6590284Y10004094D01*
X6582918Y9999268D01*
X6577990Y9988804D01*
X6579209Y9984232D01*
X6582308Y9977831D01*
X6589014Y9970973D01*
X6590385Y9970973D01*
X6594144Y9968077D01*
X6602222Y9963302D01*
X6620205Y9953193D01*
X6625488Y9949434D01*
X6627353Y9947351D01*
X6650177Y9947351D01*
X6650685Y9967417D01*
X6652564Y9971328D01*
X6655155Y9982301D01*
X6660388Y9992817D01*
X6665569Y10000640D01*
X6676694Y10011410D01*
X6681622Y10014254D01*
X6683806Y10016286D01*
X6692341Y10019334D01*
X6696506Y10021620D01*
X6702704Y10022687D01*
X6729628Y10022382D01*
X6742531Y10015778D01*
X6744614Y10011410D01*
X6744665Y10003586D01*
X6741617Y10000589D01*
X6735318Y10001351D01*
X6730542Y10003993D01*
X6721703Y10006177D01*
X6709714Y10006685D01*
X6697776Y10003739D01*
X6689801Y9999980D01*
X6681876Y9992817D01*
X6675729Y9984689D01*
X6671818Y9975088D01*
X6669278Y9964928D01*
X6669328Y9946081D01*
X6671564Y9935718D01*
X6676186Y9926015D01*
X6682079Y9918903D01*
X6685534Y9915448D01*
X6694728Y9910318D01*
X6706362Y9907422D01*
X6716775Y9907371D01*
X6731457Y9910368D01*
X6737603Y9913416D01*
X6741972Y9913416D01*
X6744716Y9910368D01*
X6744919Y9904018D01*
X6742531Y9898837D01*
X6766052Y9898837D01*
X6766407Y10019334D01*
X6768084Y10021468D01*
X6771944Y10022636D01*
X6779259Y10022738D01*
X6783171Y10020198D01*
X6783933Y10015931D01*
X6784187Y9909860D01*
X6789674Y9906914D01*
X6828028Y9907117D01*
X6830618Y9904679D01*
X6832244Y9900564D01*
X6831177Y9894519D01*
X6829196Y9892385D01*
X6770014Y9892385D01*
X6766763Y9894620D01*
X6766052Y9898837D01*
X6742531Y9898837D01*
X6731101Y9893350D01*
X6722922Y9892080D01*
X6697776Y9892080D01*
X6690055Y9893249D01*
X6685534Y9895738D01*
X6681012Y9897313D01*
X6670802Y9904476D01*
X6667347Y9907930D01*
X6660388Y9917430D01*
X6655053Y9927945D01*
X6651447Y9940899D01*
X6650177Y9947351D01*
X6627353Y9947351D01*
X6631584Y9942626D01*
X6635496Y9937292D01*
X6636969Y9930536D01*
X6636461Y9913721D01*
X6633870Y9907778D01*
X6624472Y9897973D01*
X6611366Y9892538D01*
X6586067Y9891877D01*
X6574180Y9893401D01*
X6569100Y9895789D01*
X6564630Y9897313D01*
X6561632Y9900412D01*
X6560210Y9905492D01*
X6438900Y9905492D01*
X6438900Y9847427D01*
X6938924Y9847427D01*
X6938924Y10062210D01*
G37*
G36*
X6438900Y9818928D02*
G01*
X6438900Y9666986D01*
X6554114Y9666986D01*
X6554114Y9672828D01*
X6557670Y9676587D01*
X6559448Y9676587D01*
X6564122Y9674555D01*
X6568033Y9671405D01*
X6574637Y9669373D01*
X6579514Y9666681D01*
X6590538Y9666630D01*
X6596583Y9669627D01*
X6602831Y9671558D01*
X6608572Y9678111D01*
X6610451Y9683953D01*
X6610451Y9691166D01*
X6609130Y9696196D01*
X6602831Y9703257D01*
X6599428Y9705136D01*
X6592366Y9706457D01*
X6582816Y9709607D01*
X6571234Y9709607D01*
X6567068Y9711436D01*
X6565747Y9714026D01*
X6565747Y9719665D01*
X6567678Y9722612D01*
X6570929Y9724034D01*
X6584442Y9724999D01*
X6598259Y9729063D01*
X6603796Y9734905D01*
X6606031Y9741001D01*
X6606895Y9746335D01*
X6605473Y9754514D01*
X6603187Y9759238D01*
X6599275Y9762693D01*
X6591147Y9766808D01*
X6580124Y9766808D01*
X6576263Y9764623D01*
X6570929Y9762744D01*
X6563106Y9760508D01*
X6560210Y9764014D01*
X6560210Y9771176D01*
X6562140Y9775494D01*
X6566662Y9778695D01*
X6574637Y9781387D01*
X6579514Y9782606D01*
X6596786Y9782708D01*
X6607454Y9778949D01*
X6612016Y9775342D01*
X6639712Y9775342D01*
X6640525Y9779965D01*
X6642912Y9782200D01*
X6646925Y9783267D01*
X6653072Y9782606D01*
X6657136Y9779965D01*
X6659372Y9777425D01*
X6661353Y9768281D01*
X6663639Y9764268D01*
X6665671Y9756495D01*
X6668719Y9749129D01*
X6672173Y9737090D01*
X6675323Y9729317D01*
X6676186Y9724136D01*
X6678422Y9720224D01*
X6681063Y9709912D01*
X6683248Y9706051D01*
X6685838Y9696043D01*
X6688277Y9691166D01*
X6688277Y9690049D01*
X6691375Y9679279D01*
X6696405Y9682327D01*
X6699402Y9693757D01*
X6701281Y9696805D01*
X6704330Y9707930D01*
X6706514Y9712502D01*
X6709257Y9722866D01*
X6711492Y9726726D01*
X6713981Y9736175D01*
X6716369Y9740341D01*
X6718401Y9748723D01*
X6720331Y9753295D01*
X6729475Y9779508D01*
X6734556Y9782606D01*
X6740042Y9783470D01*
X6743750Y9781997D01*
X6746443Y9779304D01*
X6747205Y9775698D01*
X6744208Y9768789D01*
X6742023Y9761677D01*
X6739331Y9755886D01*
X6737858Y9749383D01*
X6735064Y9744862D01*
X6734149Y9739680D01*
X6729475Y9728047D01*
X6726936Y9719360D01*
X6725158Y9716414D01*
X6722465Y9706711D01*
X6720281Y9702800D01*
X6718147Y9695027D01*
X6715810Y9690100D01*
X6713270Y9681464D01*
X6710984Y9676739D01*
X6709076Y9670592D01*
X6756146Y9670592D01*
X6757619Y9675317D01*
X6760006Y9676638D01*
X6765188Y9675114D01*
X6769608Y9671558D01*
X6774992Y9670034D01*
X6781749Y9666630D01*
X6792163Y9666630D01*
X6797649Y9669322D01*
X6804050Y9671507D01*
X6810248Y9677654D01*
X6811467Y9682073D01*
X6811467Y9693198D01*
X6809486Y9699244D01*
X6808368Y9699244D01*
X6803339Y9704578D01*
X6792772Y9706864D01*
X6784340Y9709607D01*
X6773418Y9709607D01*
X6769252Y9711436D01*
X6767931Y9714026D01*
X6767931Y9719411D01*
X6769252Y9722002D01*
X6774383Y9724440D01*
X6785000Y9724491D01*
X6788454Y9725863D01*
X6799224Y9728911D01*
X6805625Y9734702D01*
X6807453Y9741001D01*
X6807352Y9754565D01*
X6804202Y9761118D01*
X6792975Y9766655D01*
X6784187Y9767316D01*
X6770725Y9762134D01*
X6764578Y9760153D01*
X6762292Y9762337D01*
X6761022Y9764877D01*
X6761225Y9770516D01*
X6763054Y9774224D01*
X6768795Y9778847D01*
X6781139Y9782606D01*
X6799072Y9782708D01*
X6809892Y9778695D01*
X6814820Y9774326D01*
X6817715Y9771380D01*
X6821068Y9767519D01*
X6825234Y9759746D01*
X6825234Y9740341D01*
X6821119Y9731298D01*
X6816242Y9724542D01*
X6810197Y9719665D01*
X6810197Y9718751D01*
X6820306Y9710928D01*
X6825589Y9704425D01*
X6827672Y9699599D01*
X6827672Y9676942D01*
X6826148Y9671659D01*
X6822795Y9666681D01*
X6816902Y9660382D01*
X6808876Y9655251D01*
X6801967Y9653016D01*
X6770065Y9653016D01*
X6763258Y9655200D01*
X6757670Y9659721D01*
X6756806Y9662058D01*
X6756146Y9670592D01*
X6709076Y9670592D01*
X6707378Y9665309D01*
X6703415Y9655149D01*
X6700418Y9653066D01*
X6687312Y9652508D01*
X6683502Y9654590D01*
X6679692Y9661753D01*
X6677050Y9672421D01*
X6674967Y9675622D01*
X6672224Y9685324D01*
X6670954Y9687001D01*
X6662420Y9713163D01*
X6659575Y9719614D01*
X6657797Y9726218D01*
X6655358Y9731298D01*
X6653174Y9739680D01*
X6650380Y9744913D01*
X6648348Y9753193D01*
X6646164Y9757816D01*
X6642303Y9770110D01*
X6639712Y9775342D01*
X6612016Y9775342D01*
X6614972Y9773005D01*
X6616801Y9770110D01*
X6620205Y9766198D01*
X6623964Y9753955D01*
X6623964Y9745573D01*
X6622237Y9740341D01*
X6620256Y9733127D01*
X6616903Y9728200D01*
X6610146Y9721138D01*
X6607759Y9719310D01*
X6608927Y9718192D01*
X6619341Y9710216D01*
X6624574Y9703460D01*
X6628130Y9691827D01*
X6628841Y9688423D01*
X6627723Y9682734D01*
X6625081Y9673031D01*
X6619951Y9665208D01*
X6614464Y9659975D01*
X6605727Y9654590D01*
X6595465Y9652508D01*
X6567271Y9653168D01*
X6560718Y9655352D01*
X6555384Y9660534D01*
X6554114Y9666986D01*
X6438900Y9666986D01*
X6438900Y9619691D01*
X6938924Y9619691D01*
X6938924Y9818928D01*
G37*
G36*
X6438900Y9591192D02*
G01*
X6438900Y9474606D01*
X6513677Y9474606D01*
X6513677Y9484106D01*
X6516014Y9492843D01*
X6517538Y9502902D01*
X6523278Y9515348D01*
X6528562Y9522968D01*
X6539433Y9534245D01*
X6545224Y9537700D01*
X6547713Y9540087D01*
X6556298Y9543186D01*
X6560261Y9545320D01*
X6567271Y9546386D01*
X6590538Y9546539D01*
X6599580Y9545269D01*
X6603441Y9542780D01*
X6608470Y9541357D01*
X6611670Y9538716D01*
X6612301Y9537192D01*
X6639814Y9537192D01*
X6641236Y9544100D01*
X6646316Y9546590D01*
X6660032Y9546234D01*
X6663486Y9543542D01*
X6668719Y9535210D01*
X6675932Y9522968D01*
X6678320Y9519716D01*
X6681063Y9513874D01*
X6683349Y9511284D01*
X6686143Y9506102D01*
X6692544Y9495790D01*
X6695795Y9489287D01*
X6698742Y9485579D01*
X6701281Y9480346D01*
X6703059Y9478467D01*
X6706108Y9472472D01*
X6710273Y9465360D01*
X6713118Y9461601D01*
X6720789Y9446920D01*
X6721703Y9446920D01*
X6724497Y9448952D01*
X6724345Y9540443D01*
X6725615Y9543948D01*
X6729628Y9546539D01*
X6736384Y9546539D01*
X6741464Y9544100D01*
X6742836Y9537141D01*
X6742531Y9420707D01*
X6741656Y9419132D01*
X6771944Y9419132D01*
X6771944Y9543186D01*
X6774180Y9545828D01*
X6777431Y9546437D01*
X6827672Y9546183D01*
X6835648Y9542729D01*
X6843877Y9540036D01*
X6844639Y9538766D01*
X6851650Y9535007D01*
X6860590Y9525558D01*
X6864705Y9519005D01*
X6869125Y9508794D01*
X6871004Y9500311D01*
X6871106Y9466630D01*
X6869125Y9458248D01*
X6864756Y9447377D01*
X6862470Y9444634D01*
X6860387Y9440418D01*
X6854088Y9433001D01*
X6846671Y9427057D01*
X6842404Y9424720D01*
X6838950Y9421723D01*
X6831380Y9419132D01*
X6824014Y9416186D01*
X6774738Y9416186D01*
X6771944Y9419132D01*
X6741656Y9419132D01*
X6741007Y9417964D01*
X6736080Y9415881D01*
X6725615Y9415881D01*
X6721094Y9417862D01*
X6718198Y9420707D01*
X6716318Y9424619D01*
X6713981Y9427819D01*
X6699961Y9450476D01*
X6696964Y9456318D01*
X6694271Y9459518D01*
X6691325Y9465716D01*
X6688988Y9468205D01*
X6686905Y9472472D01*
X6684721Y9475063D01*
X6681622Y9481261D01*
X6678472Y9485172D01*
X6678472Y9486544D01*
X6673291Y9494012D01*
X6667093Y9504832D01*
X6662572Y9511080D01*
X6662572Y9512249D01*
X6660845Y9512249D01*
X6658813Y9506915D01*
X6658965Y9421368D01*
X6657746Y9417964D01*
X6652717Y9415881D01*
X6647078Y9415881D01*
X6642201Y9417405D01*
X6640169Y9420656D01*
X6639814Y9537192D01*
X6612301Y9537192D01*
X6614159Y9532823D01*
X6614159Y9526168D01*
X6611975Y9521799D01*
X6608165Y9520174D01*
X6603746Y9523476D01*
X6596684Y9526625D01*
X6591757Y9528352D01*
X6582613Y9530384D01*
X6573418Y9530384D01*
X6563004Y9528302D01*
X6551777Y9522764D01*
X6541516Y9511842D01*
X6538874Y9507982D01*
X6534404Y9495993D01*
X6533286Y9488017D01*
X6533286Y9471202D01*
X6534454Y9462668D01*
X6538315Y9452000D01*
X6542989Y9445955D01*
X6548881Y9439757D01*
X6558686Y9434068D01*
X6567881Y9431985D01*
X6575247Y9430664D01*
X6581952Y9431477D01*
X6594246Y9434068D01*
X6598208Y9436912D01*
X6599478Y9440164D01*
X6599123Y9466630D01*
X6595668Y9468408D01*
X6579158Y9468256D01*
X6573824Y9470745D01*
X6571589Y9474301D01*
X6571792Y9479381D01*
X6573774Y9482632D01*
X6578142Y9484512D01*
X6612686Y9484106D01*
X6615836Y9481921D01*
X6616598Y9477806D01*
X6616598Y9428581D01*
X6611620Y9423603D01*
X6608927Y9421774D01*
X6593636Y9416237D01*
X6557467Y9416186D01*
X6553200Y9417710D01*
X6543395Y9422130D01*
X6536740Y9426905D01*
X6527292Y9436912D01*
X6522923Y9442907D01*
X6517487Y9454997D01*
X6516065Y9464090D01*
X6513677Y9474606D01*
X6438900Y9474606D01*
X6438900Y9350502D01*
X6938924Y9350502D01*
X6938924Y9591192D01*
G37*
G36*
X6793382Y9530435D02*
G01*
X6789216Y9528098D01*
X6789267Y9433661D01*
X6794601Y9430664D01*
X6812381Y9431324D01*
X6826453Y9434525D01*
X6835902Y9439300D01*
X6844842Y9448546D01*
X6849211Y9455048D01*
X6851396Y9463278D01*
X6854037Y9468612D01*
X6854037Y9495790D01*
X6851345Y9501124D01*
X6849872Y9507423D01*
X6848043Y9511284D01*
X6843928Y9516465D01*
X6837730Y9522764D01*
X6830161Y9525965D01*
X6828688Y9527235D01*
X6816039Y9529927D01*
G37*
G36*
X6438900Y9322054D02*
G01*
X6438900Y9318193D01*
X6938924Y9318193D01*
X6938924Y9322054D01*
G37*
G36*
X4349750Y1980184D02*
G01*
X4344314Y1979980D01*
X4339031Y1979320D01*
X4333951Y1978253D01*
X4329074Y1976780D01*
X4324400Y1974900D01*
X4319930Y1972665D01*
X4315714Y1969973D01*
X4311751Y1966975D01*
X4308043Y1963521D01*
X4304538Y1959762D01*
X4301388Y1955647D01*
X4298492Y1951177D01*
X4295902Y1946351D01*
X4293616Y1941169D01*
X4291634Y1935734D01*
X4290009Y1929942D01*
X4288688Y1923796D01*
X4287774Y1917395D01*
X4287215Y1910689D01*
X4287012Y1903730D01*
X4304284Y1903730D01*
X4304487Y1910689D01*
X4305096Y1917344D01*
X4306112Y1923592D01*
X4307535Y1929434D01*
X4309313Y1934921D01*
X4311446Y1940001D01*
X4313885Y1944674D01*
X4316730Y1948891D01*
X4319879Y1952650D01*
X4323283Y1955952D01*
X4327042Y1958797D01*
X4331055Y1961184D01*
X4335373Y1963013D01*
X4339894Y1964385D01*
X4344720Y1965198D01*
X4349750Y1965452D01*
X4354830Y1965198D01*
X4359656Y1964385D01*
X4364228Y1963013D01*
X4368546Y1961184D01*
X4372610Y1958797D01*
X4376369Y1955952D01*
X4379823Y1952650D01*
X4382973Y1948891D01*
X4385818Y1944674D01*
X4388307Y1940001D01*
X4390440Y1934921D01*
X4392218Y1929434D01*
X4393590Y1923592D01*
X4394657Y1917344D01*
X4395266Y1910689D01*
X4395470Y1903730D01*
X4395266Y1896770D01*
X4394657Y1890115D01*
X4393590Y1883816D01*
X4392218Y1877872D01*
X4390440Y1872284D01*
X4388307Y1867154D01*
X4385818Y1862378D01*
X4382973Y1858060D01*
X4379823Y1854200D01*
X4376369Y1850796D01*
X4372610Y1847850D01*
X4368546Y1845462D01*
X4364228Y1843532D01*
X4359656Y1842109D01*
X4354830Y1841296D01*
X4349750Y1840992D01*
X4344720Y1841296D01*
X4339894Y1842109D01*
X4335373Y1843532D01*
X4331055Y1845462D01*
X4327042Y1847850D01*
X4323283Y1850796D01*
X4319879Y1854200D01*
X4316730Y1858060D01*
X4313885Y1862378D01*
X4311446Y1867154D01*
X4309313Y1872284D01*
X4307535Y1877872D01*
X4306112Y1883816D01*
X4305096Y1890115D01*
X4304487Y1896770D01*
X4304284Y1903730D01*
X4287012Y1903730D01*
X4287215Y1896719D01*
X4287774Y1890014D01*
X4288688Y1883562D01*
X4290009Y1877415D01*
X4291634Y1871573D01*
X4293616Y1866036D01*
X4295902Y1860854D01*
X4298492Y1855927D01*
X4301388Y1851406D01*
X4304538Y1847189D01*
X4308043Y1843328D01*
X4311751Y1839874D01*
X4315714Y1836724D01*
X4319930Y1834032D01*
X4324400Y1831695D01*
X4329074Y1829765D01*
X4333951Y1828241D01*
X4339031Y1827123D01*
X4344314Y1826463D01*
X4349750Y1826260D01*
X4355236Y1826463D01*
X4360519Y1827123D01*
X4365650Y1828241D01*
X4370527Y1829765D01*
X4375251Y1831695D01*
X4379722Y1834032D01*
X4383938Y1836724D01*
X4387951Y1839874D01*
X4391660Y1843328D01*
X4395165Y1847189D01*
X4398314Y1851406D01*
X4401261Y1855927D01*
X4403852Y1860854D01*
X4406138Y1866036D01*
X4408119Y1871573D01*
X4409744Y1877415D01*
X4411014Y1883562D01*
X4411980Y1890014D01*
X4412538Y1896719D01*
X4412742Y1903730D01*
X4412538Y1910689D01*
X4411980Y1917395D01*
X4411014Y1923796D01*
X4409744Y1929942D01*
X4408119Y1935734D01*
X4406138Y1941169D01*
X4403852Y1946351D01*
X4401261Y1951177D01*
X4398314Y1955647D01*
X4395165Y1959762D01*
X4391660Y1963521D01*
X4387951Y1966975D01*
X4383938Y1969973D01*
X4379722Y1972665D01*
X4375251Y1974900D01*
X4370527Y1976780D01*
X4365650Y1978253D01*
X4360519Y1979320D01*
X4355236Y1979980D01*
G37*
G36*
X3716528Y1977643D02*
G01*
X3716528Y1828800D01*
X3733292Y1828800D01*
X3733292Y1899920D01*
X3804920Y1899920D01*
X3804920Y1828800D01*
X3821937Y1828800D01*
X3821937Y1977643D01*
X3804920Y1977643D01*
X3804920Y1914652D01*
X3733292Y1914652D01*
X3733292Y1977643D01*
G37*
G36*
X3863086Y1977643D02*
G01*
X3863086Y1828800D01*
X3880104Y1828800D01*
X3880104Y1977643D01*
G37*
G36*
X3921506Y1977643D02*
G01*
X3921506Y1828800D01*
X3938270Y1828800D01*
X3938270Y1876806D01*
X3964940Y1908302D01*
X4010660Y1828800D01*
X4029456Y1828800D01*
X3975608Y1921256D01*
X4022344Y1977643D01*
X4003040Y1977643D01*
X3938778Y1900936D01*
X3938270Y1900936D01*
X3938270Y1977643D01*
G37*
G36*
X4033520Y1977643D02*
G01*
X4033520Y1963420D01*
X4078732Y1963420D01*
X4078732Y1828800D01*
X4095750Y1828800D01*
X4095750Y1963420D01*
X4141215Y1963420D01*
X4141215Y1977643D01*
G37*
G36*
X4168394Y1977643D02*
G01*
X4168394Y1963928D01*
X4211320Y1963928D01*
X4219752Y1963572D01*
X4227169Y1962454D01*
X4233519Y1960524D01*
X4238802Y1957730D01*
X4242968Y1953920D01*
X4245965Y1949145D01*
X4247794Y1943252D01*
X4248404Y1936242D01*
X4247794Y1929282D01*
X4245965Y1923288D01*
X4242968Y1918207D01*
X4238802Y1914093D01*
X4233519Y1910892D01*
X4227169Y1908606D01*
X4219752Y1907235D01*
X4211320Y1906778D01*
X4185158Y1906778D01*
X4185158Y1963928D01*
X4168394Y1963928D01*
X4168394Y1828800D01*
X4185158Y1828800D01*
X4185158Y1893062D01*
X4213098Y1893062D01*
X4250182Y1828800D01*
X4269232Y1828800D01*
X4230624Y1894586D01*
X4235704Y1895957D01*
X4240479Y1897735D01*
X4244898Y1899869D01*
X4248962Y1902358D01*
X4252569Y1905203D01*
X4255770Y1908454D01*
X4258564Y1912112D01*
X4260900Y1916125D01*
X4262729Y1920544D01*
X4264050Y1925370D01*
X4264863Y1930603D01*
X4265168Y1936242D01*
X4264710Y1943455D01*
X4263440Y1949907D01*
X4261408Y1955546D01*
X4258564Y1960524D01*
X4255058Y1964791D01*
X4250842Y1968347D01*
X4246016Y1971344D01*
X4240580Y1973681D01*
X4234637Y1975459D01*
X4228134Y1976678D01*
X4221226Y1977389D01*
X4213860Y1977643D01*
G37*
G36*
X4445508Y1977643D02*
G01*
X4445508Y1828800D01*
X4461256Y1828800D01*
X4461205Y1916125D01*
X4460849Y1927555D01*
X4459224Y1955546D01*
X4460240Y1955546D01*
X4476496Y1925066D01*
X4532376Y1828800D01*
X4549902Y1828800D01*
X4549902Y1977643D01*
X4533900Y1977643D01*
X4533950Y1891385D01*
X4535017Y1867916D01*
X4536186Y1850643D01*
X4535170Y1850643D01*
X4519168Y1881124D01*
X4462780Y1977643D01*
G37*
G36*
X3722115Y2221484D02*
G01*
X3716324Y2221280D01*
X3710736Y2220620D01*
X3705301Y2219553D01*
X3700068Y2218080D01*
X3695090Y2216150D01*
X3690315Y2213864D01*
X3685794Y2211222D01*
X3681526Y2208123D01*
X3677513Y2204720D01*
X3673805Y2200910D01*
X3670350Y2196744D01*
X3667201Y2192223D01*
X3664407Y2187397D01*
X3661968Y2182215D01*
X3659835Y2176678D01*
X3658057Y2170887D01*
X3656634Y2164740D01*
X3655618Y2158288D01*
X3655009Y2151532D01*
X3654806Y2144522D01*
X3655009Y2137410D01*
X3655618Y2130653D01*
X3656584Y2124151D01*
X3657955Y2118004D01*
X3659682Y2112162D01*
X3661765Y2106625D01*
X3664204Y2101443D01*
X3666947Y2096566D01*
X3669995Y2092096D01*
X3673348Y2087930D01*
X3677005Y2084171D01*
X3680968Y2080768D01*
X3685184Y2077720D01*
X3689654Y2075078D01*
X3694328Y2072792D01*
X3699256Y2070912D01*
X3704437Y2069490D01*
X3709771Y2068423D01*
X3715359Y2067763D01*
X3721100Y2067560D01*
X3728313Y2067864D01*
X3735222Y2068830D01*
X3741623Y2070354D01*
X3747617Y2072335D01*
X3753154Y2074824D01*
X3758184Y2077720D01*
X3762654Y2081022D01*
X3766565Y2084578D01*
X3766565Y2146300D01*
X3718560Y2146300D01*
X3718560Y2132330D01*
X3750818Y2132330D01*
X3750818Y2091689D01*
X3745382Y2087778D01*
X3738626Y2084781D01*
X3730904Y2082952D01*
X3722624Y2082292D01*
X3716731Y2082596D01*
X3711194Y2083409D01*
X3705961Y2084781D01*
X3701084Y2086660D01*
X3696614Y2089048D01*
X3692448Y2091943D01*
X3688638Y2095296D01*
X3685235Y2099157D01*
X3682187Y2103424D01*
X3679545Y2108149D01*
X3677310Y2113280D01*
X3675430Y2118817D01*
X3673957Y2124760D01*
X3672941Y2131060D01*
X3672281Y2137765D01*
X3672078Y2144776D01*
X3672281Y2151786D01*
X3672992Y2158441D01*
X3674059Y2164740D01*
X3675634Y2170633D01*
X3677564Y2176170D01*
X3679901Y2181250D01*
X3682644Y2185924D01*
X3685743Y2190140D01*
X3689197Y2193950D01*
X3693007Y2197252D01*
X3697173Y2200097D01*
X3701643Y2202484D01*
X3706469Y2204313D01*
X3711549Y2205685D01*
X3716934Y2206498D01*
X3722624Y2206752D01*
X3733190Y2205634D01*
X3741928Y2202586D01*
X3749243Y2198065D01*
X3755390Y2192528D01*
X3764787Y2203450D01*
X3761333Y2206701D01*
X3757371Y2209901D01*
X3752900Y2212949D01*
X3747922Y2215692D01*
X3742385Y2218029D01*
X3736238Y2219858D01*
X3729482Y2221077D01*
G37*
G36*
X3399028Y2218944D02*
G01*
X3399028Y2070100D01*
X3485896Y2070100D01*
X3485896Y2084324D01*
X3415792Y2084324D01*
X3415792Y2141474D01*
X3472942Y2141474D01*
X3472942Y2155698D01*
X3415792Y2155698D01*
X3415792Y2204720D01*
X3483610Y2204720D01*
X3483610Y2218944D01*
G37*
G36*
X3517646Y2218944D02*
G01*
X3517646Y2070100D01*
X3533394Y2070100D01*
X3533343Y2157425D01*
X3531362Y2196846D01*
X3532378Y2196846D01*
X3548634Y2166366D01*
X3604514Y2070100D01*
X3622040Y2070100D01*
X3622040Y2218944D01*
X3606037Y2218944D01*
X3606088Y2132685D01*
X3607155Y2109216D01*
X3608324Y2091943D01*
X3607308Y2091943D01*
X3591051Y2122424D01*
X3534918Y2218944D01*
G37*
G36*
X3802379Y2218944D02*
G01*
X3802379Y2070100D01*
X3819398Y2070100D01*
X3819398Y2218944D01*
G37*
G36*
X3860800Y2218944D02*
G01*
X3860800Y2070100D01*
X3876548Y2070100D01*
X3876497Y2157425D01*
X3876141Y2168855D01*
X3874515Y2196846D01*
X3875532Y2196846D01*
X3891787Y2166366D01*
X3947668Y2070100D01*
X3965194Y2070100D01*
X3965194Y2218944D01*
X3949192Y2218944D01*
X3949242Y2132685D01*
X3950309Y2109216D01*
X3951478Y2091943D01*
X3950462Y2091943D01*
X3934460Y2122424D01*
X3878072Y2218944D01*
G37*
G36*
X4006596Y2218944D02*
G01*
X4006596Y2070100D01*
X4093718Y2070100D01*
X4093718Y2084324D01*
X4023614Y2084324D01*
X4023614Y2141474D01*
X4080764Y2141474D01*
X4080764Y2155698D01*
X4023614Y2155698D01*
X4023614Y2204720D01*
X4091432Y2204720D01*
X4091432Y2218944D01*
G37*
G36*
X4125468Y2218944D02*
G01*
X4125468Y2070100D01*
X4212336Y2070100D01*
X4212336Y2084324D01*
X4142232Y2084324D01*
X4142232Y2141474D01*
X4199382Y2141474D01*
X4199382Y2155698D01*
X4142232Y2155698D01*
X4142232Y2204720D01*
X4210050Y2204720D01*
X4210050Y2218944D01*
G37*
G36*
X4244086Y2218944D02*
G01*
X4244086Y2205228D01*
X4287012Y2205228D01*
X4295444Y2204872D01*
X4302861Y2203754D01*
X4309211Y2201824D01*
X4314494Y2199030D01*
X4318660Y2195220D01*
X4321657Y2190445D01*
X4323486Y2184552D01*
X4324096Y2177542D01*
X4323486Y2170582D01*
X4321657Y2164588D01*
X4318660Y2159508D01*
X4314494Y2155393D01*
X4309211Y2152192D01*
X4302861Y2149906D01*
X4295444Y2148535D01*
X4287012Y2148078D01*
X4260850Y2148078D01*
X4260850Y2205228D01*
X4244086Y2205228D01*
X4244086Y2070100D01*
X4260850Y2070100D01*
X4260850Y2134362D01*
X4288790Y2134362D01*
X4325874Y2070100D01*
X4344924Y2070100D01*
X4306316Y2135886D01*
X4311396Y2137257D01*
X4316171Y2139035D01*
X4320590Y2141169D01*
X4324654Y2143658D01*
X4328261Y2146503D01*
X4331462Y2149754D01*
X4334256Y2153412D01*
X4336592Y2157425D01*
X4338421Y2161844D01*
X4339742Y2166670D01*
X4340555Y2171903D01*
X4340860Y2177542D01*
X4340402Y2184755D01*
X4339132Y2191207D01*
X4337100Y2196846D01*
X4334256Y2201824D01*
X4330750Y2206091D01*
X4326534Y2209647D01*
X4321708Y2212644D01*
X4316272Y2214981D01*
X4310329Y2216759D01*
X4303826Y2217978D01*
X4296918Y2218690D01*
X4289552Y2218944D01*
G37*
G36*
X4371340Y2218944D02*
G01*
X4371340Y2070100D01*
X4458462Y2070100D01*
X4458462Y2084324D01*
X4388358Y2084324D01*
X4388358Y2141474D01*
X4445508Y2141474D01*
X4445508Y2155698D01*
X4388358Y2155698D01*
X4388358Y2204720D01*
X4456176Y2204720D01*
X4456176Y2218944D01*
G37*
G36*
X4490212Y2218944D02*
G01*
X4490212Y2204974D01*
X4525264Y2204974D01*
X4531817Y2204720D01*
X4537913Y2203958D01*
X4543602Y2202688D01*
X4548835Y2200960D01*
X4553661Y2198725D01*
X4558080Y2196033D01*
X4562043Y2192883D01*
X4565599Y2189276D01*
X4568698Y2185212D01*
X4571390Y2180742D01*
X4573676Y2175814D01*
X4575556Y2170480D01*
X4576978Y2164689D01*
X4578045Y2158542D01*
X4578654Y2151989D01*
X4578858Y2145030D01*
X4578654Y2138121D01*
X4578045Y2131517D01*
X4576978Y2125319D01*
X4575556Y2119477D01*
X4573676Y2114042D01*
X4571390Y2109012D01*
X4568698Y2104390D01*
X4565599Y2100224D01*
X4562043Y2096465D01*
X4558080Y2093214D01*
X4553661Y2090369D01*
X4548835Y2088083D01*
X4543602Y2086203D01*
X4537913Y2084882D01*
X4531817Y2084070D01*
X4525264Y2083816D01*
X4506976Y2083816D01*
X4506976Y2204974D01*
X4490212Y2204974D01*
X4490212Y2070100D01*
X4527296Y2070100D01*
X4533900Y2070303D01*
X4540199Y2070912D01*
X4546193Y2071979D01*
X4551832Y2073402D01*
X4557115Y2075230D01*
X4562094Y2077466D01*
X4566716Y2080056D01*
X4571034Y2083003D01*
X4575048Y2086356D01*
X4578654Y2090064D01*
X4581956Y2094077D01*
X4584903Y2098446D01*
X4587544Y2103170D01*
X4589780Y2108250D01*
X4591710Y2113584D01*
X4593285Y2119274D01*
X4594555Y2125268D01*
X4595418Y2131568D01*
X4595926Y2138172D01*
X4596130Y2145030D01*
X4595926Y2151888D01*
X4595418Y2158441D01*
X4594555Y2164740D01*
X4593285Y2170684D01*
X4591710Y2176272D01*
X4589780Y2181606D01*
X4587494Y2186584D01*
X4584903Y2191258D01*
X4581906Y2195525D01*
X4578604Y2199538D01*
X4574946Y2203145D01*
X4570933Y2206396D01*
X4566615Y2209292D01*
X4561941Y2211832D01*
X4556912Y2213965D01*
X4551527Y2215743D01*
X4545838Y2217115D01*
X4539843Y2218131D01*
X4533493Y2218740D01*
X4526788Y2218944D01*
G37*
G36*
X4681728Y2206244D02*
G01*
X4681728Y2192782D01*
X4722368Y2192782D01*
X4730851Y2192426D01*
X4738268Y2191410D01*
X4744516Y2189632D01*
X4749698Y2187092D01*
X4753711Y2183638D01*
X4756607Y2179269D01*
X4758334Y2173986D01*
X4758944Y2167636D01*
X4758436Y2162098D01*
X4756810Y2157120D01*
X4754067Y2152802D01*
X4750155Y2149144D01*
X4744974Y2146198D01*
X4738471Y2144014D01*
X4730597Y2142693D01*
X4721352Y2142236D01*
X4698492Y2142236D01*
X4698492Y2192782D01*
X4681728Y2192782D01*
X4681728Y2129282D01*
X4725416Y2129282D01*
X4731918Y2129078D01*
X4737912Y2128570D01*
X4743399Y2127656D01*
X4748377Y2126335D01*
X4752797Y2124659D01*
X4756708Y2122576D01*
X4760061Y2120138D01*
X4762804Y2117242D01*
X4764989Y2113940D01*
X4766564Y2110282D01*
X4767529Y2106117D01*
X4767834Y2101596D01*
X4767478Y2096516D01*
X4766513Y2091893D01*
X4764938Y2087778D01*
X4762703Y2084120D01*
X4759909Y2080971D01*
X4756505Y2078228D01*
X4752594Y2075942D01*
X4748123Y2074113D01*
X4743196Y2072639D01*
X4737709Y2071674D01*
X4731816Y2071065D01*
X4725416Y2070862D01*
X4698492Y2070862D01*
X4698492Y2129282D01*
X4681728Y2129282D01*
X4681728Y2057400D01*
X4727956Y2057400D01*
X4734052Y2057552D01*
X4739944Y2058060D01*
X4745532Y2058924D01*
X4750816Y2060092D01*
X4755794Y2061616D01*
X4760417Y2063496D01*
X4764684Y2065731D01*
X4768596Y2068271D01*
X4772152Y2071166D01*
X4775250Y2074367D01*
X4777943Y2077923D01*
X4780229Y2081834D01*
X4782007Y2086051D01*
X4783277Y2090674D01*
X4784090Y2095550D01*
X4784344Y2100834D01*
X4783734Y2108047D01*
X4782058Y2114499D01*
X4779365Y2120138D01*
X4775708Y2125014D01*
X4771186Y2129129D01*
X4765903Y2132431D01*
X4759909Y2134920D01*
X4753356Y2136648D01*
X4753356Y2137410D01*
X4758385Y2139594D01*
X4762804Y2142439D01*
X4766614Y2145842D01*
X4769713Y2149805D01*
X4772202Y2154275D01*
X4773980Y2159101D01*
X4775098Y2164232D01*
X4775454Y2169668D01*
X4775047Y2175814D01*
X4773777Y2181352D01*
X4771745Y2186330D01*
X4769002Y2190648D01*
X4765497Y2194458D01*
X4761382Y2197658D01*
X4756607Y2200351D01*
X4751273Y2202535D01*
X4745329Y2204161D01*
X4738928Y2205329D01*
X4732020Y2206040D01*
X4724654Y2206244D01*
G37*
G36*
X4790440Y2206244D02*
G01*
X4835144Y2115820D01*
X4835144Y2057400D01*
X4851654Y2057400D01*
X4851654Y2115820D01*
X4896358Y2206244D01*
X4879086Y2206244D01*
X4859020Y2163064D01*
X4851806Y2146909D01*
X4844034Y2130552D01*
X4843272Y2130552D01*
X4835448Y2146909D01*
X4808220Y2206244D01*
G37*
G36*
X1839366Y8495284D02*
G01*
X1833930Y8495080D01*
X1828698Y8494420D01*
X1823618Y8493353D01*
X1818741Y8491880D01*
X1814068Y8490000D01*
X1809597Y8487765D01*
X1805381Y8485073D01*
X1801368Y8482076D01*
X1797659Y8478621D01*
X1794205Y8474862D01*
X1791004Y8470747D01*
X1788109Y8466277D01*
X1785518Y8461451D01*
X1783232Y8456269D01*
X1781251Y8450834D01*
X1779625Y8445042D01*
X1778355Y8438896D01*
X1777390Y8432495D01*
X1776831Y8425789D01*
X1776628Y8418830D01*
X1793900Y8418830D01*
X1794103Y8425789D01*
X1794764Y8432444D01*
X1795780Y8438692D01*
X1797151Y8444534D01*
X1798929Y8450021D01*
X1801063Y8455101D01*
X1803552Y8459774D01*
X1806346Y8463991D01*
X1809496Y8467750D01*
X1812950Y8471052D01*
X1816658Y8473897D01*
X1820722Y8476284D01*
X1824989Y8478113D01*
X1829562Y8479485D01*
X1834337Y8480298D01*
X1839366Y8480552D01*
X1844446Y8480298D01*
X1849272Y8479485D01*
X1853895Y8478113D01*
X1858213Y8476284D01*
X1862277Y8473897D01*
X1866036Y8471052D01*
X1869490Y8467750D01*
X1872640Y8463991D01*
X1875434Y8459774D01*
X1877923Y8455101D01*
X1880057Y8450021D01*
X1881835Y8444534D01*
X1883257Y8438692D01*
X1884273Y8432444D01*
X1884883Y8425789D01*
X1885086Y8418830D01*
X1884883Y8411870D01*
X1884273Y8405215D01*
X1883257Y8398916D01*
X1881835Y8392972D01*
X1880057Y8387384D01*
X1877923Y8382253D01*
X1875434Y8377478D01*
X1872640Y8373160D01*
X1869490Y8369300D01*
X1866036Y8365896D01*
X1862277Y8362950D01*
X1858213Y8360562D01*
X1853895Y8358631D01*
X1849272Y8357209D01*
X1844446Y8356396D01*
X1839366Y8356092D01*
X1834337Y8356396D01*
X1829562Y8357209D01*
X1824989Y8358631D01*
X1820722Y8360562D01*
X1816658Y8362950D01*
X1812950Y8365896D01*
X1809496Y8369300D01*
X1806346Y8373160D01*
X1803552Y8377478D01*
X1801063Y8382253D01*
X1798929Y8387384D01*
X1797151Y8392972D01*
X1795780Y8398916D01*
X1794764Y8405215D01*
X1794103Y8411870D01*
X1793900Y8418830D01*
X1776628Y8418830D01*
X1776831Y8411819D01*
X1777390Y8405114D01*
X1778355Y8398662D01*
X1779625Y8392515D01*
X1781251Y8386673D01*
X1783232Y8381136D01*
X1785518Y8375954D01*
X1788109Y8371027D01*
X1791004Y8366506D01*
X1794205Y8362289D01*
X1797659Y8358428D01*
X1801368Y8354974D01*
X1805381Y8351824D01*
X1809597Y8349132D01*
X1814068Y8346795D01*
X1818741Y8344865D01*
X1823618Y8343341D01*
X1828698Y8342223D01*
X1833930Y8341563D01*
X1839366Y8341359D01*
X1844852Y8341563D01*
X1850136Y8342223D01*
X1855266Y8343341D01*
X1860194Y8344865D01*
X1864868Y8346795D01*
X1869338Y8349132D01*
X1873605Y8351824D01*
X1877568Y8354974D01*
X1881327Y8358428D01*
X1884781Y8362289D01*
X1887982Y8366506D01*
X1890877Y8371027D01*
X1893468Y8375954D01*
X1895754Y8381136D01*
X1897735Y8386673D01*
X1899361Y8392515D01*
X1900682Y8398662D01*
X1901596Y8405114D01*
X1902206Y8411819D01*
X1902358Y8418830D01*
X1902206Y8425789D01*
X1901596Y8432495D01*
X1900682Y8438896D01*
X1899361Y8445042D01*
X1897735Y8450834D01*
X1895754Y8456269D01*
X1893468Y8461451D01*
X1890877Y8466277D01*
X1887982Y8470747D01*
X1884781Y8474862D01*
X1881327Y8478621D01*
X1877568Y8482076D01*
X1873605Y8485073D01*
X1869338Y8487765D01*
X1864868Y8490000D01*
X1860194Y8491880D01*
X1855266Y8493353D01*
X1850136Y8494420D01*
X1844852Y8495080D01*
G37*
G36*
X1206144Y8492744D02*
G01*
X1206144Y8343900D01*
X1222908Y8343900D01*
X1222908Y8415020D01*
X1294536Y8415020D01*
X1294536Y8343900D01*
X1311554Y8343900D01*
X1311554Y8492744D01*
X1294536Y8492744D01*
X1294536Y8429752D01*
X1222908Y8429752D01*
X1222908Y8492744D01*
G37*
G36*
X1352702Y8492744D02*
G01*
X1352702Y8343900D01*
X1369720Y8343900D01*
X1369720Y8492744D01*
G37*
G36*
X1411122Y8492744D02*
G01*
X1411122Y8343900D01*
X1427886Y8343900D01*
X1427886Y8391906D01*
X1454556Y8423402D01*
X1500276Y8343900D01*
X1519072Y8343900D01*
X1465224Y8436356D01*
X1511960Y8492744D01*
X1492656Y8492744D01*
X1428394Y8416036D01*
X1427886Y8416036D01*
X1427886Y8492744D01*
G37*
G36*
X1523136Y8492744D02*
G01*
X1523136Y8478520D01*
X1568348Y8478520D01*
X1568348Y8343900D01*
X1585366Y8343900D01*
X1585366Y8478520D01*
X1630832Y8478520D01*
X1630832Y8492744D01*
G37*
G36*
X1658010Y8492744D02*
G01*
X1658010Y8479028D01*
X1700936Y8479028D01*
X1709420Y8478672D01*
X1716836Y8477554D01*
X1723186Y8475624D01*
X1728470Y8472830D01*
X1732584Y8469020D01*
X1735582Y8464245D01*
X1737410Y8458352D01*
X1738020Y8451342D01*
X1737410Y8444382D01*
X1735582Y8438388D01*
X1732584Y8433308D01*
X1728470Y8429193D01*
X1723186Y8425992D01*
X1716836Y8423706D01*
X1709420Y8422335D01*
X1700936Y8421878D01*
X1674774Y8421878D01*
X1674774Y8479028D01*
X1658010Y8479028D01*
X1658010Y8343900D01*
X1674774Y8343900D01*
X1674774Y8408162D01*
X1702714Y8408162D01*
X1739798Y8343900D01*
X1758848Y8343900D01*
X1720240Y8409686D01*
X1725371Y8411057D01*
X1730146Y8412835D01*
X1734566Y8414969D01*
X1738579Y8417458D01*
X1742236Y8420303D01*
X1745437Y8423554D01*
X1748231Y8427212D01*
X1750517Y8431225D01*
X1752346Y8435644D01*
X1753717Y8440470D01*
X1754530Y8445703D01*
X1754784Y8451342D01*
X1754378Y8458555D01*
X1753107Y8465007D01*
X1751025Y8470646D01*
X1748231Y8475624D01*
X1744675Y8479891D01*
X1740458Y8483447D01*
X1735632Y8486444D01*
X1730248Y8488781D01*
X1724253Y8490559D01*
X1717802Y8491778D01*
X1710842Y8492490D01*
X1703476Y8492744D01*
G37*
G36*
X1935124Y8492744D02*
G01*
X1935124Y8343900D01*
X1950872Y8343900D01*
X1950821Y8431225D01*
X1950516Y8442655D01*
X1948840Y8470646D01*
X1949856Y8470646D01*
X1966112Y8440166D01*
X2021992Y8343900D01*
X2039518Y8343900D01*
X2039518Y8492744D01*
X2023516Y8492744D01*
X2023567Y8406485D01*
X2024634Y8383016D01*
X2025802Y8365744D01*
X2024786Y8365744D01*
X2008784Y8396224D01*
X1952396Y8492744D01*
G37*
G36*
X3341370Y12883134D02*
G01*
X3334512Y12882930D01*
X3327958Y12882422D01*
X3321659Y12881508D01*
X3315715Y12880289D01*
X3310128Y12878663D01*
X3304794Y12876733D01*
X3299815Y12874447D01*
X3295142Y12871805D01*
X3290874Y12868808D01*
X3286912Y12865506D01*
X3283254Y12861798D01*
X3280003Y12857784D01*
X3277108Y12853416D01*
X3274567Y12848742D01*
X3272434Y12843713D01*
X3270656Y12838328D01*
X3269284Y12832638D01*
X3268268Y12826593D01*
X3267659Y12820243D01*
X3267456Y12813538D01*
X3267456Y12793980D01*
X3281426Y12793980D01*
X3281426Y12812268D01*
X3281679Y12818821D01*
X3282442Y12824917D01*
X3283712Y12830606D01*
X3285439Y12835839D01*
X3287674Y12840665D01*
X3290366Y12845084D01*
X3293516Y12849047D01*
X3297123Y12852603D01*
X3301187Y12855702D01*
X3305657Y12858394D01*
X3310585Y12860680D01*
X3315919Y12862560D01*
X3321710Y12863982D01*
X3327857Y12865049D01*
X3334410Y12865658D01*
X3341370Y12865862D01*
X3348278Y12865658D01*
X3354882Y12865049D01*
X3361080Y12863982D01*
X3366922Y12862560D01*
X3372358Y12860680D01*
X3377387Y12858394D01*
X3382010Y12855702D01*
X3386175Y12852603D01*
X3389934Y12849047D01*
X3393186Y12845084D01*
X3396030Y12840665D01*
X3398316Y12835839D01*
X3400196Y12830606D01*
X3401517Y12824917D01*
X3402329Y12818821D01*
X3402584Y12812268D01*
X3402584Y12793980D01*
X3267456Y12793980D01*
X3267456Y12776962D01*
X3416300Y12776962D01*
X3416300Y12814300D01*
X3416096Y12820904D01*
X3415487Y12827152D01*
X3414420Y12833096D01*
X3412998Y12838734D01*
X3411169Y12844018D01*
X3408934Y12848996D01*
X3406343Y12853619D01*
X3403396Y12857937D01*
X3400044Y12861950D01*
X3396386Y12865557D01*
X3392322Y12868859D01*
X3387953Y12871856D01*
X3383229Y12874498D01*
X3378149Y12876784D01*
X3372815Y12878714D01*
X3367125Y12880289D01*
X3361131Y12881508D01*
X3354832Y12882422D01*
X3348228Y12882930D01*
G37*
G36*
X3267456Y12735560D02*
G01*
X3267456Y12719558D01*
X3353714Y12719608D01*
X3377184Y12720675D01*
X3394456Y12721844D01*
X3394456Y12720828D01*
X3363976Y12704572D01*
X3267456Y12648438D01*
X3267456Y12631166D01*
X3416300Y12631166D01*
X3416300Y12646914D01*
X3328974Y12646863D01*
X3311855Y12646202D01*
X3289554Y12644882D01*
X3289554Y12645898D01*
X3320034Y12662154D01*
X3416300Y12718034D01*
X3416300Y12735560D01*
G37*
G36*
X3340100Y12595098D02*
G01*
X3340100Y12547092D01*
X3354070Y12547092D01*
X3354070Y12579604D01*
X3394710Y12579604D01*
X3398621Y12574168D01*
X3401618Y12567259D01*
X3403447Y12559436D01*
X3404108Y12551156D01*
X3403803Y12545263D01*
X3402990Y12539726D01*
X3401618Y12534493D01*
X3399739Y12529667D01*
X3397351Y12525146D01*
X3394456Y12520980D01*
X3391103Y12517221D01*
X3387242Y12513767D01*
X3382975Y12510770D01*
X3378250Y12508077D01*
X3373120Y12505842D01*
X3367582Y12503962D01*
X3361639Y12502489D01*
X3355340Y12501473D01*
X3348634Y12500813D01*
X3341624Y12500610D01*
X3334613Y12500864D01*
X3327958Y12501524D01*
X3321659Y12502642D01*
X3315766Y12504166D01*
X3310229Y12506147D01*
X3305149Y12508484D01*
X3300476Y12511227D01*
X3296259Y12514376D01*
X3292449Y12517831D01*
X3289147Y12521641D01*
X3286302Y12525806D01*
X3283915Y12530277D01*
X3282086Y12535103D01*
X3280714Y12540183D01*
X3279901Y12545517D01*
X3279648Y12551156D01*
X3280765Y12561773D01*
X3283813Y12570561D01*
X3288334Y12577876D01*
X3293872Y12583922D01*
X3282950Y12593320D01*
X3279698Y12589865D01*
X3276498Y12585954D01*
X3273450Y12581534D01*
X3270707Y12576606D01*
X3268370Y12571069D01*
X3266541Y12564973D01*
X3265322Y12558268D01*
X3264915Y12550902D01*
X3265119Y12545060D01*
X3265779Y12539421D01*
X3266846Y12533985D01*
X3268319Y12528753D01*
X3270250Y12523724D01*
X3272536Y12518948D01*
X3275177Y12514376D01*
X3278276Y12510109D01*
X3281679Y12506096D01*
X3285490Y12502337D01*
X3289655Y12498933D01*
X3294176Y12495784D01*
X3299002Y12492990D01*
X3304184Y12490500D01*
X3309721Y12488367D01*
X3315512Y12486589D01*
X3321659Y12485166D01*
X3328111Y12484150D01*
X3334867Y12483541D01*
X3341878Y12483338D01*
X3348990Y12483541D01*
X3355746Y12484150D01*
X3362248Y12485116D01*
X3368395Y12486487D01*
X3374237Y12488214D01*
X3379774Y12490297D01*
X3384956Y12492736D01*
X3389833Y12495479D01*
X3394303Y12498527D01*
X3398469Y12501930D01*
X3402228Y12505588D01*
X3405632Y12509500D01*
X3408679Y12513716D01*
X3411321Y12518186D01*
X3413607Y12522860D01*
X3415487Y12527838D01*
X3416909Y12532969D01*
X3417976Y12538354D01*
X3418636Y12543891D01*
X3418840Y12549632D01*
X3418535Y12556896D01*
X3417570Y12563754D01*
X3416046Y12570256D01*
X3414064Y12576251D01*
X3411575Y12581788D01*
X3408679Y12586817D01*
X3405378Y12591237D01*
X3401822Y12595098D01*
G37*
G36*
X3892804Y13120624D02*
G01*
X3882390Y13111226D01*
X3886250Y13107466D01*
X3889654Y13103555D01*
X3892550Y13099542D01*
X3894988Y13095274D01*
X3896918Y13090855D01*
X3898290Y13086130D01*
X3899103Y13081203D01*
X3899408Y13075919D01*
X3899103Y13070586D01*
X3898290Y13065506D01*
X3896918Y13060680D01*
X3895039Y13056158D01*
X3892651Y13051942D01*
X3889756Y13048030D01*
X3886403Y13044474D01*
X3882542Y13041223D01*
X3878275Y13038328D01*
X3873550Y13035737D01*
X3868420Y13033552D01*
X3862882Y13031724D01*
X3856939Y13030301D01*
X3850640Y13029285D01*
X3843934Y13028625D01*
X3836924Y13028421D01*
X3829913Y13028625D01*
X3823258Y13029285D01*
X3816959Y13030352D01*
X3811066Y13031876D01*
X3805529Y13033756D01*
X3800449Y13035991D01*
X3795776Y13038632D01*
X3791559Y13041579D01*
X3787749Y13044932D01*
X3784447Y13048589D01*
X3781602Y13052552D01*
X3779215Y13056819D01*
X3777386Y13061391D01*
X3776014Y13066217D01*
X3775201Y13071348D01*
X3774948Y13076682D01*
X3776014Y13085876D01*
X3778910Y13094055D01*
X3783431Y13101218D01*
X3789172Y13107416D01*
X3778250Y13116813D01*
X3774795Y13113410D01*
X3771442Y13109498D01*
X3768394Y13105130D01*
X3765702Y13100253D01*
X3763467Y13094919D01*
X3761689Y13089178D01*
X3760622Y13082981D01*
X3760215Y13076428D01*
X3760419Y13070890D01*
X3761079Y13065455D01*
X3762146Y13060222D01*
X3763619Y13055193D01*
X3765550Y13050367D01*
X3767836Y13045744D01*
X3770477Y13041376D01*
X3773576Y13037210D01*
X3776979Y13033298D01*
X3780790Y13029692D01*
X3784955Y13026339D01*
X3789476Y13023291D01*
X3794302Y13020548D01*
X3799484Y13018160D01*
X3805021Y13016077D01*
X3810812Y13014350D01*
X3816959Y13012978D01*
X3823411Y13011962D01*
X3830167Y13011353D01*
X3837178Y13011150D01*
X3844290Y13011353D01*
X3851046Y13011962D01*
X3857548Y13012928D01*
X3863695Y13014248D01*
X3869537Y13015976D01*
X3875074Y13018008D01*
X3880256Y13020395D01*
X3885133Y13023088D01*
X3889603Y13026085D01*
X3893769Y13029336D01*
X3897528Y13032892D01*
X3900932Y13036702D01*
X3903979Y13040766D01*
X3906621Y13045084D01*
X3908907Y13049605D01*
X3910787Y13054380D01*
X3912209Y13059308D01*
X3913276Y13064439D01*
X3913936Y13069722D01*
X3914140Y13075158D01*
X3913784Y13082168D01*
X3912717Y13088772D01*
X3910990Y13094969D01*
X3908602Y13100761D01*
X3905605Y13106196D01*
X3901948Y13111327D01*
X3897680Y13116102D01*
G37*
G36*
X3892804Y12997688D02*
G01*
X3882390Y12988544D01*
X3886250Y12984784D01*
X3889654Y12980873D01*
X3892550Y12976860D01*
X3894988Y12972592D01*
X3896918Y12968173D01*
X3898290Y12963448D01*
X3899103Y12958521D01*
X3899408Y12953238D01*
X3899103Y12947904D01*
X3898290Y12942824D01*
X3896918Y12937998D01*
X3895039Y12933476D01*
X3892651Y12929260D01*
X3889756Y12925348D01*
X3886403Y12921792D01*
X3882542Y12918541D01*
X3878275Y12915646D01*
X3873550Y12913055D01*
X3868420Y12910870D01*
X3862882Y12909042D01*
X3856939Y12907619D01*
X3850640Y12906603D01*
X3843934Y12905943D01*
X3836924Y12905740D01*
X3829913Y12905943D01*
X3823258Y12906603D01*
X3816959Y12907670D01*
X3811066Y12909194D01*
X3805529Y12911074D01*
X3800449Y12913309D01*
X3795776Y12915950D01*
X3791559Y12918897D01*
X3787749Y12922250D01*
X3784447Y12925907D01*
X3781602Y12929870D01*
X3779215Y12934137D01*
X3777386Y12938709D01*
X3776014Y12943535D01*
X3775201Y12948666D01*
X3774948Y12954000D01*
X3776014Y12963194D01*
X3778910Y12971373D01*
X3783431Y12978536D01*
X3789172Y12984734D01*
X3778250Y12994132D01*
X3774795Y12990677D01*
X3771442Y12986715D01*
X3768394Y12982295D01*
X3765702Y12977469D01*
X3763467Y12972186D01*
X3761689Y12966446D01*
X3760622Y12960299D01*
X3760215Y12953746D01*
X3760419Y12948208D01*
X3761079Y12942773D01*
X3762146Y12937540D01*
X3763619Y12932511D01*
X3765550Y12927685D01*
X3767836Y12923062D01*
X3770477Y12918694D01*
X3773576Y12914528D01*
X3776979Y12910616D01*
X3780790Y12907010D01*
X3784955Y12903657D01*
X3789476Y12900609D01*
X3794302Y12897866D01*
X3799484Y12895478D01*
X3805021Y12893395D01*
X3810812Y12891668D01*
X3816959Y12890296D01*
X3823411Y12889280D01*
X3830167Y12888671D01*
X3837178Y12888468D01*
X3844290Y12888671D01*
X3851046Y12889280D01*
X3857548Y12890246D01*
X3863695Y12891566D01*
X3869537Y12893294D01*
X3875074Y12895326D01*
X3880256Y12897713D01*
X3885133Y12900406D01*
X3889603Y12903403D01*
X3893769Y12906654D01*
X3897528Y12910210D01*
X3900932Y12914020D01*
X3903979Y12918084D01*
X3906621Y12922402D01*
X3908907Y12926923D01*
X3910787Y12931698D01*
X3912209Y12936626D01*
X3913276Y12941757D01*
X3913936Y12947040D01*
X3914140Y12952476D01*
X3913784Y12959486D01*
X3912717Y12966090D01*
X3910990Y12972237D01*
X3908602Y12978028D01*
X3905605Y12983464D01*
X3901948Y12988493D01*
X3897680Y12993268D01*
G37*
G36*
X3762756Y12878562D02*
G01*
X3762756Y12861544D01*
X3887673Y12824002D01*
X3894074Y12821920D01*
X3894074Y12821158D01*
X3869588Y12813741D01*
X3845051Y12806680D01*
X3762756Y12781534D01*
X3762756Y12764008D01*
X3911600Y12811760D01*
X3911600Y12831064D01*
G37*
G36*
X4660900Y12887706D02*
G01*
X4512056Y12836652D01*
X4512056Y12826746D01*
X4526280Y12826746D01*
X4526280Y12827508D01*
X4564075Y12838836D01*
X4576572Y12843002D01*
X4600702Y12850622D01*
X4600702Y12803632D01*
X4551730Y12819329D01*
X4526280Y12826746D01*
X4512056Y12826746D01*
X4512056Y12818110D01*
X4660900Y12767310D01*
X4660900Y12784328D01*
X4613910Y12799568D01*
X4613910Y12854940D01*
X4660900Y12869672D01*
G37*
G36*
X4585970Y12756642D02*
G01*
X4579112Y12756438D01*
X4572558Y12755930D01*
X4566259Y12755016D01*
X4560316Y12753797D01*
X4554728Y12752222D01*
X4549394Y12750241D01*
X4544415Y12747955D01*
X4539742Y12745313D01*
X4535474Y12742316D01*
X4531512Y12738963D01*
X4527854Y12735306D01*
X4524603Y12731292D01*
X4521708Y12726924D01*
X4519168Y12722250D01*
X4517034Y12717221D01*
X4515256Y12711836D01*
X4513884Y12706146D01*
X4512868Y12700101D01*
X4512259Y12693751D01*
X4512056Y12687046D01*
X4512056Y12667488D01*
X4526026Y12667488D01*
X4526026Y12685776D01*
X4526280Y12692329D01*
X4527042Y12698425D01*
X4528312Y12704114D01*
X4530039Y12709347D01*
X4532274Y12714173D01*
X4534966Y12718592D01*
X4538116Y12722555D01*
X4541723Y12726111D01*
X4545787Y12729210D01*
X4550257Y12731902D01*
X4555185Y12734188D01*
X4560519Y12736068D01*
X4566310Y12737490D01*
X4572457Y12738557D01*
X4579010Y12739166D01*
X4585970Y12739370D01*
X4592878Y12739166D01*
X4599482Y12738557D01*
X4605680Y12737490D01*
X4611522Y12736068D01*
X4616958Y12734188D01*
X4621987Y12731902D01*
X4626610Y12729210D01*
X4630775Y12726111D01*
X4634534Y12722555D01*
X4637786Y12718592D01*
X4640630Y12714173D01*
X4642916Y12709347D01*
X4644796Y12704114D01*
X4646117Y12698425D01*
X4646930Y12692329D01*
X4647184Y12685776D01*
X4647184Y12667488D01*
X4512056Y12667488D01*
X4512056Y12650470D01*
X4660900Y12650470D01*
X4660900Y12687808D01*
X4660696Y12694412D01*
X4660087Y12700660D01*
X4659020Y12706604D01*
X4657598Y12712242D01*
X4655769Y12717526D01*
X4653534Y12722504D01*
X4650943Y12727127D01*
X4647996Y12731445D01*
X4644644Y12735458D01*
X4640986Y12739065D01*
X4636922Y12742367D01*
X4632553Y12745364D01*
X4627829Y12748006D01*
X4622749Y12750292D01*
X4617415Y12752222D01*
X4611725Y12753797D01*
X4605731Y12755016D01*
X4599432Y12755930D01*
X4592828Y12756438D01*
G37*
G36*
X4621784Y12620752D02*
G01*
X4614062Y12620142D01*
X4607306Y12618364D01*
X4601464Y12615519D01*
X4596434Y12611760D01*
X4592116Y12607239D01*
X4588357Y12602006D01*
X4585055Y12596215D01*
X4582160Y12590018D01*
X4571085Y12564059D01*
X4566615Y12555524D01*
X4563872Y12551714D01*
X4560671Y12548412D01*
X4556861Y12545822D01*
X4552391Y12544145D01*
X4547108Y12543536D01*
X4542129Y12544094D01*
X4537659Y12545618D01*
X4533747Y12548158D01*
X4530445Y12551562D01*
X4527804Y12555728D01*
X4525873Y12560706D01*
X4524654Y12566294D01*
X4524248Y12572492D01*
X4524502Y12577673D01*
X4525264Y12582550D01*
X4526483Y12587173D01*
X4528108Y12591542D01*
X4530191Y12595656D01*
X4532630Y12599568D01*
X4535373Y12603276D01*
X4538472Y12606782D01*
X4527804Y12615672D01*
X4523943Y12611608D01*
X4520438Y12607137D01*
X4517339Y12602210D01*
X4514646Y12596926D01*
X4512513Y12591288D01*
X4510887Y12585293D01*
X4509871Y12579045D01*
X4509516Y12572492D01*
X4509871Y12566040D01*
X4510836Y12559893D01*
X4512411Y12554153D01*
X4514545Y12548819D01*
X4517288Y12543942D01*
X4520488Y12539573D01*
X4524146Y12535763D01*
X4528261Y12532563D01*
X4532782Y12529972D01*
X4537659Y12528092D01*
X4542840Y12526924D01*
X4548378Y12526518D01*
X4555947Y12527229D01*
X4562551Y12529312D01*
X4568240Y12532461D01*
X4573117Y12536474D01*
X4577283Y12541148D01*
X4580788Y12546228D01*
X4583734Y12551511D01*
X4586224Y12556744D01*
X4597958Y12583515D01*
X4600346Y12588290D01*
X4602886Y12592608D01*
X4605731Y12596368D01*
X4609033Y12599466D01*
X4612894Y12601752D01*
X4617516Y12603226D01*
X4623054Y12603734D01*
X4628540Y12603175D01*
X4633468Y12601448D01*
X4637887Y12598704D01*
X4641596Y12594945D01*
X4644593Y12590272D01*
X4646828Y12584684D01*
X4648250Y12578232D01*
X4648708Y12570968D01*
X4648352Y12565126D01*
X4647387Y12559334D01*
X4645761Y12553746D01*
X4643577Y12548311D01*
X4640884Y12543129D01*
X4637684Y12538202D01*
X4633976Y12533579D01*
X4629912Y12529312D01*
X4641342Y12519152D01*
X4646218Y12524232D01*
X4650587Y12529718D01*
X4654346Y12535611D01*
X4657547Y12541910D01*
X4660087Y12548616D01*
X4661916Y12555677D01*
X4663033Y12563144D01*
X4663440Y12570968D01*
X4663084Y12578334D01*
X4661966Y12585242D01*
X4660239Y12591592D01*
X4657852Y12597434D01*
X4654854Y12602667D01*
X4651400Y12607290D01*
X4647387Y12611303D01*
X4642967Y12614605D01*
X4638141Y12617246D01*
X4632960Y12619177D01*
X4627524Y12620345D01*
G37*
G36*
X4138676Y13128751D02*
G01*
X4138676Y13062965D01*
X4004056Y13062965D01*
X4004056Y13045948D01*
X4152900Y13045948D01*
X4152900Y13128751D01*
G37*
G36*
X4134104Y13017754D02*
G01*
X4123690Y13008356D01*
X4127550Y13004647D01*
X4130954Y13000837D01*
X4133850Y12996824D01*
X4136288Y12992658D01*
X4138218Y12988188D01*
X4139590Y12983514D01*
X4140403Y12978587D01*
X4140708Y12973304D01*
X4140403Y12967970D01*
X4139590Y12962890D01*
X4138218Y12958064D01*
X4136339Y12953542D01*
X4133951Y12949326D01*
X4131056Y12945414D01*
X4127703Y12941858D01*
X4123842Y12938607D01*
X4119575Y12935712D01*
X4114850Y12933121D01*
X4109720Y12930936D01*
X4104182Y12929108D01*
X4098239Y12927685D01*
X4091940Y12926669D01*
X4085234Y12926009D01*
X4078224Y12925806D01*
X4071213Y12926009D01*
X4064558Y12926669D01*
X4058259Y12927736D01*
X4052366Y12929260D01*
X4046829Y12931089D01*
X4041749Y12933375D01*
X4037076Y12935966D01*
X4032859Y12938963D01*
X4029049Y12942265D01*
X4025747Y12945922D01*
X4022902Y12949834D01*
X4020515Y12954101D01*
X4018686Y12958622D01*
X4017314Y12963448D01*
X4016501Y12968478D01*
X4016248Y12973812D01*
X4017314Y12983159D01*
X4020210Y12991388D01*
X4024731Y12998602D01*
X4030472Y13004800D01*
X4019550Y13014198D01*
X4016095Y13010743D01*
X4012742Y13006781D01*
X4009694Y13002361D01*
X4007002Y12997535D01*
X4004767Y12992252D01*
X4002989Y12986512D01*
X4001922Y12980365D01*
X4001515Y12973812D01*
X4001719Y12968274D01*
X4002379Y12962839D01*
X4003446Y12957606D01*
X4004919Y12952577D01*
X4006850Y12947751D01*
X4009136Y12943128D01*
X4011777Y12938760D01*
X4014876Y12934594D01*
X4018279Y12930682D01*
X4022090Y12927076D01*
X4026255Y12923723D01*
X4030776Y12920675D01*
X4035602Y12917932D01*
X4040784Y12915544D01*
X4046321Y12913461D01*
X4052112Y12911734D01*
X4058259Y12910362D01*
X4064711Y12909346D01*
X4071467Y12908737D01*
X4078478Y12908534D01*
X4085590Y12908737D01*
X4092346Y12909346D01*
X4098848Y12910312D01*
X4104995Y12911632D01*
X4110837Y12913360D01*
X4116374Y12915392D01*
X4121556Y12917779D01*
X4126433Y12920472D01*
X4130903Y12923469D01*
X4135069Y12926720D01*
X4138828Y12930276D01*
X4142232Y12934086D01*
X4145279Y12938150D01*
X4147921Y12942468D01*
X4150207Y12946989D01*
X4152087Y12951764D01*
X4153509Y12956692D01*
X4154576Y12961823D01*
X4155236Y12967106D01*
X4155440Y12972542D01*
X4155084Y12979552D01*
X4154017Y12986156D01*
X4152290Y12992303D01*
X4149902Y12998094D01*
X4146905Y13003530D01*
X4143248Y13008559D01*
X4138980Y13013334D01*
G37*
G36*
X4113784Y12887452D02*
G01*
X4106062Y12886842D01*
X4099306Y12885064D01*
X4093464Y12882219D01*
X4088434Y12878460D01*
X4084116Y12873939D01*
X4080357Y12868706D01*
X4077055Y12862915D01*
X4074160Y12856718D01*
X4063085Y12830759D01*
X4058615Y12822224D01*
X4055872Y12818414D01*
X4052671Y12815112D01*
X4048861Y12812522D01*
X4044391Y12810845D01*
X4039108Y12810236D01*
X4034129Y12810794D01*
X4029659Y12812318D01*
X4025747Y12814858D01*
X4022445Y12818262D01*
X4019804Y12822428D01*
X4017873Y12827406D01*
X4016654Y12832994D01*
X4016248Y12839192D01*
X4016501Y12844373D01*
X4017264Y12849250D01*
X4018483Y12853873D01*
X4020108Y12858242D01*
X4022191Y12862356D01*
X4024629Y12866268D01*
X4027373Y12869976D01*
X4030472Y12873482D01*
X4019804Y12882372D01*
X4015943Y12878308D01*
X4012437Y12873837D01*
X4009339Y12868910D01*
X4006646Y12863626D01*
X4004513Y12857988D01*
X4002887Y12851993D01*
X4001871Y12845745D01*
X4001515Y12839192D01*
X4001871Y12832740D01*
X4002836Y12826593D01*
X4004411Y12820853D01*
X4006545Y12815519D01*
X4009288Y12810642D01*
X4012488Y12806273D01*
X4016146Y12802463D01*
X4020261Y12799263D01*
X4024782Y12796672D01*
X4029659Y12794792D01*
X4034840Y12793624D01*
X4040378Y12793218D01*
X4047947Y12793929D01*
X4054551Y12796012D01*
X4060240Y12799161D01*
X4065117Y12803174D01*
X4069283Y12807848D01*
X4072788Y12812928D01*
X4075734Y12818211D01*
X4078224Y12823444D01*
X4089958Y12850215D01*
X4092346Y12854990D01*
X4094886Y12859308D01*
X4097731Y12863068D01*
X4101033Y12866166D01*
X4104894Y12868452D01*
X4109516Y12869926D01*
X4115054Y12870434D01*
X4120540Y12869875D01*
X4125468Y12868148D01*
X4129887Y12865404D01*
X4133596Y12861645D01*
X4136593Y12856972D01*
X4138828Y12851384D01*
X4140250Y12844932D01*
X4140708Y12837668D01*
X4140352Y12831826D01*
X4139387Y12826034D01*
X4137761Y12820446D01*
X4135577Y12815011D01*
X4132884Y12809829D01*
X4129684Y12804902D01*
X4125976Y12800279D01*
X4121912Y12796012D01*
X4133342Y12785852D01*
X4138218Y12790932D01*
X4142587Y12796418D01*
X4146346Y12802311D01*
X4149547Y12808610D01*
X4152087Y12815316D01*
X4153915Y12822377D01*
X4155033Y12829844D01*
X4155440Y12837668D01*
X4155084Y12845034D01*
X4153966Y12851942D01*
X4152239Y12858292D01*
X4149851Y12864134D01*
X4146854Y12869367D01*
X4143400Y12873990D01*
X4139387Y12878003D01*
X4134967Y12881305D01*
X4130141Y12883946D01*
X4124960Y12885877D01*
X4119524Y12887045D01*
G37*
G36*
X6214516Y8483346D02*
G01*
X6206032Y8482736D01*
X6198463Y8480958D01*
X6191910Y8478113D01*
X6186424Y8474303D01*
X6182004Y8469630D01*
X6178804Y8464194D01*
X6176873Y8458047D01*
X6176162Y8451342D01*
X6176873Y8444585D01*
X6178956Y8438642D01*
X6182309Y8433409D01*
X6186830Y8428736D01*
X6192164Y8433562D01*
X6188456Y8437321D01*
X6185763Y8441385D01*
X6184087Y8445957D01*
X6183528Y8451088D01*
X6184087Y8456269D01*
X6185763Y8460892D01*
X6188405Y8464956D01*
X6192012Y8468360D01*
X6196533Y8471052D01*
X6201867Y8473084D01*
X6207963Y8474303D01*
X6214770Y8474710D01*
X6221577Y8474303D01*
X6227673Y8473033D01*
X6232956Y8471001D01*
X6237427Y8468207D01*
X6240983Y8464753D01*
X6243624Y8460689D01*
X6245250Y8456015D01*
X6245758Y8450834D01*
X6245250Y8446160D01*
X6243828Y8442045D01*
X6241592Y8438438D01*
X6238646Y8435340D01*
X6243980Y8430514D01*
X6247485Y8434222D01*
X6250381Y8438896D01*
X6252413Y8444433D01*
X6253124Y8450834D01*
X6252464Y8457641D01*
X6250482Y8463838D01*
X6247231Y8469376D01*
X6242812Y8474151D01*
X6237224Y8478012D01*
X6230620Y8480907D01*
X6223050Y8482736D01*
G37*
G36*
X6186068Y8422132D02*
G01*
X6182410Y8418068D01*
X6179210Y8412937D01*
X6177026Y8406587D01*
X6176162Y8398764D01*
X6176619Y8394192D01*
X6177838Y8389772D01*
X6179921Y8385657D01*
X6182766Y8382050D01*
X6186424Y8379002D01*
X6190742Y8376666D01*
X6195822Y8375192D01*
X6201562Y8374634D01*
X6207353Y8375091D01*
X6212230Y8376412D01*
X6216294Y8378494D01*
X6219596Y8381238D01*
X6222085Y8384590D01*
X6223812Y8388350D01*
X6224879Y8392566D01*
X6225184Y8396986D01*
X6225032Y8400237D01*
X6224422Y8403234D01*
X6223508Y8406028D01*
X6222136Y8408670D01*
X6244742Y8406638D01*
X6244742Y8378190D01*
X6251854Y8378190D01*
X6251854Y8413750D01*
X6217310Y8416290D01*
X6214516Y8411718D01*
X6216396Y8408619D01*
X6217716Y8405672D01*
X6218580Y8402574D01*
X6218834Y8399018D01*
X6217666Y8392464D01*
X6214160Y8387435D01*
X6208674Y8384184D01*
X6201308Y8383016D01*
X6193739Y8384336D01*
X6187998Y8387842D01*
X6184341Y8393125D01*
X6183020Y8399526D01*
X6183731Y8405469D01*
X6185611Y8410448D01*
X6188303Y8414562D01*
X6191402Y8418068D01*
G37*
G36*
X6068314Y7364222D02*
G01*
X6068314Y7357364D01*
X6089650Y7357364D01*
X6097574Y7356652D01*
X6103416Y7354316D01*
X6106972Y7350099D01*
X6108192Y7343648D01*
X6106972Y7337044D01*
X6103416Y7332472D01*
X6097574Y7329779D01*
X6089650Y7328916D01*
X6076696Y7328916D01*
X6076696Y7357364D01*
X6068314Y7357364D01*
X6068314Y7289800D01*
X6076696Y7289800D01*
X6076696Y7321803D01*
X6090666Y7321803D01*
X6109208Y7289800D01*
X6118606Y7289800D01*
X6099556Y7322820D01*
X6106668Y7325410D01*
X6112103Y7329728D01*
X6115608Y7335774D01*
X6116828Y7343648D01*
X6116320Y7348931D01*
X6114897Y7353300D01*
X6112662Y7356856D01*
X6109563Y7359650D01*
X6105804Y7361732D01*
X6101384Y7363155D01*
X6096406Y7363968D01*
X6090920Y7364222D01*
G37*
G36*
X6124448Y7364222D02*
G01*
X6144768Y7328153D01*
X6122924Y7289800D01*
X6131814Y7289800D01*
X6149086Y7322566D01*
X6149594Y7322566D01*
X6167374Y7289800D01*
X6176772Y7289800D01*
X6154928Y7327900D01*
X6175248Y7364222D01*
X6166612Y7364222D01*
X6154623Y7341971D01*
X6150610Y7333742D01*
X6150102Y7333742D01*
X6133592Y7364222D01*
G37*
G36*
X6048502Y6703822D02*
G01*
X6048502Y6696709D01*
X6071108Y6696709D01*
X6071108Y6629400D01*
X6079744Y6629400D01*
X6079744Y6696709D01*
X6102350Y6696709D01*
X6102350Y6703822D01*
G37*
G36*
X6106414Y6703822D02*
G01*
X6126988Y6667753D01*
X6105144Y6629400D01*
X6113780Y6629400D01*
X6131306Y6662166D01*
X6131560Y6662166D01*
X6149594Y6629400D01*
X6158738Y6629400D01*
X6136894Y6667500D01*
X6157468Y6703822D01*
X6148578Y6703822D01*
X6136741Y6681571D01*
X6132830Y6673342D01*
X6132322Y6673342D01*
X6115812Y6703822D01*
G37*
G36*
X6232042Y8953652D02*
G01*
X6232042Y8938412D01*
X6164478Y8938412D01*
X6164478Y8932316D01*
X6166104Y8929166D01*
X6167526Y8925661D01*
X6168694Y8921699D01*
X6169558Y8917076D01*
X6174892Y8917076D01*
X6174892Y8930284D01*
X6232042Y8930284D01*
X6232042Y8913520D01*
X6238900Y8913520D01*
X6238900Y8953652D01*
G37*
G36*
X6238900Y8901582D02*
G01*
X6205880Y8882532D01*
X6203340Y8889644D01*
X6199022Y8895080D01*
X6192926Y8898585D01*
X6185052Y8899804D01*
X6179820Y8899347D01*
X6175451Y8897924D01*
X6171844Y8895638D01*
X6169050Y8892590D01*
X6166967Y8888780D01*
X6165545Y8884361D01*
X6164732Y8879382D01*
X6164478Y8873896D01*
X6164478Y8859672D01*
X6171336Y8859672D01*
X6171336Y8872626D01*
X6172047Y8880551D01*
X6174384Y8886393D01*
X6178651Y8889949D01*
X6185052Y8891168D01*
X6191656Y8889949D01*
X6196228Y8886393D01*
X6198920Y8880551D01*
X6199784Y8872626D01*
X6199784Y8859672D01*
X6164478Y8859672D01*
X6164478Y8851290D01*
X6238900Y8851290D01*
X6238900Y8859672D01*
X6206896Y8859672D01*
X6206896Y8873642D01*
X6238900Y8892184D01*
G37*
G36*
X6244488Y7812176D02*
G01*
X6244539Y7787894D01*
X6244996Y7778648D01*
X6238697Y7785201D01*
X6232550Y7791043D01*
X6226556Y7796174D01*
X6220612Y7800492D01*
X6214821Y7803946D01*
X6209080Y7806537D01*
X6203391Y7808112D01*
X6197752Y7808620D01*
X6193028Y7808264D01*
X6188760Y7807147D01*
X6185052Y7805369D01*
X6181902Y7802930D01*
X6179362Y7799831D01*
X6177483Y7796225D01*
X6176314Y7792008D01*
X6175908Y7787284D01*
X6176721Y7780883D01*
X6178905Y7775244D01*
X6182360Y7770266D01*
X6186830Y7765694D01*
X6191402Y7770520D01*
X6187998Y7773974D01*
X6185154Y7777734D01*
X6183223Y7781848D01*
X6182512Y7786268D01*
X6183680Y7792567D01*
X6186932Y7796987D01*
X6191859Y7799628D01*
X6198006Y7800492D01*
X6202984Y7799984D01*
X6208166Y7798460D01*
X6213652Y7795869D01*
X6219444Y7792212D01*
X6225540Y7787436D01*
X6232093Y7781544D01*
X6239052Y7774482D01*
X6246520Y7766202D01*
X6251600Y7766202D01*
X6251600Y7812176D01*
G37*
G36*
X6251600Y7758582D02*
G01*
X6218580Y7739532D01*
X6216040Y7746644D01*
X6211722Y7752080D01*
X6205626Y7755585D01*
X6197752Y7756804D01*
X6192520Y7756347D01*
X6188151Y7754924D01*
X6184544Y7752638D01*
X6181750Y7749590D01*
X6179667Y7745780D01*
X6178245Y7741361D01*
X6177432Y7736382D01*
X6177178Y7730896D01*
X6177178Y7716672D01*
X6184036Y7716672D01*
X6184036Y7729626D01*
X6184747Y7737551D01*
X6187084Y7743393D01*
X6191351Y7746949D01*
X6197752Y7748168D01*
X6204356Y7746949D01*
X6208928Y7743393D01*
X6211620Y7737551D01*
X6212484Y7729626D01*
X6212484Y7716672D01*
X6177178Y7716672D01*
X6177178Y7708290D01*
X6251600Y7708290D01*
X6251600Y7716672D01*
X6219596Y7716672D01*
X6219596Y7730642D01*
X6251600Y7749184D01*
G37*
G36*
X6854291Y7175753D02*
G01*
X6846468Y7174382D01*
X6840169Y7170572D01*
X6836003Y7164628D01*
X6834479Y7156958D01*
X6842099Y7156958D01*
X6842963Y7161987D01*
X6845503Y7165949D01*
X6849364Y7168489D01*
X6854291Y7169403D01*
X6859879Y7168337D01*
X6863994Y7165390D01*
X6866585Y7161022D01*
X6867499Y7155688D01*
X6866940Y7151573D01*
X6865315Y7147610D01*
X6862775Y7143851D01*
X6859371Y7140448D01*
X6852920Y7143140D01*
X6847382Y7146493D01*
X6843522Y7150963D01*
X6842099Y7156958D01*
X6834479Y7156958D01*
X6835241Y7151471D01*
X6837425Y7146848D01*
X6840575Y7142988D01*
X6844385Y7139940D01*
X6844385Y7139431D01*
X6839305Y7136130D01*
X6834936Y7131507D01*
X6831838Y7125766D01*
X6830755Y7119366D01*
X6838035Y7119366D01*
X6838848Y7124649D01*
X6841083Y7129373D01*
X6844538Y7133488D01*
X6848957Y7136892D01*
X6856628Y7133640D01*
X6863080Y7129881D01*
X6867601Y7125055D01*
X6869277Y7118350D01*
X6868159Y7113066D01*
X6865112Y7108901D01*
X6860336Y7106158D01*
X6854291Y7105142D01*
X6847890Y7106208D01*
X6842709Y7109206D01*
X6839254Y7113727D01*
X6838035Y7119366D01*
X6830755Y7119366D01*
X6831075Y7114743D01*
X6832396Y7110933D01*
X6834479Y7107580D01*
X6837324Y7104684D01*
X6840778Y7102297D01*
X6844792Y7100519D01*
X6849313Y7099452D01*
X6854291Y7099046D01*
X6863638Y7100519D01*
X6870852Y7104583D01*
X6875475Y7110628D01*
X6877151Y7118096D01*
X6876084Y7124903D01*
X6873240Y7130237D01*
X6869175Y7134402D01*
X6864451Y7137653D01*
X6864451Y7138162D01*
X6867956Y7141260D01*
X6871208Y7145477D01*
X6873646Y7150506D01*
X6874611Y7156196D01*
X6873189Y7164070D01*
X6869175Y7170267D01*
X6862825Y7174280D01*
G37*
G36*
X6772757Y7174738D02*
G01*
X6772757Y7167880D01*
X6794093Y7167880D01*
X6802018Y7167168D01*
X6807809Y7164831D01*
X6811416Y7160615D01*
X6812635Y7154164D01*
X6811416Y7147559D01*
X6807809Y7142988D01*
X6802018Y7140295D01*
X6794093Y7139431D01*
X6781139Y7139431D01*
X6781139Y7167880D01*
X6772757Y7167880D01*
X6772757Y7100316D01*
X6781139Y7100316D01*
X6781139Y7132320D01*
X6795109Y7132320D01*
X6813651Y7100316D01*
X6823049Y7100316D01*
X6803999Y7133336D01*
X6811060Y7135926D01*
X6816496Y7140244D01*
X6820001Y7146290D01*
X6821271Y7154164D01*
X6820763Y7159447D01*
X6819341Y7163816D01*
X6817055Y7167372D01*
X6814007Y7170166D01*
X6810248Y7172248D01*
X6805828Y7173671D01*
X6800850Y7174484D01*
X6795363Y7174738D01*
G37*
G36*
X6838797Y6883908D02*
G01*
X6834581Y6883450D01*
X6830720Y6882180D01*
X6827164Y6880098D01*
X6824065Y6877303D01*
X6821525Y6873849D01*
X6819595Y6869785D01*
X6818375Y6865162D01*
X6817969Y6860031D01*
X6825843Y6860031D01*
X6826808Y6867042D01*
X6829552Y6872478D01*
X6833666Y6876034D01*
X6838797Y6877303D01*
X6845553Y6875729D01*
X6850684Y6871004D01*
X6854037Y6863384D01*
X6855561Y6852920D01*
X6851700Y6848348D01*
X6847636Y6845198D01*
X6843522Y6843369D01*
X6839559Y6842759D01*
X6833514Y6843979D01*
X6829247Y6847484D01*
X6826656Y6852920D01*
X6825843Y6860031D01*
X6817969Y6860031D01*
X6818325Y6854596D01*
X6819392Y6849821D01*
X6821119Y6845808D01*
X6823456Y6842556D01*
X6826351Y6839966D01*
X6829856Y6838137D01*
X6833819Y6837019D01*
X6838289Y6836664D01*
X6843014Y6837324D01*
X6847586Y6839153D01*
X6851903Y6842150D01*
X6855815Y6846062D01*
X6855155Y6837730D01*
X6853834Y6830822D01*
X6851954Y6825234D01*
X6849567Y6820865D01*
X6846773Y6817664D01*
X6843572Y6815429D01*
X6840118Y6814210D01*
X6836511Y6813803D01*
X6832955Y6814159D01*
X6829602Y6815277D01*
X6826605Y6817106D01*
X6824065Y6819646D01*
X6819239Y6814312D01*
X6822541Y6811314D01*
X6826554Y6809028D01*
X6831279Y6807504D01*
X6836765Y6806946D01*
X6841896Y6807504D01*
X6846824Y6809231D01*
X6851345Y6812178D01*
X6855307Y6816445D01*
X6858660Y6822186D01*
X6861200Y6829450D01*
X6862825Y6838289D01*
X6863435Y6848856D01*
X6862927Y6857085D01*
X6861606Y6864197D01*
X6859422Y6870192D01*
X6856526Y6875119D01*
X6852920Y6878980D01*
X6848754Y6881723D01*
X6843979Y6883349D01*
G37*
G36*
X6760057Y6882638D02*
G01*
X6760057Y6875780D01*
X6781393Y6875780D01*
X6789318Y6875068D01*
X6795109Y6872731D01*
X6798716Y6868515D01*
X6799935Y6862064D01*
X6798716Y6855459D01*
X6795109Y6850888D01*
X6789318Y6848195D01*
X6781393Y6847331D01*
X6768439Y6847331D01*
X6768439Y6875780D01*
X6760057Y6875780D01*
X6760057Y6808216D01*
X6768439Y6808216D01*
X6768439Y6840220D01*
X6782409Y6840220D01*
X6800951Y6808216D01*
X6810349Y6808216D01*
X6791299Y6841236D01*
X6798360Y6843826D01*
X6803796Y6848144D01*
X6807301Y6854190D01*
X6808571Y6862064D01*
X6808063Y6867347D01*
X6806641Y6871716D01*
X6804355Y6875272D01*
X6801307Y6878066D01*
X6797548Y6880148D01*
X6793128Y6881571D01*
X6788150Y6882384D01*
X6782663Y6882638D01*
G37*
G36*
X2545283Y7862824D02*
G01*
X2545283Y7854442D01*
X2612847Y7854442D01*
X2612847Y7841488D01*
X2612136Y7833563D01*
X2609799Y7827721D01*
X2605532Y7824165D01*
X2599131Y7822946D01*
X2592527Y7824165D01*
X2587955Y7827721D01*
X2585262Y7833563D01*
X2584399Y7841488D01*
X2584399Y7854442D01*
X2577287Y7854442D01*
X2577287Y7840472D01*
X2545283Y7821930D01*
X2545283Y7812531D01*
X2578303Y7831581D01*
X2580894Y7824470D01*
X2585161Y7819034D01*
X2591257Y7815529D01*
X2599131Y7814309D01*
X2604363Y7814818D01*
X2608783Y7816240D01*
X2612339Y7818475D01*
X2615133Y7821574D01*
X2617216Y7825333D01*
X2618638Y7829753D01*
X2619451Y7834731D01*
X2619705Y7840218D01*
X2619705Y7862824D01*
G37*
G36*
X2545283Y7800594D02*
G01*
X2545283Y7760462D01*
X2552141Y7760462D01*
X2552141Y7775702D01*
X2619705Y7775702D01*
X2619705Y7781798D01*
X2618079Y7784947D01*
X2616657Y7788452D01*
X2615539Y7792466D01*
X2614625Y7797038D01*
X2609291Y7797038D01*
X2609291Y7783830D01*
X2552141Y7783830D01*
X2552141Y7800594D01*
G37*
G36*
X2597099Y7749286D02*
G01*
X2591663Y7748930D01*
X2586888Y7747812D01*
X2582875Y7746085D01*
X2579573Y7743698D01*
X2577033Y7740751D01*
X2575204Y7737297D01*
X2574086Y7733334D01*
X2573731Y7728966D01*
X2573937Y7727442D01*
X2579827Y7727442D01*
X2581046Y7733538D01*
X2584551Y7737805D01*
X2589987Y7740345D01*
X2597099Y7741158D01*
X2604058Y7740192D01*
X2609545Y7737449D01*
X2613101Y7733334D01*
X2614371Y7728203D01*
X2612745Y7721549D01*
X2608072Y7716469D01*
X2600452Y7713116D01*
X2589987Y7711440D01*
X2585415Y7715351D01*
X2582214Y7719466D01*
X2580386Y7723530D01*
X2579827Y7727442D01*
X2573937Y7727442D01*
X2574391Y7724089D01*
X2576220Y7719415D01*
X2579166Y7715199D01*
X2583129Y7711440D01*
X2574798Y7712100D01*
X2567889Y7713370D01*
X2562301Y7715250D01*
X2557932Y7717637D01*
X2554732Y7720431D01*
X2552496Y7723530D01*
X2551277Y7726934D01*
X2550871Y7730490D01*
X2551226Y7734046D01*
X2552344Y7737398D01*
X2554173Y7740497D01*
X2556713Y7743190D01*
X2551379Y7747762D01*
X2548382Y7744409D01*
X2546045Y7740446D01*
X2544572Y7735722D01*
X2544013Y7730236D01*
X2544572Y7725156D01*
X2546248Y7720279D01*
X2549245Y7715758D01*
X2553512Y7711744D01*
X2559253Y7708392D01*
X2566517Y7705801D01*
X2575356Y7704124D01*
X2585923Y7703566D01*
X2594152Y7704023D01*
X2601264Y7705394D01*
X2607259Y7707630D01*
X2612186Y7710525D01*
X2616047Y7714132D01*
X2618790Y7718348D01*
X2620416Y7723073D01*
X2620975Y7728203D01*
X2620518Y7732369D01*
X2619248Y7736331D01*
X2617165Y7739888D01*
X2614371Y7743037D01*
X2610916Y7745628D01*
X2606802Y7747609D01*
X2602179Y7748828D01*
G37*
D10*
X3517892Y8498078D02*
G01*
X3517892Y8304276D01*
X3647178Y8498078D02*
G01*
X3647178Y8304276D01*
X3517892Y8405876D02*
G01*
X3647178Y8405876D01*
X3708138Y8498078D02*
G01*
X3708138Y8304276D01*
X3898384Y8498078D02*
G01*
X3769098Y8304276D01*
X3769098Y8498078D02*
G01*
X3898384Y8498078D01*
X3769098Y8304276D02*
G01*
X3898384Y8304276D01*
X3959344Y8498078D02*
G01*
X3959344Y8304276D01*
X3959344Y8498078D02*
G01*
X4033258Y8304276D01*
X4107172Y8498078D02*
G01*
X4033258Y8304276D01*
X4107172Y8498078D02*
G01*
X4107172Y8304276D01*
X4223504Y8498078D02*
G01*
X4204962Y8488934D01*
X4186674Y8470392D01*
X4177276Y8451850D01*
X4168132Y8424163D01*
X4168132Y8378189D01*
X4177276Y8350250D01*
X4186674Y8331962D01*
X4204962Y8313420D01*
X4223504Y8304276D01*
X4260588Y8304276D01*
X4278876Y8313420D01*
X4297418Y8331962D01*
X4306562Y8350250D01*
X4315960Y8378189D01*
X4315960Y8424163D01*
X4306562Y8451850D01*
X4297418Y8470392D01*
X4278876Y8488934D01*
X4260588Y8498078D01*
X4223504Y8498078D01*
X4506206Y8470392D02*
G01*
X4487664Y8488934D01*
X4459978Y8498078D01*
X4423148Y8498078D01*
X4395462Y8488934D01*
X4376920Y8470392D01*
X4376920Y8451850D01*
X4386064Y8433562D01*
X4395462Y8424163D01*
X4413750Y8415020D01*
X4469122Y8396478D01*
X4487664Y8387334D01*
X4497062Y8378189D01*
X4506206Y8359647D01*
X4506206Y8331962D01*
X4487664Y8313420D01*
X4459978Y8304276D01*
X4423148Y8304276D01*
X4395462Y8313420D01*
X4376920Y8331962D01*
X5858934Y2833878D02*
G01*
X5858934Y2640076D01*
X5988220Y2833878D02*
G01*
X5988220Y2640076D01*
X5858934Y2741676D02*
G01*
X5988220Y2741676D01*
X6049180Y2833878D02*
G01*
X6049180Y2640076D01*
X6239426Y2833878D02*
G01*
X6110140Y2640076D01*
X6110140Y2833878D02*
G01*
X6239426Y2833878D01*
X6110140Y2640076D02*
G01*
X6239426Y2640076D01*
X6300386Y2833878D02*
G01*
X6300386Y2640076D01*
X6300386Y2833878D02*
G01*
X6374300Y2640076D01*
X6448214Y2833878D02*
G01*
X6374300Y2640076D01*
X6448214Y2833878D02*
G01*
X6448214Y2640076D01*
X6564546Y2833878D02*
G01*
X6546004Y2824734D01*
X6527716Y2806192D01*
X6518318Y2787650D01*
X6509174Y2759963D01*
X6509174Y2713989D01*
X6518318Y2686050D01*
X6527716Y2667762D01*
X6546004Y2649220D01*
X6564546Y2640076D01*
X6601630Y2640076D01*
X6619918Y2649220D01*
X6638460Y2667762D01*
X6647604Y2686050D01*
X6657002Y2713989D01*
X6657002Y2759963D01*
X6647604Y2787650D01*
X6638460Y2806192D01*
X6619918Y2824734D01*
X6601630Y2833878D01*
X6564546Y2833878D01*
X6847248Y2806192D02*
G01*
X6828706Y2824734D01*
X6801020Y2833878D01*
X6764190Y2833878D01*
X6736504Y2824734D01*
X6717962Y2806192D01*
X6717962Y2787650D01*
X6727106Y2769362D01*
X6736504Y2759963D01*
X6754792Y2750820D01*
X6810164Y2732278D01*
X6828706Y2723134D01*
X6838104Y2713989D01*
X6847248Y2695447D01*
X6847248Y2667762D01*
X6828706Y2649220D01*
X6801020Y2640076D01*
X6764190Y2640076D01*
X6736504Y2649220D01*
X6717962Y2667762D01*
D11*
X4546600Y12218415D02*
G01*
X4546600Y12140437D01*
X4551679Y12124944D01*
X4562093Y12114529D01*
X4577841Y12109450D01*
X4588256Y12109450D01*
X4603750Y12114529D01*
X4614163Y12124944D01*
X4619243Y12140437D01*
X4619243Y12218415D01*
X4653534Y12197587D02*
G01*
X4663947Y12202921D01*
X4679695Y12218415D01*
X4679695Y12109450D01*
X4713986Y12197587D02*
G01*
X4724400Y12202921D01*
X4739893Y12218415D01*
X4739893Y12109450D01*
X6562775Y7632776D02*
G01*
X6671741Y7632776D01*
X6562775Y7632776D02*
G01*
X6562775Y7679512D01*
X6567855Y7695006D01*
X6573189Y7700340D01*
X6583603Y7705420D01*
X6594017Y7705420D01*
X6604431Y7700340D01*
X6609511Y7695006D01*
X6614591Y7679512D01*
X6614591Y7632776D02*
G01*
X6614591Y7679512D01*
X6619925Y7695006D01*
X6625005Y7700340D01*
X6635419Y7705420D01*
X6651167Y7705420D01*
X6661581Y7700340D01*
X6666661Y7695006D01*
X6671741Y7679512D01*
X6671741Y7632776D01*
X6562775Y7770952D02*
G01*
X6567855Y7760538D01*
X6578269Y7750124D01*
X6588683Y7745044D01*
X6604431Y7739710D01*
X6630339Y7739710D01*
X6645833Y7745044D01*
X6656247Y7750124D01*
X6666661Y7760538D01*
X6671741Y7770952D01*
X6671741Y7791780D01*
X6666661Y7802194D01*
X6656247Y7812354D01*
X6645833Y7817688D01*
X6630339Y7822768D01*
X6604431Y7822768D01*
X6588683Y7817688D01*
X6578269Y7812354D01*
X6567855Y7802194D01*
X6562775Y7791780D01*
X6562775Y7770952D01*
X6562775Y7888300D02*
G01*
X6567855Y7877886D01*
X6578269Y7867472D01*
X6588683Y7862392D01*
X6604431Y7857058D01*
X6630339Y7857058D01*
X6645833Y7862392D01*
X6656247Y7867472D01*
X6666661Y7877886D01*
X6671741Y7888300D01*
X6671741Y7909128D01*
X6666661Y7919542D01*
X6656247Y7929956D01*
X6645833Y7935036D01*
X6630339Y7940370D01*
X6604431Y7940370D01*
X6588683Y7935036D01*
X6578269Y7929956D01*
X6567855Y7919542D01*
X6562775Y7909128D01*
X6562775Y7888300D01*
X6562775Y8010982D02*
G01*
X6671741Y8010982D01*
X6562775Y7974660D02*
G01*
X6562775Y8047304D01*
X6537375Y8534476D02*
G01*
X6646341Y8534476D01*
X6537375Y8534476D02*
G01*
X6537375Y8581212D01*
X6542455Y8596706D01*
X6547789Y8602040D01*
X6558203Y8607120D01*
X6568617Y8607120D01*
X6579031Y8602040D01*
X6584111Y8596706D01*
X6589191Y8581212D01*
X6589191Y8534476D01*
X6589191Y8570798D02*
G01*
X6646341Y8607120D01*
X6537375Y8641410D02*
G01*
X6646341Y8641410D01*
X6537375Y8641410D02*
G01*
X6537375Y8708974D01*
X6589191Y8641410D02*
G01*
X6589191Y8683066D01*
X6646341Y8641410D02*
G01*
X6646341Y8708974D01*
X6552869Y8815908D02*
G01*
X6542455Y8805494D01*
X6537375Y8790000D01*
X6537375Y8769172D01*
X6542455Y8753678D01*
X6552869Y8743264D01*
X6563283Y8743264D01*
X6573697Y8748344D01*
X6579031Y8753678D01*
X6584111Y8764092D01*
X6594525Y8795334D01*
X6599605Y8805494D01*
X6604939Y8810828D01*
X6615353Y8815908D01*
X6630847Y8815908D01*
X6641261Y8805494D01*
X6646341Y8790000D01*
X6646341Y8769172D01*
X6641261Y8753678D01*
X6630847Y8743264D01*
X6537375Y8850198D02*
G01*
X6646341Y8850198D01*
X6537375Y8850198D02*
G01*
X6537375Y8917762D01*
X6589191Y8850198D02*
G01*
X6589191Y8891854D01*
X6646341Y8850198D02*
G01*
X6646341Y8917762D01*
X6537375Y8988374D02*
G01*
X6646341Y8988374D01*
X6537375Y8952052D02*
G01*
X6537375Y9024950D01*
X5790691Y10466654D02*
G01*
X5780277Y10461320D01*
X5769863Y10450906D01*
X5764784Y10440492D01*
X5764784Y10419664D01*
X5769863Y10409504D01*
X5780277Y10399090D01*
X5790691Y10393756D01*
X5806440Y10388676D01*
X5832347Y10388676D01*
X5847841Y10393756D01*
X5858256Y10399090D01*
X5868670Y10409504D01*
X5873750Y10419664D01*
X5873750Y10440492D01*
X5868670Y10450906D01*
X5858256Y10461320D01*
X5847841Y10466654D01*
X5832347Y10466654D01*
X5832347Y10440492D02*
G01*
X5832347Y10466654D01*
X5764784Y10500944D02*
G01*
X5873750Y10500944D01*
X5764784Y10500944D02*
G01*
X5764784Y10547680D01*
X5769863Y10563174D01*
X5775197Y10568254D01*
X5785611Y10573588D01*
X5801106Y10573588D01*
X5811520Y10568254D01*
X5816600Y10563174D01*
X5821934Y10547680D01*
X5821934Y10500944D01*
X5764784Y10607878D02*
G01*
X5873750Y10607878D01*
X5764784Y10673410D02*
G01*
X5769863Y10662996D01*
X5780277Y10652582D01*
X5790691Y10647248D01*
X5806440Y10642168D01*
X5832347Y10642168D01*
X5847841Y10647248D01*
X5858256Y10652582D01*
X5868670Y10662996D01*
X5873750Y10673410D01*
X5873750Y10693984D01*
X5868670Y10704398D01*
X5858256Y10714812D01*
X5847841Y10720146D01*
X5832347Y10725226D01*
X5806440Y10725226D01*
X5790691Y10720146D01*
X5780277Y10714812D01*
X5769863Y10704398D01*
X5764784Y10693984D01*
X5764784Y10673410D01*
X3726941Y10935715D02*
G01*
X3716527Y10930636D01*
X3706113Y10920221D01*
X3700779Y10909808D01*
X3695700Y10894060D01*
X3695700Y10868152D01*
X3700779Y10852658D01*
X3706113Y10842244D01*
X3716527Y10831829D01*
X3726941Y10826750D01*
X3747770Y10826750D01*
X3757929Y10831829D01*
X3768343Y10842244D01*
X3773677Y10852658D01*
X3778758Y10868152D01*
X3778758Y10894060D01*
X3773677Y10909808D01*
X3768343Y10920221D01*
X3757929Y10930636D01*
X3747770Y10935715D01*
X3726941Y10935715D01*
X3813047Y10935715D02*
G01*
X3813047Y10826750D01*
X3813047Y10826750D02*
G01*
X3875531Y10826750D01*
X3909822Y10935715D02*
G01*
X3909822Y10826750D01*
X3909822Y10935715D02*
G01*
X3977386Y10935715D01*
X3909822Y10883900D02*
G01*
X3951224Y10883900D01*
X3909822Y10826750D02*
G01*
X3977386Y10826750D01*
X4011675Y10935715D02*
G01*
X4011675Y10826750D01*
X4011675Y10935715D02*
G01*
X4047997Y10935715D01*
X4063491Y10930636D01*
X4073906Y10920221D01*
X4079240Y10909808D01*
X4084320Y10894060D01*
X4084320Y10868152D01*
X4079240Y10852658D01*
X4073906Y10842244D01*
X4063491Y10831829D01*
X4047997Y10826750D01*
X4011675Y10826750D01*
D10*
X3454318Y12006153D02*
G01*
X3483528Y11929699D01*
X3512484Y12006153D02*
G01*
X3483528Y11929699D01*
X3591224Y11987865D02*
G01*
X3587414Y11995231D01*
X3580302Y12002343D01*
X3572936Y12006153D01*
X3558458Y12006153D01*
X3551092Y12002343D01*
X3543980Y11995231D01*
X3540170Y11987865D01*
X3536614Y11976943D01*
X3536614Y11958655D01*
X3540170Y11947733D01*
X3543980Y11940621D01*
X3551092Y11933255D01*
X3558458Y11929699D01*
X3572936Y11929699D01*
X3580302Y11933255D01*
X3587414Y11940621D01*
X3591224Y11947733D01*
X3669710Y11987865D02*
G01*
X3666154Y11995231D01*
X3658788Y12002343D01*
X3651422Y12006153D01*
X3636944Y12006153D01*
X3629578Y12002343D01*
X3622466Y11995231D01*
X3618656Y11987865D01*
X3615100Y11976943D01*
X3615100Y11958655D01*
X3618656Y11947733D01*
X3622466Y11940621D01*
X3629578Y11933255D01*
X3636944Y11929699D01*
X3651422Y11929699D01*
X3658788Y11933255D01*
X3666154Y11940621D01*
X3669710Y11947733D01*
X3801028Y12000565D02*
G01*
X3797472Y12007931D01*
X3790106Y12015043D01*
X3782740Y12018853D01*
X3768262Y12018853D01*
X3761150Y12015043D01*
X3753784Y12007931D01*
X3750228Y12000565D01*
X3746418Y11989643D01*
X3746418Y11971355D01*
X3750228Y11960433D01*
X3753784Y11953321D01*
X3761150Y11945955D01*
X3768262Y11942399D01*
X3782740Y11942399D01*
X3790106Y11945955D01*
X3797472Y11953321D01*
X3801028Y11960433D01*
X3801028Y11971355D01*
X3782740Y11971355D02*
G01*
X3801028Y11971355D01*
X3825158Y12018853D02*
G01*
X3825158Y11942399D01*
X3825158Y12018853D02*
G01*
X3875958Y11942399D01*
X3875958Y12018853D02*
G01*
X3875958Y11942399D01*
X3899834Y12018853D02*
G01*
X3899834Y11942399D01*
X3899834Y12018853D02*
G01*
X3925488Y12018853D01*
X3936410Y12015043D01*
X3943522Y12007931D01*
X3947332Y12000565D01*
X3950888Y11989643D01*
X3950888Y11971355D01*
X3947332Y11960433D01*
X3943522Y11953321D01*
X3936410Y11945955D01*
X3925488Y11942399D01*
X3899834Y11942399D01*
X4089572Y12007931D02*
G01*
X4082206Y12015043D01*
X4071284Y12018853D01*
X4056806Y12018853D01*
X4045884Y12015043D01*
X4038518Y12007931D01*
X4038518Y12000565D01*
X4042328Y11993199D01*
X4045884Y11989643D01*
X4053250Y11986087D01*
X4074840Y11978721D01*
X4082206Y11975165D01*
X4085762Y11971355D01*
X4089572Y11964243D01*
X4089572Y11953321D01*
X4082206Y11945955D01*
X4071284Y11942399D01*
X4056806Y11942399D01*
X4045884Y11945955D01*
X4038518Y11953321D01*
X4168058Y12000565D02*
G01*
X4164502Y12007931D01*
X4157136Y12015043D01*
X4149770Y12018853D01*
X4135292Y12018853D01*
X4128180Y12015043D01*
X4120814Y12007931D01*
X4117258Y12000565D01*
X4113448Y11989643D01*
X4113448Y11971355D01*
X4117258Y11960433D01*
X4120814Y11953321D01*
X4128180Y11945955D01*
X4135292Y11942399D01*
X4149770Y11942399D01*
X4157136Y11945955D01*
X4164502Y11953321D01*
X4168058Y11960433D01*
X4191934Y12018853D02*
G01*
X4191934Y11942399D01*
X4191934Y11942399D02*
G01*
X4235622Y11942399D01*
X4343572Y12007931D02*
G01*
X4336206Y12015043D01*
X4325284Y12018853D01*
X4310806Y12018853D01*
X4299884Y12015043D01*
X4292518Y12007931D01*
X4292518Y12000565D01*
X4296328Y11993199D01*
X4299884Y11989643D01*
X4307250Y11986087D01*
X4328840Y11978721D01*
X4336206Y11975165D01*
X4339762Y11971355D01*
X4343572Y11964243D01*
X4343572Y11953321D01*
X4336206Y11945955D01*
X4325284Y11942399D01*
X4310806Y11942399D01*
X4299884Y11945955D01*
X4292518Y11953321D01*
X4367448Y12018853D02*
G01*
X4367448Y11942399D01*
X4367448Y12018853D02*
G01*
X4392848Y12018853D01*
X4403770Y12015043D01*
X4411136Y12007931D01*
X4414692Y12000565D01*
X4418502Y11989643D01*
X4418502Y11971355D01*
X4414692Y11960433D01*
X4411136Y11953321D01*
X4403770Y11945955D01*
X4392848Y11942399D01*
X4367448Y11942399D01*
X4471588Y12018853D02*
G01*
X4442378Y11942399D01*
X4471588Y12018853D02*
G01*
X4500544Y11942399D01*
X4453300Y11967799D02*
G01*
X4489622Y11967799D01*
D12*
X1248023Y10021747D02*
G01*
X1296537Y10040279D01*
X1248023Y10058567D02*
G01*
X1296537Y10040279D01*
X1259453Y10108605D02*
G01*
X1254881Y10106322D01*
X1250309Y10101752D01*
X1248023Y10096924D01*
X1248023Y10087775D01*
X1250309Y10083205D01*
X1254881Y10078636D01*
X1259453Y10076352D01*
X1266565Y10073807D01*
X1277995Y10073807D01*
X1284853Y10076352D01*
X1289679Y10078636D01*
X1294251Y10083205D01*
X1296537Y10087775D01*
X1296537Y10096924D01*
X1294251Y10101752D01*
X1289679Y10106322D01*
X1284853Y10108605D01*
X1259453Y10158384D02*
G01*
X1254881Y10156101D01*
X1250309Y10151531D01*
X1248023Y10146962D01*
X1248023Y10137569D01*
X1250309Y10132984D01*
X1254881Y10128417D01*
X1259453Y10126131D01*
X1266565Y10123848D01*
X1277995Y10123848D01*
X1284853Y10126131D01*
X1289679Y10128417D01*
X1294251Y10132984D01*
X1296537Y10137569D01*
X1296537Y10146962D01*
X1294251Y10151531D01*
X1289679Y10156101D01*
X1284853Y10158384D01*
X1384447Y10056281D02*
G01*
X1379875Y10053998D01*
X1375303Y10049431D01*
X1373017Y10044864D01*
X1373017Y10035707D01*
X1375303Y10030881D01*
X1379875Y10026312D01*
X1384447Y10024031D01*
X1391559Y10021747D01*
X1402989Y10021747D01*
X1409847Y10024031D01*
X1414673Y10026312D01*
X1419245Y10030881D01*
X1421531Y10035707D01*
X1421531Y10044864D01*
X1419245Y10049431D01*
X1414673Y10053998D01*
X1409847Y10056281D01*
X1402989Y10056281D01*
X1402989Y10044864D02*
G01*
X1402989Y10056281D01*
X1373017Y10071524D02*
G01*
X1421531Y10071524D01*
X1373017Y10071524D02*
G01*
X1373017Y10087775D01*
X1375303Y10094640D01*
X1379875Y10099207D01*
X1384447Y10101752D01*
X1391559Y10104036D01*
X1402989Y10104036D01*
X1409847Y10101752D01*
X1414673Y10099207D01*
X1419245Y10094640D01*
X1421531Y10087775D01*
X1421531Y10071524D01*
X1373017Y10132984D02*
G01*
X1375303Y10128417D01*
X1379875Y10123848D01*
X1384447Y10121562D01*
X1391559Y10119281D01*
X1402989Y10119281D01*
X1409847Y10121562D01*
X1414673Y10123848D01*
X1419245Y10128417D01*
X1421531Y10132984D01*
X1421531Y10142397D01*
X1419245Y10146962D01*
X1414673Y10151531D01*
X1409847Y10153817D01*
X1402989Y10156101D01*
X1391559Y10156101D01*
X1384447Y10153817D01*
X1379875Y10151531D01*
X1375303Y10146962D01*
X1373017Y10142397D01*
X1373017Y10132984D01*
X1373017Y10185323D02*
G01*
X1375303Y10178214D01*
X1382161Y10173629D01*
X1393845Y10171346D01*
X1400703Y10171346D01*
X1412133Y10173629D01*
X1419245Y10178214D01*
X1421531Y10185323D01*
X1421531Y10189890D01*
X1419245Y10196746D01*
X1412133Y10201328D01*
X1400703Y10203614D01*
X1393845Y10203614D01*
X1382161Y10201328D01*
X1375303Y10196746D01*
X1373017Y10189890D01*
X1373017Y10185323D01*
X1509466Y10056281D02*
G01*
X1504894Y10053998D01*
X1500322Y10049431D01*
X1498036Y10044864D01*
X1498036Y10035707D01*
X1500322Y10030881D01*
X1504894Y10026312D01*
X1509466Y10024031D01*
X1516578Y10021747D01*
X1528008Y10021747D01*
X1534866Y10024031D01*
X1539692Y10026312D01*
X1544264Y10030881D01*
X1546550Y10035707D01*
X1546550Y10044864D01*
X1544264Y10049431D01*
X1539692Y10053998D01*
X1534866Y10056281D01*
X1504894Y10104036D02*
G01*
X1500322Y10099207D01*
X1498036Y10092357D01*
X1498036Y10083205D01*
X1500322Y10076352D01*
X1504894Y10071524D01*
X1509466Y10071524D01*
X1514292Y10073807D01*
X1516578Y10076352D01*
X1518864Y10080922D01*
X1523436Y10094640D01*
X1525722Y10099207D01*
X1528008Y10101752D01*
X1532580Y10104036D01*
X1539692Y10104036D01*
X1544264Y10099207D01*
X1546550Y10092357D01*
X1546550Y10083205D01*
X1544264Y10076352D01*
X1539692Y10071524D01*
X1498036Y10119281D02*
G01*
X1546550Y10119281D01*
X1498036Y10119281D02*
G01*
X1546550Y10151531D01*
X1498036Y10151531D02*
G01*
X1546550Y10151531D01*
X1629887Y10054023D02*
G01*
X1625315Y10049454D01*
X1623029Y10042591D01*
X1623029Y10033190D01*
X1625315Y10026335D01*
X1629887Y10021763D01*
X1634459Y10021763D01*
X1639285Y10024054D01*
X1641571Y10026335D01*
X1643857Y10030907D01*
X1648429Y10044879D01*
X1650715Y10049454D01*
X1653001Y10051735D01*
X1657573Y10054023D01*
X1664685Y10054023D01*
X1669257Y10049454D01*
X1671543Y10042591D01*
X1671543Y10033190D01*
X1669257Y10026335D01*
X1664685Y10021763D01*
X1634459Y10104059D02*
G01*
X1629887Y10101775D01*
X1625315Y10096949D01*
X1623029Y10092380D01*
X1623029Y10083228D01*
X1625315Y10078659D01*
X1629887Y10073833D01*
X1634459Y10071549D01*
X1641571Y10069263D01*
X1653001Y10069263D01*
X1659859Y10071549D01*
X1664685Y10073833D01*
X1669257Y10078659D01*
X1671543Y10083228D01*
X1671543Y10092380D01*
X1669257Y10096949D01*
X1664685Y10101775D01*
X1659859Y10104059D01*
X1623029Y10119304D02*
G01*
X1671543Y10119304D01*
X1623029Y10151557D02*
G01*
X1655287Y10119304D01*
X1643857Y10130723D02*
G01*
X1671543Y10151557D01*
X1748048Y10021750D02*
G01*
X1796562Y10021750D01*
X1748048Y10021750D02*
G01*
X1796562Y10040282D01*
X1748048Y10058567D02*
G01*
X1796562Y10040282D01*
X1748048Y10058567D02*
G01*
X1796562Y10058567D01*
X1748048Y10087775D02*
G01*
X1750334Y10083208D01*
X1754906Y10078636D01*
X1759478Y10076352D01*
X1766590Y10073810D01*
X1778020Y10073810D01*
X1784878Y10076352D01*
X1789704Y10078636D01*
X1794276Y10083208D01*
X1796562Y10087775D01*
X1796562Y10096926D01*
X1794276Y10101752D01*
X1789704Y10106324D01*
X1784878Y10108608D01*
X1778020Y10110891D01*
X1766590Y10110891D01*
X1759478Y10108608D01*
X1754906Y10106324D01*
X1750334Y10101752D01*
X1748048Y10096926D01*
X1748048Y10087775D01*
X1754906Y10158384D02*
G01*
X1750334Y10153817D01*
X1748048Y10146962D01*
X1748048Y10137569D01*
X1750334Y10130701D01*
X1754906Y10126134D01*
X1759478Y10126134D01*
X1764304Y10128417D01*
X1766590Y10130701D01*
X1768876Y10135285D01*
X1773448Y10149250D01*
X1775734Y10153817D01*
X1778020Y10156101D01*
X1782592Y10158384D01*
X1789704Y10158384D01*
X1794276Y10153817D01*
X1796562Y10146962D01*
X1796562Y10137569D01*
X1794276Y10130701D01*
X1789704Y10126134D01*
X1748048Y10173632D02*
G01*
X1796562Y10173632D01*
X1873041Y10021747D02*
G01*
X1921555Y10021747D01*
X1873041Y10021747D02*
G01*
X1921555Y10040279D01*
X1873041Y10058567D02*
G01*
X1921555Y10040279D01*
X1873041Y10058567D02*
G01*
X1921555Y10058567D01*
X1873041Y10073807D02*
G01*
X1921555Y10073807D01*
X1879899Y10121562D02*
G01*
X1875327Y10116997D01*
X1873041Y10109885D01*
X1873041Y10100731D01*
X1875327Y10093881D01*
X1879899Y10089052D01*
X1884471Y10089052D01*
X1889297Y10091597D01*
X1891583Y10093881D01*
X1893869Y10098448D01*
X1898441Y10112169D01*
X1900727Y10116997D01*
X1903013Y10119281D01*
X1907585Y10121562D01*
X1914697Y10121562D01*
X1919269Y10116997D01*
X1921555Y10109885D01*
X1921555Y10100731D01*
X1919269Y10093881D01*
X1914697Y10089052D01*
X1873041Y10150528D02*
G01*
X1875327Y10145946D01*
X1879899Y10141374D01*
X1884471Y10139090D01*
X1891583Y10136807D01*
X1903013Y10136807D01*
X1909871Y10139090D01*
X1914697Y10141374D01*
X1919269Y10145946D01*
X1921555Y10150528D01*
X1921555Y10159923D01*
X1919269Y10164490D01*
X1914697Y10169057D01*
X1909871Y10171346D01*
X1903013Y10173629D01*
X1891583Y10173629D01*
X1884471Y10171346D01*
X1879899Y10169057D01*
X1875327Y10164490D01*
X1873041Y10159923D01*
X1873041Y10150528D01*
X2009465Y10056301D02*
G01*
X2004893Y10054018D01*
X2000321Y10049451D01*
X1998035Y10044879D01*
X1998035Y10035730D01*
X2000321Y10030901D01*
X2004893Y10026335D01*
X2009465Y10024051D01*
X2016577Y10021763D01*
X2028007Y10021763D01*
X2034865Y10024051D01*
X2039691Y10026335D01*
X2044263Y10030901D01*
X2046549Y10035730D01*
X2046549Y10044879D01*
X2044263Y10049451D01*
X2039691Y10054018D01*
X2034865Y10056301D01*
X2028007Y10056301D01*
X2028007Y10044879D02*
G01*
X2028007Y10056301D01*
X1998035Y10071547D02*
G01*
X2046549Y10071547D01*
X1998035Y10071547D02*
G01*
X1998035Y10087795D01*
X2000321Y10094661D01*
X2004893Y10099230D01*
X2009465Y10101775D01*
X2016577Y10104059D01*
X2028007Y10104059D01*
X2034865Y10101775D01*
X2039691Y10099230D01*
X2044263Y10094661D01*
X2046549Y10087795D01*
X2046549Y10071547D01*
X1998035Y10133007D02*
G01*
X2000321Y10128440D01*
X2004893Y10123871D01*
X2009465Y10121585D01*
X2016577Y10119301D01*
X2028007Y10119301D01*
X2034865Y10121585D01*
X2039691Y10123871D01*
X2044263Y10128440D01*
X2046549Y10133007D01*
X2046549Y10142413D01*
X2044263Y10146985D01*
X2039691Y10151551D01*
X2034865Y10153840D01*
X2028007Y10156123D01*
X2016577Y10156123D01*
X2009465Y10153840D01*
X2004893Y10151551D01*
X2000321Y10146985D01*
X1998035Y10142413D01*
X1998035Y10133007D01*
X2009465Y10173649D02*
G01*
X2007179Y10173649D01*
X2002607Y10175935D01*
X2000321Y10178229D01*
X1998035Y10183045D01*
X1998035Y10192197D01*
X2000321Y10196766D01*
X2002607Y10199049D01*
X2007179Y10201335D01*
X2011751Y10201335D01*
X2016577Y10199049D01*
X2023435Y10194480D01*
X2046549Y10171366D01*
X2046549Y10203629D01*
X2134458Y10056281D02*
G01*
X2129886Y10053998D01*
X2125314Y10049431D01*
X2123028Y10044864D01*
X2123028Y10035707D01*
X2125314Y10030881D01*
X2129886Y10026312D01*
X2134458Y10024031D01*
X2141570Y10021747D01*
X2153000Y10021747D01*
X2159858Y10024031D01*
X2164684Y10026312D01*
X2169256Y10030881D01*
X2171542Y10035707D01*
X2171542Y10044864D01*
X2169256Y10049431D01*
X2164684Y10053998D01*
X2159858Y10056281D01*
X2153000Y10056281D01*
X2153000Y10044864D02*
G01*
X2153000Y10056281D01*
X2123028Y10071524D02*
G01*
X2171542Y10071524D01*
X2123028Y10071524D02*
G01*
X2171542Y10104036D01*
X2123028Y10104036D02*
G01*
X2171542Y10104036D01*
X2123028Y10119281D02*
G01*
X2171542Y10119281D01*
X2123028Y10119281D02*
G01*
X2123028Y10135285D01*
X2125314Y10142397D01*
X2129886Y10146962D01*
X2134458Y10149248D01*
X2141570Y10151531D01*
X2153000Y10151531D01*
X2159858Y10149248D01*
X2164684Y10146962D01*
X2169256Y10142397D01*
X2171542Y10135285D01*
X2171542Y10119281D01*
X1254356Y11564896D02*
G01*
X1302872Y11546354D01*
X1254356Y11564896D02*
G01*
X1302872Y11583184D01*
X1286621Y11553212D02*
G01*
X1286621Y11576324D01*
X1254356Y11598422D02*
G01*
X1302872Y11598422D01*
X1254356Y11598422D02*
G01*
X1302872Y11630936D01*
X1254356Y11630936D02*
G01*
X1302872Y11630936D01*
X1254356Y11662178D02*
G01*
X1302872Y11662178D01*
X1254356Y11646174D02*
G01*
X1254356Y11678434D01*
D13*
X4470400Y12725400D02*
G01*
X4470400Y12471400D01*
X3454400Y12471400D01*
X3454400Y12725400D01*
X4470400Y12725400D01*
D14*
X5452531Y4861316D02*
G01*
X5452531Y4851420D01*
X4792131Y4851420D01*
X5452531Y5311302D02*
G01*
X5452531Y5026522D01*
X4792131Y5476511D02*
G01*
X4792131Y5486420D01*
X5452531Y5486420D01*
X5452531Y5476509D01*
X4792131Y5026525D02*
G01*
X4792131Y5311300D01*
X4792131Y4851420D02*
G01*
X4792131Y4861313D01*
X4258731Y4937516D02*
G01*
X4258731Y4927620D01*
X3598331Y4927620D01*
X4258731Y5387502D02*
G01*
X4258731Y5102722D01*
X3598331Y5552711D02*
G01*
X3598331Y5562620D01*
X4258731Y5562620D01*
X4258731Y5552709D01*
X3598331Y5102725D02*
G01*
X3598331Y5387500D01*
X3598331Y4927620D02*
G01*
X3598331Y4937513D01*
X3296318Y6629397D02*
G01*
X3306213Y6629397D01*
X3306213Y5968997D01*
X2846331Y6629397D02*
G01*
X3131111Y6629397D01*
X2681122Y5968997D02*
G01*
X2671213Y5968997D01*
X2671213Y6629397D01*
X2681124Y6629397D01*
X3131108Y5968997D02*
G01*
X2846334Y5968997D01*
X3306213Y5968997D02*
G01*
X3296320Y5968997D01*
X5201318Y6616697D02*
G01*
X5211213Y6616697D01*
X5211213Y5956297D01*
X4751331Y6616697D02*
G01*
X5036111Y6616697D01*
X4586122Y5956297D02*
G01*
X4576213Y5956297D01*
X4576213Y6616697D01*
X4586124Y6616697D01*
X5036108Y5956297D02*
G01*
X4751334Y5956297D01*
X5211213Y5956297D02*
G01*
X5201320Y5956297D01*
X4248818Y6629397D02*
G01*
X4258713Y6629397D01*
X4258713Y5968997D01*
X3798831Y6629397D02*
G01*
X4083611Y6629397D01*
X3633622Y5968997D02*
G01*
X3623713Y5968997D01*
X3623713Y6629397D01*
X3633624Y6629397D01*
X4083608Y5968997D02*
G01*
X3798834Y5968997D01*
X4258713Y5968997D02*
G01*
X4248820Y5968997D01*
X4271431Y6994916D02*
G01*
X4271431Y6985020D01*
X3611031Y6985020D01*
X4271431Y7444902D02*
G01*
X4271431Y7160122D01*
X3611031Y7610111D02*
G01*
X3611031Y7620020D01*
X4271431Y7620020D01*
X4271431Y7610109D01*
X3611031Y7160125D02*
G01*
X3611031Y7444900D01*
X3611031Y6985020D02*
G01*
X3611031Y6994913D01*
X6741581Y7449487D02*
G01*
X6741581Y7429500D01*
X6881281Y7429500D01*
X6741581Y8120712D02*
G01*
X6741581Y8140700D01*
X6881281Y8140700D01*
X6995581Y8006986D02*
G01*
X6995581Y7563213D01*
X6741581Y7595715D02*
G01*
X6741581Y7974484D01*
X7095581Y7935099D02*
G01*
X6995581Y7935099D01*
X7095581Y7635100D02*
G01*
X7095581Y7935099D01*
X6995581Y7635100D02*
G01*
X7095581Y7635100D01*
X6741581Y7926981D02*
G01*
X6741581Y7643210D01*
X6741581Y8414687D02*
G01*
X6741581Y8394700D01*
X6881281Y8394700D01*
X6741581Y9085912D02*
G01*
X6741581Y9105900D01*
X6881281Y9105900D01*
X6995581Y8972186D02*
G01*
X6995581Y8528413D01*
X6741581Y8560915D02*
G01*
X6741581Y8939684D01*
X7095581Y8900299D02*
G01*
X6995581Y8900299D01*
X7095581Y8600300D02*
G01*
X7095581Y8900299D01*
X6995581Y8600300D02*
G01*
X7095581Y8600300D01*
X6741581Y8892181D02*
G01*
X6741581Y8608410D01*
D11*
X6469994Y8251680D02*
G01*
X6469994Y8392680D01*
X6289273Y8392680D02*
G01*
X6289273Y8251680D01*
X6304513Y8236440D02*
G01*
X6454754Y8236440D01*
X6469994Y8613919D02*
G01*
X6469994Y8472919D01*
X6289273Y8472919D02*
G01*
X6289273Y8613919D01*
X6304513Y8629159D02*
G01*
X6454754Y8629159D01*
D14*
X6132934Y7201565D02*
G01*
X6092934Y7161565D01*
X6082934Y7151565D01*
X6092934Y7141540D01*
X6132934Y7101540D01*
X6132934Y7201565D02*
G01*
X6132934Y7101540D01*
X6157257Y7049838D02*
G01*
X6312197Y7049838D01*
X6312197Y7253038D01*
X6157257Y7253038D01*
X6078517Y7047298D02*
G01*
X5931197Y7047298D01*
X5890557Y7087938D01*
X5890557Y7214938D01*
X5928657Y7253038D01*
X6081057Y7253038D01*
X6132934Y6896765D02*
G01*
X6092934Y6856765D01*
X6082934Y6846765D01*
X6092934Y6836740D01*
X6132934Y6796740D01*
X6132934Y6896765D02*
G01*
X6132934Y6796740D01*
X6157257Y6745038D02*
G01*
X6312197Y6745038D01*
X6312197Y6948238D01*
X6157257Y6948238D01*
X6078517Y6742498D02*
G01*
X5931197Y6742498D01*
X5890557Y6783138D01*
X5890557Y6910138D01*
X5928657Y6948238D01*
X6081057Y6948238D01*
X6392334Y11582400D02*
G01*
X7027334Y11582400D01*
X6392334Y9296400D02*
G01*
X7027334Y9296400D01*
X6392334Y9550400D02*
G01*
X7027334Y9550400D01*
X6392334Y9804400D02*
G01*
X7027334Y9804400D01*
X6392334Y10058400D02*
G01*
X7027334Y10058400D01*
X6392334Y10312400D02*
G01*
X7027334Y10312400D01*
X6392334Y10566400D02*
G01*
X7027334Y10566400D01*
X6392334Y10820400D02*
G01*
X7027334Y10820400D01*
X6392334Y11074400D02*
G01*
X7027334Y11074400D01*
X6392334Y11328400D02*
G01*
X7027334Y11328400D01*
X6138334Y9169400D02*
G01*
X6138334Y11709400D01*
X6392334Y11709400D01*
X6392334Y9169400D01*
X6138334Y9169400D01*
X6551500Y12055198D02*
G01*
X6551500Y11983900D01*
X6496499Y11983900D01*
X6356845Y12223899D02*
G01*
X6470154Y12223899D01*
X6102845Y12223899D02*
G01*
X6216154Y12223899D01*
X6021501Y12055198D02*
G01*
X6021501Y11978899D01*
X6086500Y11978899D01*
X1671934Y8099610D02*
G01*
X1671934Y8123999D01*
X1671934Y7779611D02*
G01*
X1671934Y7968388D01*
X2171928Y7648389D02*
G01*
X2171928Y7624000D01*
X1671934Y7624000D01*
X1671934Y7648389D01*
X2171928Y7968388D02*
G01*
X2171928Y7779611D01*
X1671934Y8123999D02*
G01*
X2171928Y8123999D01*
X2171928Y8099610D01*
X3289218Y9093281D02*
G01*
X3289218Y9474281D01*
X4635418Y9474281D01*
X4635418Y9105981D01*
X4508418Y9105981D01*
X3454400Y12331700D02*
G01*
X3454400Y12077700D01*
X4470400Y12077700D01*
X4470400Y12331700D01*
X3454400Y12331700D01*
X2213935Y12425583D02*
G01*
X5732927Y12425583D01*
X5732927Y9096583D01*
X2213935Y9096583D01*
X2213935Y12425583D01*
X2705094Y11684005D02*
G01*
X5257794Y11684005D01*
X5257794Y9817105D01*
X2705094Y9817105D01*
X2705094Y11684005D01*
D11*
X6471343Y8912219D02*
G01*
X6471343Y9040713D01*
X6287924Y9040713D01*
X6287924Y8912219D01*
X6471343Y8816980D02*
G01*
X6471343Y8688486D01*
X6287924Y8688486D01*
X6287924Y8816980D01*
X6484043Y7769219D02*
G01*
X6484043Y7897713D01*
X6300624Y7897713D01*
X6300624Y7769219D01*
X6484043Y7673980D02*
G01*
X6484043Y7545486D01*
X6300624Y7545486D01*
X6300624Y7673980D01*
X6617754Y7058461D02*
G01*
X6746247Y7058461D01*
X6746247Y7241880D01*
X6617754Y7241880D01*
X6522514Y7058461D02*
G01*
X6394020Y7058461D01*
X6394020Y7241880D01*
X6522514Y7241880D01*
X6605054Y6753661D02*
G01*
X6733547Y6753661D01*
X6733547Y6937080D01*
X6605054Y6937080D01*
X6509814Y6753661D02*
G01*
X6381320Y6753661D01*
X6381320Y6937080D01*
X6509814Y6937080D01*
D15*
X2275654Y7780426D02*
G01*
X2275654Y7648422D01*
X2482664Y7648422D01*
X2482664Y7780426D01*
X2275654Y7893634D02*
G01*
X2275654Y8025637D01*
X2482664Y8025637D01*
X2482664Y7893634D01*
D14*
X1096434Y9812604D02*
G01*
X1198034Y9812604D01*
X2302934Y9812604D02*
G01*
X2226734Y9812604D01*
X2302934Y11912600D02*
G01*
X1375834Y11912600D01*
X1096434Y11912600D02*
G01*
X1172634Y11912600D01*
X2302934Y11912600D02*
G01*
X2302934Y9812604D01*
X1096434Y11912600D02*
G01*
X1096434Y9812604D01*
D11*
G75*
G01*
X6289274Y8251680D02*
G03*
X6304514Y8236440I15240J0D01*
G75*
G01*
X6454755Y8236440D02*
G03*
X6469995Y8251680I0J15240D01*
G75*
G01*
X6289274Y8613920D02*
G02*
X6304514Y8629160I15240J0D01*
G75*
G01*
X6454755Y8629160D02*
G02*
X6469995Y8613920I0J-15240D01*
D14*
G75*
G01*
X6086500Y11978899D02*
G03*
X6496558Y11983796I203077J165908D01*
G75*
G01
X5372354Y4943932D02*
G03X5372354Y4943932I-50013J0D01*
G75*
G01
X4972355Y4943932D02*
G03X4972355Y4943932I-50013J0D01*
G75*
G01
X5372354Y5393919D02*
G03X5372354Y5393919I-50013J0D01*
G75*
G01
X4972355Y5393919D02*
G03X4972355Y5393919I-50013J0D01*
G75*
G01
X5301945Y5168925D02*
G03X5301945Y5168925I-179603J0D01*
G75*
G01
X4178529Y5020132D02*
G03X4178529Y5020132I-50013J0D01*
G75*
G01
X3778555Y5020132D02*
G03X3778555Y5020132I-50013J0D01*
G75*
G01
X4178529Y5470119D02*
G03X4178529Y5470119I-50013J0D01*
G75*
G01
X3778555Y5470119D02*
G03X3778555Y5470119I-50013J0D01*
G75*
G01
X4108145Y5245125D02*
G03X4108145Y5245125I-179603J0D01*
G75*
G01
X3263722Y6499174D02*
G03X3263722Y6499174I-50013J0D01*
G75*
G01
X3263722Y6099175D02*
G03X3263722Y6099175I-50013J0D01*
G75*
G01
X2813736Y6499174D02*
G03X2813736Y6499174I-50013J0D01*
G75*
G01
X2813736Y6099175D02*
G03X2813736Y6099175I-50013J0D01*
G75*
G01
X3168320Y6299175D02*
G03X3168320Y6299175I-179603J0D01*
G75*
G01
X5168722Y6486474D02*
G03X5168722Y6486474I-50013J0D01*
G75*
G01
X5168722Y6086475D02*
G03X5168722Y6086475I-50013J0D01*
G75*
G01
X4718736Y6486474D02*
G03X4718736Y6486474I-50013J0D01*
G75*
G01
X4718736Y6086475D02*
G03X4718736Y6086475I-50013J0D01*
G75*
G01
X5073320Y6286475D02*
G03X5073320Y6286475I-179603J0D01*
G75*
G01
X4216222Y6499174D02*
G03X4216222Y6499174I-50013J0D01*
G75*
G01
X4216222Y6099175D02*
G03X4216222Y6099175I-50013J0D01*
G75*
G01
X3766236Y6499174D02*
G03X3766236Y6499174I-50013J0D01*
G75*
G01
X3766236Y6099175D02*
G03X3766236Y6099175I-50013J0D01*
G75*
G01
X4120820Y6299175D02*
G03X4120820Y6299175I-179603J0D01*
G75*
G01
X4191229Y7077532D02*
G03X4191229Y7077532I-50013J0D01*
G75*
G01
X3791255Y7077532D02*
G03X3791255Y7077532I-50013J0D01*
G75*
G01
X4191229Y7527519D02*
G03X4191229Y7527519I-50013J0D01*
G75*
G01
X3791255Y7527519D02*
G03X3791255Y7527519I-50013J0D01*
G75*
G01
X4120845Y7302525D02*
G03X4120845Y7302525I-179603J0D01*
G75*
G01
X2101952Y7874000D02*
G03X2101952Y7874000I-180010J0D01*
G75*
G01
X2606091Y12179300D02*
G03X2606091Y12179300I-154991J0D01*
G75*
G01
X5632399Y12179706D02*
G03X5632399Y12179706I-154991J0D01*
G75*
G01
X2602382Y9339707D02*
G03X2602382Y9339707I-154991J0D01*
G75*
G01
X5632399Y9339707D02*
G03X5632399Y9339707I-154991J0D01*
M02*
