G04 Layer: TopLayer*
G04 EasyEDA v6.5.54, 2026-02-09 07:30:50*
G04 5af00af584fd4601be098027c279b521,a7a8ca7e30f1466fbda1f9f7b9e91330,10*
G04 Gerber Generator version 0.2*
G04 Scale: 100 percent, Rotated: No, Reflected: No *
G04 Dimensions in millimeters *
G04 leading zeros omitted , absolute positions ,4 integer and 5 decimal *
%FSLAX45Y45*%
%MOMM*%

%AMMACRO1*21,1,$1,$2,0,0,$3*%
%ADD10C,0.3000*%
%ADD11C,0.4000*%
%ADD12C,0.2540*%
%ADD13C,0.6000*%
%ADD14C,0.8000*%
%ADD15C,0.5000*%
%ADD16R,1.8000X1.2000*%
%ADD17R,1.2000X1.8000*%
%ADD18R,1.3000X1.0000*%
%ADD19R,0.0175X1.0000*%
%ADD20R,1.1000X1.5000*%
%ADD21MACRO1,1.35X1.41X0.0000*%
%ADD22R,1.3500X1.4100*%
%ADD23MACRO1,1X1.3995X0.0000*%
%ADD24R,1.0000X1.3995*%
%ADD25R,1.2000X0.8500*%
%ADD26MACRO1,1.377X1.1325X0.0000*%
%ADD27R,1.3770X1.1325*%
%ADD28MACRO1,1.377X1.1325X90.0000*%
%ADD29R,1.4500X1.1600*%
%ADD30R,1.1989X3.0000*%
%ADD31R,0.8000X3.0000*%
%ADD32MACRO1,1.35X4.2X0.0000*%
%ADD33O,1.699997X2.499995*%
%ADD34C,1.8000*%
%ADD35MACRO1,1.8X1.8X90.0000*%
%ADD36C,1.5240*%
%ADD37C,1.6500*%
%ADD38O,0.999998X1.799996*%
%ADD39O,0.999998X2.099996*%
%ADD40C,1.6000*%
%ADD41C,0.7000*%
%ADD42C,0.6100*%
%ADD43C,0.6200*%

%LPD*%
G36*
X2121814Y7359548D02*
G01*
X2117750Y7360107D01*
X2114245Y7362240D01*
X2111857Y7365644D01*
X2110994Y7369657D01*
X2110994Y7594092D01*
X2110181Y7602575D01*
X2107844Y7610246D01*
X2104085Y7617307D01*
X2098649Y7623860D01*
X2094230Y7628280D01*
X2091994Y7631785D01*
X2091283Y7635849D01*
X2092248Y7639862D01*
X2094788Y7643164D01*
X2098395Y7645196D01*
X2102510Y7645603D01*
X2125573Y7645603D01*
X2125573Y7686395D01*
X2074418Y7686395D01*
X2071166Y7683246D01*
X2066950Y7681823D01*
X2062480Y7682331D01*
X2058670Y7684719D01*
X2055215Y7688173D01*
X2047239Y7693761D01*
X2038400Y7697876D01*
X2029002Y7700416D01*
X2019300Y7701280D01*
X2009597Y7700416D01*
X2004314Y7698994D01*
X2000605Y7698740D01*
X1997049Y7699756D01*
X1994154Y7702042D01*
X1992223Y7705191D01*
X1991512Y7708849D01*
X1994306Y8541918D01*
X1995068Y8545779D01*
X1997303Y8549081D01*
X2154580Y8706408D01*
X2159914Y8713470D01*
X2163673Y8721039D01*
X2165959Y8729167D01*
X2166823Y8738057D01*
X2166823Y9385858D01*
X2167585Y9389719D01*
X2169769Y9393021D01*
X2173071Y9395256D01*
X2176983Y9396018D01*
X2180844Y9395256D01*
X2184146Y9393021D01*
X2467559Y9109659D01*
X2469743Y9106357D01*
X2470505Y9102445D01*
X2470505Y8030413D01*
X2469845Y8026704D01*
X2467813Y8023504D01*
X2464816Y8021269D01*
X2461158Y8020303D01*
X2451049Y8021421D01*
X2307183Y8021421D01*
X2300884Y8020710D01*
X2295398Y8018780D01*
X2290521Y8015681D01*
X2286406Y8011617D01*
X2283358Y8006689D01*
X2281072Y8000187D01*
X2278938Y7996681D01*
X2275535Y7994243D01*
X2271471Y7993430D01*
X2258009Y7993430D01*
X2254097Y7994192D01*
X2250795Y7996377D01*
X2248611Y7999679D01*
X2247849Y8003590D01*
X2247849Y8075930D01*
X2247138Y8082229D01*
X2245207Y8087715D01*
X2242159Y8092592D01*
X2238044Y8096707D01*
X2233168Y8099806D01*
X2227681Y8101685D01*
X2221382Y8102396D01*
X2102510Y8102396D01*
X2096160Y8101685D01*
X2090724Y8099806D01*
X2085797Y8096707D01*
X2081733Y8092592D01*
X2078634Y8087715D01*
X2076754Y8082229D01*
X2076043Y8075930D01*
X2076043Y7992059D01*
X2076754Y7985759D01*
X2078634Y7980273D01*
X2081733Y7975396D01*
X2085797Y7971281D01*
X2090724Y7968234D01*
X2096160Y7966303D01*
X2100834Y7965186D01*
X2103577Y7963255D01*
X2105558Y7960461D01*
X2106523Y7957159D01*
X2106879Y7953756D01*
X2107895Y7949133D01*
X2109368Y7944459D01*
X2111248Y7939938D01*
X2113483Y7935620D01*
X2116124Y7931505D01*
X2119071Y7927644D01*
X2122525Y7923885D01*
X2148332Y7898130D01*
X2152091Y7894675D01*
X2155952Y7891729D01*
X2160066Y7889087D01*
X2164384Y7886852D01*
X2168855Y7884972D01*
X2173528Y7883499D01*
X2178304Y7882432D01*
X2183130Y7881823D01*
X2188210Y7881569D01*
X2271471Y7881569D01*
X2275535Y7880756D01*
X2278938Y7878318D01*
X2281072Y7874812D01*
X2283358Y7868310D01*
X2286406Y7863382D01*
X2290521Y7859318D01*
X2295398Y7856220D01*
X2300884Y7854289D01*
X2307183Y7853578D01*
X2451049Y7853578D01*
X2461158Y7854696D01*
X2464816Y7853730D01*
X2467813Y7851495D01*
X2469845Y7848295D01*
X2470505Y7844586D01*
X2470505Y7827213D01*
X2469845Y7823504D01*
X2467813Y7820304D01*
X2464816Y7818069D01*
X2461158Y7817103D01*
X2451049Y7818221D01*
X2307183Y7818221D01*
X2300884Y7817510D01*
X2295398Y7815580D01*
X2290521Y7812481D01*
X2286406Y7808417D01*
X2283358Y7803489D01*
X2281428Y7798053D01*
X2280716Y7791754D01*
X2280716Y7676845D01*
X2281428Y7670546D01*
X2283358Y7665110D01*
X2286406Y7660182D01*
X2290521Y7656118D01*
X2295398Y7653020D01*
X2300884Y7651089D01*
X2307183Y7650378D01*
X2330348Y7650378D01*
X2334260Y7649616D01*
X2337562Y7647431D01*
X2339746Y7644130D01*
X2340508Y7640218D01*
X2340508Y7579664D01*
X2339746Y7575803D01*
X2337562Y7572502D01*
X2132380Y7367320D01*
X2129028Y7363206D01*
X2125827Y7360615D01*
G37*

%LPC*%
G36*
X2198268Y7645603D02*
G01*
X2221382Y7645603D01*
X2227681Y7646314D01*
X2233168Y7648194D01*
X2238044Y7651292D01*
X2242159Y7655407D01*
X2245207Y7660284D01*
X2247138Y7665770D01*
X2247849Y7672070D01*
X2247849Y7686395D01*
X2198268Y7686395D01*
G37*
G36*
X2076043Y7741615D02*
G01*
X2125573Y7741615D01*
X2125573Y7782407D01*
X2102510Y7782407D01*
X2096160Y7781696D01*
X2090724Y7779766D01*
X2085797Y7776718D01*
X2081733Y7772603D01*
X2078634Y7767726D01*
X2076754Y7762240D01*
X2076043Y7755940D01*
G37*
G36*
X2198268Y7741615D02*
G01*
X2247849Y7741615D01*
X2247849Y7755940D01*
X2247138Y7762240D01*
X2245207Y7767726D01*
X2242159Y7772603D01*
X2238044Y7776718D01*
X2233168Y7779766D01*
X2227681Y7781696D01*
X2221382Y7782407D01*
X2198268Y7782407D01*
G37*

%LPD*%
G36*
X3199790Y2540508D02*
G01*
X3195878Y2541270D01*
X3192576Y2543505D01*
X3189528Y2546502D01*
X3187293Y2550007D01*
X3186582Y2554122D01*
X3187598Y2558135D01*
X3190138Y2561437D01*
X3193796Y2563418D01*
X3196996Y2564384D01*
X3203651Y2567940D01*
X3209899Y2573070D01*
X5080304Y4443526D01*
X5085435Y4449724D01*
X5088991Y4456430D01*
X5091176Y4463643D01*
X5091988Y4471670D01*
X5091988Y4949494D01*
X5092649Y4953152D01*
X5094681Y4956352D01*
X5101437Y4963668D01*
X5106924Y4972100D01*
X5110937Y4981295D01*
X5113426Y4991049D01*
X5114239Y5001056D01*
X5113426Y5011115D01*
X5110937Y5020868D01*
X5106924Y5030063D01*
X5101437Y5038496D01*
X5094630Y5045862D01*
X5086654Y5052060D01*
X5077815Y5056835D01*
X5068316Y5060086D01*
X5058410Y5061762D01*
X5048351Y5061762D01*
X5038445Y5060086D01*
X5028946Y5056835D01*
X5020106Y5052060D01*
X5012131Y5045862D01*
X5005324Y5038496D01*
X4999837Y5030063D01*
X4995824Y5020868D01*
X4993335Y5011115D01*
X4992522Y5001056D01*
X4993335Y4991049D01*
X4995824Y4981295D01*
X4999837Y4972100D01*
X5005324Y4963668D01*
X5012080Y4956352D01*
X5014061Y4953203D01*
X5014772Y4949494D01*
X5014772Y4491380D01*
X5014010Y4487468D01*
X5011775Y4484166D01*
X3308553Y2780944D01*
X3305301Y2778760D01*
X3301390Y2777998D01*
X3297529Y2778760D01*
X3294227Y2780944D01*
X3291992Y2784246D01*
X3291230Y2788158D01*
X3291230Y4406036D01*
X3291687Y4409084D01*
X3293059Y4411878D01*
X3299155Y4420565D01*
X3303320Y4429455D01*
X3305860Y4438954D01*
X3306724Y4448708D01*
X3305860Y4458512D01*
X3303320Y4468012D01*
X3299155Y4476902D01*
X3293516Y4484979D01*
X3286556Y4491939D01*
X3278530Y4497527D01*
X3269640Y4501692D01*
X3260140Y4504232D01*
X3250336Y4505096D01*
X3240532Y4504232D01*
X3231032Y4501692D01*
X3224530Y4498644D01*
X3220567Y4497730D01*
X3216605Y4498390D01*
X3213150Y4500575D01*
X3210864Y4503877D01*
X3210052Y4507839D01*
X3210052Y5052110D01*
X3209290Y5060137D01*
X3208426Y5065420D01*
X3209239Y5075682D01*
X3208426Y5085689D01*
X3205937Y5095443D01*
X3201924Y5104638D01*
X3196437Y5113070D01*
X3189630Y5120487D01*
X3181654Y5126634D01*
X3172815Y5131409D01*
X3163316Y5134711D01*
X3153410Y5136337D01*
X3143351Y5136337D01*
X3133445Y5134711D01*
X3123946Y5131409D01*
X3115106Y5126634D01*
X3107131Y5120487D01*
X3100324Y5113070D01*
X3094837Y5104638D01*
X3090824Y5095443D01*
X3088335Y5085689D01*
X3087522Y5075682D01*
X3088335Y5065674D01*
X3090824Y5055920D01*
X3094837Y5046726D01*
X3100324Y5038293D01*
X3107131Y5030876D01*
X3115106Y5024729D01*
X3123946Y5019954D01*
X3125978Y5019243D01*
X3129584Y5017109D01*
X3131972Y5013706D01*
X3132836Y5009642D01*
X3132836Y4368901D01*
X3131921Y4364634D01*
X3129280Y4361129D01*
X3125368Y4359097D01*
X3120999Y4358843D01*
X3112109Y4360367D01*
X3105200Y4360367D01*
X3101340Y4361129D01*
X3098038Y4363313D01*
X2952800Y4508550D01*
X2950616Y4511852D01*
X2949803Y4515764D01*
X2949803Y6598208D01*
X2950616Y6602069D01*
X2952800Y6605371D01*
X3110484Y6763054D01*
X3113735Y6765239D01*
X3117646Y6766052D01*
X3121558Y6765239D01*
X3124809Y6763054D01*
X3127044Y6759752D01*
X3127806Y6755892D01*
X3127806Y6634784D01*
X3128518Y6628434D01*
X3130448Y6622999D01*
X3133496Y6618071D01*
X3137611Y6614007D01*
X3141878Y6611315D01*
X3144824Y6608521D01*
X3146399Y6604762D01*
X3146399Y6600698D01*
X3144824Y6596989D01*
X3141929Y6594144D01*
X3138119Y6592671D01*
X3129432Y6591249D01*
X3119932Y6587947D01*
X3111093Y6583172D01*
X3103118Y6577025D01*
X3096310Y6569608D01*
X3090824Y6561175D01*
X3086811Y6551980D01*
X3084322Y6542227D01*
X3083509Y6532219D01*
X3084322Y6522212D01*
X3086709Y6512763D01*
X3087014Y6510223D01*
X3087014Y5731814D01*
X3086354Y5728157D01*
X3084322Y5724956D01*
X3077616Y5717641D01*
X3072130Y5709208D01*
X3068066Y5700014D01*
X3065627Y5690260D01*
X3064764Y5680252D01*
X3065627Y5670245D01*
X3068066Y5660491D01*
X3072130Y5651296D01*
X3077616Y5642864D01*
X3084423Y5635447D01*
X3092348Y5629300D01*
X3101187Y5624525D01*
X3110687Y5621223D01*
X3120644Y5619597D01*
X3130651Y5619597D01*
X3140608Y5621223D01*
X3150108Y5624525D01*
X3158947Y5629300D01*
X3166872Y5635447D01*
X3173679Y5642864D01*
X3179165Y5651296D01*
X3183229Y5660491D01*
X3185668Y5670245D01*
X3186531Y5680252D01*
X3185668Y5690260D01*
X3183229Y5700014D01*
X3179165Y5709208D01*
X3173679Y5717641D01*
X3166922Y5724956D01*
X3164941Y5728157D01*
X3164230Y5731865D01*
X3164230Y5748121D01*
X3165043Y5752033D01*
X3167227Y5755335D01*
X3170529Y5757519D01*
X3174390Y5758281D01*
X3177387Y5758281D01*
X3177387Y5822848D01*
X3174390Y5822848D01*
X3170529Y5823610D01*
X3167227Y5825845D01*
X3165043Y5829147D01*
X3164230Y5833008D01*
X3164230Y5915406D01*
X3165043Y5919266D01*
X3167227Y5922568D01*
X3170529Y5924753D01*
X3174390Y5925566D01*
X3177387Y5925566D01*
X3177387Y5990132D01*
X3174390Y5990132D01*
X3170529Y5990894D01*
X3167227Y5993079D01*
X3165043Y5996381D01*
X3164230Y6000292D01*
X3164230Y6467957D01*
X3164890Y6471513D01*
X3166719Y6474612D01*
X3169564Y6476898D01*
X3177641Y6481267D01*
X3185617Y6487414D01*
X3192424Y6494830D01*
X3197910Y6503263D01*
X3201924Y6512458D01*
X3204413Y6522212D01*
X3205226Y6532219D01*
X3204413Y6542227D01*
X3201924Y6551980D01*
X3197910Y6561175D01*
X3192424Y6569608D01*
X3185617Y6577025D01*
X3177641Y6583172D01*
X3168802Y6587947D01*
X3167227Y6588506D01*
X3163722Y6590588D01*
X3161284Y6593840D01*
X3160369Y6597751D01*
X3161030Y6601764D01*
X3163214Y6605168D01*
X3166567Y6607454D01*
X3170529Y6608267D01*
X3273145Y6608267D01*
X3278784Y6608927D01*
X3283000Y6608521D01*
X3286709Y6606387D01*
X3289198Y6602984D01*
X3290062Y6598818D01*
X3290062Y5999581D01*
X3289198Y5995416D01*
X3286709Y5992012D01*
X3283000Y5989878D01*
X3278784Y5989472D01*
X3273145Y5990132D01*
X3250082Y5990132D01*
X3250082Y5925566D01*
X3279901Y5925566D01*
X3283813Y5924753D01*
X3287115Y5922568D01*
X3289300Y5919266D01*
X3290062Y5915406D01*
X3290062Y5833008D01*
X3289300Y5829147D01*
X3287115Y5825845D01*
X3283813Y5823610D01*
X3279901Y5822848D01*
X3250082Y5822848D01*
X3250082Y5758281D01*
X3273145Y5758281D01*
X3278784Y5758942D01*
X3283000Y5758535D01*
X3286709Y5756402D01*
X3289198Y5752998D01*
X3290062Y5748832D01*
X3290062Y5461762D01*
X3289401Y5458053D01*
X3287369Y5454904D01*
X3280664Y5447588D01*
X3275177Y5439156D01*
X3271113Y5429961D01*
X3268675Y5420207D01*
X3267811Y5410149D01*
X3268675Y5400141D01*
X3271113Y5390388D01*
X3275177Y5381193D01*
X3280664Y5372760D01*
X3287471Y5365394D01*
X3295396Y5359196D01*
X3304235Y5354421D01*
X3313734Y5351170D01*
X3323691Y5349494D01*
X3333699Y5349494D01*
X3343656Y5351170D01*
X3353155Y5354421D01*
X3361994Y5359196D01*
X3369919Y5365394D01*
X3376726Y5372760D01*
X3382213Y5381193D01*
X3383787Y5384698D01*
X3386328Y5388203D01*
X3390087Y5390337D01*
X3394405Y5390692D01*
X3398469Y5389219D01*
X3402329Y5386832D01*
X3407765Y5384901D01*
X3414115Y5384190D01*
X3592982Y5384190D01*
X3599281Y5384901D01*
X3604768Y5386832D01*
X3609644Y5389880D01*
X3613759Y5393994D01*
X3616807Y5398871D01*
X3618737Y5404358D01*
X3619449Y5410657D01*
X3619449Y5529529D01*
X3618737Y5535879D01*
X3616807Y5541314D01*
X3613759Y5546242D01*
X3609644Y5550306D01*
X3604768Y5553405D01*
X3599281Y5555284D01*
X3592982Y5555996D01*
X3414115Y5555996D01*
X3407765Y5555284D01*
X3402329Y5553405D01*
X3397402Y5550306D01*
X3393338Y5546242D01*
X3390239Y5541314D01*
X3388360Y5535879D01*
X3387648Y5529529D01*
X3387598Y5461762D01*
X3386836Y5457901D01*
X3384651Y5454599D01*
X3381349Y5452414D01*
X3377437Y5451602D01*
X3373577Y5452414D01*
X3370275Y5454599D01*
X3368090Y5457901D01*
X3367278Y5461762D01*
X3367278Y7068566D01*
X3368090Y7072477D01*
X3370275Y7075779D01*
X3405378Y7110882D01*
X3408679Y7113117D01*
X3412591Y7113879D01*
X3464864Y7113879D01*
X3464864Y7116825D01*
X3465677Y7120737D01*
X3467862Y7124039D01*
X3471164Y7126224D01*
X3475024Y7126986D01*
X3557422Y7126986D01*
X3561334Y7126224D01*
X3564585Y7124039D01*
X3566820Y7120737D01*
X3567582Y7116825D01*
X3567582Y7113879D01*
X3626256Y7113879D01*
X3630168Y7113117D01*
X3633470Y7110882D01*
X3674618Y7069734D01*
X3676853Y7066432D01*
X3677615Y7062520D01*
X3677615Y6850278D01*
X3676853Y6846366D01*
X3674618Y6843064D01*
X3671315Y6840880D01*
X3667455Y6840118D01*
X3656787Y6840118D01*
X3650487Y6839407D01*
X3645001Y6837476D01*
X3640124Y6834378D01*
X3636010Y6830314D01*
X3632962Y6825386D01*
X3631031Y6819950D01*
X3630320Y6813600D01*
X3630320Y6634784D01*
X3631031Y6628434D01*
X3632962Y6622999D01*
X3636010Y6618071D01*
X3640124Y6614007D01*
X3645001Y6610908D01*
X3650487Y6608978D01*
X3656787Y6608267D01*
X3775659Y6608267D01*
X3781958Y6608978D01*
X3787444Y6610908D01*
X3792321Y6614007D01*
X3796436Y6618071D01*
X3799535Y6622999D01*
X3801414Y6628434D01*
X3802126Y6634784D01*
X3802126Y6813600D01*
X3801414Y6819950D01*
X3799535Y6825386D01*
X3796436Y6830314D01*
X3792321Y6834378D01*
X3787444Y6837476D01*
X3781958Y6839407D01*
X3775659Y6840118D01*
X3764991Y6840118D01*
X3761079Y6840880D01*
X3757777Y6843064D01*
X3755593Y6846366D01*
X3754831Y6850278D01*
X3754831Y7082231D01*
X3754018Y7090257D01*
X3751834Y7097471D01*
X3748278Y7104176D01*
X3743147Y7110374D01*
X3661003Y7192568D01*
X3654755Y7197699D01*
X3648100Y7201255D01*
X3640836Y7203440D01*
X3632809Y7204202D01*
X3406038Y7204202D01*
X3398012Y7203440D01*
X3390747Y7201255D01*
X3384092Y7197699D01*
X3377844Y7192568D01*
X3343859Y7158532D01*
X3340557Y7156348D01*
X3336645Y7155586D01*
X3332784Y7156348D01*
X3329482Y7158532D01*
X3327298Y7161834D01*
X3326485Y7165746D01*
X3326485Y8988958D01*
X3327298Y8992870D01*
X3329482Y8996172D01*
X3912158Y9578848D01*
X3915460Y9581083D01*
X3919372Y9581845D01*
X3926230Y9581845D01*
X3936187Y9583470D01*
X3945686Y9586772D01*
X3954526Y9591548D01*
X3962450Y9597694D01*
X3969258Y9605111D01*
X3974744Y9613544D01*
X3978808Y9622739D01*
X3981246Y9632492D01*
X3982110Y9642500D01*
X3981246Y9652508D01*
X3978808Y9662261D01*
X3974744Y9671456D01*
X3969258Y9679889D01*
X3962450Y9687306D01*
X3954526Y9693452D01*
X3945686Y9698228D01*
X3937050Y9701225D01*
X3933444Y9703358D01*
X3931005Y9706762D01*
X3930192Y9710826D01*
X3933901Y9725558D01*
X3934714Y9735566D01*
X3933901Y9745624D01*
X3931412Y9755378D01*
X3927398Y9764572D01*
X3921912Y9773005D01*
X3915105Y9780371D01*
X3907129Y9786569D01*
X3898290Y9791344D01*
X3888790Y9794595D01*
X3878884Y9796272D01*
X3868826Y9796272D01*
X3858920Y9794595D01*
X3849420Y9791344D01*
X3840581Y9786569D01*
X3832606Y9780371D01*
X3825798Y9773005D01*
X3820312Y9764572D01*
X3816299Y9755378D01*
X3813810Y9745624D01*
X3812489Y9730181D01*
X3810152Y9726472D01*
X2936240Y8852611D01*
X2931160Y8846362D01*
X2927604Y8839708D01*
X2925368Y8832494D01*
X2924606Y8824468D01*
X2924606Y7061809D01*
X2923844Y7057948D01*
X2921609Y7054646D01*
X2884728Y7017766D01*
X2880969Y7015378D01*
X2876499Y7014819D01*
X2872282Y7016292D01*
X2869082Y7019391D01*
X2865932Y7024166D01*
X2859176Y7031481D01*
X2857195Y7034682D01*
X2856484Y7038390D01*
X2856484Y7210602D01*
X2857195Y7214260D01*
X2859176Y7217460D01*
X2865932Y7224775D01*
X2871419Y7233208D01*
X2875483Y7242403D01*
X2877921Y7252157D01*
X2878785Y7262164D01*
X2877921Y7272223D01*
X2875483Y7281976D01*
X2871419Y7291171D01*
X2865932Y7299604D01*
X2859125Y7306970D01*
X2851200Y7313168D01*
X2842361Y7317943D01*
X2832862Y7321194D01*
X2822905Y7322870D01*
X2812897Y7322870D01*
X2802940Y7321194D01*
X2793441Y7317943D01*
X2784602Y7313168D01*
X2776677Y7306970D01*
X2769870Y7299604D01*
X2764383Y7291171D01*
X2760319Y7281976D01*
X2757881Y7272223D01*
X2757017Y7262164D01*
X2757881Y7252157D01*
X2760319Y7242403D01*
X2764383Y7233208D01*
X2769870Y7224775D01*
X2776575Y7217460D01*
X2778607Y7214311D01*
X2779268Y7210602D01*
X2779268Y7038340D01*
X2778607Y7034682D01*
X2776575Y7031481D01*
X2769870Y7024166D01*
X2764383Y7015734D01*
X2760319Y7006539D01*
X2757881Y6996785D01*
X2757017Y6986778D01*
X2757881Y6976770D01*
X2760319Y6967016D01*
X2764383Y6957822D01*
X2769870Y6949389D01*
X2776626Y6942023D01*
X2785770Y6935063D01*
X2788564Y6931761D01*
X2789732Y6927646D01*
X2789123Y6923379D01*
X2786786Y6919772D01*
X2736748Y6869785D01*
X2731668Y6863537D01*
X2728112Y6856882D01*
X2724810Y6845706D01*
X2722575Y6842759D01*
X2719425Y6840778D01*
X2715768Y6840118D01*
X2704287Y6840118D01*
X2697988Y6839407D01*
X2692501Y6837476D01*
X2687624Y6834378D01*
X2683510Y6830314D01*
X2680462Y6825386D01*
X2678531Y6819950D01*
X2677820Y6813600D01*
X2677820Y6634784D01*
X2678531Y6628434D01*
X2680462Y6622999D01*
X2683510Y6618071D01*
X2687624Y6614007D01*
X2692501Y6610908D01*
X2697988Y6608978D01*
X2704287Y6608267D01*
X2714955Y6608267D01*
X2718816Y6607505D01*
X2722118Y6605320D01*
X2724353Y6602018D01*
X2725115Y6598107D01*
X2725115Y6091834D01*
X2724353Y6087973D01*
X2722118Y6084671D01*
X2546400Y5908954D01*
X2541320Y5902706D01*
X2537764Y5896051D01*
X2535529Y5888837D01*
X2534767Y5880811D01*
X2534767Y5681675D01*
X2533853Y5677458D01*
X2531262Y5674004D01*
X2527503Y5671921D01*
X2523185Y5671616D01*
X2519172Y5673090D01*
X2516073Y5676087D01*
X2511755Y5682792D01*
X2504998Y5690108D01*
X2502966Y5693308D01*
X2502306Y5696966D01*
X2502306Y6083350D01*
X2503068Y6087262D01*
X2505252Y6090564D01*
X2611069Y6196380D01*
X2616200Y6202578D01*
X2619756Y6209284D01*
X2621940Y6216497D01*
X2622753Y6224524D01*
X2622753Y8230768D01*
X2623413Y8234425D01*
X2625445Y8237626D01*
X2632202Y8244941D01*
X2637688Y8253374D01*
X2641701Y8262569D01*
X2644190Y8272322D01*
X2645003Y8282330D01*
X2644190Y8292388D01*
X2641701Y8302142D01*
X2637688Y8311337D01*
X2632202Y8319770D01*
X2625394Y8327136D01*
X2617419Y8333333D01*
X2608580Y8338108D01*
X2599080Y8341359D01*
X2589174Y8343036D01*
X2579116Y8343036D01*
X2569210Y8341359D01*
X2561183Y8338616D01*
X2557373Y8338058D01*
X2553665Y8338972D01*
X2550515Y8341207D01*
X2548483Y8344458D01*
X2547721Y8348218D01*
X2547721Y9122156D01*
X2546959Y9130182D01*
X2544775Y9137396D01*
X2541168Y9144101D01*
X2536088Y9150299D01*
X2086559Y9599879D01*
X2084374Y9603079D01*
X2083562Y9606889D01*
X2084222Y9610699D01*
X2086305Y9614001D01*
X2089454Y9616287D01*
X2093214Y9617202D01*
X2103628Y9615830D01*
X2116683Y9615830D01*
X2116683Y9710420D01*
X2094077Y9710420D01*
X2090166Y9711182D01*
X2086864Y9713366D01*
X2084679Y9716668D01*
X2083917Y9720580D01*
X2083917Y9862921D01*
X2084679Y9866833D01*
X2086864Y9870135D01*
X2090166Y9872319D01*
X2094077Y9873081D01*
X2116683Y9873081D01*
X2116683Y9930384D01*
X2117344Y9933940D01*
X2119172Y9937089D01*
X2122017Y9939324D01*
X2127453Y9942271D01*
X2135428Y9948468D01*
X2142236Y9955834D01*
X2147722Y9964267D01*
X2149906Y9969296D01*
X2152192Y9972548D01*
X2154123Y9973818D01*
X2153259Y9976662D01*
X2153462Y9980320D01*
X2154224Y9983216D01*
X2155037Y9993223D01*
X2154224Y10003282D01*
X2151735Y10013035D01*
X2147722Y10022230D01*
X2142236Y10030663D01*
X2135428Y10038029D01*
X2127453Y10044226D01*
X2118614Y10049002D01*
X2109114Y10052253D01*
X2099208Y10053929D01*
X2092299Y10053929D01*
X2088438Y10054691D01*
X2085136Y10056876D01*
X2007717Y10134295D01*
X2001469Y10139426D01*
X1994814Y10142982D01*
X1987550Y10145166D01*
X1979523Y10145979D01*
X1406194Y10145979D01*
X1398168Y10145166D01*
X1390904Y10142982D01*
X1384249Y10139426D01*
X1378000Y10134295D01*
X1244549Y10000843D01*
X1241247Y9998659D01*
X1237386Y9997897D01*
X1233474Y9998659D01*
X1230172Y10000843D01*
X1227988Y10004145D01*
X1227226Y10008057D01*
X1227226Y10322509D01*
X1227988Y10326420D01*
X1230172Y10329722D01*
X1743659Y10843158D01*
X1746961Y10845393D01*
X1750822Y10846155D01*
X1757730Y10846155D01*
X1767636Y10847781D01*
X1777136Y10851083D01*
X1785975Y10855858D01*
X1793951Y10862005D01*
X1800758Y10869422D01*
X1806244Y10877854D01*
X1810257Y10887049D01*
X1812747Y10896803D01*
X1813560Y10906810D01*
X1812747Y10916818D01*
X1810257Y10926572D01*
X1806244Y10935766D01*
X1800758Y10944199D01*
X1793951Y10951616D01*
X1785975Y10957763D01*
X1777136Y10962538D01*
X1767636Y10965840D01*
X1757730Y10967466D01*
X1747672Y10967466D01*
X1737766Y10965840D01*
X1728266Y10962538D01*
X1719427Y10957763D01*
X1711452Y10951616D01*
X1704644Y10944199D01*
X1699158Y10935766D01*
X1695145Y10926572D01*
X1692656Y10916818D01*
X1691335Y10901375D01*
X1688998Y10897717D01*
X1161643Y10370362D01*
X1156563Y10364165D01*
X1153007Y10357459D01*
X1150772Y10350246D01*
X1150010Y10342219D01*
X1150010Y7651648D01*
X1148994Y7647279D01*
X1146200Y7643774D01*
X1142187Y7641793D01*
X1137666Y7641742D01*
X1133398Y7643825D01*
X1124559Y7648600D01*
X1115060Y7651851D01*
X1105103Y7653528D01*
X1095095Y7653528D01*
X1085138Y7651851D01*
X1075639Y7648600D01*
X1066800Y7643825D01*
X1064056Y7641640D01*
X1059992Y7639761D01*
X1055471Y7639812D01*
X1051407Y7641742D01*
X1048664Y7645298D01*
X1047648Y7649667D01*
X1047648Y12941655D01*
X1048613Y12972288D01*
X1051458Y13001904D01*
X1056132Y13031317D01*
X1062634Y13060375D01*
X1070965Y13088975D01*
X1081074Y13117017D01*
X1092911Y13144347D01*
X1106474Y13170865D01*
X1121613Y13196468D01*
X1138377Y13221106D01*
X1156665Y13244626D01*
X1176375Y13266928D01*
X1197457Y13288010D01*
X1219809Y13307669D01*
X1232408Y13317423D01*
X1235303Y13318998D01*
X1238605Y13319556D01*
X1283106Y13319556D01*
X1283106Y13345769D01*
X1283716Y13349224D01*
X1285443Y13352272D01*
X1288084Y13354507D01*
X1293622Y13357758D01*
X1320190Y13371271D01*
X1347520Y13383107D01*
X1349705Y13383869D01*
X1353515Y13384479D01*
X1357274Y13383564D01*
X1360474Y13381380D01*
X1362557Y13378129D01*
X1363319Y13374319D01*
X1363319Y13319556D01*
X1416608Y13319556D01*
X1416608Y13396112D01*
X1417167Y13399465D01*
X1418844Y13402462D01*
X1421384Y13404697D01*
X1424533Y13406018D01*
X1433220Y13407898D01*
X1462633Y13412571D01*
X1492300Y13415365D01*
X1522272Y13416280D01*
X1773631Y13416280D01*
X1777542Y13415518D01*
X1780793Y13413282D01*
X1783029Y13410031D01*
X1783791Y13406119D01*
X1783791Y13319556D01*
X1837080Y13319556D01*
X1837080Y13406119D01*
X1837893Y13410031D01*
X1840077Y13413282D01*
X1843379Y13415518D01*
X1847240Y13416280D01*
X1907133Y13416280D01*
X1911045Y13415518D01*
X1914347Y13413282D01*
X1916531Y13410031D01*
X1917293Y13406119D01*
X1917293Y13319556D01*
X1970633Y13319556D01*
X1970633Y13406119D01*
X1971395Y13410031D01*
X1973580Y13413282D01*
X1976882Y13415518D01*
X1980793Y13416280D01*
X2795828Y13416280D01*
X2799740Y13415518D01*
X2803042Y13413282D01*
X2805226Y13410031D01*
X2805988Y13406119D01*
X2805988Y13319556D01*
X2859328Y13319556D01*
X2859328Y13406119D01*
X2860090Y13410031D01*
X2862275Y13413282D01*
X2865577Y13415518D01*
X2869488Y13416280D01*
X2929331Y13416280D01*
X2933242Y13415518D01*
X2936544Y13413282D01*
X2938729Y13410031D01*
X2939491Y13406119D01*
X2939491Y13319556D01*
X2992831Y13319556D01*
X2992831Y13406119D01*
X2993593Y13410031D01*
X2995777Y13413282D01*
X2999079Y13415518D01*
X3002991Y13416280D01*
X3349853Y13416280D01*
X3353714Y13415518D01*
X3357016Y13413282D01*
X3359251Y13410031D01*
X3360013Y13406119D01*
X3360013Y13319556D01*
X3413302Y13319556D01*
X3413302Y13406119D01*
X3414064Y13410031D01*
X3416300Y13413282D01*
X3419601Y13415518D01*
X3423462Y13416280D01*
X3483356Y13416280D01*
X3487216Y13415518D01*
X3490518Y13413282D01*
X3492754Y13410031D01*
X3493515Y13406119D01*
X3493515Y13319556D01*
X3546805Y13319556D01*
X3546805Y13406119D01*
X3547618Y13410031D01*
X3549802Y13413282D01*
X3553104Y13415518D01*
X3556965Y13416280D01*
X4372051Y13416280D01*
X4375962Y13415518D01*
X4379264Y13413282D01*
X4381449Y13410031D01*
X4382211Y13406119D01*
X4382211Y13319556D01*
X4435500Y13319556D01*
X4435500Y13406119D01*
X4436313Y13410031D01*
X4438497Y13413282D01*
X4441799Y13415518D01*
X4445660Y13416280D01*
X4505553Y13416280D01*
X4509465Y13415518D01*
X4512767Y13413282D01*
X4514951Y13410031D01*
X4515713Y13406119D01*
X4515713Y13319556D01*
X4569053Y13319556D01*
X4569053Y13406119D01*
X4569815Y13410031D01*
X4572000Y13413282D01*
X4575302Y13415518D01*
X4579213Y13416280D01*
X4926076Y13416280D01*
X4929936Y13415518D01*
X4933238Y13413282D01*
X4935423Y13410031D01*
X4936236Y13406119D01*
X4936236Y13319556D01*
X4989525Y13319556D01*
X4989525Y13406119D01*
X4990287Y13410031D01*
X4992522Y13413282D01*
X4995773Y13415518D01*
X4999685Y13416280D01*
X5059578Y13416280D01*
X5063439Y13415518D01*
X5066741Y13413282D01*
X5068976Y13410031D01*
X5069738Y13406119D01*
X5069738Y13319556D01*
X5123027Y13319556D01*
X5123027Y13406119D01*
X5123789Y13410031D01*
X5126024Y13413282D01*
X5129326Y13415518D01*
X5133187Y13416280D01*
X5982157Y13416280D01*
X5986018Y13415518D01*
X5989320Y13413282D01*
X5991504Y13410031D01*
X5992317Y13406119D01*
X5992317Y13332256D01*
X6045606Y13332256D01*
X6045606Y13406119D01*
X6046368Y13410031D01*
X6048603Y13413282D01*
X6051854Y13415518D01*
X6055766Y13416280D01*
X6115659Y13416280D01*
X6119520Y13415518D01*
X6122822Y13413282D01*
X6125006Y13410031D01*
X6125819Y13406119D01*
X6125819Y13332256D01*
X6179108Y13332256D01*
X6179108Y13406119D01*
X6179870Y13410031D01*
X6182106Y13413282D01*
X6185408Y13415518D01*
X6189268Y13416280D01*
X6521196Y13416280D01*
X6536435Y13415822D01*
X6540246Y13414959D01*
X6543446Y13412724D01*
X6545529Y13409472D01*
X6546291Y13405662D01*
X6546291Y13332256D01*
X6599580Y13332256D01*
X6599580Y13397636D01*
X6600596Y13402056D01*
X6603390Y13405561D01*
X6607454Y13407542D01*
X6611975Y13407542D01*
X6639915Y13401294D01*
X6668516Y13392962D01*
X6673088Y13391337D01*
X6676593Y13389152D01*
X6678980Y13385800D01*
X6679793Y13381736D01*
X6679793Y13332256D01*
X6733133Y13332256D01*
X6733133Y13349732D01*
X6733946Y13353745D01*
X6736334Y13357098D01*
X6739839Y13359282D01*
X6743903Y13359841D01*
X6747865Y13358774D01*
X6750405Y13357453D01*
X6776008Y13342264D01*
X6800646Y13325551D01*
X6824167Y13307263D01*
X6846468Y13287552D01*
X6867499Y13266470D01*
X6887209Y13244118D01*
X6905447Y13220598D01*
X6922160Y13195960D01*
X6937298Y13170306D01*
X6950811Y13143738D01*
X6962597Y13116407D01*
X6972706Y13088365D01*
X6980986Y13059765D01*
X6987438Y13030708D01*
X6992112Y13001294D01*
X6994855Y12971627D01*
X6995820Y12941655D01*
X6995820Y9178848D01*
X6995058Y9174988D01*
X6992823Y9171686D01*
X6989521Y9169501D01*
X6985660Y9168688D01*
X6904177Y9168688D01*
X6897827Y9167977D01*
X6892391Y9166098D01*
X6887464Y9162999D01*
X6883400Y9158935D01*
X6880301Y9154007D01*
X6878370Y9148572D01*
X6877659Y9142222D01*
X6877659Y9089542D01*
X6876897Y9085681D01*
X6874713Y9082379D01*
X6871411Y9080195D01*
X6867499Y9079382D01*
X6863638Y9080195D01*
X6854799Y9086088D01*
X6849313Y9088018D01*
X6843014Y9088729D01*
X6714134Y9088729D01*
X6707835Y9088018D01*
X6702348Y9086088D01*
X6697472Y9082989D01*
X6693357Y9078925D01*
X6690309Y9073997D01*
X6688378Y9068562D01*
X6687667Y9062212D01*
X6687667Y8963355D01*
X6688378Y8957056D01*
X6690309Y8951569D01*
X6693357Y8946692D01*
X6697472Y8942578D01*
X6702348Y8939530D01*
X6707835Y8937599D01*
X6714134Y8936888D01*
X6843014Y8936888D01*
X6845300Y8937142D01*
X6849567Y8936736D01*
X6853275Y8934602D01*
X6855764Y8931097D01*
X6856628Y8926931D01*
X6855663Y8922715D01*
X6853021Y8919311D01*
X6848449Y8915450D01*
X6841236Y8906967D01*
X6835444Y8897467D01*
X6831177Y8887206D01*
X6828586Y8876385D01*
X6827723Y8865311D01*
X6828586Y8854236D01*
X6831177Y8843416D01*
X6835444Y8833154D01*
X6841236Y8823655D01*
X6848449Y8815171D01*
X6856933Y8807958D01*
X6866432Y8802166D01*
X6876694Y8797899D01*
X6887514Y8795308D01*
X6898589Y8794445D01*
X6909663Y8795308D01*
X6920484Y8797899D01*
X6930745Y8802166D01*
X6940245Y8807958D01*
X6948728Y8815171D01*
X6955942Y8823655D01*
X6961733Y8833154D01*
X6966000Y8843416D01*
X6968591Y8854236D01*
X6969455Y8865311D01*
X6968591Y8876385D01*
X6966000Y8887206D01*
X6961733Y8897467D01*
X6955942Y8906967D01*
X6948728Y8915450D01*
X6940245Y8922664D01*
X6930745Y8928455D01*
X6920484Y8932722D01*
X6909663Y8935313D01*
X6898589Y8936177D01*
X6887514Y8935313D01*
X6875373Y8932316D01*
X6871411Y8932113D01*
X6867652Y8933484D01*
X6864705Y8936228D01*
X6863029Y8939834D01*
X6862927Y8943848D01*
X6864350Y8947556D01*
X6866890Y8951569D01*
X6868769Y8957056D01*
X6869480Y8963355D01*
X6869480Y8966047D01*
X6870242Y8969908D01*
X6872478Y8973210D01*
X6875780Y8975445D01*
X6879640Y8976207D01*
X6883552Y8975445D01*
X6887464Y8972600D01*
X6892391Y8969502D01*
X6897827Y8967622D01*
X6904177Y8966911D01*
X6985660Y8966911D01*
X6989521Y8966098D01*
X6992823Y8963914D01*
X6995058Y8960612D01*
X6995820Y8956751D01*
X6995820Y8576259D01*
X6994956Y8572195D01*
X6992569Y8568842D01*
X6988962Y8566658D01*
X6984847Y8566150D01*
X6980834Y8567318D01*
X6973316Y8571331D01*
X6966102Y8573516D01*
X6960260Y8574125D01*
X6956094Y8575497D01*
X6952894Y8578494D01*
X6951218Y8582558D01*
X6951472Y8586927D01*
X6953554Y8590838D01*
X6955942Y8593632D01*
X6961733Y8603132D01*
X6966000Y8613394D01*
X6968591Y8624214D01*
X6969455Y8635288D01*
X6968591Y8646363D01*
X6966000Y8657183D01*
X6961733Y8667445D01*
X6955942Y8676944D01*
X6948728Y8685428D01*
X6940245Y8692642D01*
X6930745Y8698433D01*
X6920484Y8702700D01*
X6909663Y8705291D01*
X6898589Y8706154D01*
X6887514Y8705291D01*
X6876694Y8702700D01*
X6866432Y8698433D01*
X6856933Y8692642D01*
X6848449Y8685428D01*
X6841236Y8676944D01*
X6835444Y8667445D01*
X6831177Y8657183D01*
X6828586Y8646363D01*
X6827723Y8635288D01*
X6829145Y8619083D01*
X6828028Y8615578D01*
X6825792Y8612733D01*
X6822643Y8610854D01*
X6819036Y8610193D01*
X6478727Y8610193D01*
X6475374Y8610752D01*
X6472428Y8612428D01*
X6470142Y8614968D01*
X6467348Y8619439D01*
X6463233Y8623503D01*
X6458356Y8626602D01*
X6452870Y8628481D01*
X6446570Y8629192D01*
X6428384Y8629192D01*
X6424523Y8630005D01*
X6421221Y8632190D01*
X6419037Y8635492D01*
X6418224Y8639352D01*
X6418224Y8671915D01*
X6419037Y8675776D01*
X6421221Y8679078D01*
X6424523Y8681262D01*
X6428384Y8682075D01*
X6447891Y8682075D01*
X6454241Y8682786D01*
X6459677Y8684666D01*
X6464604Y8687765D01*
X6468668Y8691880D01*
X6471767Y8696756D01*
X6473698Y8702192D01*
X6474409Y8708542D01*
X6474409Y8820658D01*
X6473698Y8826957D01*
X6471767Y8832443D01*
X6468668Y8837320D01*
X6464604Y8841435D01*
X6459677Y8844483D01*
X6454241Y8846413D01*
X6447891Y8847124D01*
X6311341Y8847124D01*
X6305042Y8846413D01*
X6299555Y8844483D01*
X6294678Y8841435D01*
X6290564Y8837320D01*
X6287516Y8832443D01*
X6285585Y8826957D01*
X6284874Y8820658D01*
X6284874Y8708542D01*
X6285585Y8702192D01*
X6287516Y8696756D01*
X6290564Y8691880D01*
X6294678Y8687765D01*
X6299555Y8684666D01*
X6305042Y8682786D01*
X6311341Y8682075D01*
X6330848Y8682075D01*
X6334760Y8681262D01*
X6338062Y8679078D01*
X6340246Y8675776D01*
X6341008Y8671915D01*
X6341008Y8639352D01*
X6340246Y8635492D01*
X6338062Y8632190D01*
X6334760Y8630005D01*
X6330848Y8629192D01*
X6312712Y8629192D01*
X6306362Y8628481D01*
X6300927Y8626602D01*
X6295999Y8623503D01*
X6291935Y8619439D01*
X6288836Y8614511D01*
X6286957Y8609076D01*
X6286246Y8602726D01*
X6286246Y8462873D01*
X6286957Y8456574D01*
X6288836Y8451088D01*
X6291935Y8446211D01*
X6295999Y8442096D01*
X6300063Y8438591D01*
X6301689Y8434832D01*
X6301689Y8430768D01*
X6300063Y8427008D01*
X6295999Y8423503D01*
X6291935Y8419388D01*
X6288836Y8414512D01*
X6286957Y8409025D01*
X6286246Y8402726D01*
X6286246Y8374380D01*
X6339535Y8374380D01*
X6339535Y8426246D01*
X6340297Y8430107D01*
X6342532Y8433409D01*
X6345783Y8435644D01*
X6349695Y8436406D01*
X6409588Y8436406D01*
X6413449Y8435644D01*
X6416751Y8433409D01*
X6418986Y8430107D01*
X6419748Y8426246D01*
X6419748Y8374380D01*
X6473037Y8374380D01*
X6473037Y8402726D01*
X6472326Y8409025D01*
X6470396Y8414512D01*
X6467348Y8419388D01*
X6463233Y8423503D01*
X6459220Y8427008D01*
X6457594Y8430768D01*
X6457594Y8434832D01*
X6459220Y8438591D01*
X6463233Y8442096D01*
X6467348Y8446211D01*
X6470396Y8451088D01*
X6472326Y8456574D01*
X6473037Y8462873D01*
X6473037Y8522817D01*
X6473799Y8526729D01*
X6476034Y8529980D01*
X6479336Y8532215D01*
X6483197Y8532977D01*
X6677507Y8532977D01*
X6681419Y8532215D01*
X6684721Y8529980D01*
X6686905Y8526729D01*
X6687667Y8522817D01*
X6687667Y8519160D01*
X6739737Y8519160D01*
X6739737Y8522817D01*
X6740499Y8526729D01*
X6742734Y8529980D01*
X6746036Y8532215D01*
X6749897Y8532977D01*
X6807301Y8532977D01*
X6811162Y8532215D01*
X6814464Y8529980D01*
X6816648Y8526729D01*
X6817461Y8522817D01*
X6817461Y8519160D01*
X6850125Y8519160D01*
X6854037Y8518398D01*
X6857339Y8516162D01*
X6864705Y8508796D01*
X6870953Y8503666D01*
X6875170Y8500668D01*
X6876999Y8497570D01*
X6877659Y8493963D01*
X6877659Y8466632D01*
X6876897Y8462721D01*
X6874713Y8459419D01*
X6871411Y8457234D01*
X6867499Y8456472D01*
X6817461Y8456472D01*
X6817461Y8411921D01*
X6843014Y8411921D01*
X6849364Y8412632D01*
X6854799Y8414512D01*
X6863638Y8420404D01*
X6867499Y8421217D01*
X6871411Y8420404D01*
X6874713Y8418220D01*
X6876897Y8414918D01*
X6877659Y8411057D01*
X6877659Y8358378D01*
X6878929Y8348472D01*
X6878218Y8344865D01*
X6876288Y8341817D01*
X6873849Y8339175D01*
X6868363Y8330742D01*
X6864299Y8321548D01*
X6861860Y8311794D01*
X6860997Y8301786D01*
X6861860Y8291779D01*
X6864299Y8282025D01*
X6868363Y8272830D01*
X6873849Y8264398D01*
X6880656Y8256981D01*
X6888581Y8250834D01*
X6897420Y8246059D01*
X6906920Y8242757D01*
X6916877Y8241131D01*
X6926884Y8241131D01*
X6936841Y8242757D01*
X6946341Y8246059D01*
X6955180Y8250834D01*
X6963105Y8256981D01*
X6969912Y8264398D01*
X6975398Y8272830D01*
X6976364Y8274913D01*
X6978599Y8278164D01*
X6981901Y8280298D01*
X6985762Y8281009D01*
X6989622Y8280196D01*
X6992874Y8277961D01*
X6995058Y8274710D01*
X6995820Y8270849D01*
X6995820Y8213648D01*
X6995058Y8209788D01*
X6992823Y8206486D01*
X6989521Y8204301D01*
X6985660Y8203488D01*
X6904177Y8203488D01*
X6897827Y8202777D01*
X6892391Y8200898D01*
X6887464Y8197799D01*
X6883400Y8193735D01*
X6880301Y8188807D01*
X6878370Y8183372D01*
X6877659Y8177022D01*
X6877659Y8124342D01*
X6876897Y8120481D01*
X6874713Y8117179D01*
X6871411Y8114995D01*
X6867499Y8114182D01*
X6863638Y8114995D01*
X6854799Y8120888D01*
X6849313Y8122818D01*
X6843014Y8123529D01*
X6714134Y8123529D01*
X6707835Y8122818D01*
X6702348Y8120888D01*
X6697472Y8117789D01*
X6693357Y8113725D01*
X6690309Y8108797D01*
X6688378Y8103362D01*
X6687667Y8097012D01*
X6687667Y7998155D01*
X6688378Y7991856D01*
X6690309Y7986369D01*
X6693357Y7981492D01*
X6697472Y7977378D01*
X6702348Y7974330D01*
X6707835Y7972399D01*
X6714134Y7971688D01*
X6843014Y7971688D01*
X6845300Y7971942D01*
X6849567Y7971536D01*
X6853275Y7969402D01*
X6855764Y7965897D01*
X6856628Y7961731D01*
X6855663Y7957515D01*
X6853021Y7954111D01*
X6848449Y7950250D01*
X6841236Y7941767D01*
X6835444Y7932267D01*
X6831177Y7922006D01*
X6828586Y7911185D01*
X6827723Y7900111D01*
X6828586Y7889036D01*
X6831177Y7878216D01*
X6835444Y7867954D01*
X6841236Y7858455D01*
X6848449Y7849971D01*
X6856933Y7842758D01*
X6866432Y7836966D01*
X6876694Y7832699D01*
X6887514Y7830108D01*
X6898589Y7829245D01*
X6909663Y7830108D01*
X6920484Y7832699D01*
X6930745Y7836966D01*
X6940245Y7842758D01*
X6948728Y7849971D01*
X6955942Y7858455D01*
X6961733Y7867954D01*
X6966000Y7878216D01*
X6968591Y7889036D01*
X6969455Y7900111D01*
X6968591Y7911185D01*
X6966000Y7922006D01*
X6961733Y7932267D01*
X6955942Y7941767D01*
X6948728Y7950250D01*
X6940245Y7957464D01*
X6930745Y7963255D01*
X6920484Y7967522D01*
X6909663Y7970113D01*
X6898589Y7970977D01*
X6887514Y7970113D01*
X6875373Y7967116D01*
X6871411Y7966913D01*
X6867652Y7968284D01*
X6864705Y7971028D01*
X6863029Y7974634D01*
X6862927Y7978648D01*
X6864350Y7982356D01*
X6866890Y7986369D01*
X6868769Y7991856D01*
X6869480Y7998155D01*
X6869480Y8000847D01*
X6870242Y8004708D01*
X6872478Y8008010D01*
X6875780Y8010245D01*
X6879640Y8011007D01*
X6883552Y8010245D01*
X6887464Y8007400D01*
X6892391Y8004302D01*
X6897827Y8002422D01*
X6904177Y8001711D01*
X6985660Y8001711D01*
X6989521Y8000898D01*
X6992823Y7998714D01*
X6995058Y7995412D01*
X6995820Y7991551D01*
X6995820Y7578648D01*
X6995058Y7574788D01*
X6992823Y7571486D01*
X6989521Y7569301D01*
X6985660Y7568488D01*
X6904177Y7568488D01*
X6897827Y7567777D01*
X6892391Y7565898D01*
X6883552Y7560005D01*
X6879640Y7559192D01*
X6875780Y7560005D01*
X6872478Y7562189D01*
X6870293Y7565491D01*
X6869480Y7569352D01*
X6869480Y7572044D01*
X6868769Y7578344D01*
X6866890Y7583830D01*
X6864350Y7587792D01*
X6862978Y7591552D01*
X6863080Y7595565D01*
X6864756Y7599172D01*
X6867652Y7601864D01*
X6871411Y7603286D01*
X6875424Y7603083D01*
X6887514Y7600086D01*
X6898589Y7599222D01*
X6909663Y7600086D01*
X6920484Y7602677D01*
X6930745Y7606944D01*
X6940245Y7612735D01*
X6948728Y7619949D01*
X6955942Y7628432D01*
X6961733Y7637932D01*
X6966000Y7648194D01*
X6968591Y7659014D01*
X6969455Y7670088D01*
X6968591Y7681163D01*
X6966000Y7691983D01*
X6961733Y7702245D01*
X6955942Y7711744D01*
X6948728Y7720228D01*
X6940245Y7727442D01*
X6930745Y7733233D01*
X6920484Y7737500D01*
X6909663Y7740091D01*
X6898589Y7740954D01*
X6887514Y7740091D01*
X6876694Y7737500D01*
X6866432Y7733233D01*
X6856933Y7727442D01*
X6848449Y7720228D01*
X6841236Y7711744D01*
X6835444Y7702245D01*
X6831177Y7691983D01*
X6828586Y7681163D01*
X6827723Y7670088D01*
X6828586Y7659014D01*
X6831177Y7648194D01*
X6835444Y7637932D01*
X6841236Y7628432D01*
X6848449Y7619949D01*
X6853021Y7616088D01*
X6855612Y7612684D01*
X6856577Y7608519D01*
X6855764Y7604302D01*
X6853224Y7600848D01*
X6849567Y7598714D01*
X6845300Y7598257D01*
X6843014Y7598511D01*
X6817461Y7598511D01*
X6817461Y7553959D01*
X6867652Y7553959D01*
X6871817Y7553096D01*
X6875221Y7550556D01*
X6877303Y7546898D01*
X6877659Y7542022D01*
X6877659Y7515555D01*
X6876999Y7511897D01*
X6875018Y7508748D01*
X6872071Y7506512D01*
X6860895Y7503210D01*
X6854240Y7499654D01*
X6844893Y7492187D01*
X6840626Y7491272D01*
X6817461Y7491272D01*
X6816648Y7486091D01*
X6814464Y7482789D01*
X6811162Y7480604D01*
X6807301Y7479792D01*
X6749897Y7479792D01*
X6746036Y7480604D01*
X6742734Y7482789D01*
X6740499Y7486091D01*
X6739737Y7491272D01*
X6687667Y7491272D01*
X6686905Y7486091D01*
X6684721Y7482789D01*
X6681419Y7480604D01*
X6677507Y7479792D01*
X6508343Y7479792D01*
X6504482Y7480604D01*
X6501180Y7482789D01*
X6461404Y7522565D01*
X6459169Y7525969D01*
X6458458Y7530033D01*
X6459372Y7534046D01*
X6461861Y7537297D01*
X6465417Y7539380D01*
X6472478Y7541717D01*
X6477304Y7544765D01*
X6481368Y7548880D01*
X6484467Y7553756D01*
X6486398Y7559192D01*
X6487109Y7565542D01*
X6487109Y7677658D01*
X6486398Y7683957D01*
X6484467Y7689443D01*
X6481368Y7694320D01*
X6477304Y7698435D01*
X6472377Y7701483D01*
X6466941Y7703413D01*
X6460591Y7704124D01*
X6435191Y7704124D01*
X6431127Y7704988D01*
X6427724Y7707375D01*
X6425590Y7710982D01*
X6425082Y7715097D01*
X6426250Y7719059D01*
X6427978Y7722311D01*
X6431229Y7733487D01*
X6433464Y7736433D01*
X6436664Y7738364D01*
X6440271Y7739075D01*
X6460591Y7739075D01*
X6466941Y7739786D01*
X6472377Y7741716D01*
X6477304Y7744764D01*
X6481368Y7748879D01*
X6484467Y7753756D01*
X6486398Y7759242D01*
X6487109Y7765542D01*
X6487109Y7877657D01*
X6486398Y7884007D01*
X6484467Y7889443D01*
X6481368Y7894320D01*
X6477304Y7898434D01*
X6472377Y7901533D01*
X6466941Y7903413D01*
X6460591Y7904124D01*
X6324041Y7904124D01*
X6317742Y7903413D01*
X6312255Y7901533D01*
X6307378Y7898434D01*
X6303264Y7894320D01*
X6300216Y7889443D01*
X6298285Y7884007D01*
X6297574Y7877657D01*
X6297574Y7847533D01*
X6296812Y7843672D01*
X6294577Y7840370D01*
X6291326Y7838186D01*
X6287414Y7837373D01*
X6283502Y7838186D01*
X6280251Y7840370D01*
X6173317Y7947304D01*
X6171133Y7950606D01*
X6170320Y7954467D01*
X6170320Y7977225D01*
X6169558Y7985252D01*
X6167374Y7992465D01*
X6163767Y7999120D01*
X6158687Y8005368D01*
X5934811Y8229244D01*
X5932627Y8232546D01*
X5931814Y8236407D01*
X5931814Y9170314D01*
X5932627Y9174226D01*
X5934811Y9177528D01*
X5938113Y9179712D01*
X5941974Y9180474D01*
X5960008Y9180474D01*
X5960008Y9245041D01*
X5941974Y9245041D01*
X5938113Y9245803D01*
X5934811Y9248038D01*
X5932627Y9251340D01*
X5931814Y9255201D01*
X5931814Y9337598D01*
X5932627Y9341459D01*
X5934811Y9344761D01*
X5938113Y9346996D01*
X5941974Y9347758D01*
X5960008Y9347758D01*
X5960008Y9412325D01*
X5952388Y9412325D01*
X5948476Y9413087D01*
X5945174Y9415272D01*
X5942990Y9418574D01*
X5942228Y9422485D01*
X5942990Y9426346D01*
X5945174Y9429648D01*
X5956503Y9440976D01*
X5959957Y9443212D01*
X5963970Y9443923D01*
X5968695Y9442653D01*
X5982512Y9438132D01*
X5996787Y9435439D01*
X6011316Y9434525D01*
X6025845Y9435439D01*
X6040170Y9438132D01*
X6053988Y9442653D01*
X6058662Y9443923D01*
X6062726Y9443212D01*
X6066180Y9440976D01*
X6077458Y9429648D01*
X6079693Y9426346D01*
X6080455Y9422485D01*
X6079693Y9418574D01*
X6077458Y9415272D01*
X6074206Y9413087D01*
X6070295Y9412325D01*
X6062675Y9412325D01*
X6062675Y9347758D01*
X6127242Y9347758D01*
X6127242Y9355378D01*
X6128004Y9359239D01*
X6130239Y9362541D01*
X6133490Y9364726D01*
X6137402Y9365538D01*
X6141313Y9364726D01*
X6144564Y9362541D01*
X6338062Y9169095D01*
X6340246Y9165793D01*
X6341008Y9161881D01*
X6341008Y9057284D01*
X6340246Y9053423D01*
X6338062Y9050121D01*
X6334760Y9047937D01*
X6330848Y9047124D01*
X6311341Y9047124D01*
X6305042Y9046413D01*
X6299555Y9044533D01*
X6294678Y9041434D01*
X6290564Y9037320D01*
X6287516Y9032443D01*
X6285585Y9027007D01*
X6284874Y9020657D01*
X6284874Y8908542D01*
X6285585Y8902242D01*
X6287516Y8896756D01*
X6290564Y8891879D01*
X6294678Y8887764D01*
X6299555Y8884716D01*
X6305042Y8882786D01*
X6311341Y8882075D01*
X6447891Y8882075D01*
X6454241Y8882786D01*
X6459677Y8884716D01*
X6464604Y8887764D01*
X6468668Y8891879D01*
X6471767Y8896756D01*
X6473698Y8902242D01*
X6474409Y8908542D01*
X6474409Y9020657D01*
X6473698Y9027007D01*
X6471767Y9032443D01*
X6468668Y9037320D01*
X6464604Y9041434D01*
X6459677Y9044533D01*
X6454241Y9046413D01*
X6447891Y9047124D01*
X6428384Y9047124D01*
X6424523Y9047937D01*
X6421221Y9050121D01*
X6419037Y9053423D01*
X6418224Y9057284D01*
X6418224Y9181592D01*
X6417462Y9189618D01*
X6415278Y9196832D01*
X6411671Y9203537D01*
X6406591Y9209735D01*
X6120638Y9495688D01*
X6118453Y9498939D01*
X6117691Y9502749D01*
X6118402Y9506610D01*
X6121552Y9514586D01*
X6125159Y9528708D01*
X6126988Y9543135D01*
X6126988Y9557664D01*
X6125159Y9572091D01*
X6121552Y9586214D01*
X6118402Y9594189D01*
X6117691Y9598050D01*
X6118453Y9601860D01*
X6120638Y9605111D01*
X6567424Y10051897D01*
X6572554Y10058146D01*
X6576110Y10064800D01*
X6578295Y10072065D01*
X6579108Y10080091D01*
X6579108Y12053062D01*
X6579819Y12056821D01*
X6581902Y12060021D01*
X6585000Y12062256D01*
X6589572Y12064390D01*
X6601053Y12071705D01*
X6611467Y12080494D01*
X6620611Y12090654D01*
X6628333Y12101880D01*
X6634480Y12114022D01*
X6638950Y12126925D01*
X6641693Y12140285D01*
X6642608Y12153900D01*
X6641693Y12167514D01*
X6638950Y12180874D01*
X6634480Y12193778D01*
X6628333Y12205919D01*
X6620611Y12217146D01*
X6611467Y12227306D01*
X6601053Y12236094D01*
X6589572Y12243409D01*
X6577177Y12249150D01*
X6564172Y12253214D01*
X6550710Y12255449D01*
X6537096Y12255906D01*
X6523532Y12254585D01*
X6510274Y12251385D01*
X6497523Y12246508D01*
X6485585Y12239955D01*
X6474612Y12231878D01*
X6464808Y12222378D01*
X6456324Y12211659D01*
X6449364Y12199924D01*
X6444081Y12187377D01*
X6440474Y12174220D01*
X6438646Y12160707D01*
X6438646Y12147092D01*
X6440474Y12133580D01*
X6444081Y12120422D01*
X6449364Y12107875D01*
X6456324Y12096140D01*
X6464808Y12085421D01*
X6474612Y12075922D01*
X6485585Y12067844D01*
X6496608Y12061799D01*
X6499402Y12059513D01*
X6501231Y12056414D01*
X6501892Y12052909D01*
X6501892Y10099751D01*
X6501130Y10095890D01*
X6498894Y10092588D01*
X6066180Y9659823D01*
X6062726Y9657588D01*
X6058662Y9656876D01*
X6053988Y9658146D01*
X6040170Y9662668D01*
X6025845Y9665360D01*
X6011316Y9666274D01*
X5996787Y9665360D01*
X5982512Y9662668D01*
X5968695Y9658146D01*
X5955487Y9651949D01*
X5943193Y9644176D01*
X5932017Y9634880D01*
X5922060Y9624263D01*
X5913475Y9612477D01*
X5906465Y9599726D01*
X5901131Y9586214D01*
X5897524Y9572091D01*
X5895695Y9557664D01*
X5895695Y9543135D01*
X5897524Y9528708D01*
X5901131Y9514586D01*
X5904280Y9506610D01*
X5904992Y9502749D01*
X5904179Y9498939D01*
X5901994Y9495688D01*
X5866282Y9459925D01*
X5861151Y9453727D01*
X5857595Y9447022D01*
X5855411Y9439808D01*
X5854598Y9431782D01*
X5854598Y8216696D01*
X5855411Y8208670D01*
X5857595Y8201456D01*
X5861151Y8194802D01*
X5866282Y8188553D01*
X6036767Y8018068D01*
X6039053Y8014512D01*
X6039713Y8010296D01*
X6038545Y8006181D01*
X6035802Y8002879D01*
X6027420Y7996377D01*
X6020612Y7989011D01*
X6015126Y7980578D01*
X6011113Y7971383D01*
X6008624Y7961630D01*
X6007303Y7946186D01*
X6004966Y7942478D01*
X5179822Y7117334D01*
X5174691Y7111136D01*
X5171135Y7104430D01*
X5168950Y7097217D01*
X5168138Y7089190D01*
X5168138Y6837578D01*
X5167376Y6833666D01*
X5165191Y6830364D01*
X5161889Y6828180D01*
X5157978Y6827418D01*
X5059273Y6827418D01*
X5052974Y6826707D01*
X5047488Y6824776D01*
X5042611Y6821678D01*
X5038496Y6817614D01*
X5035448Y6812686D01*
X5033518Y6807250D01*
X5032806Y6800900D01*
X5032806Y6622084D01*
X5033518Y6615734D01*
X5035448Y6610299D01*
X5038496Y6605371D01*
X5042611Y6601307D01*
X5047488Y6598208D01*
X5052974Y6596278D01*
X5059273Y6595567D01*
X5157978Y6595567D01*
X5161889Y6594805D01*
X5165191Y6592620D01*
X5167376Y6589318D01*
X5168138Y6585407D01*
X5168138Y6028334D01*
X5167376Y6024473D01*
X5165191Y6021171D01*
X5161889Y6018987D01*
X5157978Y6018174D01*
X5043220Y6018174D01*
X5035194Y6017412D01*
X5027930Y6015228D01*
X5021275Y6011672D01*
X5015179Y6006642D01*
X5012182Y6004915D01*
X5008727Y6004356D01*
X5001768Y6004356D01*
X4991862Y6002680D01*
X4982362Y5999429D01*
X4973523Y5994654D01*
X4965547Y5988456D01*
X4958740Y5981090D01*
X4953254Y5972657D01*
X4949240Y5963462D01*
X4946751Y5953709D01*
X4945938Y5943650D01*
X4946751Y5933643D01*
X4949240Y5923889D01*
X4953254Y5914694D01*
X4958740Y5906262D01*
X4965547Y5898896D01*
X4973523Y5892698D01*
X4982362Y5887923D01*
X4991862Y5884672D01*
X5001768Y5882995D01*
X5011826Y5882995D01*
X5021732Y5884672D01*
X5031232Y5887923D01*
X5040071Y5892698D01*
X5048046Y5898896D01*
X5054854Y5906262D01*
X5056124Y5908243D01*
X5058359Y5910732D01*
X5061305Y5912307D01*
X5064607Y5912866D01*
X5082387Y5912866D01*
X5082387Y5930798D01*
X5083149Y5934710D01*
X5085334Y5938012D01*
X5088636Y5940196D01*
X5092547Y5940958D01*
X5144922Y5940958D01*
X5148783Y5940196D01*
X5152085Y5938012D01*
X5154269Y5934710D01*
X5155082Y5930798D01*
X5155082Y5912866D01*
X5157978Y5912866D01*
X5161889Y5912053D01*
X5165191Y5909868D01*
X5167376Y5906566D01*
X5168138Y5902706D01*
X5168138Y5820308D01*
X5167376Y5816447D01*
X5165191Y5813145D01*
X5161889Y5810910D01*
X5157978Y5810148D01*
X5155082Y5810148D01*
X5155082Y5745581D01*
X5157978Y5745581D01*
X5161889Y5744819D01*
X5165191Y5742635D01*
X5167376Y5739333D01*
X5168138Y5735421D01*
X5168138Y3700119D01*
X5167477Y3696462D01*
X5165445Y3693261D01*
X5158740Y3685946D01*
X5153253Y3677513D01*
X5149189Y3668318D01*
X5146751Y3658565D01*
X5145887Y3648557D01*
X5146751Y3638550D01*
X5149189Y3628796D01*
X5153253Y3619601D01*
X5158740Y3611168D01*
X5165547Y3603751D01*
X5173472Y3597605D01*
X5177993Y3594354D01*
X5179822Y3591102D01*
X5180380Y3587394D01*
X5179517Y3583736D01*
X5177383Y3580637D01*
X4466742Y2869996D01*
X4463491Y2867761D01*
X4459579Y2866999D01*
X4137609Y2866999D01*
X4135120Y2867304D01*
X4132783Y2868218D01*
X4125976Y2871876D01*
X4116476Y2875178D01*
X4106570Y2876804D01*
X4096512Y2876804D01*
X4086606Y2875178D01*
X4077106Y2871876D01*
X4068267Y2867101D01*
X4060291Y2860954D01*
X4053484Y2853537D01*
X4047998Y2845104D01*
X4043984Y2835910D01*
X4041495Y2826156D01*
X4040682Y2816148D01*
X4041495Y2806141D01*
X4043984Y2796387D01*
X4047998Y2787192D01*
X4053484Y2778760D01*
X4060291Y2771343D01*
X4068267Y2765196D01*
X4077106Y2760421D01*
X4086606Y2757119D01*
X4096512Y2755493D01*
X4106570Y2755493D01*
X4116476Y2757119D01*
X4125976Y2760421D01*
X4132579Y2763977D01*
X4134916Y2764891D01*
X4137406Y2765196D01*
X4484674Y2765196D01*
X4489297Y2765399D01*
X4493717Y2765958D01*
X4498035Y2766923D01*
X4502302Y2768244D01*
X4506366Y2769971D01*
X4510328Y2772003D01*
X4514088Y2774391D01*
X4517593Y2777083D01*
X4521047Y2780233D01*
X5725464Y3984650D01*
X5728614Y3988104D01*
X5731306Y3991610D01*
X5733694Y3995369D01*
X5735726Y3999331D01*
X5737453Y4003395D01*
X5738774Y4007662D01*
X5739739Y4011980D01*
X5740298Y4016400D01*
X5740501Y4021023D01*
X5740501Y5524296D01*
X5740298Y5528919D01*
X5739739Y5533339D01*
X5738774Y5537657D01*
X5737453Y5541924D01*
X5735726Y5545988D01*
X5733694Y5549950D01*
X5731306Y5553710D01*
X5728614Y5557215D01*
X5725464Y5560669D01*
X5661507Y5624626D01*
X5658053Y5627776D01*
X5654548Y5630468D01*
X5650788Y5632856D01*
X5646826Y5634888D01*
X5642762Y5636615D01*
X5638495Y5637936D01*
X5634177Y5638901D01*
X5629757Y5639460D01*
X5625134Y5639663D01*
X5537454Y5639663D01*
X5533593Y5640425D01*
X5530291Y5642660D01*
X5528106Y5645962D01*
X5527294Y5649823D01*
X5527294Y6091123D01*
X5526532Y6099149D01*
X5524347Y6106363D01*
X5520740Y6113018D01*
X5515660Y6119266D01*
X5343702Y6291224D01*
X5341366Y6294882D01*
X5339994Y6310376D01*
X5337556Y6320129D01*
X5333492Y6329324D01*
X5328005Y6337757D01*
X5321249Y6345072D01*
X5319268Y6348272D01*
X5318556Y6351930D01*
X5318556Y6578600D01*
X5319369Y6582460D01*
X5321554Y6585762D01*
X5914644Y7178903D01*
X5917946Y7181088D01*
X5921857Y7181850D01*
X5925718Y7181088D01*
X5929020Y7178903D01*
X5931204Y7175601D01*
X5932017Y7171690D01*
X5932017Y7082180D01*
X5932728Y7075830D01*
X5934608Y7070394D01*
X5937707Y7065467D01*
X5941771Y7061403D01*
X5946698Y7058304D01*
X5952134Y7056374D01*
X5958484Y7055662D01*
X6046978Y7055662D01*
X6050838Y7054900D01*
X6054140Y7052716D01*
X6056376Y7049414D01*
X6057138Y7045502D01*
X6057138Y6952792D01*
X6056376Y6948931D01*
X6054140Y6945630D01*
X6050838Y6943445D01*
X6046978Y6942632D01*
X5958484Y6942632D01*
X5952134Y6941921D01*
X5946698Y6940042D01*
X5941771Y6936943D01*
X5937707Y6932879D01*
X5934608Y6927951D01*
X5932728Y6922516D01*
X5932017Y6916166D01*
X5932017Y6838137D01*
X5931509Y6834987D01*
X5926226Y6824522D01*
X5923940Y6816394D01*
X5923076Y6807504D01*
X5923076Y3275584D01*
X5923280Y3271113D01*
X5923889Y3266897D01*
X5924854Y3262782D01*
X5926175Y3258820D01*
X5927598Y3255772D01*
X5928461Y3252774D01*
X5928360Y3249676D01*
X5927293Y3246729D01*
X5925413Y3243122D01*
X5923178Y3235909D01*
X5922416Y3227882D01*
X5922416Y3075838D01*
X5921705Y3072130D01*
X5919724Y3068980D01*
X5912967Y3061665D01*
X5907481Y3053232D01*
X5903468Y3044037D01*
X5900978Y3034284D01*
X5900166Y3024225D01*
X5900978Y3014218D01*
X5903468Y3004464D01*
X5907481Y2995269D01*
X5912967Y2986836D01*
X5919774Y2979470D01*
X5927750Y2973273D01*
X5936589Y2968498D01*
X5946089Y2965246D01*
X5955995Y2963570D01*
X5966053Y2963570D01*
X5975959Y2965246D01*
X5981852Y2967278D01*
X5986322Y2967736D01*
X5990590Y2966212D01*
X5993790Y2963011D01*
X5995263Y2958744D01*
X5994755Y2954274D01*
X5992317Y2950464D01*
X5585155Y2543505D01*
X5581853Y2541270D01*
X5577992Y2540508D01*
G37*

%LPC*%
G36*
X4607915Y4858004D02*
G01*
X4645964Y4858004D01*
X4645964Y4907584D01*
X4581448Y4907584D01*
X4581448Y4884470D01*
X4582160Y4878171D01*
X4584039Y4872685D01*
X4587138Y4867808D01*
X4591202Y4863693D01*
X4596130Y4860645D01*
X4601565Y4858715D01*
G37*
G36*
X4748682Y4858004D02*
G01*
X4786782Y4858004D01*
X4793081Y4858715D01*
X4798568Y4860645D01*
X4803444Y4863693D01*
X4807559Y4867808D01*
X4810607Y4872685D01*
X4812538Y4878171D01*
X4813249Y4884470D01*
X4813249Y4907584D01*
X4748682Y4907584D01*
G37*
G36*
X3414115Y4934204D02*
G01*
X3452164Y4934204D01*
X3452164Y4983784D01*
X3387648Y4983784D01*
X3387648Y4960670D01*
X3388360Y4954371D01*
X3390239Y4948885D01*
X3393338Y4944008D01*
X3397402Y4939893D01*
X3402329Y4936845D01*
X3407765Y4934915D01*
G37*
G36*
X3554882Y4934204D02*
G01*
X3592982Y4934204D01*
X3599281Y4934915D01*
X3604768Y4936845D01*
X3609644Y4939893D01*
X3613759Y4944008D01*
X3616807Y4948885D01*
X3618737Y4954371D01*
X3619449Y4960670D01*
X3619449Y4983784D01*
X3554882Y4983784D01*
G37*
G36*
X4264101Y4934204D02*
G01*
X4442968Y4934204D01*
X4449267Y4934915D01*
X4454753Y4936845D01*
X4459630Y4939893D01*
X4463745Y4944008D01*
X4466793Y4948885D01*
X4468723Y4954371D01*
X4469434Y4960670D01*
X4469434Y5079542D01*
X4468723Y5085892D01*
X4466793Y5091328D01*
X4463745Y5096256D01*
X4459630Y5100320D01*
X4454753Y5103418D01*
X4449267Y5105298D01*
X4442968Y5106009D01*
X4264101Y5106009D01*
X4257802Y5105298D01*
X4252315Y5103418D01*
X4247438Y5100320D01*
X4243324Y5096256D01*
X4240225Y5091328D01*
X4238345Y5085892D01*
X4237634Y5079542D01*
X4237634Y4960670D01*
X4238345Y4954371D01*
X4240225Y4948885D01*
X4243324Y4944008D01*
X4247438Y4939893D01*
X4252315Y4936845D01*
X4257802Y4934915D01*
G37*
G36*
X4748682Y4980279D02*
G01*
X4813249Y4980279D01*
X4813249Y5003342D01*
X4812538Y5009692D01*
X4810607Y5015128D01*
X4807559Y5020056D01*
X4803444Y5024120D01*
X4798568Y5027218D01*
X4793081Y5029098D01*
X4786782Y5029809D01*
X4748682Y5029809D01*
G37*
G36*
X4581448Y4980279D02*
G01*
X4645964Y4980279D01*
X4645964Y5029809D01*
X4630470Y5029809D01*
X4626203Y5030774D01*
X4622749Y5033365D01*
X4620717Y5037175D01*
X4620412Y5041493D01*
X4621936Y5045557D01*
X4625543Y5051044D01*
X4629556Y5060238D01*
X4632045Y5069992D01*
X4632858Y5080000D01*
X4632045Y5090007D01*
X4629556Y5099761D01*
X4625543Y5108956D01*
X4620056Y5117388D01*
X4613300Y5124704D01*
X4611319Y5127904D01*
X4610608Y5131612D01*
X4610608Y5297830D01*
X4611370Y5301742D01*
X4613605Y5305044D01*
X4616856Y5307228D01*
X4620768Y5307990D01*
X4666742Y5307990D01*
X4670348Y5307330D01*
X4673498Y5305450D01*
X4675733Y5302504D01*
X4676800Y5298998D01*
X4676597Y5295341D01*
X4675581Y5291429D01*
X4674768Y5281371D01*
X4675581Y5271363D01*
X4678070Y5261610D01*
X4682083Y5252415D01*
X4687570Y5243982D01*
X4694377Y5236616D01*
X4702352Y5230418D01*
X4711192Y5225643D01*
X4715052Y5224322D01*
X4718862Y5221986D01*
X4721250Y5218277D01*
X4721860Y5213858D01*
X4721250Y5206339D01*
X4722114Y5196332D01*
X4724552Y5186578D01*
X4728616Y5177383D01*
X4734102Y5168950D01*
X4740910Y5161534D01*
X4748834Y5155387D01*
X4757674Y5150612D01*
X4767173Y5147310D01*
X4777130Y5145684D01*
X4787138Y5145684D01*
X4797094Y5147310D01*
X4806594Y5150612D01*
X4815433Y5155387D01*
X4823358Y5161534D01*
X4830165Y5168950D01*
X4835652Y5177383D01*
X4839716Y5186578D01*
X4842154Y5196332D01*
X4843526Y5211775D01*
X4845862Y5215483D01*
X4885131Y5254752D01*
X4890262Y5261000D01*
X4893818Y5267655D01*
X4896002Y5274868D01*
X4896815Y5282895D01*
X4896815Y6668058D01*
X4897475Y6671716D01*
X4899507Y6674916D01*
X4906264Y6682231D01*
X4911750Y6690664D01*
X4915763Y6699859D01*
X4918252Y6709613D01*
X4919065Y6719620D01*
X4918252Y6729679D01*
X4915763Y6739432D01*
X4911750Y6748627D01*
X4906264Y6757060D01*
X4899456Y6764426D01*
X4891481Y6770624D01*
X4882642Y6775399D01*
X4873142Y6778650D01*
X4863236Y6780326D01*
X4859223Y6780326D01*
X4855616Y6780987D01*
X4852466Y6782866D01*
X4850180Y6785762D01*
X4849114Y6789318D01*
X4849368Y6792975D01*
X4850434Y6797192D01*
X4851247Y6807200D01*
X4850434Y6817207D01*
X4847945Y6826961D01*
X4843932Y6836156D01*
X4838446Y6844588D01*
X4831638Y6852005D01*
X4823663Y6858152D01*
X4814824Y6862927D01*
X4805324Y6866229D01*
X4795418Y6867855D01*
X4785360Y6867855D01*
X4775454Y6866229D01*
X4765954Y6862927D01*
X4757115Y6858152D01*
X4749139Y6852005D01*
X4742332Y6844588D01*
X4736846Y6836156D01*
X4735677Y6833463D01*
X4733442Y6830263D01*
X4730191Y6828129D01*
X4724857Y6827418D01*
X4720945Y6828180D01*
X4717643Y6830364D01*
X4715459Y6833666D01*
X4714697Y6837578D01*
X4714697Y8186216D01*
X4715459Y8190128D01*
X4717643Y8193430D01*
X4720945Y8195614D01*
X4724857Y8196376D01*
X4889246Y8196376D01*
X4893868Y8196630D01*
X4897932Y8197189D01*
X4902149Y8198205D01*
X4906060Y8199475D01*
X4910074Y8201253D01*
X4913630Y8203285D01*
X4917440Y8205876D01*
X5285181Y8484870D01*
X5291683Y8490813D01*
X5296814Y8497570D01*
X5300573Y8505139D01*
X5302859Y8513267D01*
X5303723Y8522157D01*
X5303723Y11284712D01*
X5304129Y11287607D01*
X5305348Y11290300D01*
X5311343Y11299444D01*
X5315356Y11308638D01*
X5317845Y11318392D01*
X5318658Y11328400D01*
X5317845Y11338407D01*
X5315356Y11348161D01*
X5311343Y11357356D01*
X5305856Y11365788D01*
X5299049Y11373205D01*
X5291074Y11379352D01*
X5282234Y11384127D01*
X5272735Y11387429D01*
X5262829Y11389055D01*
X5252770Y11389055D01*
X5242864Y11387429D01*
X5233365Y11384127D01*
X5224526Y11379352D01*
X5216550Y11373205D01*
X5209743Y11365788D01*
X5204256Y11357356D01*
X5200243Y11348161D01*
X5197754Y11338407D01*
X5196941Y11328400D01*
X5197754Y11318392D01*
X5200243Y11308638D01*
X5204256Y11299444D01*
X5210251Y11290300D01*
X5211470Y11287607D01*
X5211876Y11284712D01*
X5211876Y8549538D01*
X5211419Y8546490D01*
X5210048Y8543696D01*
X5207863Y8541461D01*
X4876800Y8290255D01*
X4873853Y8288731D01*
X4870653Y8288223D01*
X4678781Y8288223D01*
X4675479Y8288781D01*
X4672533Y8290356D01*
X4668774Y8293252D01*
X4659934Y8298027D01*
X4650435Y8301329D01*
X4640529Y8302955D01*
X4630470Y8302955D01*
X4622444Y8301634D01*
X4618075Y8301837D01*
X4614214Y8303869D01*
X4611573Y8307374D01*
X4610608Y8311642D01*
X4610608Y8336381D01*
X4611370Y8340293D01*
X4613605Y8343595D01*
X4916424Y8646464D01*
X4921554Y8652662D01*
X4925110Y8659368D01*
X4927295Y8666581D01*
X4928108Y8674608D01*
X4928108Y9461042D01*
X4927498Y9468002D01*
X4925466Y9475368D01*
X4922062Y9482124D01*
X4917440Y9488068D01*
X4911699Y9493046D01*
X4905146Y9496755D01*
X4897932Y9499142D01*
X4889957Y9500108D01*
X4859680Y9500870D01*
X4855464Y9501886D01*
X4852060Y9504629D01*
X4850079Y9508490D01*
X4849977Y9512858D01*
X4851654Y9516872D01*
X4857343Y9525000D01*
X4861102Y9533026D01*
X4863388Y9541510D01*
X4864201Y9551568D01*
X4826101Y12357404D01*
X4825288Y12365888D01*
X4823002Y12374473D01*
X4819243Y12382550D01*
X4814163Y12389815D01*
X4807915Y12396063D01*
X4800650Y12401143D01*
X4792573Y12404902D01*
X4784039Y12407188D01*
X4774742Y12408001D01*
X4242003Y12408001D01*
X4237380Y12407798D01*
X4232960Y12407239D01*
X4228642Y12406274D01*
X4224375Y12404953D01*
X4220311Y12403226D01*
X4216349Y12401194D01*
X4212590Y12398806D01*
X4209084Y12396114D01*
X4205630Y12392964D01*
X4125163Y12312446D01*
X4122470Y12310516D01*
X4119321Y12309551D01*
X4116019Y12309703D01*
X4103522Y12312142D01*
X4089400Y12313107D01*
X4075277Y12312142D01*
X4061358Y12309398D01*
X4047947Y12304826D01*
X4035196Y12298578D01*
X4023410Y12290704D01*
X4012742Y12281357D01*
X4003395Y12270689D01*
X3995521Y12258903D01*
X3989273Y12246152D01*
X3984701Y12232741D01*
X3981958Y12218822D01*
X3980992Y12204700D01*
X3981958Y12190577D01*
X3984701Y12176658D01*
X3989273Y12163247D01*
X3995521Y12150496D01*
X4003395Y12138710D01*
X4012742Y12128042D01*
X4023410Y12118695D01*
X4035196Y12110821D01*
X4047947Y12104573D01*
X4061358Y12100001D01*
X4075277Y12097258D01*
X4089400Y12096292D01*
X4103522Y12097258D01*
X4117441Y12100001D01*
X4130852Y12104573D01*
X4143603Y12110821D01*
X4155389Y12118695D01*
X4166057Y12128042D01*
X4175404Y12138710D01*
X4183278Y12150496D01*
X4189526Y12163247D01*
X4194098Y12176658D01*
X4196842Y12190577D01*
X4197807Y12204700D01*
X4196842Y12218822D01*
X4194403Y12231319D01*
X4194251Y12234621D01*
X4195216Y12237770D01*
X4197146Y12240463D01*
X4259935Y12303201D01*
X4263186Y12305436D01*
X4268114Y12306198D01*
X4272076Y12305385D01*
X4275429Y12303048D01*
X4277614Y12299594D01*
X4278274Y12295581D01*
X4277258Y12291618D01*
X4274820Y12288418D01*
X4266742Y12281357D01*
X4257395Y12270689D01*
X4249521Y12258903D01*
X4243273Y12246152D01*
X4238701Y12232741D01*
X4235958Y12218822D01*
X4234992Y12204700D01*
X4235958Y12190577D01*
X4238701Y12176658D01*
X4243273Y12163247D01*
X4249521Y12150496D01*
X4257395Y12138710D01*
X4266742Y12128042D01*
X4277410Y12118695D01*
X4289196Y12110821D01*
X4301947Y12104573D01*
X4315358Y12100001D01*
X4329277Y12097258D01*
X4343400Y12096292D01*
X4357522Y12097258D01*
X4370019Y12099696D01*
X4373321Y12099848D01*
X4376470Y12098883D01*
X4379163Y12096953D01*
X4423714Y12052401D01*
X4425950Y12049099D01*
X4426712Y12045188D01*
X4426712Y10038994D01*
X4426254Y10036098D01*
X4424070Y10031984D01*
X4420057Y10022789D01*
X4417568Y10013035D01*
X4416755Y10002977D01*
X4417568Y9992969D01*
X4420057Y9983216D01*
X4424070Y9974021D01*
X4426254Y9969906D01*
X4426712Y9967010D01*
X4426712Y9404197D01*
X4425797Y9400082D01*
X4423359Y9396679D01*
X4412742Y9387027D01*
X4403902Y9376613D01*
X4396587Y9365132D01*
X4390847Y9352788D01*
X4386783Y9339732D01*
X4384548Y9326321D01*
X4384090Y9312656D01*
X4385462Y9299092D01*
X4388612Y9285833D01*
X4393488Y9273133D01*
X4400042Y9261144D01*
X4408170Y9250172D01*
X4417618Y9240367D01*
X4426407Y9233458D01*
X4429048Y9230258D01*
X4430217Y9226245D01*
X4429709Y9222130D01*
X4427575Y9218574D01*
X4424172Y9216136D01*
X4420108Y9215323D01*
X4302099Y9215323D01*
X4298035Y9216136D01*
X4294632Y9218574D01*
X4292498Y9222130D01*
X4291990Y9226245D01*
X4293158Y9230258D01*
X4295800Y9233458D01*
X4304588Y9240367D01*
X4314037Y9250172D01*
X4322165Y9261144D01*
X4328718Y9273133D01*
X4333595Y9285833D01*
X4336745Y9299092D01*
X4338116Y9312656D01*
X4337659Y9326321D01*
X4335424Y9339732D01*
X4331360Y9352788D01*
X4325620Y9365132D01*
X4318304Y9376613D01*
X4309465Y9387027D01*
X4299356Y9396222D01*
X4288129Y9403892D01*
X4275937Y9410090D01*
X4263085Y9414560D01*
X4249724Y9417253D01*
X4236110Y9418167D01*
X4222496Y9417253D01*
X4209135Y9414560D01*
X4196232Y9410090D01*
X4184091Y9403892D01*
X4172813Y9396222D01*
X4162704Y9387027D01*
X4153915Y9376613D01*
X4146600Y9365132D01*
X4140860Y9352788D01*
X4136796Y9339732D01*
X4134510Y9326321D01*
X4134053Y9312656D01*
X4135424Y9299092D01*
X4138625Y9285833D01*
X4143501Y9273133D01*
X4150055Y9261144D01*
X4158132Y9250172D01*
X4167632Y9240367D01*
X4177284Y9232747D01*
X4179874Y9229750D01*
X4181094Y9225991D01*
X4180840Y9222079D01*
X4179062Y9218574D01*
X4176115Y9215983D01*
X4172407Y9214713D01*
X4167784Y9214053D01*
X4159758Y9211360D01*
X4152392Y9207246D01*
X4145483Y9201505D01*
X4045915Y9101937D01*
X4042257Y9099600D01*
X4037990Y9098991D01*
X4033824Y9100210D01*
X4022293Y9106509D01*
X4009390Y9111640D01*
X3995877Y9115145D01*
X3982059Y9116872D01*
X3968140Y9116872D01*
X3954322Y9115145D01*
X3940810Y9111640D01*
X3927906Y9106509D01*
X3915664Y9099804D01*
X3904437Y9091625D01*
X3894277Y9082125D01*
X3885387Y9071356D01*
X3877919Y9059621D01*
X3871976Y9047022D01*
X3867708Y9033764D01*
X3865067Y9020098D01*
X3864203Y9005874D01*
X3864203Y8926525D01*
X3865067Y8912301D01*
X3867708Y8898636D01*
X3871976Y8885377D01*
X3877919Y8872778D01*
X3885387Y8861044D01*
X3894277Y8850274D01*
X3904437Y8840774D01*
X3915664Y8832596D01*
X3927906Y8825890D01*
X3940810Y8820759D01*
X3954322Y8817254D01*
X3968140Y8815527D01*
X3982059Y8815527D01*
X3995877Y8817254D01*
X4009390Y8820759D01*
X4022293Y8825890D01*
X4034536Y8832596D01*
X4045762Y8840774D01*
X4055922Y8850274D01*
X4064812Y8861044D01*
X4072280Y8872778D01*
X4078224Y8885377D01*
X4082491Y8898636D01*
X4085132Y8912301D01*
X4085996Y8926525D01*
X4085996Y9005874D01*
X4086555Y9011462D01*
X4088892Y9015069D01*
X4101744Y9027922D01*
X4105148Y9030157D01*
X4109161Y9030919D01*
X4113123Y9030004D01*
X4116425Y9027617D01*
X4118508Y9024162D01*
X4119067Y9020098D01*
X4118203Y9005874D01*
X4118203Y8926525D01*
X4119067Y8912301D01*
X4121708Y8898636D01*
X4125976Y8885377D01*
X4131919Y8872778D01*
X4139387Y8861044D01*
X4148277Y8850274D01*
X4158437Y8840774D01*
X4169664Y8832596D01*
X4181906Y8825890D01*
X4194810Y8820759D01*
X4208322Y8817254D01*
X4222140Y8815527D01*
X4236059Y8815527D01*
X4249877Y8817254D01*
X4263390Y8820759D01*
X4276293Y8825890D01*
X4288536Y8832596D01*
X4299762Y8840774D01*
X4309922Y8850274D01*
X4318812Y8861044D01*
X4326280Y8872778D01*
X4332224Y8885377D01*
X4336491Y8898636D01*
X4339132Y8912301D01*
X4339996Y8926525D01*
X4339996Y9005874D01*
X4339132Y9020098D01*
X4336491Y9033764D01*
X4332224Y9047022D01*
X4326280Y9059621D01*
X4318812Y9071356D01*
X4309922Y9082125D01*
X4299762Y9091625D01*
X4288536Y9099804D01*
X4280154Y9104426D01*
X4276801Y9107373D01*
X4275074Y9111437D01*
X4275175Y9115856D01*
X4277207Y9119819D01*
X4280712Y9122511D01*
X4285030Y9123476D01*
X4427169Y9123476D01*
X4431487Y9122511D01*
X4434992Y9119819D01*
X4437024Y9115856D01*
X4437126Y9111437D01*
X4435398Y9107373D01*
X4432046Y9104426D01*
X4423664Y9099804D01*
X4412437Y9091625D01*
X4402277Y9082125D01*
X4393387Y9071356D01*
X4385919Y9059621D01*
X4379976Y9047022D01*
X4375708Y9033764D01*
X4373067Y9020098D01*
X4372203Y9005874D01*
X4372203Y8926525D01*
X4373067Y8912301D01*
X4375708Y8898636D01*
X4379976Y8885377D01*
X4385919Y8872778D01*
X4393387Y8861044D01*
X4402277Y8850274D01*
X4412437Y8840774D01*
X4423664Y8832596D01*
X4435906Y8825890D01*
X4448810Y8820759D01*
X4462322Y8817254D01*
X4476140Y8815527D01*
X4490059Y8815527D01*
X4503877Y8817254D01*
X4517390Y8820759D01*
X4530293Y8825890D01*
X4542536Y8832596D01*
X4553762Y8840774D01*
X4563922Y8850274D01*
X4572812Y8861044D01*
X4580280Y8872778D01*
X4586224Y8885377D01*
X4590491Y8898636D01*
X4593132Y8912301D01*
X4593996Y8926525D01*
X4593996Y9005874D01*
X4593132Y9020098D01*
X4590491Y9033764D01*
X4586224Y9047022D01*
X4580280Y9059621D01*
X4572812Y9071356D01*
X4563922Y9082125D01*
X4553762Y9091625D01*
X4542536Y9099804D01*
X4534154Y9104426D01*
X4530801Y9107373D01*
X4529074Y9111437D01*
X4529175Y9115856D01*
X4531207Y9119819D01*
X4534712Y9122511D01*
X4539030Y9123476D01*
X4591151Y9123527D01*
X4599889Y9124746D01*
X4607915Y9127439D01*
X4615281Y9131554D01*
X4622190Y9137294D01*
X4699965Y9215069D01*
X4702860Y9217101D01*
X4706315Y9218015D01*
X4709820Y9217660D01*
X4715764Y9216034D01*
X4729276Y9214205D01*
X4742942Y9214205D01*
X4756454Y9216034D01*
X4769612Y9219641D01*
X4782159Y9224975D01*
X4793894Y9231934D01*
X4804562Y9240367D01*
X4814062Y9250172D01*
X4822139Y9261144D01*
X4828692Y9273133D01*
X4831232Y9279737D01*
X4833416Y9283090D01*
X4836668Y9285376D01*
X4840579Y9286240D01*
X4844542Y9285528D01*
X4847844Y9283293D01*
X4850130Y9279991D01*
X4850892Y9276080D01*
X4850892Y9068409D01*
X4849977Y9064193D01*
X4847386Y9060688D01*
X4843576Y9058656D01*
X4839258Y9058351D01*
X4835194Y9059875D01*
X4832146Y9062974D01*
X4826812Y9071356D01*
X4817922Y9082125D01*
X4807762Y9091625D01*
X4796536Y9099804D01*
X4785969Y9105646D01*
X4785969Y9035034D01*
X4840732Y9035034D01*
X4844643Y9034272D01*
X4847894Y9032087D01*
X4850130Y9028785D01*
X4850892Y9024874D01*
X4850892Y8907526D01*
X4850130Y8903614D01*
X4847894Y8900312D01*
X4844643Y8898128D01*
X4840732Y8897366D01*
X4785969Y8897366D01*
X4785969Y8826754D01*
X4796536Y8832596D01*
X4807762Y8840774D01*
X4817922Y8850274D01*
X4826812Y8861044D01*
X4832146Y8869426D01*
X4835194Y8872524D01*
X4839258Y8874048D01*
X4843576Y8873744D01*
X4847386Y8871712D01*
X4849977Y8868206D01*
X4850892Y8863990D01*
X4850892Y8694318D01*
X4850130Y8690406D01*
X4847894Y8687104D01*
X4545076Y8384235D01*
X4539945Y8378037D01*
X4536389Y8371331D01*
X4534204Y8364118D01*
X4533392Y8356092D01*
X4533392Y5131612D01*
X4532680Y5127904D01*
X4530699Y5124704D01*
X4523943Y5117388D01*
X4518456Y5108956D01*
X4514443Y5099761D01*
X4511954Y5090007D01*
X4511141Y5080000D01*
X4511954Y5069992D01*
X4514443Y5060238D01*
X4518456Y5051044D01*
X4523943Y5042611D01*
X4530750Y5035194D01*
X4538726Y5029047D01*
X4547565Y5024272D01*
X4557064Y5020970D01*
X4566970Y5019344D01*
X4571847Y5019344D01*
X4576013Y5018430D01*
X4579416Y5015941D01*
X4581550Y5012283D01*
X4581956Y5008016D01*
X4581448Y5003342D01*
G37*
G36*
X3387648Y5056479D02*
G01*
X3452164Y5056479D01*
X3452164Y5106009D01*
X3414115Y5106009D01*
X3407765Y5105298D01*
X3402329Y5103418D01*
X3397402Y5100320D01*
X3393338Y5096256D01*
X3390239Y5091328D01*
X3388360Y5085892D01*
X3387648Y5079542D01*
G37*
G36*
X3554882Y5056479D02*
G01*
X3619449Y5056479D01*
X3619449Y5079542D01*
X3618737Y5085892D01*
X3616807Y5091328D01*
X3613759Y5096256D01*
X3609644Y5100320D01*
X3604768Y5103418D01*
X3599281Y5105298D01*
X3592982Y5106009D01*
X3554882Y5106009D01*
G37*
G36*
X4113936Y5380075D02*
G01*
X4123994Y5380075D01*
X4133900Y5381701D01*
X4143400Y5385003D01*
X4152239Y5389778D01*
X4160215Y5395925D01*
X4167022Y5403342D01*
X4172508Y5411724D01*
X4176928Y5421934D01*
X4179062Y5425033D01*
X4182160Y5427167D01*
X4185818Y5428030D01*
X4189526Y5427472D01*
X4196943Y5424932D01*
X4206849Y5423306D01*
X4216908Y5423306D01*
X4225798Y5424779D01*
X4230166Y5424576D01*
X4234027Y5422493D01*
X4236669Y5419039D01*
X4237634Y5414772D01*
X4237634Y5410657D01*
X4238345Y5404358D01*
X4240225Y5398871D01*
X4243324Y5393994D01*
X4247438Y5389880D01*
X4252315Y5386832D01*
X4257802Y5384901D01*
X4264101Y5384190D01*
X4442968Y5384190D01*
X4449267Y5384901D01*
X4454753Y5386832D01*
X4459630Y5389880D01*
X4463745Y5393994D01*
X4466793Y5398871D01*
X4468723Y5404358D01*
X4469434Y5410657D01*
X4469434Y5529529D01*
X4468723Y5535879D01*
X4466793Y5541314D01*
X4463745Y5546242D01*
X4459630Y5550306D01*
X4454753Y5553405D01*
X4449267Y5555284D01*
X4442968Y5555996D01*
X4264101Y5555996D01*
X4257802Y5555284D01*
X4252315Y5553405D01*
X4247438Y5550306D01*
X4239818Y5542534D01*
X4235602Y5541010D01*
X4231081Y5541518D01*
X4226814Y5542991D01*
X4216908Y5544616D01*
X4206849Y5544616D01*
X4196943Y5542991D01*
X4187444Y5539689D01*
X4181094Y5536285D01*
X4176826Y5535066D01*
X4172458Y5535828D01*
X4168800Y5538317D01*
X4166565Y5542178D01*
X4166209Y5546598D01*
X4167784Y5550763D01*
X4172508Y5558028D01*
X4176522Y5567222D01*
X4179011Y5576976D01*
X4179824Y5586984D01*
X4179011Y5597042D01*
X4176522Y5606796D01*
X4172508Y5615990D01*
X4167022Y5624423D01*
X4160215Y5631789D01*
X4152239Y5637987D01*
X4143400Y5642762D01*
X4133900Y5646013D01*
X4123994Y5647690D01*
X4113936Y5647690D01*
X4104030Y5646013D01*
X4094530Y5642762D01*
X4085691Y5637987D01*
X4077715Y5631789D01*
X4070908Y5624423D01*
X4065422Y5615990D01*
X4061409Y5606796D01*
X4058920Y5597042D01*
X4058107Y5586984D01*
X4058920Y5576976D01*
X4061409Y5567222D01*
X4065422Y5558028D01*
X4070908Y5549595D01*
X4077665Y5542280D01*
X4079646Y5539130D01*
X4080357Y5535422D01*
X4080357Y5492292D01*
X4079646Y5488635D01*
X4077665Y5485434D01*
X4070908Y5478119D01*
X4065422Y5469686D01*
X4061409Y5460492D01*
X4058920Y5450738D01*
X4058107Y5440730D01*
X4058920Y5430723D01*
X4061409Y5420969D01*
X4065422Y5411774D01*
X4070908Y5403342D01*
X4077715Y5395925D01*
X4085691Y5389778D01*
X4094530Y5385003D01*
X4104030Y5381701D01*
G37*
G36*
X5059273Y5745581D02*
G01*
X5082387Y5745581D01*
X5082387Y5810148D01*
X5032806Y5810148D01*
X5032806Y5772048D01*
X5033518Y5765749D01*
X5035448Y5760313D01*
X5038496Y5755386D01*
X5042611Y5751322D01*
X5047488Y5748223D01*
X5052974Y5746292D01*
G37*
G36*
X4202582Y5758281D02*
G01*
X4225645Y5758281D01*
X4231944Y5758992D01*
X4237431Y5760923D01*
X4242308Y5764022D01*
X4246422Y5768086D01*
X4249521Y5773013D01*
X4251401Y5778449D01*
X4252112Y5784748D01*
X4252112Y5822848D01*
X4202582Y5822848D01*
G37*
G36*
X4106773Y5758281D02*
G01*
X4129887Y5758281D01*
X4129887Y5822848D01*
X4080306Y5822848D01*
X4080306Y5784748D01*
X4081018Y5778449D01*
X4082948Y5773013D01*
X4085996Y5768086D01*
X4090111Y5764022D01*
X4094987Y5760923D01*
X4100474Y5758992D01*
G37*
G36*
X3656787Y5758281D02*
G01*
X3775659Y5758281D01*
X3781958Y5758992D01*
X3787444Y5760923D01*
X3792321Y5764022D01*
X3796436Y5768086D01*
X3799535Y5773013D01*
X3801414Y5778449D01*
X3802126Y5784748D01*
X3802126Y5963615D01*
X3801414Y5969965D01*
X3799535Y5975400D01*
X3796436Y5980328D01*
X3792321Y5984392D01*
X3787444Y5987491D01*
X3781958Y5989421D01*
X3775659Y5990132D01*
X3656787Y5990132D01*
X3650487Y5989421D01*
X3645001Y5987491D01*
X3640124Y5984392D01*
X3636010Y5980328D01*
X3632962Y5975400D01*
X3631031Y5969965D01*
X3630320Y5963615D01*
X3630320Y5784748D01*
X3631031Y5778449D01*
X3632962Y5773013D01*
X3636010Y5768086D01*
X3640124Y5764022D01*
X3645001Y5760923D01*
X3650487Y5758992D01*
G37*
G36*
X4202582Y5925566D02*
G01*
X4252112Y5925566D01*
X4252112Y5963615D01*
X4251401Y5969965D01*
X4249521Y5975400D01*
X4246422Y5980328D01*
X4242308Y5984392D01*
X4237431Y5987491D01*
X4231944Y5989421D01*
X4225645Y5990132D01*
X4202582Y5990132D01*
G37*
G36*
X4080306Y5925566D02*
G01*
X4129887Y5925566D01*
X4129887Y5990132D01*
X4106773Y5990132D01*
X4100474Y5989421D01*
X4094987Y5987491D01*
X4090111Y5984392D01*
X4085996Y5980328D01*
X4082948Y5975400D01*
X4081018Y5969965D01*
X4080306Y5963615D01*
G37*
G36*
X4106773Y6608267D02*
G01*
X4225645Y6608267D01*
X4231944Y6608978D01*
X4237431Y6610908D01*
X4242308Y6614007D01*
X4246422Y6618071D01*
X4249521Y6622999D01*
X4251401Y6628434D01*
X4252112Y6634784D01*
X4252112Y6813600D01*
X4251401Y6819950D01*
X4249521Y6825386D01*
X4246422Y6830314D01*
X4242308Y6834378D01*
X4237431Y6837476D01*
X4231944Y6839407D01*
X4225645Y6840118D01*
X4106773Y6840118D01*
X4100474Y6839407D01*
X4094987Y6837476D01*
X4090111Y6834378D01*
X4085996Y6830314D01*
X4082948Y6825386D01*
X4081018Y6819950D01*
X4080306Y6813600D01*
X4080306Y6634784D01*
X4081018Y6628434D01*
X4082948Y6622999D01*
X4085996Y6618071D01*
X4090111Y6614007D01*
X4094987Y6610908D01*
X4100474Y6608978D01*
G37*
G36*
X3567582Y6991603D02*
G01*
X3605682Y6991603D01*
X3611981Y6992315D01*
X3617468Y6994245D01*
X3622344Y6997293D01*
X3626459Y7001408D01*
X3629507Y7006285D01*
X3631437Y7011771D01*
X3632149Y7018070D01*
X3632149Y7041184D01*
X3567582Y7041184D01*
G37*
G36*
X3426815Y6991603D02*
G01*
X3464864Y6991603D01*
X3464864Y7041184D01*
X3400348Y7041184D01*
X3400348Y7018070D01*
X3401060Y7011771D01*
X3402939Y7006285D01*
X3406038Y7001408D01*
X3410102Y6997293D01*
X3415029Y6994245D01*
X3420465Y6992315D01*
G37*
G36*
X4276801Y6991603D02*
G01*
X4455668Y6991603D01*
X4461967Y6992315D01*
X4467453Y6994245D01*
X4472330Y6997293D01*
X4476445Y7001408D01*
X4479493Y7006285D01*
X4481423Y7011771D01*
X4482134Y7018070D01*
X4482134Y7136942D01*
X4481423Y7143292D01*
X4479493Y7148728D01*
X4476445Y7153656D01*
X4472330Y7157720D01*
X4467453Y7160818D01*
X4461967Y7162698D01*
X4455668Y7163409D01*
X4276801Y7163409D01*
X4270502Y7162698D01*
X4265015Y7160818D01*
X4260138Y7157720D01*
X4256024Y7153656D01*
X4252925Y7148728D01*
X4251045Y7143292D01*
X4250334Y7136942D01*
X4250334Y7018070D01*
X4251045Y7011771D01*
X4252925Y7006285D01*
X4256024Y7001408D01*
X4260138Y6997293D01*
X4265015Y6994245D01*
X4270502Y6992315D01*
G37*
G36*
X3426815Y7441590D02*
G01*
X3605682Y7441590D01*
X3611981Y7442301D01*
X3617468Y7444231D01*
X3622344Y7447280D01*
X3626459Y7451394D01*
X3629507Y7456271D01*
X3631437Y7461758D01*
X3632149Y7468057D01*
X3632149Y7586929D01*
X3631437Y7593279D01*
X3629507Y7598714D01*
X3626459Y7603642D01*
X3622344Y7607706D01*
X3617468Y7610805D01*
X3611981Y7612684D01*
X3605682Y7613396D01*
X3426815Y7613396D01*
X3420465Y7612684D01*
X3415029Y7610805D01*
X3410102Y7607706D01*
X3406038Y7603642D01*
X3402939Y7598714D01*
X3401060Y7593279D01*
X3400348Y7586929D01*
X3400348Y7468057D01*
X3401060Y7461758D01*
X3402939Y7456271D01*
X3406038Y7451394D01*
X3410102Y7447280D01*
X3415029Y7444231D01*
X3420465Y7442301D01*
G37*
G36*
X4276801Y7441590D02*
G01*
X4455668Y7441590D01*
X4461967Y7442301D01*
X4467453Y7444231D01*
X4472330Y7447280D01*
X4476445Y7451394D01*
X4479493Y7456271D01*
X4481423Y7461758D01*
X4482134Y7468057D01*
X4482134Y7586929D01*
X4481423Y7593279D01*
X4479493Y7598714D01*
X4476445Y7603642D01*
X4472330Y7607706D01*
X4467453Y7610805D01*
X4461967Y7612684D01*
X4455668Y7613396D01*
X4276801Y7613396D01*
X4270502Y7612684D01*
X4265015Y7610805D01*
X4260138Y7607706D01*
X4256024Y7603642D01*
X4252925Y7598714D01*
X4250944Y7593025D01*
X4249216Y7589926D01*
X4246524Y7587589D01*
X4243222Y7586370D01*
X4239666Y7586319D01*
X4228846Y7588148D01*
X4218787Y7588148D01*
X4208881Y7586522D01*
X4199382Y7583220D01*
X4190542Y7578445D01*
X4182567Y7572298D01*
X4175760Y7564881D01*
X4170273Y7556449D01*
X4166260Y7547254D01*
X4163771Y7537500D01*
X4162958Y7527493D01*
X4163771Y7517485D01*
X4166260Y7507731D01*
X4170273Y7498537D01*
X4175760Y7490104D01*
X4182567Y7482687D01*
X4190542Y7476540D01*
X4199382Y7471765D01*
X4208881Y7468463D01*
X4218787Y7466838D01*
X4228846Y7466838D01*
X4239615Y7468616D01*
X4243070Y7468616D01*
X4246372Y7467396D01*
X4249064Y7465110D01*
X4250791Y7462113D01*
X4252925Y7456373D01*
X4256024Y7451394D01*
X4260138Y7447280D01*
X4265015Y7444231D01*
X4270502Y7442301D01*
G37*
G36*
X6687667Y7553959D02*
G01*
X6739737Y7553959D01*
X6739737Y7598511D01*
X6714185Y7598511D01*
X6707835Y7597800D01*
X6702399Y7595870D01*
X6697472Y7592822D01*
X6693408Y7588707D01*
X6690309Y7583830D01*
X6688378Y7578344D01*
X6687667Y7572044D01*
G37*
G36*
X6312712Y8236407D02*
G01*
X6339535Y8236407D01*
X6339535Y8291220D01*
X6286246Y8291220D01*
X6286246Y8262874D01*
X6286957Y8256524D01*
X6288836Y8251088D01*
X6291935Y8246160D01*
X6295999Y8242096D01*
X6300927Y8238998D01*
X6306362Y8237118D01*
G37*
G36*
X6419748Y8236407D02*
G01*
X6446570Y8236407D01*
X6452870Y8237118D01*
X6458356Y8238998D01*
X6463233Y8242096D01*
X6467348Y8246160D01*
X6470396Y8251088D01*
X6472326Y8256524D01*
X6473037Y8262874D01*
X6473037Y8291220D01*
X6419748Y8291220D01*
G37*
G36*
X6714185Y8411921D02*
G01*
X6739737Y8411921D01*
X6739737Y8456472D01*
X6687667Y8456472D01*
X6687667Y8438388D01*
X6688378Y8432038D01*
X6690309Y8426602D01*
X6693408Y8421674D01*
X6697472Y8417610D01*
X6702399Y8414512D01*
X6707835Y8412632D01*
G37*
G36*
X4688230Y8826754D02*
G01*
X4688230Y8897366D01*
X4630115Y8897366D01*
X4633976Y8885377D01*
X4639919Y8872778D01*
X4647387Y8861044D01*
X4656277Y8850274D01*
X4666437Y8840774D01*
X4677664Y8832596D01*
G37*
G36*
X4630115Y9035034D02*
G01*
X4688230Y9035034D01*
X4688230Y9105646D01*
X4677664Y9099804D01*
X4666437Y9091625D01*
X4656277Y9082125D01*
X4647387Y9071356D01*
X4639919Y9059621D01*
X4633976Y9047022D01*
G37*
G36*
X6062675Y9180474D02*
G01*
X6100775Y9180474D01*
X6107074Y9181185D01*
X6112560Y9183116D01*
X6117437Y9186214D01*
X6121552Y9190278D01*
X6124600Y9195206D01*
X6126530Y9200642D01*
X6127242Y9206992D01*
X6127242Y9245041D01*
X6062675Y9245041D01*
G37*
G36*
X3931665Y9224314D02*
G01*
X3931665Y9271609D01*
X3884320Y9271609D01*
X3890060Y9261144D01*
X3898137Y9250172D01*
X3907637Y9240367D01*
X3918305Y9231934D01*
X3930040Y9224975D01*
G37*
G36*
X4020565Y9224314D02*
G01*
X4022140Y9224975D01*
X4033875Y9231934D01*
X4044594Y9240367D01*
X4054043Y9250172D01*
X4062171Y9261144D01*
X4067911Y9271609D01*
X4020565Y9271609D01*
G37*
G36*
X3884422Y9360509D02*
G01*
X3931665Y9360509D01*
X3931665Y9407753D01*
X3924096Y9403892D01*
X3912819Y9396222D01*
X3902710Y9387027D01*
X3893921Y9376613D01*
X3886555Y9365132D01*
G37*
G36*
X4020565Y9360509D02*
G01*
X4067759Y9360509D01*
X4065625Y9365132D01*
X4058310Y9376613D01*
X4049471Y9387027D01*
X4039362Y9396222D01*
X4028135Y9403892D01*
X4020565Y9407753D01*
G37*
G36*
X2169414Y9615830D02*
G01*
X2182469Y9615830D01*
X2188819Y9616541D01*
X2194255Y9618472D01*
X2199132Y9621570D01*
X2203246Y9625634D01*
X2206345Y9630562D01*
X2208225Y9635998D01*
X2208936Y9642297D01*
X2208936Y9710420D01*
X2169414Y9710420D01*
G37*
G36*
X6011316Y9688525D02*
G01*
X6025845Y9689439D01*
X6040170Y9692132D01*
X6053988Y9696653D01*
X6067145Y9702850D01*
X6079439Y9710623D01*
X6090666Y9719919D01*
X6100622Y9730536D01*
X6109157Y9742322D01*
X6116167Y9755073D01*
X6121552Y9768586D01*
X6125159Y9782708D01*
X6126988Y9797135D01*
X6126988Y9811664D01*
X6125159Y9826091D01*
X6121552Y9840214D01*
X6116167Y9853726D01*
X6109157Y9866477D01*
X6100622Y9878263D01*
X6090666Y9888880D01*
X6079439Y9898176D01*
X6067145Y9905949D01*
X6053988Y9912146D01*
X6040170Y9916668D01*
X6025845Y9919360D01*
X6011316Y9920274D01*
X5996787Y9919360D01*
X5982512Y9916668D01*
X5968695Y9912146D01*
X5955487Y9905949D01*
X5943193Y9898176D01*
X5932017Y9888880D01*
X5922060Y9878263D01*
X5913475Y9866477D01*
X5906465Y9853726D01*
X5901131Y9840214D01*
X5897524Y9826091D01*
X5895695Y9811664D01*
X5895695Y9797135D01*
X5897524Y9782708D01*
X5901131Y9768586D01*
X5906465Y9755073D01*
X5913475Y9742322D01*
X5922060Y9730536D01*
X5932017Y9719919D01*
X5943193Y9710623D01*
X5955487Y9702850D01*
X5968695Y9696653D01*
X5982512Y9692132D01*
X5996787Y9689439D01*
G37*
G36*
X2169414Y9873081D02*
G01*
X2208936Y9873081D01*
X2208936Y9941204D01*
X2208225Y9947503D01*
X2206345Y9952939D01*
X2203246Y9957866D01*
X2199132Y9961930D01*
X2194255Y9965029D01*
X2188819Y9966960D01*
X2182469Y9967671D01*
X2168906Y9967671D01*
X2169414Y9965232D01*
G37*
G36*
X6011316Y9942525D02*
G01*
X6025845Y9943439D01*
X6040170Y9946132D01*
X6053988Y9950653D01*
X6067145Y9956850D01*
X6079439Y9964623D01*
X6090666Y9973919D01*
X6100622Y9984536D01*
X6109157Y9996322D01*
X6116167Y10009073D01*
X6121552Y10022586D01*
X6125159Y10036708D01*
X6126988Y10051135D01*
X6126988Y10065664D01*
X6125159Y10080091D01*
X6121552Y10094214D01*
X6116167Y10107726D01*
X6109157Y10120477D01*
X6100622Y10132263D01*
X6090666Y10142880D01*
X6079439Y10152176D01*
X6067145Y10159949D01*
X6053988Y10166146D01*
X6040170Y10170668D01*
X6025845Y10173360D01*
X6011316Y10174274D01*
X5996787Y10173360D01*
X5982512Y10170668D01*
X5968695Y10166146D01*
X5955487Y10159949D01*
X5943193Y10152176D01*
X5932017Y10142880D01*
X5922060Y10132263D01*
X5913475Y10120477D01*
X5906465Y10107726D01*
X5901131Y10094214D01*
X5897524Y10080091D01*
X5895695Y10065664D01*
X5895695Y10051135D01*
X5897524Y10036708D01*
X5901131Y10022586D01*
X5906465Y10009073D01*
X5913475Y9996322D01*
X5922060Y9984536D01*
X5932017Y9973919D01*
X5943193Y9964623D01*
X5955487Y9956850D01*
X5968695Y9950653D01*
X5982512Y9946132D01*
X5996787Y9943439D01*
G37*
G36*
X6011316Y10196525D02*
G01*
X6025845Y10197439D01*
X6040170Y10200132D01*
X6053988Y10204653D01*
X6067145Y10210850D01*
X6079439Y10218623D01*
X6090666Y10227919D01*
X6100622Y10238536D01*
X6109157Y10250322D01*
X6116167Y10263073D01*
X6121552Y10276586D01*
X6125159Y10290708D01*
X6126988Y10305135D01*
X6126988Y10319664D01*
X6125159Y10334091D01*
X6121552Y10348214D01*
X6116167Y10361726D01*
X6109157Y10374477D01*
X6100622Y10386263D01*
X6090666Y10396880D01*
X6079439Y10406176D01*
X6067145Y10413949D01*
X6053988Y10420146D01*
X6040170Y10424668D01*
X6025845Y10427360D01*
X6011316Y10428274D01*
X5996787Y10427360D01*
X5982512Y10424668D01*
X5979820Y10423753D01*
X5976112Y10423296D01*
X5972556Y10424160D01*
X5969457Y10426242D01*
X5950153Y10445546D01*
X5947918Y10448950D01*
X5947156Y10452912D01*
X5948019Y10456824D01*
X5950356Y10460126D01*
X5953760Y10462260D01*
X5957773Y10462920D01*
X5961684Y10461955D01*
X5968695Y10458653D01*
X5982512Y10454132D01*
X5996787Y10451439D01*
X6011316Y10450525D01*
X6025845Y10451439D01*
X6040170Y10454132D01*
X6053988Y10458653D01*
X6067145Y10464850D01*
X6079439Y10472623D01*
X6090666Y10481919D01*
X6100622Y10492536D01*
X6109157Y10504322D01*
X6116167Y10517073D01*
X6121552Y10530586D01*
X6125159Y10544708D01*
X6126988Y10559135D01*
X6126988Y10573664D01*
X6125159Y10588091D01*
X6121552Y10602214D01*
X6116167Y10615726D01*
X6109157Y10628477D01*
X6100622Y10640263D01*
X6090666Y10650880D01*
X6079439Y10660176D01*
X6067145Y10667949D01*
X6053988Y10674146D01*
X6040170Y10678668D01*
X6025845Y10681360D01*
X6011316Y10682274D01*
X5996787Y10681360D01*
X5982512Y10678668D01*
X5968695Y10674146D01*
X5963970Y10672876D01*
X5959957Y10673588D01*
X5956503Y10675823D01*
X5916980Y10715345D01*
X5914796Y10718647D01*
X5914034Y10722508D01*
X5914034Y10729417D01*
X5914796Y10733328D01*
X5917082Y10736681D01*
X5920435Y10738866D01*
X5924397Y10739577D01*
X5928309Y10738713D01*
X5932017Y10735919D01*
X5943193Y10726623D01*
X5955487Y10718850D01*
X5968695Y10712653D01*
X5982512Y10708132D01*
X5996787Y10705439D01*
X6011316Y10704525D01*
X6025845Y10705439D01*
X6040170Y10708132D01*
X6053988Y10712653D01*
X6067145Y10718850D01*
X6079439Y10726623D01*
X6090666Y10735919D01*
X6100622Y10746536D01*
X6109157Y10758322D01*
X6116167Y10771073D01*
X6121552Y10784586D01*
X6125159Y10798708D01*
X6126988Y10813135D01*
X6126988Y10827664D01*
X6125159Y10842091D01*
X6121552Y10856214D01*
X6116167Y10869726D01*
X6109157Y10882477D01*
X6100622Y10894263D01*
X6090666Y10904880D01*
X6079439Y10914176D01*
X6067145Y10921949D01*
X6053988Y10928146D01*
X6040170Y10932668D01*
X6025845Y10935360D01*
X6011316Y10936274D01*
X5996787Y10935360D01*
X5982512Y10932668D01*
X5968695Y10928146D01*
X5955487Y10921949D01*
X5943193Y10914176D01*
X5931560Y10904423D01*
X5928309Y10902086D01*
X5924397Y10901222D01*
X5920435Y10901934D01*
X5917082Y10904118D01*
X5914796Y10907471D01*
X5914034Y10911382D01*
X5914034Y10983417D01*
X5914796Y10987328D01*
X5917082Y10990681D01*
X5920435Y10992866D01*
X5924397Y10993577D01*
X5928309Y10992713D01*
X5932017Y10989919D01*
X5943193Y10980623D01*
X5955487Y10972850D01*
X5968695Y10966653D01*
X5982512Y10962132D01*
X5996787Y10959439D01*
X6011316Y10958525D01*
X6025845Y10959439D01*
X6040170Y10962132D01*
X6053988Y10966653D01*
X6067145Y10972850D01*
X6079439Y10980623D01*
X6090666Y10989919D01*
X6100622Y11000536D01*
X6109157Y11012322D01*
X6116167Y11025073D01*
X6121552Y11038586D01*
X6125159Y11052708D01*
X6126988Y11067135D01*
X6126988Y11081664D01*
X6125159Y11096091D01*
X6121552Y11110214D01*
X6116167Y11123726D01*
X6109157Y11136477D01*
X6100622Y11148263D01*
X6090666Y11158880D01*
X6079439Y11168176D01*
X6067145Y11175949D01*
X6053988Y11182146D01*
X6040170Y11186668D01*
X6025845Y11189360D01*
X6011316Y11190274D01*
X5996787Y11189360D01*
X5982512Y11186668D01*
X5968695Y11182146D01*
X5955487Y11175949D01*
X5943193Y11168176D01*
X5931560Y11158423D01*
X5928309Y11156086D01*
X5924397Y11155222D01*
X5920435Y11155934D01*
X5917082Y11158118D01*
X5914796Y11161471D01*
X5914034Y11165382D01*
X5914034Y11237417D01*
X5914796Y11241328D01*
X5917082Y11244681D01*
X5920435Y11246866D01*
X5924397Y11247577D01*
X5928309Y11246713D01*
X5932017Y11243919D01*
X5943193Y11234623D01*
X5955487Y11226850D01*
X5968695Y11220653D01*
X5982512Y11216132D01*
X5996787Y11213439D01*
X6011316Y11212525D01*
X6025845Y11213439D01*
X6040170Y11216132D01*
X6053988Y11220653D01*
X6067145Y11226850D01*
X6079439Y11234623D01*
X6090666Y11243919D01*
X6100622Y11254536D01*
X6109157Y11266322D01*
X6116167Y11279073D01*
X6121552Y11292586D01*
X6125159Y11306708D01*
X6126988Y11321135D01*
X6126988Y11335664D01*
X6125159Y11350091D01*
X6121552Y11364214D01*
X6116167Y11377726D01*
X6109157Y11390477D01*
X6100622Y11402263D01*
X6090666Y11412880D01*
X6079439Y11422176D01*
X6067145Y11429949D01*
X6053988Y11436146D01*
X6040170Y11440668D01*
X6025845Y11443360D01*
X6011316Y11444274D01*
X5996787Y11443360D01*
X5982512Y11440668D01*
X5968695Y11436146D01*
X5955487Y11429949D01*
X5943193Y11422176D01*
X5931560Y11412423D01*
X5928309Y11410086D01*
X5924397Y11409222D01*
X5920435Y11409934D01*
X5917082Y11412118D01*
X5914796Y11415471D01*
X5914034Y11419382D01*
X5914034Y11491417D01*
X5914796Y11495328D01*
X5917082Y11498681D01*
X5920435Y11500866D01*
X5924397Y11501577D01*
X5928309Y11500713D01*
X5932017Y11497919D01*
X5943193Y11488623D01*
X5955487Y11480850D01*
X5960008Y11478717D01*
X5960008Y11531041D01*
X5924194Y11531041D01*
X5920282Y11531803D01*
X5916980Y11534038D01*
X5914796Y11537340D01*
X5914034Y11541201D01*
X5914034Y11623598D01*
X5914796Y11627459D01*
X5916980Y11630761D01*
X5920282Y11632996D01*
X5924194Y11633758D01*
X5960008Y11633758D01*
X5960008Y11686082D01*
X5955487Y11683949D01*
X5943193Y11676176D01*
X5931560Y11666423D01*
X5928309Y11664086D01*
X5924397Y11663222D01*
X5920435Y11663934D01*
X5917082Y11666118D01*
X5914796Y11669471D01*
X5914034Y11673382D01*
X5914034Y11976608D01*
X5914796Y11980519D01*
X5916980Y11983770D01*
X5988456Y12055246D01*
X5991656Y12057430D01*
X5995466Y12058243D01*
X5999276Y12057532D01*
X6002274Y12056414D01*
X6015532Y12053214D01*
X6029096Y12051893D01*
X6042710Y12052350D01*
X6056172Y12054586D01*
X6069177Y12058650D01*
X6081572Y12064390D01*
X6093053Y12071705D01*
X6103467Y12080494D01*
X6112611Y12090654D01*
X6120333Y12101880D01*
X6126480Y12114022D01*
X6130950Y12126925D01*
X6133693Y12140285D01*
X6134608Y12153900D01*
X6133693Y12167514D01*
X6130950Y12180874D01*
X6126480Y12193778D01*
X6120333Y12205919D01*
X6112611Y12217146D01*
X6103467Y12227306D01*
X6093053Y12236094D01*
X6081572Y12243409D01*
X6069177Y12249150D01*
X6056172Y12253214D01*
X6042710Y12255449D01*
X6029096Y12255906D01*
X6015532Y12254585D01*
X6002274Y12251385D01*
X5989523Y12246508D01*
X5977585Y12239955D01*
X5966612Y12231878D01*
X5956808Y12222378D01*
X5948324Y12211659D01*
X5941364Y12199924D01*
X5936081Y12187377D01*
X5932474Y12174220D01*
X5930646Y12160707D01*
X5930646Y12147092D01*
X5932474Y12133580D01*
X5936335Y12119610D01*
X5936640Y12116054D01*
X5935726Y12112599D01*
X5933694Y12109704D01*
X5848451Y12024461D01*
X5843371Y12018213D01*
X5839764Y12011558D01*
X5837580Y12004344D01*
X5836818Y11996318D01*
X5836818Y10702798D01*
X5837580Y10694771D01*
X5839764Y10687558D01*
X5843371Y10680903D01*
X5848451Y10674654D01*
X5901994Y10621111D01*
X5904179Y10617860D01*
X5904992Y10614050D01*
X5904280Y10610189D01*
X5901131Y10602214D01*
X5897524Y10588091D01*
X5895695Y10573664D01*
X5895695Y10559135D01*
X5897524Y10544708D01*
X5901131Y10530586D01*
X5906617Y10516616D01*
X5907328Y10512755D01*
X5906516Y10508894D01*
X5904331Y10505643D01*
X5901029Y10503509D01*
X5897168Y10502747D01*
X5893308Y10503509D01*
X5890006Y10505694D01*
X5481015Y10914735D01*
X5478830Y10917986D01*
X5478018Y10921898D01*
X5478018Y11629745D01*
X5478475Y11632641D01*
X5480659Y11636806D01*
X5484723Y11646001D01*
X5487162Y11655755D01*
X5488025Y11665762D01*
X5487162Y11675821D01*
X5484723Y11685574D01*
X5480659Y11694769D01*
X5478475Y11698935D01*
X5478018Y11701830D01*
X5478018Y12605969D01*
X5478627Y12609423D01*
X5480354Y12612471D01*
X5483047Y12614706D01*
X5484926Y12615824D01*
X5495594Y12624308D01*
X5505094Y12634112D01*
X5513171Y12645085D01*
X5519724Y12657023D01*
X5524652Y12669774D01*
X5527802Y12683032D01*
X5529173Y12696596D01*
X5528716Y12710210D01*
X5526430Y12723672D01*
X5522417Y12736677D01*
X5516676Y12749072D01*
X5509310Y12760553D01*
X5500522Y12770967D01*
X5490413Y12780111D01*
X5479135Y12787833D01*
X5466994Y12793980D01*
X5454091Y12798450D01*
X5440730Y12801193D01*
X5427116Y12802108D01*
X5413552Y12801193D01*
X5400141Y12798450D01*
X5387289Y12793980D01*
X5375097Y12787833D01*
X5363870Y12780111D01*
X5353761Y12770967D01*
X5344972Y12760553D01*
X5337606Y12749072D01*
X5331866Y12736677D01*
X5327853Y12723672D01*
X5325567Y12710210D01*
X5325110Y12696596D01*
X5326481Y12683032D01*
X5329631Y12669774D01*
X5334558Y12657023D01*
X5341112Y12645085D01*
X5349189Y12634112D01*
X5358638Y12624308D01*
X5369356Y12615824D01*
X5371236Y12614706D01*
X5373878Y12612471D01*
X5375605Y12609423D01*
X5376214Y12605969D01*
X5376214Y11701780D01*
X5375808Y11698884D01*
X5373624Y11694769D01*
X5369560Y11685574D01*
X5367121Y11675821D01*
X5366258Y11665762D01*
X5367121Y11655755D01*
X5369560Y11646001D01*
X5373624Y11636806D01*
X5375808Y11632692D01*
X5376214Y11629796D01*
X5376214Y10896803D01*
X5376418Y10892180D01*
X5377027Y10887760D01*
X5377992Y10883442D01*
X5379313Y10879175D01*
X5380990Y10875111D01*
X5383072Y10871149D01*
X5385460Y10867390D01*
X5388152Y10863884D01*
X5391302Y10860430D01*
X5897524Y10354208D01*
X5899505Y10351363D01*
X5900420Y10348010D01*
X5900166Y10344505D01*
X5897524Y10334091D01*
X5895695Y10319664D01*
X5895695Y10305135D01*
X5897524Y10290708D01*
X5901131Y10276586D01*
X5906465Y10263073D01*
X5913475Y10250322D01*
X5922060Y10238536D01*
X5932017Y10227919D01*
X5943193Y10218623D01*
X5955487Y10210850D01*
X5968695Y10204653D01*
X5982512Y10200132D01*
X5996787Y10197439D01*
G37*
G36*
X6062675Y11478717D02*
G01*
X6067145Y11480850D01*
X6079439Y11488623D01*
X6090666Y11497919D01*
X6100622Y11508536D01*
X6109157Y11520322D01*
X6115100Y11531041D01*
X6062675Y11531041D01*
G37*
G36*
X6062675Y11633758D02*
G01*
X6115100Y11633758D01*
X6109157Y11644477D01*
X6100622Y11656263D01*
X6090666Y11666880D01*
X6079439Y11676176D01*
X6067145Y11683949D01*
X6062675Y11686082D01*
G37*
G36*
X1214831Y11736679D02*
G01*
X1333601Y11736679D01*
X1339900Y11737390D01*
X1345387Y11739321D01*
X1350264Y11742369D01*
X1354378Y11746484D01*
X1357477Y11751360D01*
X1359357Y11756847D01*
X1360068Y11763146D01*
X1360068Y12062002D01*
X1359357Y12068352D01*
X1357884Y12072620D01*
X1357325Y12076379D01*
X1358138Y12080036D01*
X1360271Y12083186D01*
X1595729Y12318847D01*
X1602689Y12327026D01*
X1608074Y12335814D01*
X1612036Y12345365D01*
X1614474Y12355423D01*
X1615287Y12366142D01*
X1615287Y12763855D01*
X1614474Y12774574D01*
X1612036Y12784632D01*
X1608074Y12794183D01*
X1602689Y12802971D01*
X1595983Y12810845D01*
X1588109Y12817551D01*
X1579321Y12822936D01*
X1569770Y12826898D01*
X1559712Y12829336D01*
X1548993Y12830149D01*
X1433728Y12830149D01*
X1423009Y12829336D01*
X1412951Y12826898D01*
X1403400Y12822936D01*
X1394612Y12817551D01*
X1386738Y12810845D01*
X1380032Y12802971D01*
X1374648Y12794183D01*
X1370685Y12784632D01*
X1368247Y12774574D01*
X1367434Y12764262D01*
X1368247Y12753949D01*
X1370685Y12743891D01*
X1374902Y12733934D01*
X1376273Y12730226D01*
X1376121Y12726314D01*
X1374546Y12722758D01*
X1371701Y12720066D01*
X1368094Y12718592D01*
X1364183Y12718643D01*
X1360576Y12720167D01*
X1345742Y12730124D01*
X1329740Y12738658D01*
X1312976Y12745466D01*
X1295603Y12750546D01*
X1277772Y12753797D01*
X1259738Y12755168D01*
X1241602Y12754711D01*
X1223670Y12752374D01*
X1206042Y12748260D01*
X1188923Y12742265D01*
X1172514Y12734594D01*
X1157020Y12725298D01*
X1142492Y12714427D01*
X1129233Y12702133D01*
X1117244Y12688519D01*
X1106779Y12673736D01*
X1097838Y12657988D01*
X1090625Y12641376D01*
X1085088Y12624155D01*
X1081379Y12606426D01*
X1079550Y12588392D01*
X1079550Y12570307D01*
X1081379Y12552273D01*
X1085088Y12534544D01*
X1090625Y12517323D01*
X1097838Y12500711D01*
X1106779Y12484963D01*
X1117244Y12470180D01*
X1129233Y12456566D01*
X1142492Y12444272D01*
X1157020Y12433401D01*
X1172514Y12424105D01*
X1188923Y12416434D01*
X1206042Y12410440D01*
X1223670Y12406325D01*
X1241602Y12403988D01*
X1259738Y12403531D01*
X1277772Y12404902D01*
X1295603Y12408154D01*
X1312976Y12413234D01*
X1329740Y12420041D01*
X1345742Y12428575D01*
X1360779Y12438684D01*
X1374648Y12450267D01*
X1387297Y12463221D01*
X1398574Y12477445D01*
X1408277Y12492736D01*
X1416354Y12508890D01*
X1422755Y12525857D01*
X1427378Y12543383D01*
X1430172Y12561265D01*
X1431086Y12579350D01*
X1430172Y12597434D01*
X1427378Y12615316D01*
X1422755Y12632842D01*
X1416354Y12649809D01*
X1408277Y12665964D01*
X1398574Y12681254D01*
X1391818Y12689738D01*
X1389888Y12693751D01*
X1389837Y12698171D01*
X1391666Y12702184D01*
X1395069Y12705080D01*
X1399336Y12706197D01*
X1403705Y12705435D01*
X1412951Y12701625D01*
X1423009Y12699187D01*
X1433728Y12698374D01*
X1473352Y12698374D01*
X1477213Y12697561D01*
X1480515Y12695377D01*
X1482699Y12692075D01*
X1483512Y12688214D01*
X1483512Y12397232D01*
X1482699Y12393320D01*
X1480515Y12390018D01*
X1229106Y12138355D01*
X1227632Y12137085D01*
X1220927Y12129262D01*
X1215542Y12120422D01*
X1211580Y12110872D01*
X1209141Y12100814D01*
X1208633Y12094210D01*
X1207922Y12091162D01*
X1206296Y12088469D01*
X1203909Y12086437D01*
X1198168Y12082780D01*
X1194054Y12078716D01*
X1191006Y12073788D01*
X1189075Y12068352D01*
X1188364Y12062002D01*
X1188364Y11763146D01*
X1189075Y11756847D01*
X1191006Y11751360D01*
X1194054Y11746484D01*
X1198168Y11742369D01*
X1203045Y11739321D01*
X1208532Y11737390D01*
G37*
G36*
X6242050Y12062104D02*
G01*
X6242050Y12109450D01*
X6194704Y12109450D01*
X6195364Y12107875D01*
X6202324Y12096140D01*
X6210808Y12085421D01*
X6220612Y12075922D01*
X6231585Y12067844D01*
G37*
G36*
X6330950Y12062256D02*
G01*
X6335572Y12064390D01*
X6347053Y12071705D01*
X6357467Y12080494D01*
X6366611Y12090654D01*
X6374333Y12101880D01*
X6378143Y12109450D01*
X6330950Y12109450D01*
G37*
G36*
X3581400Y12096292D02*
G01*
X3595522Y12097258D01*
X3609441Y12100001D01*
X3622852Y12104573D01*
X3635603Y12110821D01*
X3647389Y12118695D01*
X3658057Y12128042D01*
X3667404Y12138710D01*
X3675278Y12150496D01*
X3681526Y12163247D01*
X3686098Y12176658D01*
X3688842Y12190577D01*
X3689807Y12204700D01*
X3688842Y12218822D01*
X3687572Y12225426D01*
X3687470Y12228728D01*
X3688384Y12231878D01*
X3690315Y12234570D01*
X3724148Y12268403D01*
X3727551Y12270638D01*
X3731564Y12271400D01*
X3735527Y12270486D01*
X3738778Y12268149D01*
X3740912Y12264644D01*
X3741521Y12260630D01*
X3740454Y12256719D01*
X3738270Y12252299D01*
X3787800Y12252299D01*
X3787800Y12301829D01*
X3783380Y12299645D01*
X3779469Y12298578D01*
X3775456Y12299188D01*
X3771950Y12301321D01*
X3769614Y12304572D01*
X3768699Y12308535D01*
X3769461Y12312548D01*
X3771696Y12315952D01*
X3874770Y12419025D01*
X3878224Y12422784D01*
X3881170Y12426645D01*
X3883812Y12430760D01*
X3886047Y12435078D01*
X3887927Y12439599D01*
X3889400Y12444222D01*
X3890467Y12448997D01*
X3891076Y12453721D01*
X3891178Y12457176D01*
X3891686Y12460224D01*
X3893159Y12462967D01*
X3895344Y12465151D01*
X3906062Y12472974D01*
X3916222Y12482474D01*
X3925112Y12493244D01*
X3932580Y12504978D01*
X3938524Y12517577D01*
X3942791Y12530836D01*
X3945432Y12544501D01*
X3946296Y12558725D01*
X3946296Y12638074D01*
X3945432Y12652298D01*
X3942791Y12665964D01*
X3938524Y12679222D01*
X3932580Y12691821D01*
X3925112Y12703556D01*
X3916222Y12714325D01*
X3906062Y12723825D01*
X3894836Y12732004D01*
X3882593Y12738709D01*
X3869690Y12743840D01*
X3856177Y12747345D01*
X3842359Y12749072D01*
X3828440Y12749072D01*
X3814622Y12747345D01*
X3801110Y12743840D01*
X3788206Y12738709D01*
X3775964Y12732004D01*
X3764737Y12723825D01*
X3754577Y12714325D01*
X3745687Y12703556D01*
X3738219Y12691821D01*
X3732276Y12679222D01*
X3728008Y12665964D01*
X3725367Y12652298D01*
X3724503Y12638074D01*
X3724503Y12558725D01*
X3725367Y12544501D01*
X3728008Y12530836D01*
X3732276Y12517577D01*
X3738219Y12504978D01*
X3745687Y12493244D01*
X3754577Y12482474D01*
X3760114Y12477292D01*
X3762451Y12473990D01*
X3763314Y12470028D01*
X3762552Y12466066D01*
X3760317Y12462713D01*
X3611270Y12313615D01*
X3608578Y12311684D01*
X3605428Y12310770D01*
X3602126Y12310872D01*
X3595522Y12312142D01*
X3581400Y12313107D01*
X3567277Y12312142D01*
X3553358Y12309398D01*
X3539947Y12304826D01*
X3527196Y12298578D01*
X3515410Y12290704D01*
X3504742Y12281357D01*
X3495395Y12270689D01*
X3487521Y12258903D01*
X3481273Y12246152D01*
X3476701Y12232741D01*
X3473958Y12218822D01*
X3472992Y12204700D01*
X3473958Y12190577D01*
X3476701Y12176658D01*
X3481273Y12163247D01*
X3487521Y12150496D01*
X3495395Y12138710D01*
X3504742Y12128042D01*
X3515410Y12118695D01*
X3527196Y12110821D01*
X3539947Y12104573D01*
X3553358Y12100001D01*
X3567277Y12097258D01*
G37*
G36*
X3882999Y12107570D02*
G01*
X3889603Y12110821D01*
X3901389Y12118695D01*
X3912057Y12128042D01*
X3921404Y12138710D01*
X3929278Y12150496D01*
X3932529Y12157100D01*
X3882999Y12157100D01*
G37*
G36*
X3787800Y12107570D02*
G01*
X3787800Y12157100D01*
X3738270Y12157100D01*
X3741521Y12150496D01*
X3749395Y12138710D01*
X3758742Y12128042D01*
X3769410Y12118695D01*
X3781196Y12110821D01*
G37*
G36*
X6330950Y12198350D02*
G01*
X6378143Y12198350D01*
X6374333Y12205919D01*
X6366611Y12217146D01*
X6357467Y12227306D01*
X6347053Y12236094D01*
X6335572Y12243409D01*
X6330950Y12245543D01*
G37*
G36*
X6194704Y12198350D02*
G01*
X6242050Y12198350D01*
X6242050Y12245695D01*
X6231585Y12239955D01*
X6220612Y12231878D01*
X6210808Y12222378D01*
X6202324Y12211659D01*
X6195364Y12199924D01*
G37*
G36*
X3882999Y12252299D02*
G01*
X3932529Y12252299D01*
X3929278Y12258903D01*
X3921404Y12270689D01*
X3912057Y12281357D01*
X3901389Y12290704D01*
X3889603Y12298578D01*
X3882999Y12301829D01*
G37*
G36*
X6790588Y12403531D02*
G01*
X6808622Y12404902D01*
X6826453Y12408154D01*
X6843826Y12413234D01*
X6860590Y12420041D01*
X6876592Y12428575D01*
X6891629Y12438684D01*
X6905498Y12450267D01*
X6918147Y12463221D01*
X6929424Y12477445D01*
X6939127Y12492736D01*
X6947204Y12508890D01*
X6953605Y12525857D01*
X6958228Y12543383D01*
X6961022Y12561265D01*
X6961936Y12579350D01*
X6961022Y12597434D01*
X6958228Y12615316D01*
X6953605Y12632842D01*
X6947204Y12649809D01*
X6939127Y12665964D01*
X6929424Y12681254D01*
X6918147Y12695478D01*
X6905498Y12708432D01*
X6891629Y12720015D01*
X6876592Y12730124D01*
X6860590Y12738658D01*
X6843826Y12745466D01*
X6826453Y12750546D01*
X6808622Y12753797D01*
X6790588Y12755168D01*
X6772452Y12754711D01*
X6754520Y12752374D01*
X6736892Y12748260D01*
X6719773Y12742265D01*
X6703364Y12734594D01*
X6687870Y12725298D01*
X6673342Y12714427D01*
X6660083Y12702133D01*
X6648094Y12688519D01*
X6637629Y12673736D01*
X6628688Y12657988D01*
X6621475Y12641376D01*
X6615938Y12624155D01*
X6612229Y12606426D01*
X6610400Y12588392D01*
X6610400Y12570307D01*
X6612229Y12552273D01*
X6615938Y12534544D01*
X6621475Y12517323D01*
X6628688Y12500711D01*
X6637629Y12484963D01*
X6648094Y12470180D01*
X6660083Y12456566D01*
X6673342Y12444272D01*
X6687870Y12433401D01*
X6703364Y12424105D01*
X6719773Y12416434D01*
X6736892Y12410440D01*
X6754520Y12406325D01*
X6772452Y12403988D01*
G37*
G36*
X4336440Y12447727D02*
G01*
X4350359Y12447727D01*
X4364177Y12449454D01*
X4377690Y12452959D01*
X4390593Y12458090D01*
X4402836Y12464796D01*
X4414062Y12472974D01*
X4424222Y12482474D01*
X4433112Y12493244D01*
X4440580Y12504978D01*
X4446524Y12517577D01*
X4450791Y12530836D01*
X4453432Y12544501D01*
X4454296Y12558725D01*
X4454296Y12638074D01*
X4453432Y12652298D01*
X4450791Y12665964D01*
X4446524Y12679222D01*
X4440580Y12691821D01*
X4433112Y12703556D01*
X4424222Y12714325D01*
X4414062Y12723825D01*
X4402836Y12732004D01*
X4390593Y12738709D01*
X4377690Y12743840D01*
X4364177Y12747345D01*
X4350359Y12749072D01*
X4336440Y12749072D01*
X4322622Y12747345D01*
X4309110Y12743840D01*
X4296206Y12738709D01*
X4283964Y12732004D01*
X4272737Y12723825D01*
X4262577Y12714325D01*
X4253687Y12703556D01*
X4246219Y12691821D01*
X4240276Y12679222D01*
X4236008Y12665964D01*
X4233367Y12652298D01*
X4232503Y12638074D01*
X4232503Y12558725D01*
X4233367Y12544501D01*
X4236008Y12530836D01*
X4240276Y12517577D01*
X4246219Y12504978D01*
X4253687Y12493244D01*
X4262577Y12482474D01*
X4272737Y12472974D01*
X4283964Y12464796D01*
X4296206Y12458090D01*
X4309110Y12452959D01*
X4322622Y12449454D01*
G37*
G36*
X4082440Y12447727D02*
G01*
X4096359Y12447727D01*
X4110177Y12449454D01*
X4123690Y12452959D01*
X4136593Y12458090D01*
X4148836Y12464796D01*
X4160062Y12472974D01*
X4170222Y12482474D01*
X4179112Y12493244D01*
X4186580Y12504978D01*
X4192524Y12517577D01*
X4196791Y12530836D01*
X4199432Y12544501D01*
X4200296Y12558725D01*
X4200296Y12638074D01*
X4199432Y12652298D01*
X4196791Y12665964D01*
X4192524Y12679222D01*
X4186580Y12691821D01*
X4179112Y12703556D01*
X4170222Y12714325D01*
X4160062Y12723825D01*
X4148836Y12732004D01*
X4136593Y12738709D01*
X4123690Y12743840D01*
X4110177Y12747345D01*
X4096359Y12749072D01*
X4082440Y12749072D01*
X4068622Y12747345D01*
X4055110Y12743840D01*
X4042206Y12738709D01*
X4029964Y12732004D01*
X4018737Y12723825D01*
X4008577Y12714325D01*
X3999687Y12703556D01*
X3992219Y12691821D01*
X3986276Y12679222D01*
X3982008Y12665964D01*
X3979367Y12652298D01*
X3978503Y12638074D01*
X3978503Y12558725D01*
X3979367Y12544501D01*
X3982008Y12530836D01*
X3986276Y12517577D01*
X3992219Y12504978D01*
X3999687Y12493244D01*
X4008577Y12482474D01*
X4018737Y12472974D01*
X4029964Y12464796D01*
X4042206Y12458090D01*
X4055110Y12452959D01*
X4068622Y12449454D01*
G37*
G36*
X3630269Y12458954D02*
G01*
X3640836Y12464796D01*
X3652062Y12472974D01*
X3662222Y12482474D01*
X3671112Y12493244D01*
X3678580Y12504978D01*
X3684524Y12517577D01*
X3688384Y12529566D01*
X3630269Y12529566D01*
G37*
G36*
X3532530Y12458954D02*
G01*
X3532530Y12529566D01*
X3474415Y12529566D01*
X3478276Y12517577D01*
X3484219Y12504978D01*
X3491687Y12493244D01*
X3500577Y12482474D01*
X3510737Y12472974D01*
X3521964Y12464796D01*
G37*
G36*
X5636666Y12608204D02*
G01*
X5636666Y12655550D01*
X5589320Y12655550D01*
X5595112Y12645085D01*
X5603189Y12634112D01*
X5612638Y12624308D01*
X5623356Y12615824D01*
X5635091Y12608864D01*
G37*
G36*
X5725566Y12608204D02*
G01*
X5727192Y12608864D01*
X5738926Y12615824D01*
X5749594Y12624308D01*
X5759094Y12634112D01*
X5767171Y12645085D01*
X5772912Y12655550D01*
X5725566Y12655550D01*
G37*
G36*
X2219909Y12623546D02*
G01*
X2233574Y12623546D01*
X2247087Y12625374D01*
X2260244Y12628981D01*
X2272792Y12634264D01*
X2284526Y12641224D01*
X2295194Y12649708D01*
X2304694Y12659512D01*
X2312771Y12670485D01*
X2319324Y12682423D01*
X2324252Y12695174D01*
X2327402Y12708432D01*
X2328773Y12721996D01*
X2328316Y12735610D01*
X2326030Y12749072D01*
X2322017Y12762077D01*
X2316276Y12774472D01*
X2308910Y12785953D01*
X2300122Y12796367D01*
X2290013Y12805511D01*
X2278735Y12813233D01*
X2266594Y12819380D01*
X2253691Y12823850D01*
X2240330Y12826593D01*
X2226716Y12827508D01*
X2213152Y12826593D01*
X2199741Y12823850D01*
X2186889Y12819380D01*
X2174697Y12813233D01*
X2163470Y12805511D01*
X2153361Y12796367D01*
X2144572Y12785953D01*
X2137206Y12774472D01*
X2131466Y12762077D01*
X2127453Y12749072D01*
X2125167Y12735610D01*
X2124710Y12721996D01*
X2126081Y12708432D01*
X2129231Y12695174D01*
X2134158Y12682423D01*
X2140712Y12670485D01*
X2148789Y12659512D01*
X2158238Y12649708D01*
X2168956Y12641224D01*
X2180691Y12634264D01*
X2193239Y12628981D01*
X2206396Y12625374D01*
G37*
G36*
X2525166Y12633604D02*
G01*
X2526792Y12634264D01*
X2538526Y12641224D01*
X2549194Y12649708D01*
X2558694Y12659512D01*
X2566771Y12670485D01*
X2572512Y12680950D01*
X2525166Y12680950D01*
G37*
G36*
X2436266Y12633604D02*
G01*
X2436266Y12680950D01*
X2388920Y12680950D01*
X2394712Y12670485D01*
X2402789Y12659512D01*
X2412238Y12649708D01*
X2422956Y12641224D01*
X2434691Y12634264D01*
G37*
G36*
X3474415Y12667234D02*
G01*
X3532530Y12667234D01*
X3532530Y12737846D01*
X3521964Y12732004D01*
X3510737Y12723825D01*
X3500577Y12714325D01*
X3491687Y12703556D01*
X3484219Y12691821D01*
X3478276Y12679222D01*
G37*
G36*
X3630269Y12667234D02*
G01*
X3688384Y12667234D01*
X3684524Y12679222D01*
X3678580Y12691821D01*
X3671112Y12703556D01*
X3662222Y12714325D01*
X3652062Y12723825D01*
X3640836Y12732004D01*
X3630269Y12737846D01*
G37*
G36*
X5589473Y12744450D02*
G01*
X5636666Y12744450D01*
X5636666Y12791643D01*
X5629097Y12787833D01*
X5617870Y12780111D01*
X5607761Y12770967D01*
X5598972Y12760553D01*
X5591606Y12749072D01*
G37*
G36*
X5725566Y12744450D02*
G01*
X5772810Y12744450D01*
X5770676Y12749072D01*
X5763310Y12760553D01*
X5754522Y12770967D01*
X5744413Y12780111D01*
X5733135Y12787833D01*
X5725566Y12791643D01*
G37*
G36*
X2525166Y12769850D02*
G01*
X2572410Y12769850D01*
X2570276Y12774472D01*
X2562910Y12785953D01*
X2554122Y12796367D01*
X2544013Y12805511D01*
X2532735Y12813233D01*
X2525166Y12817043D01*
G37*
G36*
X2389073Y12769850D02*
G01*
X2436266Y12769850D01*
X2436266Y12817043D01*
X2428697Y12813233D01*
X2417470Y12805511D01*
X2407361Y12796367D01*
X2398572Y12785953D01*
X2391206Y12774472D01*
G37*
G36*
X1810257Y12972288D02*
G01*
X1837080Y12972288D01*
X1837080Y13096849D01*
X1783791Y13096849D01*
X1783791Y12998805D01*
X1784502Y12992455D01*
X1786432Y12987020D01*
X1789480Y12982092D01*
X1793595Y12978028D01*
X1798472Y12974929D01*
X1803958Y12972999D01*
G37*
G36*
X1363319Y12972288D02*
G01*
X1390142Y12972288D01*
X1396441Y12972999D01*
X1401927Y12974929D01*
X1406804Y12978028D01*
X1410919Y12982092D01*
X1413967Y12987020D01*
X1415897Y12992455D01*
X1416608Y12998805D01*
X1416608Y13096849D01*
X1363319Y13096849D01*
G37*
G36*
X1256284Y12972288D02*
G01*
X1283106Y12972288D01*
X1283106Y13096849D01*
X1229817Y13096849D01*
X1229817Y12998805D01*
X1230528Y12992455D01*
X1232408Y12987020D01*
X1235506Y12982092D01*
X1239570Y12978028D01*
X1244498Y12974929D01*
X1249934Y12972999D01*
G37*
G36*
X1917293Y12972288D02*
G01*
X1944116Y12972288D01*
X1950466Y12972999D01*
X1955901Y12974929D01*
X1960829Y12978028D01*
X1964893Y12982092D01*
X1967992Y12987020D01*
X1969922Y12992455D01*
X1970633Y12998805D01*
X1970633Y13096849D01*
X1917293Y13096849D01*
G37*
G36*
X4962702Y12972288D02*
G01*
X4989525Y12972288D01*
X4989525Y13096849D01*
X4936236Y13096849D01*
X4936236Y12998805D01*
X4936947Y12992455D01*
X4938826Y12987020D01*
X4941925Y12982092D01*
X4945989Y12978028D01*
X4950917Y12974929D01*
X4956352Y12972999D01*
G37*
G36*
X4515713Y12972288D02*
G01*
X4542536Y12972288D01*
X4548886Y12972999D01*
X4554321Y12974929D01*
X4559249Y12978028D01*
X4563313Y12982092D01*
X4566412Y12987020D01*
X4568342Y12992455D01*
X4569053Y12998805D01*
X4569053Y13096849D01*
X4515713Y13096849D01*
G37*
G36*
X3493515Y12972288D02*
G01*
X3520338Y12972288D01*
X3526688Y12972999D01*
X3532124Y12974929D01*
X3537000Y12978028D01*
X3541115Y12982092D01*
X3544214Y12987020D01*
X3546094Y12992455D01*
X3546805Y12998805D01*
X3546805Y13096849D01*
X3493515Y13096849D01*
G37*
G36*
X2832506Y12972288D02*
G01*
X2859328Y12972288D01*
X2859328Y13096849D01*
X2805988Y13096849D01*
X2805988Y12998805D01*
X2806700Y12992455D01*
X2808630Y12987020D01*
X2811729Y12982092D01*
X2815793Y12978028D01*
X2820720Y12974929D01*
X2826156Y12972999D01*
G37*
G36*
X3386480Y12972288D02*
G01*
X3413302Y12972288D01*
X3413302Y13096849D01*
X3360013Y13096849D01*
X3360013Y12998805D01*
X3360724Y12992455D01*
X3362604Y12987020D01*
X3365703Y12982092D01*
X3369818Y12978028D01*
X3374694Y12974929D01*
X3380181Y12972999D01*
G37*
G36*
X4408678Y12972288D02*
G01*
X4435500Y12972288D01*
X4435500Y13096849D01*
X4382211Y13096849D01*
X4382211Y12998805D01*
X4382922Y12992455D01*
X4384852Y12987020D01*
X4387900Y12982092D01*
X4392015Y12978028D01*
X4396892Y12974929D01*
X4402378Y12972999D01*
G37*
G36*
X2939491Y12972288D02*
G01*
X2966364Y12972288D01*
X2972663Y12972999D01*
X2978150Y12974929D01*
X2983026Y12978028D01*
X2987141Y12982092D01*
X2990189Y12987020D01*
X2992120Y12992455D01*
X2992831Y12998805D01*
X2992831Y13096849D01*
X2939491Y13096849D01*
G37*
G36*
X5069738Y12972288D02*
G01*
X5096560Y12972288D01*
X5102860Y12972999D01*
X5108346Y12974929D01*
X5113223Y12978028D01*
X5117338Y12982092D01*
X5120386Y12987020D01*
X5122316Y12992455D01*
X5123027Y12998805D01*
X5123027Y13096849D01*
X5069738Y13096849D01*
G37*
G36*
X6572758Y12984988D02*
G01*
X6599580Y12984988D01*
X6599580Y13109549D01*
X6546291Y13109549D01*
X6546291Y13011505D01*
X6547002Y13005155D01*
X6548932Y12999720D01*
X6551980Y12994792D01*
X6556095Y12990728D01*
X6560972Y12987629D01*
X6566458Y12985699D01*
G37*
G36*
X6125819Y12984988D02*
G01*
X6152642Y12984988D01*
X6158941Y12985699D01*
X6164427Y12987629D01*
X6169304Y12990728D01*
X6173419Y12994792D01*
X6176467Y12999720D01*
X6178397Y13005155D01*
X6179108Y13011505D01*
X6179108Y13109549D01*
X6125819Y13109549D01*
G37*
G36*
X6679793Y12984988D02*
G01*
X6706616Y12984988D01*
X6712966Y12985699D01*
X6718401Y12987629D01*
X6723329Y12990728D01*
X6727393Y12994792D01*
X6730492Y12999720D01*
X6732422Y13005155D01*
X6733133Y13011505D01*
X6733133Y13109549D01*
X6679793Y13109549D01*
G37*
G36*
X6018784Y12984988D02*
G01*
X6045606Y12984988D01*
X6045606Y13109549D01*
X5992317Y13109549D01*
X5992317Y13011505D01*
X5993028Y13005155D01*
X5994908Y12999720D01*
X5998006Y12994792D01*
X6002070Y12990728D01*
X6006998Y12987629D01*
X6012434Y12985699D01*
G37*

%LPD*%
G36*
X1521968Y1468120D02*
G01*
X1491640Y1469085D01*
X1462024Y1471930D01*
X1432610Y1476603D01*
X1403502Y1483106D01*
X1374952Y1491437D01*
X1346911Y1501546D01*
X1319580Y1513382D01*
X1293063Y1526946D01*
X1267460Y1542135D01*
X1242822Y1558848D01*
X1219301Y1577136D01*
X1197000Y1596847D01*
X1175918Y1617929D01*
X1156258Y1640281D01*
X1138021Y1663801D01*
X1121308Y1688439D01*
X1106170Y1714093D01*
X1092657Y1740662D01*
X1080820Y1767992D01*
X1070762Y1796034D01*
X1062482Y1824634D01*
X1055979Y1853692D01*
X1051356Y1883105D01*
X1048562Y1912772D01*
X1047648Y1942744D01*
X1047648Y4180890D01*
X1048664Y4185310D01*
X1051407Y4188815D01*
X1055471Y4190796D01*
X1059992Y4190847D01*
X1064056Y4188917D01*
X1066800Y4186783D01*
X1075639Y4182008D01*
X1085138Y4178706D01*
X1095095Y4177080D01*
X1105103Y4177080D01*
X1115060Y4178706D01*
X1124559Y4182008D01*
X1133398Y4186783D01*
X1141323Y4192930D01*
X1148130Y4200347D01*
X1153617Y4208780D01*
X1157681Y4217974D01*
X1160119Y4227728D01*
X1160983Y4237736D01*
X1160119Y4247743D01*
X1157681Y4257497D01*
X1153617Y4266692D01*
X1148130Y4275124D01*
X1141374Y4282440D01*
X1139393Y4285640D01*
X1138682Y4289348D01*
X1138682Y4664913D01*
X1139545Y4668926D01*
X1141933Y4672279D01*
X1145438Y4674463D01*
X1149502Y4675022D01*
X1153515Y4673904D01*
X1156716Y4671314D01*
X1161643Y4665319D01*
X1289812Y4537151D01*
X1292148Y4533493D01*
X1293469Y4518050D01*
X1295958Y4508296D01*
X1299972Y4499102D01*
X1305458Y4490669D01*
X1312265Y4483252D01*
X1320241Y4477105D01*
X1329080Y4472330D01*
X1338580Y4469028D01*
X1348486Y4467402D01*
X1358544Y4467402D01*
X1368450Y4469028D01*
X1377950Y4472330D01*
X1386789Y4477105D01*
X1394764Y4483252D01*
X1401572Y4490669D01*
X1407058Y4499102D01*
X1411071Y4508296D01*
X1413560Y4518050D01*
X1414373Y4528058D01*
X1413560Y4538065D01*
X1411071Y4547819D01*
X1407058Y4557014D01*
X1401572Y4565446D01*
X1394764Y4572863D01*
X1386789Y4579010D01*
X1377950Y4583785D01*
X1368450Y4587087D01*
X1358544Y4588713D01*
X1351635Y4588713D01*
X1347774Y4589475D01*
X1344472Y4591710D01*
X1230172Y4705959D01*
X1227988Y4709261D01*
X1227226Y4713173D01*
X1227226Y9605619D01*
X1227988Y9609531D01*
X1230172Y9612833D01*
X1233474Y9615017D01*
X1237386Y9615779D01*
X1307388Y9615779D01*
X1313688Y9616490D01*
X1316380Y9617456D01*
X1320393Y9618014D01*
X1324305Y9616948D01*
X1327454Y9614458D01*
X1329436Y9610953D01*
X1329842Y9606940D01*
X1328724Y9603079D01*
X1324864Y9595866D01*
X1322679Y9588652D01*
X1321866Y9580626D01*
X1321866Y5281168D01*
X1321206Y5277510D01*
X1319174Y5274310D01*
X1312468Y5266994D01*
X1306982Y5258562D01*
X1302918Y5249367D01*
X1300480Y5239613D01*
X1299616Y5229606D01*
X1300480Y5219598D01*
X1302918Y5209844D01*
X1306982Y5200650D01*
X1312468Y5192217D01*
X1319276Y5184800D01*
X1327200Y5178653D01*
X1336040Y5173878D01*
X1345539Y5170576D01*
X1355496Y5168950D01*
X1361541Y5168950D01*
X1365758Y5168036D01*
X1369212Y5165394D01*
X1371295Y5161584D01*
X1371600Y5157266D01*
X1370025Y5153202D01*
X1366012Y5144008D01*
X1363522Y5134254D01*
X1362710Y5124246D01*
X1363522Y5114239D01*
X1366012Y5104485D01*
X1370025Y5095290D01*
X1375511Y5086858D01*
X1382318Y5079441D01*
X1390294Y5073294D01*
X1399133Y5068519D01*
X1408633Y5065217D01*
X1418539Y5063591D01*
X1428597Y5063591D01*
X1438503Y5065217D01*
X1448003Y5068519D01*
X1456842Y5073294D01*
X1459331Y5075224D01*
X1463395Y5077104D01*
X1467916Y5077104D01*
X1471930Y5075123D01*
X1474724Y5071567D01*
X1475740Y5067198D01*
X1475740Y3957320D01*
X1476552Y3949293D01*
X1478737Y3942079D01*
X1482293Y3935374D01*
X1487424Y3929176D01*
X1617776Y3798824D01*
X1623974Y3793693D01*
X1630680Y3790137D01*
X1637893Y3787952D01*
X1645920Y3787140D01*
X1707388Y3787140D01*
X1715414Y3787952D01*
X1722628Y3790137D01*
X1729333Y3793693D01*
X1735531Y3798824D01*
X1940814Y4004259D01*
X1944370Y4006545D01*
X1948535Y4007205D01*
X1952599Y4006138D01*
X1955901Y4003497D01*
X1957832Y3999687D01*
X1958441Y3997299D01*
X1962607Y3988409D01*
X1968652Y3979722D01*
X1970024Y3976979D01*
X1970532Y3973931D01*
X1970532Y2796895D01*
X1971344Y2788412D01*
X1973681Y2780741D01*
X1977440Y2773680D01*
X1982825Y2767126D01*
X2297887Y2452065D01*
X2299919Y2449169D01*
X2300833Y2445766D01*
X2301240Y2441295D01*
X2301951Y2438603D01*
X2302256Y2434894D01*
X2301189Y2431338D01*
X2298954Y2428392D01*
X2295753Y2426462D01*
X2292146Y2425801D01*
X2186330Y2425801D01*
X2183942Y2426106D01*
X2180183Y2427681D01*
X2170988Y2430475D01*
X2161438Y2431745D01*
X2151786Y2431288D01*
X2142337Y2429256D01*
X2133396Y2425700D01*
X2125167Y2420620D01*
X2117953Y2414270D01*
X2111857Y2406751D01*
X2107184Y2398318D01*
X2103983Y2389225D01*
X2102358Y2379726D01*
X2102358Y2370074D01*
X2103983Y2360574D01*
X2107184Y2351481D01*
X2111857Y2343048D01*
X2117953Y2335530D01*
X2125167Y2329180D01*
X2133396Y2324100D01*
X2142337Y2320544D01*
X2151786Y2318512D01*
X2161438Y2318054D01*
X2170988Y2319324D01*
X2180183Y2322118D01*
X2183942Y2323693D01*
X2186330Y2323998D01*
X2527808Y2323998D01*
X2531313Y2323388D01*
X2534361Y2321610D01*
X2536647Y2318867D01*
X2537815Y2315565D01*
X2538831Y2309774D01*
X2542032Y2300681D01*
X2546705Y2292248D01*
X2552801Y2284730D01*
X2560015Y2278380D01*
X2568244Y2273300D01*
X2577185Y2269744D01*
X2586634Y2267712D01*
X2596286Y2267254D01*
X2605836Y2268524D01*
X2615031Y2271318D01*
X2623667Y2275687D01*
X2631440Y2281428D01*
X2638094Y2288387D01*
X2643479Y2296363D01*
X2647492Y2305151D01*
X2649880Y2314498D01*
X2650744Y2324100D01*
X2649880Y2333701D01*
X2647492Y2343048D01*
X2645664Y2347061D01*
X2644749Y2351227D01*
X2644749Y2374442D01*
X2643936Y2383739D01*
X2641650Y2392273D01*
X2637891Y2400350D01*
X2632811Y2407615D01*
X2626563Y2413863D01*
X2619298Y2418943D01*
X2611272Y2422702D01*
X2602687Y2424988D01*
X2593390Y2425801D01*
X2421331Y2425801D01*
X2417724Y2426462D01*
X2414524Y2428392D01*
X2412288Y2431338D01*
X2411222Y2434894D01*
X2411526Y2438603D01*
X2412238Y2441295D01*
X2413101Y2451049D01*
X2412238Y2460853D01*
X2409698Y2470353D01*
X2405532Y2479243D01*
X2399944Y2487320D01*
X2392984Y2494280D01*
X2384907Y2499868D01*
X2376017Y2504033D01*
X2366518Y2506573D01*
X2362047Y2506980D01*
X2358644Y2507894D01*
X2355748Y2509926D01*
X2055317Y2810357D01*
X2053082Y2813659D01*
X2052320Y2817520D01*
X2052320Y3550005D01*
X2053082Y3553917D01*
X2055317Y3557219D01*
X2058619Y3559403D01*
X2062480Y3560165D01*
X2066391Y3559403D01*
X2069642Y3557219D01*
X3151936Y2474976D01*
X3158134Y2469845D01*
X3164840Y2466289D01*
X3172053Y2464104D01*
X3180080Y2463292D01*
X5597652Y2463292D01*
X5605678Y2464104D01*
X5612892Y2466289D01*
X5619597Y2469845D01*
X5625795Y2474925D01*
X6089091Y2937967D01*
X6092393Y2940202D01*
X6096254Y2940964D01*
X6102959Y2940964D01*
X6112865Y2942590D01*
X6122365Y2945892D01*
X6131204Y2950667D01*
X6139180Y2956814D01*
X6145987Y2964230D01*
X6151473Y2972663D01*
X6155486Y2981858D01*
X6157976Y2991612D01*
X6158788Y3001619D01*
X6157976Y3011627D01*
X6155486Y3021380D01*
X6151473Y3030575D01*
X6145987Y3039008D01*
X6141618Y3043732D01*
X6139637Y3046933D01*
X6138926Y3050590D01*
X6138926Y6746290D01*
X6139840Y6750507D01*
X6142431Y6753961D01*
X6146190Y6756044D01*
X6150457Y6756400D01*
X6154521Y6754926D01*
X6156756Y6753504D01*
X6162192Y6751574D01*
X6168542Y6750862D01*
X6267399Y6750862D01*
X6273698Y6751574D01*
X6279184Y6753504D01*
X6284061Y6756603D01*
X6288176Y6760667D01*
X6291224Y6765594D01*
X6293154Y6771030D01*
X6293866Y6777380D01*
X6293866Y6789318D01*
X6294628Y6793179D01*
X6296863Y6796481D01*
X6300165Y6798716D01*
X6304026Y6799478D01*
X6364732Y6799478D01*
X6368643Y6798716D01*
X6371894Y6796481D01*
X6374130Y6793179D01*
X6374892Y6789318D01*
X6374892Y6777075D01*
X6375603Y6770776D01*
X6377533Y6765290D01*
X6380581Y6760413D01*
X6384696Y6756298D01*
X6389573Y6753250D01*
X6395059Y6751320D01*
X6401358Y6750608D01*
X6513474Y6750608D01*
X6519824Y6751320D01*
X6525259Y6753250D01*
X6530187Y6756298D01*
X6534251Y6760413D01*
X6537350Y6765290D01*
X6539230Y6770776D01*
X6539941Y6777075D01*
X6539941Y6913625D01*
X6539230Y6919975D01*
X6537350Y6925411D01*
X6534251Y6930339D01*
X6530187Y6934403D01*
X6525259Y6937502D01*
X6519824Y6939432D01*
X6513474Y6940143D01*
X6401358Y6940143D01*
X6395059Y6939432D01*
X6389573Y6937502D01*
X6384696Y6934403D01*
X6380581Y6930339D01*
X6377533Y6925411D01*
X6375603Y6919975D01*
X6374892Y6913625D01*
X6374892Y6901434D01*
X6374130Y6897573D01*
X6371894Y6894271D01*
X6368643Y6892036D01*
X6364732Y6891274D01*
X6308039Y6891274D01*
X6302451Y6892036D01*
X6299047Y6893204D01*
X6296304Y6895490D01*
X6294475Y6898589D01*
X6293866Y6902094D01*
X6293866Y6916166D01*
X6293154Y6922516D01*
X6291224Y6927951D01*
X6288176Y6932879D01*
X6284061Y6936943D01*
X6279184Y6940042D01*
X6273698Y6941921D01*
X6267399Y6942632D01*
X6168542Y6942632D01*
X6162192Y6941921D01*
X6156756Y6940042D01*
X6154521Y6938619D01*
X6150457Y6937146D01*
X6146190Y6937502D01*
X6142431Y6939584D01*
X6139840Y6943039D01*
X6138926Y6947204D01*
X6138926Y7051090D01*
X6139840Y7055307D01*
X6142431Y7058761D01*
X6146190Y7060844D01*
X6150457Y7061200D01*
X6154521Y7059726D01*
X6156756Y7058304D01*
X6162192Y7056374D01*
X6168542Y7055662D01*
X6267399Y7055662D01*
X6273698Y7056374D01*
X6279184Y7058304D01*
X6284061Y7061403D01*
X6288176Y7065467D01*
X6291224Y7070394D01*
X6293154Y7075830D01*
X6293866Y7082180D01*
X6293866Y7094118D01*
X6294628Y7097979D01*
X6296863Y7101281D01*
X6300165Y7103516D01*
X6304026Y7104278D01*
X6377432Y7104278D01*
X6381343Y7103516D01*
X6384594Y7101281D01*
X6386830Y7097979D01*
X6387592Y7094118D01*
X6387592Y7081875D01*
X6388303Y7075576D01*
X6390233Y7070090D01*
X6393281Y7065213D01*
X6397396Y7061098D01*
X6402273Y7058050D01*
X6407759Y7056120D01*
X6414058Y7055408D01*
X6526174Y7055408D01*
X6532524Y7056120D01*
X6537959Y7058050D01*
X6542887Y7061098D01*
X6546951Y7065213D01*
X6550050Y7070090D01*
X6551930Y7075576D01*
X6552641Y7081875D01*
X6552641Y7107326D01*
X6553504Y7111390D01*
X6555943Y7114794D01*
X6559499Y7116927D01*
X6563614Y7117435D01*
X6567627Y7116267D01*
X6570827Y7114540D01*
X6582003Y7111288D01*
X6584950Y7109053D01*
X6586931Y7105853D01*
X6587591Y7102195D01*
X6587591Y7081875D01*
X6588302Y7075576D01*
X6590233Y7070090D01*
X6593331Y7065213D01*
X6597396Y7061098D01*
X6602323Y7058050D01*
X6607759Y7056120D01*
X6614058Y7055408D01*
X6621373Y7055408D01*
X6625234Y7054646D01*
X6628536Y7052411D01*
X6630771Y7049160D01*
X6631533Y7045248D01*
X6631533Y6974687D01*
X6630924Y6971233D01*
X6629196Y6968236D01*
X6625386Y6963562D01*
X6621830Y6956856D01*
X6618528Y6945731D01*
X6616293Y6942785D01*
X6613144Y6940803D01*
X6609486Y6940143D01*
X6601358Y6940143D01*
X6595059Y6939432D01*
X6589623Y6937502D01*
X6584696Y6934403D01*
X6580631Y6930339D01*
X6577533Y6925411D01*
X6575602Y6919975D01*
X6574891Y6913625D01*
X6574891Y6777075D01*
X6575602Y6770776D01*
X6577533Y6765290D01*
X6580631Y6760413D01*
X6584696Y6756298D01*
X6589623Y6753250D01*
X6595059Y6751320D01*
X6601358Y6750608D01*
X6706057Y6750608D01*
X6709968Y6749846D01*
X6713270Y6747611D01*
X6715455Y6744360D01*
X6716217Y6740448D01*
X6716217Y5417210D01*
X6715455Y5413298D01*
X6713270Y5409996D01*
X6297117Y4993894D01*
X6293815Y4991658D01*
X6289954Y4990896D01*
X6283096Y4990896D01*
X6273139Y4989271D01*
X6263640Y4985969D01*
X6254800Y4981194D01*
X6246876Y4975047D01*
X6240068Y4967630D01*
X6234582Y4959197D01*
X6230518Y4950002D01*
X6228080Y4940249D01*
X6227216Y4930241D01*
X6228080Y4920234D01*
X6230518Y4910480D01*
X6234582Y4901285D01*
X6240068Y4892852D01*
X6246876Y4885436D01*
X6254800Y4879289D01*
X6263640Y4874514D01*
X6273139Y4871212D01*
X6283096Y4869586D01*
X6293104Y4869586D01*
X6303060Y4871212D01*
X6312560Y4874514D01*
X6321399Y4879289D01*
X6329324Y4885436D01*
X6336131Y4892852D01*
X6341618Y4901285D01*
X6345682Y4910480D01*
X6348120Y4920234D01*
X6349492Y4935677D01*
X6351828Y4939385D01*
X6781800Y5369356D01*
X6786880Y5375554D01*
X6790486Y5382260D01*
X6792671Y5389473D01*
X6793433Y5397500D01*
X6793433Y7392416D01*
X6794246Y7396327D01*
X6796430Y7399629D01*
X6799732Y7401814D01*
X6803593Y7402575D01*
X6867550Y7402575D01*
X6871157Y7401915D01*
X6874306Y7400036D01*
X6876542Y7397089D01*
X6877608Y7393584D01*
X6878370Y7386828D01*
X6880301Y7381392D01*
X6883400Y7376464D01*
X6887464Y7372400D01*
X6892391Y7369302D01*
X6897827Y7367422D01*
X6904177Y7366711D01*
X6985660Y7366711D01*
X6989521Y7365898D01*
X6992823Y7363714D01*
X6995058Y7360412D01*
X6995820Y7356551D01*
X6995820Y1942744D01*
X6994855Y1912112D01*
X6992010Y1882495D01*
X6987336Y1853082D01*
X6980834Y1824024D01*
X6972503Y1795424D01*
X6962394Y1767382D01*
X6950557Y1740052D01*
X6936994Y1713534D01*
X6921804Y1687931D01*
X6905040Y1663293D01*
X6886803Y1639773D01*
X6867093Y1617472D01*
X6846011Y1596390D01*
X6823659Y1576730D01*
X6800138Y1558493D01*
X6775450Y1541780D01*
X6749846Y1526641D01*
X6723278Y1513128D01*
X6695948Y1501292D01*
X6667906Y1491234D01*
X6639306Y1482953D01*
X6610248Y1476502D01*
X6580835Y1471828D01*
X6551168Y1469034D01*
X6521196Y1468120D01*
G37*

%LPC*%
G36*
X5319369Y1608531D02*
G01*
X5319369Y1666036D01*
X5275732Y1666036D01*
X5278221Y1655013D01*
X5282387Y1644497D01*
X5288026Y1634642D01*
X5295138Y1625803D01*
X5303418Y1618081D01*
X5312816Y1611680D01*
G37*
G36*
X6246063Y1608531D02*
G01*
X6252667Y1611680D01*
X6262065Y1618081D01*
X6270345Y1625803D01*
X6277406Y1634642D01*
X6283096Y1644497D01*
X6287262Y1655013D01*
X6289751Y1666036D01*
X6246063Y1666036D01*
G37*
G36*
X5382107Y1608531D02*
G01*
X5388660Y1611680D01*
X5398058Y1618081D01*
X5406339Y1625803D01*
X5413451Y1634642D01*
X5419090Y1644497D01*
X5423255Y1655013D01*
X5425744Y1666036D01*
X5382107Y1666036D01*
G37*
G36*
X6183376Y1608531D02*
G01*
X6183376Y1666036D01*
X6139688Y1666036D01*
X6142228Y1655013D01*
X6146342Y1644497D01*
X6152032Y1634642D01*
X6159093Y1625803D01*
X6167424Y1618081D01*
X6176772Y1611680D01*
G37*
G36*
X1890369Y1633931D02*
G01*
X1890369Y1691436D01*
X1846732Y1691436D01*
X1849221Y1680413D01*
X1853387Y1669897D01*
X1859025Y1660042D01*
X1866138Y1651203D01*
X1874418Y1643481D01*
X1883816Y1637080D01*
G37*
G36*
X2817063Y1633931D02*
G01*
X2823667Y1637080D01*
X2833065Y1643481D01*
X2841345Y1651203D01*
X2848406Y1660042D01*
X2854096Y1669897D01*
X2858262Y1680413D01*
X2860751Y1691436D01*
X2817063Y1691436D01*
G37*
G36*
X2754376Y1633931D02*
G01*
X2754376Y1691436D01*
X2710688Y1691436D01*
X2713228Y1680413D01*
X2717342Y1669897D01*
X2723032Y1660042D01*
X2730093Y1651203D01*
X2738424Y1643481D01*
X2747772Y1637080D01*
G37*
G36*
X1953107Y1633931D02*
G01*
X1959660Y1637080D01*
X1969058Y1643481D01*
X1977339Y1651203D01*
X1984451Y1660042D01*
X1990089Y1669897D01*
X1994255Y1680413D01*
X1996744Y1691436D01*
X1953107Y1691436D01*
G37*
G36*
X5275732Y1768754D02*
G01*
X5319369Y1768754D01*
X5319369Y1826260D01*
X5312816Y1823110D01*
X5303418Y1816709D01*
X5295138Y1808988D01*
X5288026Y1800148D01*
X5282387Y1790344D01*
X5278221Y1779778D01*
G37*
G36*
X6246063Y1768754D02*
G01*
X6289751Y1768754D01*
X6287262Y1779778D01*
X6283096Y1790344D01*
X6277406Y1800148D01*
X6270345Y1808988D01*
X6262065Y1816709D01*
X6252667Y1823110D01*
X6246063Y1826260D01*
G37*
G36*
X5382107Y1768754D02*
G01*
X5425744Y1768754D01*
X5423255Y1779778D01*
X5419090Y1790344D01*
X5413451Y1800148D01*
X5406339Y1808988D01*
X5398058Y1816709D01*
X5388660Y1823110D01*
X5382107Y1826260D01*
G37*
G36*
X6139688Y1768754D02*
G01*
X6183376Y1768754D01*
X6183376Y1826260D01*
X6176772Y1823110D01*
X6167424Y1816709D01*
X6159093Y1808988D01*
X6152032Y1800148D01*
X6146342Y1790344D01*
X6142228Y1779778D01*
G37*
G36*
X1846732Y1794154D02*
G01*
X1890369Y1794154D01*
X1890369Y1851660D01*
X1883816Y1848510D01*
X1874418Y1842109D01*
X1866138Y1834388D01*
X1859025Y1825548D01*
X1853387Y1815744D01*
X1849221Y1805178D01*
G37*
G36*
X2817063Y1794154D02*
G01*
X2860751Y1794154D01*
X2858262Y1805178D01*
X2854096Y1815744D01*
X2848406Y1825548D01*
X2841345Y1834388D01*
X2833065Y1842109D01*
X2823667Y1848510D01*
X2817063Y1851660D01*
G37*
G36*
X2710688Y1794154D02*
G01*
X2754376Y1794154D01*
X2754376Y1851660D01*
X2747772Y1848510D01*
X2738424Y1842109D01*
X2730093Y1834388D01*
X2723032Y1825548D01*
X2717342Y1815744D01*
X2713228Y1805178D01*
G37*
G36*
X1953107Y1794154D02*
G01*
X1996744Y1794154D01*
X1994255Y1805178D01*
X1990089Y1815744D01*
X1984451Y1825548D01*
X1977339Y1834388D01*
X1969058Y1842109D01*
X1959660Y1848510D01*
X1953107Y1851660D01*
G37*
G36*
X1259738Y1868881D02*
G01*
X1277772Y1870252D01*
X1295603Y1873504D01*
X1312976Y1878584D01*
X1329740Y1885391D01*
X1345742Y1893925D01*
X1360779Y1904034D01*
X1374648Y1915617D01*
X1387297Y1928571D01*
X1398574Y1942795D01*
X1408277Y1958086D01*
X1416354Y1974240D01*
X1422755Y1991207D01*
X1427378Y2008733D01*
X1430172Y2026615D01*
X1431086Y2044700D01*
X1430172Y2062784D01*
X1427378Y2080666D01*
X1422755Y2098192D01*
X1416354Y2115159D01*
X1408277Y2131314D01*
X1398574Y2146604D01*
X1387297Y2160828D01*
X1374648Y2173782D01*
X1360779Y2185365D01*
X1345742Y2195474D01*
X1329740Y2204008D01*
X1312976Y2210816D01*
X1295603Y2215896D01*
X1277772Y2219147D01*
X1259738Y2220518D01*
X1241602Y2220061D01*
X1223670Y2217724D01*
X1206042Y2213610D01*
X1188923Y2207615D01*
X1172514Y2199944D01*
X1157020Y2190648D01*
X1142492Y2179777D01*
X1129233Y2167483D01*
X1117244Y2153869D01*
X1106779Y2139086D01*
X1097838Y2123338D01*
X1090625Y2106726D01*
X1085088Y2089505D01*
X1081379Y2071776D01*
X1079550Y2053742D01*
X1079550Y2035657D01*
X1081379Y2017623D01*
X1085088Y1999894D01*
X1090625Y1982673D01*
X1097838Y1966061D01*
X1106779Y1950313D01*
X1117244Y1935530D01*
X1129233Y1921916D01*
X1142492Y1909622D01*
X1157020Y1898751D01*
X1172514Y1889455D01*
X1188923Y1881784D01*
X1206042Y1875789D01*
X1223670Y1871675D01*
X1241602Y1869338D01*
G37*
G36*
X6790588Y1868881D02*
G01*
X6808622Y1870252D01*
X6826453Y1873504D01*
X6843826Y1878584D01*
X6860590Y1885391D01*
X6876592Y1893925D01*
X6891629Y1904034D01*
X6905498Y1915617D01*
X6918147Y1928571D01*
X6929424Y1942795D01*
X6939127Y1958086D01*
X6947204Y1974240D01*
X6953605Y1991207D01*
X6958228Y2008733D01*
X6961022Y2026615D01*
X6961936Y2044700D01*
X6961022Y2062784D01*
X6958228Y2080666D01*
X6953605Y2098192D01*
X6947204Y2115159D01*
X6939127Y2131314D01*
X6929424Y2146604D01*
X6918147Y2160828D01*
X6905498Y2173782D01*
X6891629Y2185365D01*
X6876592Y2195474D01*
X6860590Y2204008D01*
X6843826Y2210816D01*
X6826453Y2215896D01*
X6808622Y2219147D01*
X6790588Y2220518D01*
X6772452Y2220061D01*
X6754520Y2217724D01*
X6736892Y2213610D01*
X6719773Y2207615D01*
X6703364Y2199944D01*
X6687870Y2190648D01*
X6673342Y2179777D01*
X6660083Y2167483D01*
X6648094Y2153869D01*
X6637629Y2139086D01*
X6628688Y2123338D01*
X6621475Y2106726D01*
X6615938Y2089505D01*
X6612229Y2071776D01*
X6610400Y2053742D01*
X6610400Y2035657D01*
X6612229Y2017623D01*
X6615938Y1999894D01*
X6621475Y1982673D01*
X6628688Y1966061D01*
X6637629Y1950313D01*
X6648094Y1935530D01*
X6660083Y1921916D01*
X6673342Y1909622D01*
X6687870Y1898751D01*
X6703364Y1889455D01*
X6719773Y1881784D01*
X6736892Y1875789D01*
X6754520Y1871675D01*
X6772452Y1869338D01*
G37*
G36*
X6246063Y2013508D02*
G01*
X6252667Y2016658D01*
X6262065Y2023059D01*
X6270345Y2030780D01*
X6277406Y2039620D01*
X6283096Y2049475D01*
X6287262Y2060041D01*
X6289751Y2071065D01*
X6290310Y2078532D01*
X6246063Y2078532D01*
G37*
G36*
X5319369Y2013508D02*
G01*
X5319369Y2078532D01*
X5275122Y2078532D01*
X5275681Y2071116D01*
X5278221Y2060041D01*
X5282387Y2049475D01*
X5288026Y2039670D01*
X5295138Y2030780D01*
X5303418Y2023059D01*
X5312816Y2016709D01*
G37*
G36*
X6183376Y2013508D02*
G01*
X6183376Y2078532D01*
X6140043Y2078532D01*
X6136335Y2079243D01*
X6133134Y2081225D01*
X6130899Y2084222D01*
X6129883Y2087829D01*
X6129274Y2095246D01*
X6126784Y2104847D01*
X6122720Y2113838D01*
X6117132Y2122068D01*
X6110325Y2129231D01*
X6102350Y2135073D01*
X6093510Y2139543D01*
X6084062Y2142439D01*
X6074206Y2143709D01*
X6064351Y2143302D01*
X6054648Y2141220D01*
X6045454Y2137511D01*
X6037021Y2132330D01*
X6029604Y2125776D01*
X6023406Y2118055D01*
X6018530Y2109419D01*
X6015278Y2100122D01*
X6013602Y2090318D01*
X6013602Y2080463D01*
X6015278Y2070658D01*
X6018530Y2061362D01*
X6023406Y2052726D01*
X6029604Y2045004D01*
X6037021Y2038451D01*
X6045454Y2033270D01*
X6054648Y2029561D01*
X6064351Y2027478D01*
X6074206Y2027072D01*
X6084062Y2028342D01*
X6093510Y2031238D01*
X6102350Y2035708D01*
X6110325Y2041550D01*
X6117132Y2048713D01*
X6122720Y2056942D01*
X6123889Y2059533D01*
X6126175Y2062734D01*
X6129528Y2064867D01*
X6133388Y2065528D01*
X6137249Y2064664D01*
X6140450Y2062378D01*
X6142583Y2059076D01*
X6146342Y2049475D01*
X6152032Y2039620D01*
X6159093Y2030780D01*
X6167424Y2023059D01*
X6176772Y2016658D01*
G37*
G36*
X5382107Y2013508D02*
G01*
X5388660Y2016709D01*
X5398058Y2023059D01*
X5406339Y2030780D01*
X5413451Y2039670D01*
X5419090Y2049475D01*
X5422849Y2059025D01*
X5424881Y2062225D01*
X5427929Y2064461D01*
X5431586Y2065426D01*
X5435396Y2064969D01*
X5438698Y2063140D01*
X5441188Y2060244D01*
X5445404Y2052726D01*
X5451602Y2045004D01*
X5459018Y2038451D01*
X5467451Y2033270D01*
X5476646Y2029561D01*
X5486349Y2027478D01*
X5496204Y2027072D01*
X5506059Y2028342D01*
X5515508Y2031238D01*
X5524347Y2035708D01*
X5532323Y2041550D01*
X5539130Y2048713D01*
X5544718Y2056942D01*
X5548782Y2065934D01*
X5551271Y2075535D01*
X5552135Y2085390D01*
X5551271Y2095246D01*
X5548782Y2104847D01*
X5544718Y2113838D01*
X5539130Y2122068D01*
X5532323Y2129231D01*
X5524347Y2135073D01*
X5515508Y2139543D01*
X5506059Y2142439D01*
X5496204Y2143709D01*
X5486349Y2143302D01*
X5476646Y2141220D01*
X5467451Y2137511D01*
X5459018Y2132330D01*
X5451602Y2125776D01*
X5445252Y2117852D01*
X5440527Y2109419D01*
X5437276Y2100122D01*
X5434787Y2084832D01*
X5432602Y2081530D01*
X5429300Y2079345D01*
X5425440Y2078532D01*
X5382107Y2078532D01*
G37*
G36*
X1890369Y2038908D02*
G01*
X1890369Y2103932D01*
X1846122Y2103932D01*
X1846681Y2096516D01*
X1849221Y2085441D01*
X1853387Y2074875D01*
X1859025Y2065070D01*
X1866138Y2056180D01*
X1874418Y2048459D01*
X1883816Y2042109D01*
G37*
G36*
X2817063Y2038908D02*
G01*
X2823667Y2042058D01*
X2833065Y2048459D01*
X2841345Y2056180D01*
X2848406Y2065020D01*
X2854096Y2074875D01*
X2858262Y2085441D01*
X2860751Y2096465D01*
X2861310Y2103932D01*
X2817063Y2103932D01*
G37*
G36*
X2754376Y2038908D02*
G01*
X2754376Y2103932D01*
X2711043Y2103932D01*
X2707335Y2104644D01*
X2704134Y2106625D01*
X2701899Y2109622D01*
X2700883Y2113229D01*
X2700274Y2120646D01*
X2697784Y2130247D01*
X2693720Y2139238D01*
X2688132Y2147468D01*
X2681325Y2154631D01*
X2673350Y2160473D01*
X2664510Y2164943D01*
X2655062Y2167839D01*
X2645206Y2169109D01*
X2635351Y2168702D01*
X2625648Y2166620D01*
X2616454Y2162911D01*
X2608021Y2157730D01*
X2600604Y2151176D01*
X2594406Y2143455D01*
X2589530Y2134819D01*
X2586278Y2125522D01*
X2584602Y2115718D01*
X2584602Y2105863D01*
X2586278Y2096058D01*
X2589530Y2086762D01*
X2594406Y2078126D01*
X2600604Y2070404D01*
X2608021Y2063851D01*
X2616454Y2058670D01*
X2625648Y2054961D01*
X2635351Y2052878D01*
X2645206Y2052472D01*
X2655062Y2053742D01*
X2664510Y2056638D01*
X2673350Y2061108D01*
X2681325Y2066950D01*
X2688132Y2074113D01*
X2693720Y2082342D01*
X2694889Y2084933D01*
X2697175Y2088134D01*
X2700528Y2090267D01*
X2704388Y2090928D01*
X2708249Y2090064D01*
X2711450Y2087778D01*
X2713583Y2084476D01*
X2717342Y2074875D01*
X2723032Y2065020D01*
X2730093Y2056180D01*
X2738424Y2048459D01*
X2747772Y2042058D01*
G37*
G36*
X1953107Y2038908D02*
G01*
X1959660Y2042109D01*
X1969058Y2048459D01*
X1977339Y2056180D01*
X1984451Y2065070D01*
X1990089Y2074875D01*
X1993849Y2084425D01*
X1995881Y2087625D01*
X1998929Y2089861D01*
X2002586Y2090826D01*
X2006396Y2090369D01*
X2009698Y2088540D01*
X2012188Y2085644D01*
X2016404Y2078126D01*
X2022602Y2070404D01*
X2030018Y2063851D01*
X2038451Y2058670D01*
X2047646Y2054961D01*
X2057349Y2052878D01*
X2067204Y2052472D01*
X2077059Y2053742D01*
X2086508Y2056638D01*
X2095347Y2061108D01*
X2103323Y2066950D01*
X2110130Y2074113D01*
X2115718Y2082342D01*
X2119782Y2091334D01*
X2122271Y2100935D01*
X2123135Y2110790D01*
X2122271Y2120646D01*
X2119782Y2130247D01*
X2115718Y2139238D01*
X2110130Y2147468D01*
X2103323Y2154631D01*
X2095347Y2160473D01*
X2086508Y2164943D01*
X2077059Y2167839D01*
X2067204Y2169109D01*
X2057349Y2168702D01*
X2047646Y2166620D01*
X2038451Y2162911D01*
X2030018Y2157730D01*
X2022602Y2151176D01*
X2016252Y2143252D01*
X2011527Y2134819D01*
X2008276Y2125522D01*
X2005787Y2110232D01*
X2003602Y2106930D01*
X2000300Y2104745D01*
X1996439Y2103932D01*
X1953107Y2103932D01*
G37*
G36*
X5275122Y2196236D02*
G01*
X5319369Y2196236D01*
X5319369Y2261311D01*
X5312816Y2258110D01*
X5303418Y2251710D01*
X5295138Y2244039D01*
X5288026Y2235149D01*
X5282387Y2225344D01*
X5278221Y2214778D01*
X5275681Y2203704D01*
G37*
G36*
X6139129Y2196236D02*
G01*
X6183376Y2196236D01*
X6183376Y2261260D01*
X6176772Y2258110D01*
X6167424Y2251710D01*
X6159093Y2243988D01*
X6152032Y2235149D01*
X6146342Y2225294D01*
X6142228Y2214778D01*
X6139688Y2203704D01*
G37*
G36*
X6246063Y2196236D02*
G01*
X6290310Y2196236D01*
X6289751Y2203704D01*
X6287262Y2214778D01*
X6283096Y2225294D01*
X6277406Y2235149D01*
X6270345Y2243988D01*
X6262065Y2251710D01*
X6252667Y2258110D01*
X6246063Y2261260D01*
G37*
G36*
X5382107Y2196236D02*
G01*
X5426303Y2196236D01*
X5425744Y2203704D01*
X5423255Y2214778D01*
X5419090Y2225344D01*
X5413451Y2235149D01*
X5406339Y2244039D01*
X5398058Y2251710D01*
X5388660Y2258110D01*
X5382107Y2261311D01*
G37*
G36*
X2710129Y2221636D02*
G01*
X2754376Y2221636D01*
X2754376Y2286660D01*
X2747772Y2283510D01*
X2738424Y2277110D01*
X2730093Y2269388D01*
X2723032Y2260549D01*
X2717342Y2250694D01*
X2713228Y2240178D01*
X2710688Y2229104D01*
G37*
G36*
X1953107Y2221636D02*
G01*
X1997303Y2221636D01*
X1996744Y2229104D01*
X1994255Y2240178D01*
X1990089Y2250744D01*
X1984451Y2260549D01*
X1977339Y2269439D01*
X1969058Y2277110D01*
X1959660Y2283510D01*
X1953107Y2286711D01*
G37*
G36*
X1846122Y2221636D02*
G01*
X1890369Y2221636D01*
X1890369Y2286711D01*
X1883816Y2283510D01*
X1874418Y2277110D01*
X1866138Y2269439D01*
X1859025Y2260549D01*
X1853387Y2250744D01*
X1849221Y2240178D01*
X1846681Y2229104D01*
G37*
G36*
X2817063Y2221636D02*
G01*
X2861310Y2221636D01*
X2860751Y2229104D01*
X2858262Y2240178D01*
X2854096Y2250694D01*
X2848406Y2260549D01*
X2841345Y2269388D01*
X2833065Y2277110D01*
X2823667Y2283510D01*
X2817063Y2286660D01*
G37*
G36*
X5552338Y2292654D02*
G01*
X5561888Y2293924D01*
X5571083Y2296718D01*
X5579719Y2301087D01*
X5587492Y2306828D01*
X5594146Y2313787D01*
X5598058Y2319528D01*
X5600293Y2321915D01*
X5603189Y2323439D01*
X5606440Y2323998D01*
X5992520Y2323998D01*
X5996330Y2323236D01*
X6003137Y2320544D01*
X6012586Y2318512D01*
X6022238Y2318054D01*
X6031788Y2319324D01*
X6040983Y2322118D01*
X6049619Y2326487D01*
X6057392Y2332228D01*
X6064046Y2339187D01*
X6069431Y2347163D01*
X6073444Y2355951D01*
X6075832Y2365298D01*
X6076696Y2374900D01*
X6075832Y2384501D01*
X6073444Y2393848D01*
X6069431Y2402636D01*
X6064046Y2410612D01*
X6057392Y2417572D01*
X6049619Y2423312D01*
X6040983Y2427681D01*
X6031788Y2430475D01*
X6022238Y2431745D01*
X6012586Y2431288D01*
X6003137Y2429256D01*
X5996330Y2426563D01*
X5992520Y2425801D01*
X5575503Y2425801D01*
X5570880Y2425598D01*
X5566460Y2425039D01*
X5562142Y2424074D01*
X5557875Y2422753D01*
X5553811Y2421026D01*
X5549849Y2418994D01*
X5546090Y2416606D01*
X5542584Y2413914D01*
X5539130Y2410764D01*
X5533085Y2404719D01*
X5529732Y2402433D01*
X5524296Y2400300D01*
X5516067Y2395220D01*
X5508853Y2388870D01*
X5502757Y2381351D01*
X5498084Y2372918D01*
X5494883Y2363825D01*
X5493258Y2354326D01*
X5493258Y2344674D01*
X5494883Y2335174D01*
X5498084Y2326081D01*
X5502757Y2317648D01*
X5508853Y2310130D01*
X5516067Y2303780D01*
X5524296Y2298700D01*
X5533237Y2295144D01*
X5542686Y2293112D01*
G37*
G36*
X1434896Y2497429D02*
G01*
X1441500Y2500680D01*
X1452981Y2508402D01*
X1463395Y2517546D01*
X1472539Y2527960D01*
X1480210Y2539441D01*
X1483461Y2546045D01*
X1434896Y2546045D01*
G37*
G36*
X1342186Y2497429D02*
G01*
X1342186Y2546045D01*
X1293571Y2546045D01*
X1296822Y2539441D01*
X1304544Y2527960D01*
X1313637Y2517546D01*
X1324051Y2508402D01*
X1335582Y2500680D01*
G37*
G36*
X1293571Y2638755D02*
G01*
X1342186Y2638755D01*
X1342186Y2682392D01*
X1342898Y2686151D01*
X1344980Y2689352D01*
X1348079Y2691587D01*
X1351788Y2692501D01*
X1355598Y2691993D01*
X1361135Y2690114D01*
X1374698Y2687421D01*
X1388516Y2686507D01*
X1402334Y2687421D01*
X1415948Y2690114D01*
X1421434Y2691993D01*
X1425244Y2692501D01*
X1428953Y2691587D01*
X1432102Y2689352D01*
X1434185Y2686151D01*
X1434896Y2682392D01*
X1434896Y2638755D01*
X1483461Y2638755D01*
X1480210Y2645359D01*
X1472539Y2656840D01*
X1463395Y2667254D01*
X1452981Y2676398D01*
X1441704Y2683967D01*
X1438910Y2686761D01*
X1437386Y2690418D01*
X1437386Y2694381D01*
X1438910Y2698038D01*
X1441704Y2700832D01*
X1452981Y2708402D01*
X1463395Y2717546D01*
X1472539Y2727960D01*
X1480210Y2739440D01*
X1486357Y2751886D01*
X1490827Y2764993D01*
X1493520Y2778556D01*
X1494434Y2792374D01*
X1493520Y2806242D01*
X1490827Y2819806D01*
X1486357Y2832912D01*
X1480210Y2845358D01*
X1472539Y2856839D01*
X1463395Y2867253D01*
X1452981Y2876397D01*
X1441500Y2884119D01*
X1429054Y2890215D01*
X1415948Y2894685D01*
X1402334Y2897378D01*
X1388516Y2898292D01*
X1374698Y2897378D01*
X1361135Y2894685D01*
X1348028Y2890215D01*
X1335582Y2884119D01*
X1324051Y2876397D01*
X1313637Y2867253D01*
X1304544Y2856839D01*
X1296822Y2845358D01*
X1290726Y2832912D01*
X1286256Y2819806D01*
X1283563Y2806242D01*
X1282649Y2792374D01*
X1283563Y2778556D01*
X1286256Y2764993D01*
X1290726Y2751886D01*
X1296822Y2739440D01*
X1304544Y2727960D01*
X1313637Y2717546D01*
X1324051Y2708402D01*
X1335379Y2700832D01*
X1338173Y2698038D01*
X1339697Y2694381D01*
X1339697Y2690418D01*
X1338173Y2686761D01*
X1335379Y2683967D01*
X1324051Y2676398D01*
X1313637Y2667254D01*
X1304544Y2656840D01*
X1296822Y2645359D01*
G37*
G36*
X1181150Y3385921D02*
G01*
X1192225Y3386785D01*
X1203045Y3389426D01*
X1213307Y3393643D01*
X1222806Y3399485D01*
X1231290Y3406698D01*
X1238504Y3415131D01*
X1244295Y3424631D01*
X1248562Y3434892D01*
X1251153Y3445713D01*
X1252016Y3456787D01*
X1251153Y3467912D01*
X1248562Y3478733D01*
X1244295Y3488994D01*
X1238504Y3498494D01*
X1231290Y3506927D01*
X1222806Y3514140D01*
X1213307Y3519982D01*
X1203045Y3524199D01*
X1192225Y3526840D01*
X1181150Y3527704D01*
X1170076Y3526840D01*
X1159256Y3524199D01*
X1148994Y3519982D01*
X1139494Y3514140D01*
X1131011Y3506927D01*
X1123797Y3498494D01*
X1118006Y3488994D01*
X1113739Y3478733D01*
X1111148Y3467912D01*
X1110284Y3456787D01*
X1111148Y3445713D01*
X1113739Y3434892D01*
X1118006Y3424631D01*
X1123797Y3415131D01*
X1131011Y3406698D01*
X1139494Y3399485D01*
X1148994Y3393643D01*
X1159256Y3389426D01*
X1170076Y3386785D01*
G37*
G36*
X1181150Y3685946D02*
G01*
X1192225Y3686810D01*
X1203045Y3689400D01*
X1213307Y3693668D01*
X1222806Y3699459D01*
X1231290Y3706672D01*
X1238504Y3715156D01*
X1244295Y3724656D01*
X1248562Y3734917D01*
X1251153Y3745737D01*
X1252016Y3756812D01*
X1251153Y3767886D01*
X1248562Y3778707D01*
X1244295Y3788968D01*
X1238504Y3798468D01*
X1231290Y3806951D01*
X1222806Y3814165D01*
X1213307Y3819956D01*
X1203045Y3824224D01*
X1192225Y3826814D01*
X1181150Y3827678D01*
X1170076Y3826814D01*
X1159256Y3824224D01*
X1148994Y3819956D01*
X1139494Y3814165D01*
X1131011Y3806951D01*
X1123797Y3798468D01*
X1118006Y3788968D01*
X1113739Y3778707D01*
X1111148Y3767886D01*
X1110284Y3756812D01*
X1111148Y3745737D01*
X1113739Y3734917D01*
X1118006Y3724656D01*
X1123797Y3715156D01*
X1131011Y3706672D01*
X1139494Y3699459D01*
X1148994Y3693668D01*
X1159256Y3689400D01*
X1170076Y3686810D01*
G37*

%LPD*%
D10*
X1892300Y7772400D02*
G01*
X1892300Y8077200D01*
D11*
X1638300Y8648700D02*
G01*
X1638300Y8356600D01*
X1574800Y8293100D01*
D10*
X2070100Y6451600D02*
G01*
X2070100Y7594600D01*
X2019300Y7645400D01*
D12*
X3148370Y5075681D02*
G01*
X3171459Y5052593D01*
X3171459Y4256735D01*
X3149158Y4234434D01*
X2670545Y4234434D01*
X1825843Y5079136D01*
X1825843Y9349003D01*
X1840880Y9364040D01*
X1840880Y9416008D01*
X1643090Y9613798D01*
D11*
X1964639Y9576409D02*
G01*
X1964639Y9554260D01*
X2120900Y9398000D01*
X2120900Y8737600D01*
X1955800Y8572500D01*
D12*
X1955800Y8572500D02*
G01*
X1944115Y5061965D01*
D11*
X2641650Y4775200D02*
G01*
X2628900Y4775200D01*
X2070100Y5334000D01*
X2070100Y6451600D01*
X1638300Y9436100D02*
G01*
X1638300Y8648700D01*
X3975100Y8966200D02*
G01*
X4178300Y9169400D01*
X4589373Y9169400D01*
X4736084Y9316110D01*
D12*
X3976115Y9316212D02*
G01*
X3822700Y9316212D01*
X3822700Y6599681D01*
X3945381Y6599681D01*
X4477511Y9471660D02*
G01*
X4889500Y9461500D01*
X4889500Y8674100D01*
X4572000Y8356600D01*
X4572000Y5080000D01*
X1518833Y7929422D02*
G01*
X1518833Y7554391D01*
X1621881Y7451344D01*
X1621881Y5469559D01*
X1605244Y5452922D01*
X1605244Y4408322D01*
D13*
X3581400Y12204700D02*
G01*
X3835400Y12458700D01*
X3835400Y12598400D01*
X2161910Y8033994D02*
G01*
X2161910Y7963585D01*
X2379131Y7937500D02*
G01*
X2187996Y7937500D01*
X2161910Y7963585D01*
D14*
X1274231Y11912600D02*
G01*
X1274231Y12090527D01*
X3976093Y9316107D02*
G01*
X4203700Y9543714D01*
X4203700Y11531600D01*
X4038600Y11531600D01*
X3835400Y11734800D01*
X3835400Y12204700D01*
X6085695Y13220903D02*
G01*
X6085695Y13091304D01*
X6311900Y12865100D01*
X6578600Y12865100D01*
X6639694Y12926194D01*
X6639694Y13220903D01*
X5029631Y13208203D02*
G01*
X5042331Y13220903D01*
X6085695Y13220903D01*
D15*
X4089400Y12204700D02*
G01*
X4241800Y12357100D01*
X4470400Y12357100D01*
X4775200Y12357100D01*
X4813300Y9550400D01*
X4724400Y9550400D01*
D11*
X4635500Y8242300D02*
G01*
X4889500Y8242300D01*
X5257800Y8521700D01*
X5257800Y11328400D02*
G01*
X5257800Y8813800D01*
X5257800Y8623300D01*
X5257800Y8521700D01*
X4668774Y6711442D02*
G01*
X4668774Y8242300D01*
X4635500Y8242300D01*
D12*
X4486071Y9316110D02*
G01*
X4486071Y9381962D01*
X4477605Y9390428D01*
D11*
X6007861Y6846823D02*
G01*
X5969000Y6807962D01*
X5969000Y3275329D01*
X6007861Y3275329D01*
X6046866Y7151573D02*
G01*
X6085804Y7151573D01*
D10*
X6085840Y7151623D02*
G01*
X6098031Y7151623D01*
X6098031Y3001518D01*
D11*
X6217960Y6846773D02*
G01*
X6295862Y6846773D01*
X6217960Y7151573D02*
G01*
X6295862Y7151573D01*
X6457406Y6845376D02*
G01*
X6297259Y6845376D01*
X6295862Y6846773D01*
X6470106Y7150176D02*
G01*
X6297259Y7150176D01*
X6295862Y7151573D01*
D12*
X5206761Y5979591D02*
G01*
X5206761Y3648557D01*
D15*
X4101591Y2816097D02*
G01*
X4484877Y2816097D01*
X5689600Y4020820D01*
X5689600Y5524500D01*
X5625338Y5588762D01*
X5488686Y5588762D01*
X2593850Y2324100D02*
G01*
X2593850Y2374900D01*
X2159000Y2374900D01*
X6019800Y2374900D02*
G01*
X5575300Y2374900D01*
X5549900Y2349500D01*
D12*
X3716213Y6724192D02*
G01*
X3716213Y7082739D01*
X3633332Y7165619D01*
X3405520Y7165619D01*
X3328685Y7088784D01*
X3328685Y5410174D01*
X6098031Y3001518D02*
G01*
X5598159Y2501900D01*
X3179572Y2501900D01*
X2070100Y3611371D01*
X2070100Y4050284D01*
X2032761Y4087621D01*
X1969515Y4087621D01*
X1707895Y3825747D01*
X1645412Y3825747D01*
X1514347Y3956812D01*
X1514347Y5564886D01*
D15*
X4477603Y9390430D02*
G01*
X4477603Y10003002D01*
X4477605Y10003005D02*
G01*
X4477605Y12070494D01*
X4343400Y12204700D01*
X5427131Y11665788D02*
G01*
X5427131Y12700000D01*
X6011331Y10312400D02*
G01*
X5427131Y10896600D01*
X5427131Y11665788D01*
D14*
X1274318Y12090400D02*
G01*
X1549400Y12365736D01*
X1549400Y12764262D01*
X1433321Y12764262D01*
D12*
X1360490Y5229605D02*
G01*
X1360490Y9581134D01*
X1393154Y9613798D01*
X1393154Y9791700D02*
G01*
X1393154Y9613798D01*
X1518122Y9791700D02*
G01*
X1518122Y9058020D01*
X1423558Y8963456D01*
X1423558Y5124246D01*
X5547324Y5393893D02*
G01*
X5547324Y5481828D01*
X4118955Y5587009D02*
G01*
X4118955Y5440730D01*
X5270591Y5995136D02*
G01*
X5270616Y5995136D01*
X5270616Y5717768D01*
X5506557Y5481828D01*
X5547324Y5481828D01*
X4353524Y5470093D02*
G01*
X4235617Y5470093D01*
X4211868Y5483961D02*
G01*
X4221749Y5483961D01*
X4235617Y5470093D01*
X3125637Y5680252D02*
G01*
X3125637Y6513499D01*
X3144357Y6532219D01*
X4366224Y7527493D02*
G01*
X4223806Y7527493D01*
X5053370Y5001082D02*
G01*
X5053370Y4471162D01*
X3182228Y2600020D01*
X3139734Y2600020D01*
X2174864Y3564889D01*
X2174864Y4224883D01*
X2020585Y4379163D01*
X1668312Y5426811D02*
G01*
X1668312Y3892143D01*
X6007902Y3275253D02*
G01*
X5961014Y3228365D01*
X5961014Y3024251D01*
X1770014Y4977053D02*
G01*
X1770014Y9382404D01*
X1768058Y9791700D02*
G01*
X1768058Y9613798D01*
X1768058Y9613798D02*
G01*
X1768058Y9590836D01*
X6032500Y12153900D02*
G01*
X5875411Y11996811D01*
X5875411Y10702317D01*
X6011329Y10566400D01*
X3202802Y7182713D02*
G01*
X2856448Y6836359D01*
X2856448Y5605170D01*
X2634198Y5382920D01*
X1752691Y10906810D02*
G01*
X1188608Y10342727D01*
X1188608Y4692954D01*
X1353505Y4528057D01*
D10*
X2011415Y4016578D02*
G01*
X2011415Y2796387D01*
X2356728Y2451074D01*
D12*
X2232268Y7237374D02*
G01*
X2232268Y5611748D01*
X3175269Y4147591D02*
G01*
X2627162Y4147591D01*
X2237958Y4536795D01*
X4735616Y5281396D02*
G01*
X4780142Y5281396D01*
X4815423Y5316677D01*
X4815423Y5482005D01*
X4790379Y5507050D01*
X4790379Y6807200D01*
X4858197Y6719646D02*
G01*
X4858197Y5282412D01*
X4782124Y5206339D01*
X1100089Y7592847D02*
G01*
X1100089Y4237736D01*
X2817891Y6986778D02*
G01*
X2817891Y7262190D01*
D10*
X3250326Y4448733D02*
G01*
X3250326Y2764967D01*
X3153984Y2668625D01*
D12*
X1643090Y9969627D02*
G01*
X1643090Y9993020D01*
X1643090Y9880676D02*
G01*
X1643090Y9969627D01*
X1643090Y9880676D02*
G01*
X1643090Y9791700D01*
X1643090Y9791700D02*
G01*
X1643090Y9613798D01*
X1893026Y9880676D02*
G01*
X1893026Y9969627D01*
X1893026Y9969627D02*
G01*
X1802170Y10060482D01*
X1587261Y10060482D01*
X1520002Y9993223D01*
X1893026Y9880676D02*
G01*
X1893026Y9791700D01*
X2584135Y8282355D02*
G01*
X2584135Y6224015D01*
X2463688Y6103569D01*
X2463688Y5645378D01*
X1893026Y9791700D02*
G01*
X1892300Y9790973D01*
X1892300Y8864600D01*
X2509128Y6238265D02*
G01*
X2509128Y9122663D01*
X2017994Y9613798D01*
X2017994Y9791700D02*
G01*
X2017994Y9613798D01*
X2379131Y7734300D02*
G01*
X2379131Y7559471D01*
X2159320Y7339660D01*
X2159320Y5594959D01*
X2437704Y5316575D01*
X2911210Y5316575D01*
X3921216Y9642500D02*
G01*
X3287892Y9009176D01*
X3287892Y6995083D01*
X2911210Y6618401D01*
X2911210Y5316575D01*
X2911210Y5316575D02*
G01*
X2911210Y4495545D01*
X3107070Y4299686D01*
X6657431Y6845376D02*
G01*
X6657431Y6942124D01*
X6540500Y12153900D02*
G01*
X6540500Y10079570D01*
X6011329Y9550400D01*
X6379631Y8964599D02*
G01*
X6379631Y9182100D01*
X6011331Y9550400D01*
X6392331Y7821599D02*
G01*
X6392331Y7737068D01*
X6657431Y6942124D02*
G01*
X6670131Y6954824D01*
X6670131Y7150176D01*
X6670131Y7150176D02*
G01*
X6585600Y7150176D01*
X6328933Y7737068D02*
G01*
X6392331Y7737068D01*
X6328933Y7737068D02*
G01*
X6131727Y7934274D01*
X6131727Y7977708D01*
X5893221Y8216214D01*
X5893221Y9432289D01*
X6011331Y9550400D01*
X6585600Y7150176D02*
G01*
X6585600Y7234707D01*
X6295379Y7524927D01*
X6295379Y7524927D02*
G01*
X6295379Y7703515D01*
X6328933Y7737068D01*
X1681927Y8033994D02*
G01*
X1681927Y7963585D01*
X1681927Y7963585D02*
G01*
X1681927Y7940217D01*
X1267932Y9969627D02*
G01*
X1405676Y10107371D01*
X1980046Y10107371D01*
X2094169Y9993249D01*
X1267932Y9791700D02*
G01*
X1267932Y9969627D01*
X6295379Y7524927D02*
G01*
X6206098Y7524927D01*
X5279964Y6598793D01*
X5279964Y6300343D01*
X5279964Y6300343D02*
G01*
X5488701Y6091605D01*
X5488701Y5588863D01*
X6046866Y7151573D02*
G01*
X6007902Y7151573D01*
X6958573Y8484260D02*
G01*
X6958573Y8535720D01*
X6958573Y8484260D02*
G01*
X6958573Y8432800D01*
X6379631Y8571585D02*
G01*
X6379631Y8764600D01*
X6379631Y8532799D02*
G01*
X6379631Y8571585D01*
X6379631Y8571585D02*
G01*
X6856516Y8571585D01*
X6892381Y8535720D01*
X6921870Y8535720D01*
X6921870Y8535720D02*
G01*
X6958573Y8535720D01*
X6921870Y8535720D02*
G01*
X6921870Y8301786D01*
X5206761Y5979591D02*
G01*
X5042702Y5979591D01*
X5006787Y5943676D01*
X6068659Y7951596D02*
G01*
X5206761Y7089698D01*
X5206761Y5979591D01*
X6958573Y7467600D02*
G01*
X6875642Y7467600D01*
X6392331Y7621600D02*
G01*
X6392331Y7537043D01*
X6754840Y7441209D02*
G01*
X6754840Y5396992D01*
X6288090Y4930241D01*
X6392331Y7537043D02*
G01*
X6488165Y7441209D01*
X6754840Y7441209D01*
X6754840Y7441209D02*
G01*
X6869978Y7441209D01*
X6875642Y7446873D01*
X6875642Y7467600D01*
X4668713Y8240140D02*
G01*
X4666556Y8242300D01*
X4635500Y8242300D01*
X3873845Y9735591D02*
G01*
X2963204Y8824950D01*
X2963204Y7041616D01*
X2763713Y6842125D01*
X2763713Y6783171D02*
G01*
X2763713Y6842125D01*
X2763713Y6783171D02*
G01*
X2763713Y6724192D01*
X2763713Y6724192D02*
G01*
X2763713Y6071641D01*
X2573365Y5881293D01*
X2573365Y5658408D01*
X2478572Y5563615D01*
X2455890Y5563615D01*
X2297445Y5722061D01*
X2297445Y6497497D01*
X6011329Y11582400D02*
G01*
X6286500Y11857570D01*
X6286500Y12153900D01*
X6778589Y8487790D02*
G01*
X6778589Y8409889D01*
X6778589Y7600518D02*
G01*
X6685498Y7693609D01*
X6685498Y8332800D01*
X6685498Y8332800D02*
G01*
X6701500Y8332800D01*
X6778589Y8409889D01*
X6778589Y7522590D02*
G01*
X6778589Y7600518D01*
X3213699Y5933160D02*
G01*
X3213699Y5992113D01*
X3213699Y5933160D02*
G01*
X3213699Y5874207D01*
X3503513Y5020106D02*
G01*
X3503513Y5108041D01*
X4166199Y5874207D02*
G01*
X4166199Y5992113D01*
X4475622Y13208203D02*
G01*
X5029621Y13208203D01*
X2899399Y12970281D02*
G01*
X2725613Y12970281D01*
X2480731Y12725400D01*
X2899399Y13208203D02*
G01*
X2899399Y12970281D01*
X1323202Y13208203D02*
G01*
X1877202Y13208203D01*
X1877202Y13208203D02*
G01*
X1877202Y12924561D01*
X2278547Y12523215D01*
X2278547Y12523215D02*
G01*
X2480731Y12725400D01*
X5350728Y1717395D02*
G01*
X5350728Y2137410D01*
X6214734Y1717395D02*
G01*
X6214734Y2137384D01*
X1921728Y1742795D02*
G01*
X1921728Y2162810D01*
X3213699Y5992113D02*
G01*
X3213699Y6014669D01*
X5118699Y5743575D02*
G01*
X5118699Y5453227D01*
X4697313Y5031841D01*
X2785734Y1742795D02*
G01*
X2785734Y2162784D01*
X2785734Y2162784D02*
G01*
X2785734Y2664231D01*
X6467972Y8332800D02*
G01*
X6397208Y8332800D01*
X6011331Y8718677D01*
X6011331Y9296400D01*
X6379631Y8332800D02*
G01*
X6467972Y8332800D01*
X6467972Y8332800D02*
G01*
X6685498Y8332800D01*
X4697313Y4948148D02*
G01*
X4697313Y4943906D01*
X3453399Y13208203D02*
G01*
X2899399Y13208203D01*
X5118699Y5861507D02*
G01*
X5118699Y5743575D01*
X4697313Y4543602D02*
G01*
X4697313Y4943906D01*
X3972778Y5893866D02*
G01*
X4020378Y5846292D01*
X4166199Y5992113D02*
G01*
X4020378Y5846292D01*
X2019137Y8061782D02*
G01*
X2019137Y7927187D01*
X2161910Y7784414D01*
X2161910Y7749209D02*
G01*
X2161910Y7784414D01*
X4166199Y5992113D02*
G01*
X3945321Y6212992D01*
X3945321Y6599732D01*
X3945321Y6599732D02*
G01*
X3636380Y6599732D01*
X3516213Y6719900D01*
X3516213Y7077506D01*
X4697313Y4948148D02*
G01*
X4697313Y4990007D01*
X4697313Y4990007D02*
G01*
X4697313Y5031841D01*
X4020378Y5846292D02*
G01*
X3805519Y5631434D01*
X3805519Y5232654D01*
X4697313Y4990007D02*
G01*
X4635921Y4928615D01*
X4109557Y4928615D01*
X3805519Y5232654D01*
X3805519Y5232654D02*
G01*
X3628125Y5232654D01*
X3503513Y5108041D01*
X3213699Y5874207D02*
G01*
X3213699Y5756275D01*
X2161910Y7749209D02*
G01*
X2161910Y7714005D01*
X3503513Y5108041D02*
G01*
X3223021Y5388533D01*
X3223021Y5746953D01*
X3213699Y5756275D01*
X2161910Y7714005D02*
G01*
X2161910Y7643596D01*
X2161910Y7643596D02*
G01*
X2142352Y7624038D01*
X2142352Y7414945D01*
X2143038Y9791750D02*
G01*
X2278547Y9927259D01*
X2278547Y12523215D01*
D16*
G01*
X5547334Y4943906D03*
G01*
X4697323Y4943906D03*
G01*
X5547334Y5393893D03*
G01*
X4697323Y5393893D03*
G01*
X4353534Y5020106D03*
G01*
X3503523Y5020106D03*
G01*
X4353534Y5470093D03*
G01*
X3503523Y5470093D03*
D17*
G01*
X3213709Y6724192D03*
G01*
X3213709Y5874207D03*
G01*
X2763723Y6724192D03*
G01*
X2763723Y5874207D03*
G01*
X5118709Y6711492D03*
G01*
X5118709Y5861507D03*
G01*
X4668723Y6711492D03*
G01*
X4668723Y5861507D03*
G01*
X4166209Y6724192D03*
G01*
X4166209Y5874207D03*
G01*
X3716223Y6724192D03*
G01*
X3716223Y5874207D03*
D16*
G01*
X4366234Y7077506D03*
G01*
X3516223Y7077506D03*
G01*
X4366234Y7527493D03*
G01*
X3516223Y7527493D03*
D18*
G01*
X6778599Y8047609D03*
G01*
X6778599Y7522590D03*
D20*
G01*
X6958584Y8102600D03*
G01*
X6958584Y7467600D03*
D18*
G01*
X6778599Y9012809D03*
G01*
X6778599Y8487790D03*
D20*
G01*
X6958584Y9067800D03*
G01*
X6958584Y8432800D03*
D21*
G01*
X6379634Y8332797D03*
D22*
G01*
X6379641Y8532799D03*
D23*
G01*
X6007905Y7151565D03*
D24*
G01*
X6217970Y7151573D03*
D23*
G01*
X6007905Y6846765D03*
D24*
G01*
X6217970Y6846773D03*
D25*
G01*
X2161920Y7714005D03*
G01*
X2161920Y8033994D03*
G01*
X1681937Y7714005D03*
G01*
X1681937Y8033994D03*
D26*
G01*
X6379634Y8964604D03*
D27*
G01*
X6379641Y8764600D03*
D26*
G01*
X6392334Y7821604D03*
D27*
G01*
X6392341Y7621600D03*
D28*
G01*
X6670139Y7150171D03*
G01*
X6470129Y7150171D03*
G01*
X6657439Y6845371D03*
G01*
X6457429Y6845371D03*
D29*
G01*
X2379141Y7937500D03*
G01*
X2379141Y7734300D03*
D30*
G01*
X1274241Y11912600D03*
D31*
G01*
X2143048Y9791750D03*
G01*
X2018004Y9791700D03*
G01*
X1893036Y9791700D03*
G01*
X1768068Y9791700D03*
G01*
X1643100Y9791700D03*
G01*
X1518132Y9791700D03*
G01*
X1393164Y9791700D03*
G01*
X1267942Y9791700D03*
D32*
G01*
X6639699Y13220903D03*
G01*
X6085700Y13220903D03*
G01*
X5029621Y13208203D03*
G01*
X4475622Y13208203D03*
G01*
X3453409Y13208203D03*
G01*
X2899410Y13208203D03*
G01*
X1877199Y13208203D03*
G01*
X1323200Y13208203D03*
D33*
G01*
X4089400Y12598400D03*
G01*
X3835400Y12598400D03*
G01*
X3581400Y12598400D03*
G01*
X4343400Y12598400D03*
D34*
G01*
X6011341Y11582400D03*
D35*
G01*
X6011334Y9296400D03*
D34*
G01*
X6011341Y9550400D03*
G01*
X6011341Y9804400D03*
G01*
X6011341Y10058400D03*
G01*
X6011341Y10312400D03*
G01*
X6011341Y10566400D03*
G01*
X6011341Y10820400D03*
G01*
X6011341Y11074400D03*
G01*
X6011341Y11328400D03*
D36*
G01*
X6032500Y12153900D03*
G01*
X6286500Y12153900D03*
G01*
X6540500Y12153900D03*
D37*
G01*
X3581400Y12204700D03*
G01*
X3835400Y12204700D03*
G01*
X4089400Y12204700D03*
G01*
X4343400Y12204700D03*
D36*
G01*
X4736084Y9316110D03*
G01*
X4486071Y9316110D03*
G01*
X4236084Y9316110D03*
G01*
X3976090Y9316110D03*
D33*
G01*
X4483100Y8966200D03*
G01*
X4229100Y8966200D03*
G01*
X3975100Y8966200D03*
G01*
X4737100Y8966200D03*
D38*
G01*
X6214745Y1717395D03*
G01*
X5350738Y1717395D03*
D39*
G01*
X5350738Y2137410D03*
G01*
X6214745Y2137384D03*
D38*
G01*
X2785745Y1742795D03*
G01*
X1921738Y1742795D03*
D39*
G01*
X1921738Y2162810D03*
G01*
X2785745Y2162784D03*
D40*
G01*
X1388541Y2792399D03*
G01*
X1388541Y2592400D03*
D36*
G01*
X5427141Y12700000D03*
G01*
X5681141Y12700000D03*
G01*
X2226741Y12725400D03*
G01*
X2480741Y12725400D03*
D41*
G01*
X2142363Y7414945D03*
G01*
X2019147Y8061782D03*
G01*
X3972788Y5893866D03*
G01*
X4697323Y4543602D03*
G01*
X2785745Y2664231D03*
G01*
X3213709Y6014669D03*
G01*
X2297455Y6497497D03*
G01*
X3873855Y9735591D03*
G01*
X4635500Y8242300D03*
G01*
X6288100Y4930241D03*
G01*
X5006797Y5943676D03*
G01*
X6068669Y7951596D03*
G01*
X6921881Y8301786D03*
G01*
X5206771Y3648557D03*
G01*
X1514424Y5564784D03*
G01*
X6097930Y3001619D03*
G01*
X4101541Y2816148D03*
G01*
X5488711Y5588863D03*
G01*
X2094179Y9993249D03*
G01*
X1681937Y7940217D03*
G01*
X5279974Y6300343D03*
G01*
X3107080Y4299686D03*
G01*
X3921226Y9642500D03*
G01*
X1433296Y12764287D03*
G01*
X2509138Y6238265D03*
G01*
X2463698Y5645378D03*
G01*
X2584145Y8282355D03*
G01*
X1892300Y8864600D03*
G01*
X1520012Y9993223D03*
G01*
X3148380Y5075681D03*
G01*
X1643100Y9993020D03*
G01*
X1605254Y4408322D03*
G01*
X1518843Y7929422D03*
D42*
G01*
X3153994Y2668625D03*
G01*
X3250336Y4448733D03*
D41*
G01*
X2817901Y7262190D03*
G01*
X2817901Y6986778D03*
G01*
X1100099Y4237736D03*
G01*
X1100099Y7592847D03*
G01*
X4858207Y6719646D03*
G01*
X4782134Y5206339D03*
G01*
X4790389Y6807200D03*
G01*
X4735626Y5281396D03*
G01*
X2237968Y4536795D03*
G01*
X3175279Y4147591D03*
G01*
X2232279Y5611748D03*
G01*
X2232279Y7237374D03*
D42*
G01*
X2356738Y2451074D03*
G01*
X2011425Y4016578D03*
D41*
G01*
X1353515Y4528057D03*
G01*
X1752701Y10906810D03*
G01*
X5427141Y11665788D03*
G01*
X4572000Y5080000D03*
G01*
X4477613Y10003002D03*
G01*
X2634208Y5382920D03*
G01*
X3202813Y7182713D03*
G01*
X1768068Y9590836D03*
G01*
X1770024Y9382404D03*
G01*
X1770024Y4977053D03*
G01*
X1964639Y9576409D03*
G01*
X1944166Y5061991D03*
G01*
X5961024Y3024251D03*
G01*
X6007912Y3275253D03*
G01*
X1668322Y3892143D03*
G01*
X1668322Y5426811D03*
G01*
X2020595Y4379163D03*
G01*
X5053380Y5001082D03*
G01*
X3125647Y5680252D03*
G01*
X3144367Y6532219D03*
G01*
X4223816Y7527493D03*
G01*
X4211878Y5483961D03*
G01*
X3328695Y5410174D03*
G01*
X4118965Y5440730D03*
G01*
X4118965Y5587009D03*
G01*
X5270601Y5995136D03*
G01*
X1423568Y5124246D03*
G01*
X1360500Y5229605D03*
G01*
X4724400Y9550400D03*
D43*
G01*
X2593847Y2324100D03*
G01*
X2159000Y2374900D03*
G01*
X6019800Y2374900D03*
G01*
X5549900Y2349500D03*
D41*
G01*
X5257800Y11328400D03*
D14*
G01*
X1638300Y9436100D03*
G01*
X2641650Y4775200D03*
G01*
X1574800Y8293100D03*
D13*
G01*
X1892300Y8077200D03*
G01*
X2019300Y7645400D03*
G01*
X1892300Y7772400D03*
M02*
